<?xml version="1.0" standalone="no"?>
<!DOCTYPE svg PUBLIC "-//W3C//DTD SVG 1.1//EN" "http://www.w3.org/Graphics/SVG/1.1/DTD/svg11.dtd" >
<svg xmlns="http://www.w3.org/2000/svg">
<metadata>Generated by IcoMoon</metadata>
<defs>
<font id="icomoon" horiz-adv-x="1024">
<font-face units-per-em="1024" ascent="960" descent="-64" />
<missing-glyph horiz-adv-x="1024" />
<glyph unicode="&#x20;" horiz-adv-x="512" d="" />
<glyph unicode="&#xe900;" glyph-name="Knowledge-Repository" horiz-adv-x="1152" d="M736 902.4h192v-326.4l-96 64-96-64zM1146.88 920.832l-24.96 7.552h-1.28c-20.48 5.675-41.6 10.731-63.36 15.168-10.24 1.92-21.12 3.776-32 5.696-32.639 5.091-65.549 8.254-98.56 9.472-14.080 0.64-28.16 1.28-42.88 1.28-92.354-5.11-183.205-25.617-268.8-60.672-1.186-0.028-2.322-0.482-3.2-1.28-8.32-3.136-16.64-6.4-24.32-9.472-3.952-1.419-7.801-3.108-11.52-5.056h-0.64c-3.439 2.062-7.086 3.757-10.88 5.056-7.68 3.136-16 6.4-24.32 9.472-0.878 0.798-2.014 1.252-3.2 1.28-85.595 35.055-176.446 55.562-268.8 60.672-14.72 0-28.8-0.64-42.88-1.28-33.011-1.218-65.921-4.381-98.56-9.472-10.88-1.92-21.76-3.776-32-5.696-21.76-4.267-42.88-9.323-63.36-15.168h-1.28l-24.96-7.552c-3.2-1.28-5.12-1.92-5.12-1.92v-947.584c0 0 1.92 0.64 5.12 1.92 4.48 1.28 13.44 4.416 24.96 7.552h1.28c20.802 6.301 41.959 11.366 63.36 15.168 9.6 2.496 20.48 3.776 32 5.696 32.639 5.091 65.549 8.254 98.56 9.472 14.080 0.64 28.8 0.64 42.88 0.64 83.069-7.371 164.943-24.756 243.84-51.776v0.64c8.32-2.496 16.64-5.696 24.96-8.832 1.186-0.028 2.322-0.482 3.2-1.28 8.311-2.604 16.437-5.769 24.32-9.472 3.795-1.297 7.442-2.992 10.88-5.056h0.64c3.589 2.208 7.466 3.909 11.52 5.056 7.68 3.136 16 6.4 24.32 9.472 0.878 0.798 2.014 1.252 3.2 1.28 7.68 3.157 16 6.315 24.96 9.472v-0.64c79 26.536 160.839 43.72 243.84 51.2 14.080 0 28.8 0 42.88-0.64 33.011-1.218 65.921-4.381 98.56-9.472 11.52-1.92 22.4-3.136 32-5.696 21.401-3.802 42.558-8.867 63.36-15.168h1.28c11.52-3.136 20.48-6.4 24.96-7.552 3.2-1.28 5.12-1.92 5.12-1.92v947.52c0 0-1.92 0.64-5.12 1.92zM512 94.528c-78.692 26.541-160.84 41.439-243.84 44.224-46.882 0.051-93.712-3.113-140.16-9.472v691.712c46.273 8.228 93.162 12.51 140.16 12.8 84.073-6.621 166.468-27.123 243.84-60.672v-678.592zM1024 129.28c-46.448 6.358-93.278 9.523-140.16 9.472-83-2.785-165.148-17.683-243.84-44.224v679.104c77.379 33.423 159.789 53.712 243.84 60.032 46.998-0.29 93.887-4.572 140.16-12.8v-691.584z" />
<glyph unicode="&#xe901;" glyph-name="Ease-of-use" horiz-adv-x="780" d="M691.931 402.164l-157.989 78.994c65.277 50.374 103.468 128.198 103.375 210.651 0.215 131.955-95.589 244.46-225.893 265.272s-256.385-56.256-297.282-181.714c-40.897-125.457 15.544-262.024 133.079-322.004v-158.964c-35.969 10.634-72.87 17.819-110.202 21.455-25.842-0.017-50.601-10.378-68.754-28.77l-68.267-69.242 248.198-248.198c21.229-21.54 50.214-33.661 80.457-33.646h307.2c47.685-0.161 88.413 34.365 96.061 81.433l39.010 229.669c10.751 63.453-21.344 126.456-78.994 155.063zM674.865 263.192l-39.010-229.669h-307.2c-4.363 0.152-8.523 1.885-11.703 4.876l-179.444 179.444 207.238-43.398v517.364c0 13.465 10.916 24.381 24.381 24.381s24.381-10.916 24.381-24.381v-292.571h85.821l168.716-84.358c19.293-9.498 30.162-30.445 26.819-51.688zM198.461 691.81c0 60.973 32.529 117.315 85.334 147.802s117.862 30.487 170.667 0c52.804-30.487 85.333-86.828 85.333-147.802 0.068-44.537-17.458-87.299-48.762-118.979v118.979c0 67.326-54.578 121.905-121.905 121.905s-121.905-54.579-121.905-121.905v-118.979c-31.304 31.68-48.829 74.442-48.762 118.979z" />
<glyph unicode="&#xe902;" glyph-name="Location" horiz-adv-x="717" d="M358.4 960c-198.144 0-358.4-160.256-358.4-358.4 0-268.8 358.4-665.6 358.4-665.6s358.4 396.8 358.4 665.6c0 198.144-160.256 358.4-358.4 358.4zM358.4 473.6c-70.656 0-128 57.344-128 128s57.344 128 128 128c70.656 0 128-57.344 128-128s-57.344-128-128-128z" />
<glyph unicode="&#xe903;" glyph-name="Building" horiz-adv-x="1138" d="M568.889 732.444v227.556h-568.889v-1024h1137.778v796.444h-568.889zM227.556 49.778h-113.778v113.778h113.778v-113.778zM227.556 277.333h-113.778v113.778h113.778v-113.778zM227.556 504.889h-113.778v113.778h113.778v-113.778zM227.556 732.444h-113.778v113.778h113.778v-113.778zM455.111 49.778h-113.778v113.778h113.778v-113.778zM455.111 277.333h-113.778v113.778h113.778v-113.778zM455.111 504.889h-113.778v113.778h113.778v-113.778zM455.111 732.444h-113.778v113.778h113.778v-113.778zM1024 49.778h-455.111v113.778h113.778v113.778h-113.778v113.778h113.778v113.778h-113.778v113.778h455.111v-568.889zM910.222 504.889h-113.778v-113.778h113.778v113.778zM910.222 277.333h-113.778v-113.778h113.778v113.778z" />
<glyph unicode="&#xe904;" glyph-name="Smart-audit-mode" d="M844.94 588.288l53.807-48.966-232.727-256-153.6 148.945 50.548 52.271 99.7-96.721zM0 773.818h93.091v-651.636h-93.091v651.636zM186.182 773.818h93.091v-651.636h-93.091v651.636zM977.455 773.818h-558.545c-25.706 0-46.545-20.839-46.545-46.545v-558.545c0-25.706 20.839-46.545 46.545-46.545h558.545c25.706 0 46.545 20.839 46.545 46.545v558.545c0 25.706-20.839 46.545-46.545 46.545zM930.909 215.273h-465.455v465.455h465.455v-465.455z" />
<glyph unicode="&#xe905;" glyph-name="Multi-format-data-extraction" d="M512-64c161.001-0.020 312.585 75.879 409.024 204.8l-111.68 64.448c-72.547-89.129-181.247-141.017-296.169-141.376s-223.944 50.847-297.047 139.52l-111.616-64.64c96.529-127.734 247.383-202.793 407.488-202.752v0zM0 448c-0.042-68.134 13.536-135.589 39.936-198.4l112.448 65.088c-40.050 106.703-30.426 225.707 26.249 324.588s154.495 167.334 266.807 186.708v129.344c-254.821-33.24-445.445-250.348-445.44-507.328v0zM573.376 955.968v-129.408c112.963-17.884 211.987-85.399 269.904-184.020s68.641-217.991 29.232-325.356l112.512-64.896c61.231 147.883 49.724 315.9-31.096 454.055s-221.638 230.525-380.552 249.625v0zM537.024 191.36h-50.88c-6.467-0.055-11.959 4.723-12.8 11.136l-5.696 44.8c-23.2 5.122-45.319 14.286-65.344 27.072l-37.056-26.944c-5.101-3.745-12.172-3.201-16.64 1.28l-35.84 35.968c-4.531 4.545-4.996 11.742-1.088 16.832l27.904 36.224c-12.804 20.038-22.029 42.148-27.264 65.344l-44.8 6.848c-6.311 0.957-10.952 6.417-10.881 12.8v51.2c-0.058 6.446 4.686 11.93 11.073 12.8l44.8 5.376c5.128 23.168 14.269 45.261 27.008 65.28l-26.944 37.184c-3.51 5.039-2.946 11.861 1.344 16.256l36.032 36.096c2.389 2.404 5.635 3.762 9.024 3.776 2.799-0.005 5.519-0.926 7.744-2.624l36.288-27.648c19.826 12.596 41.702 21.628 64.64 26.688l6.4 44.8c0.703 6.37 6.009 11.238 12.416 11.393h51.2c6.383 0.071 11.843-4.57 12.8-10.881l6.848-44.8c23.072-5.316 45.036-14.63 64.896-27.52l36.224 27.904c5.090 3.908 12.287 3.443 16.832-1.088l36.032-36.032c4.481-4.468 5.025-11.539 1.28-16.64l-27.008-36.8c12.739-20.042 21.879-42.156 27.008-65.344l44.8-6.4c6.514-0.721 11.432-6.246 11.393-12.8v-51.2c0.071-6.383-4.57-11.843-10.881-12.8l-44.8-6.848c-5.316-23.072-14.63-45.036-27.52-64.896l27.648-36.224c3.908-5.090 3.443-12.287-1.088-16.832l-35.84-35.968c-2.389-2.404-5.635-3.762-9.024-3.776-2.74-0.005-5.41 0.87-7.616 2.496l-36.8 26.88c-20.204-12.956-42.544-22.23-65.984-27.392l-6.848-45.184c-1.433-5.95-6.877-10.054-12.992-9.792v0zM512 575.936c-70.692 0-128-57.308-128-128s57.308-128 128-128c70.692 0 128 57.308 128 128s-57.308 128-128 128z" />
<glyph unicode="&#xe906;" d="M204.8 579.942v-3.072l-3.072 1.536z" />
<glyph unicode="&#xe907;" d="M822.784 578.406l-3.584-2.048v4.096z" />
<glyph unicode="&#xe908;" d="M512 857.6l-512-279.194 204.8-111.667v-356.557c100.757-42.431 208.227-66.698 317.44-71.68 102.835 3.426 203.886 27.817 296.96 71.68v356.557l204.8 111.667-512 279.194zM718.848 178.79c-63.064-23.148-129.458-35.942-196.608-37.888-73.812 2.584-146.818 16.236-216.576 40.499v230.042l206.336-112.64 206.848 113.203v-233.216zM769.024 549.222l-92.672-50.739-164.352-89.651-310.272 169.574 3.072 1.536 307.2 168.038 310.784-169.574-3.584-2.048-50.176-27.136z" />
<glyph unicode="&#xe909;" d="M1003.52 191.181h-153.6l51.2 102.4v281.6h51.2v-281.6z" />
<glyph unicode="&#xe90a;" glyph-name="Data-Extraction" d="M577.408 830.656c162.131-26.324 289.611-152.776 317.248-314.688h129.344c-29.471 232.888-213.539 415.901-446.592 444.032v-129.344zM894.080 385.728c-32.499-193.195-204.761-331.271-400.398-320.937s-352.394 165.79-364.359 361.334c-11.964 195.544 124.671 368.951 317.589 403.059v129.856c-264.419-34.975-458.091-266.488-445.819-532.928s226.403-479.171 492.918-489.693c266.514-10.522 496.751 184.665 529.99 449.308h-129.92z" />
<glyph unicode="&#xe90b;" glyph-name="Data-Curation" horiz-adv-x="819" d="M768.614 704c19.393 0 37.122-10.957 45.795-28.303s6.801-38.103-4.835-53.617l-246.17-329.882v-202.598c0-84.831-68.769-153.6-153.6-153.6s-153.6 68.769-153.6 153.6v202.65l-245.965 329.83c-11.636 15.515-13.508 36.272-4.835 53.617s26.402 28.303 45.794 28.303h717.415zM665.6 601.19h-519.629l212.736-276.070v-235.52c0-28.277 22.923-51.2 51.2-51.2s51.2 22.923 51.2 51.2v0 237.414l204.493 274.176zM0 851.405l108.612 108.612 108.612-108.612-108.612-108.612-108.612 108.612zM512 857.6c0-56.554-45.846-102.4-102.4-102.4s-102.4 45.846-102.4 102.4c0 56.554 45.846 102.4 102.4 102.4s102.4-45.846 102.4-102.4zM665.6 960l102.4-163.84h-204.8z" />
<glyph unicode="&#xe90c;" glyph-name="Zoom-out" d="M711.111 334.222h-44.942l-15.929 15.36c55.751 64.853 89.316 149.049 89.316 240.64 0 204.231-165.547 369.778-369.778 369.778s-369.778-165.547-369.778-369.778c0-204.231 165.547-369.778 369.778-369.778 91.591 0 175.787 33.564 240.64 89.316l15.36-15.929v-44.942l284.444-283.876 84.764 84.764-283.876 284.444zM369.778 334.222c-141.653 0-256 114.347-256 256s114.347 256 256 256c141.653 0 256-114.347 256-256s-114.347-256-256-256zM227.556 618.667h284.444v-56.889h-284.444v56.889z" />
<glyph unicode="&#xe90d;" glyph-name="Zoom-in" d="M711.111 334.222h-44.942l-15.929 15.36c55.751 64.853 89.316 149.049 89.316 240.64 0 204.231-165.547 369.778-369.778 369.778s-369.778-165.547-369.778-369.778c0-204.231 165.547-369.778 369.778-369.778 91.591 0 175.787 33.564 240.64 89.316l15.36-15.929v-44.942l284.444-283.876 84.764 84.764-283.876 284.444zM369.778 334.222c-141.653 0-256 114.347-256 256s114.347 256 256 256c141.653 0 256-114.347 256-256s-114.347-256-256-256zM512 561.778h-113.778v-113.778h-56.889v113.778h-113.778v56.889h113.778v113.778h56.889v-113.778h113.778z" />
<glyph unicode="&#xe90e;" glyph-name="Work" d="M665.6 448v-51.2h256v-102.4h-256v-51.2h-307.2v51.2h-256v102.4h256v51.2h307.2zM614.4 729.6v102.4h-204.8v-102.4h204.8zM102.4 627.2v-563.2h819.2v563.2h-819.2zM921.6 729.6c56.832 0 102.4-45.568 102.4-102.4v-563.2c0-56.832-45.568-102.4-102.4-102.4h-819.2c-56.832 0-102.4 45.568-102.4 102.4l0.512 563.2c0 56.832 45.056 102.4 101.888 102.4h204.8v102.4c0 56.832 45.568 102.4 102.4 102.4h204.8c56.832 0 102.4-45.568 102.4-102.4v-102.4h204.8z" />
<glyph unicode="&#xe90f;" glyph-name="View-Less" d="M460.8 499.2h-204.8v-102.4h512v102.4h-307.2zM512 960c-282.624 0-512-229.376-512-512s229.376-512 512-512c282.624 0 512 229.376 512 512s-229.376 512-512 512zM512 38.4c-225.792 0-409.6 183.808-409.6 409.6s183.808 409.6 409.6 409.6c225.792 0 409.6-183.808 409.6-409.6s-183.808-409.6-409.6-409.6z" />
<glyph unicode="&#xe910;" glyph-name="Upload" d="M910.222 448v-398.222h-796.444v398.222h-113.778v-398.222c0-62.578 51.2-113.778 113.778-113.778h796.444c62.578 0 113.778 51.2 113.778 113.778v398.222h-113.778zM568.889 742.116l147.342-146.773 80.213 80.213-284.444 284.444-284.444-284.444 80.213-80.213 147.342 146.773v-550.116h113.778v550.116z" />
<glyph unicode="&#xe911;" glyph-name="Upload-file" horiz-adv-x="819" d="M567.203 960l252.093-260.963v-46.808l-0.096 0.008v-665.037c0-28.277-22.923-51.2-51.2-51.2h-716.8c-28.277 0-51.2 22.923-51.2 51.2v921.6c0 28.277 22.923 51.2 51.2 51.2h516.003zM512 857.6h-409.6v-819.2h614.4v613.837l-204.8-0.008v205.371zM409.6 550.4l153.6-151.704-43.315-42.78-79.565 78.279v-293.395h-61.44v293.395l-79.565-78.279-43.315 42.78 153.6 151.704z" />
<glyph unicode="&#xe912;" glyph-name="Unlock" d="M512 179.81c53.638 0 97.524 43.886 97.524 97.524s-43.886 97.524-97.524 97.524c-53.638 0-97.524-43.886-97.524-97.524s43.886-97.524 97.524-97.524zM804.571 618.667h-48.762v97.524c0 134.583-109.227 243.81-243.81 243.81s-243.81-109.227-243.81-243.81h92.648c0 83.383 67.779 151.162 151.162 151.162s151.162-67.779 151.162-151.162v-97.524h-443.733c-53.638 0-97.524-43.886-97.524-97.524v-487.619c0-53.638 43.886-97.524 97.524-97.524h585.143c53.638 0 97.524 43.886 97.524 97.524v487.619c0 53.638-43.886 97.524-97.524 97.524zM804.571 33.524h-585.143v487.619h585.143v-487.619z" />
<glyph unicode="&#xe913;" glyph-name="Tools" d="M552.798 573.797l402.265-402.265c44.433-44.433 44.433-116.473 0-160.906s-116.473-44.433-160.906 0l-402.265 402.265 160.906 160.906zM834.384 131.305c-22.216-22.216-22.216-58.237 0-80.453s58.237-22.216 80.453 0c22.216 22.216 22.216 58.237 0 80.453s-58.237 22.216-80.453 0zM231.605 894.953c102.079 40.013 222.618 18.778 305.103-63.707 111.082-111.082 111.082-291.183 0-402.265s-291.183-111.082-402.265 0c-82.469 82.469-103.712 202.979-63.729 305.045l134.721-134.678c44.433-44.433 116.473-44.433 160.906 0s44.433 116.473 0 160.906v0z" />
<glyph unicode="&#xe914;" glyph-name="Tick" d="M341.333 209.067l-238.933 238.933-79.644-79.644 318.578-318.578 682.667 682.667-79.644 79.644z" />
<glyph unicode="&#xe915;" glyph-name="Thumb-up" d="M0-7.111h170.667v568.889h-170.667v-568.889zM1024 493.511c0 50.062-41.6 91.022-92.444 91.022h-291.662l43.911 207.986 1.387 14.564c0 18.66-7.858 35.954-20.338 48.242l-48.996 47.787-304.142-299.918c-17.102-16.384-27.271-39.14-27.271-64.171v-455.111c0-50.062 41.6-91.022 92.444-91.022h416c38.364 0 71.182 22.756 85.049 55.524l139.591 320.853c4.16 10.468 6.471 21.39 6.471 33.223v91.022z" />
<glyph unicode="&#xe916;" glyph-name="Thumb-down" d="M597.333 903.111h-384c-35.413 0-65.707-22.756-78.507-55.524l-128.853-320.853c-3.84-10.468-5.973-21.39-5.973-33.223v-91.022c0-50.062 38.4-91.022 85.333-91.022h269.227l-40.533-207.986-1.28-14.564c0-18.66 7.253-35.954 18.773-48.242l45.227-47.787 281.173 299.918c15.36 16.384 24.747 39.14 24.747 64.171v455.111c0 50.062-38.4 91.022-85.333 91.022zM796.444 903.111v-455.111h227.556v455.111h-227.556z" />
<glyph unicode="&#xe917;" glyph-name="Share" horiz-adv-x="922" d="M768 239.104c-38.912 0-73.728-15.36-100.352-39.424l-365.056 212.48c2.56 11.776 4.608 23.552 4.608 35.84s-2.048 24.064-4.608 35.84l360.96 210.432c27.648-25.6 64-41.472 104.448-41.472 84.992 0 153.6 68.608 153.6 153.6s-68.608 153.6-153.6 153.6c-84.992 0-153.6-68.608-153.6-153.6 0-12.288 2.048-24.064 4.608-35.84l-360.96-210.432c-27.648 25.6-64 41.472-104.448 41.472-84.992 0-153.6-68.608-153.6-153.6s68.608-153.6 153.6-153.6c40.448 0 76.8 15.872 104.448 41.472l364.544-212.992c-2.56-10.752-4.096-22.016-4.096-33.28 0-82.432 67.072-149.504 149.504-149.504s149.504 67.072 149.504 149.504c0 82.432-67.072 149.504-149.504 149.504z" />
<glyph unicode="&#xe918;" glyph-name="Settings2" d="M561.284 960c12.654 0 23.409-9.245 25.31-21.755l13.707-90.187c47.091-10.347 91.146-28.796 130.628-53.813l72.321 55.191c10.192 7.782 24.57 6.822 33.637-2.245l72.001-72.001c8.948-8.948 10.016-23.090 2.513-33.28l-54.128-73.455c25.2-39.386 43.845-83.369 54.398-130.411l90.131-12.131c12.71-1.704 22.198-12.549 22.198-25.373v-101.824c0-12.654-9.245-23.409-21.755-25.31l-90.187-13.707c-10.347-47.091-28.796-91.146-53.813-130.628l55.191-72.321c7.782-10.192 6.822-24.57-2.245-33.637l-72.001-72.001c-8.948-8.948-23.090-10.016-33.28-2.513l-73.455 54.128c-39.872-25.511-84.456-44.305-132.155-54.785l-13.707-90.187c-1.663-10.946-10.105-19.393-20.667-21.334l-4.643-0.422h-101.824c-11.221 0-20.926 7.264-24.319 17.595l-1.054 4.603-12.131 90.131c-47.042 10.553-91.025 29.198-130.411 54.398l-73.455-54.128c-8.916-6.564-20.858-6.567-29.699-0.471l-3.581 2.985-72.001 72.001c-7.934 7.934-9.661 19.934-4.755 29.638l2.51 4 55.191 72.321c-25.017 39.482-43.466 83.537-53.813 130.628l-90.187 13.707c-10.946 1.663-19.393 10.105-21.334 20.667l-0.422 4.643v101.824c0 11.221 7.264 20.926 17.595 24.319l4.603 1.054 90.131 12.131c10.553 47.042 29.198 91.025 54.398 130.411l-54.128 73.455c-6.564 8.916-6.567 20.858-0.471 29.699l2.985 3.581 72.001 72.001c7.934 7.934 19.934 9.661 29.638 4.755l4-2.51 72.321-55.191c38.994 24.708 82.449 43.009 128.884 53.426l12.131 90.131c1.704 12.71 12.549 22.198 25.373 22.198h101.824zM512 755.2c-169.662 0-307.2-137.538-307.2-307.2s137.538-307.2 307.2-307.2c169.662 0 307.2 137.538 307.2 307.2s-137.538 307.2-307.2 307.2zM512 652.8c113.108 0 204.8-91.692 204.8-204.8s-91.692-204.8-204.8-204.8c-113.108 0-204.8 91.692-204.8 204.8s91.692 204.8 204.8 204.8zM512 550.4c-56.554 0-102.4-45.846-102.4-102.4s45.846-102.4 102.4-102.4c56.554 0 102.4 45.846 102.4 102.4s-45.846 102.4-102.4 102.4z" />
<glyph unicode="&#xe919;" glyph-name="Search" d="M711.111 334.222h-44.942l-15.929 15.36c55.751 64.853 89.316 149.049 89.316 240.64 0 204.231-165.547 369.778-369.778 369.778s-369.778-165.547-369.778-369.778c0-204.231 165.547-369.778 369.778-369.778 91.591 0 175.787 33.564 240.64 89.316l15.36-15.929v-44.942l284.444-283.876 84.764 84.764-283.876 284.444zM369.778 334.222c-141.653 0-256 114.347-256 256s114.347 256 256 256c141.653 0 256-114.347 256-256s-114.347-256-256-256z" />
<glyph unicode="&#xe91a;" glyph-name="Save" d="M796.444 960h-682.667c-63.147 0-113.778-51.2-113.778-113.778v-796.444c0-62.578 50.631-113.778 113.778-113.778h796.444c62.578 0 113.778 51.2 113.778 113.778v682.667l-227.556 227.556zM512 49.778c-94.436 0-170.667 76.231-170.667 170.667s76.231 170.667 170.667 170.667c94.436 0 170.667-76.231 170.667-170.667s-76.231-170.667-170.667-170.667zM682.667 618.667h-568.889v227.556h568.889v-227.556z" />
<glyph unicode="&#xe91b;" glyph-name="Resubmit-Feedback" d="M512 934.4l108.976-256.774c-28.447-2.325-55.432-9.818-80.013-21.538l-28.964 68.392-61.148-144.887c-13.085-18.772-23.446-39.584-30.512-61.863l-219.636-19.042 169.984-147.456-51.2-219.136 192.512 116.224 193.024-116.736-21.063 90.205c27.829 5.376 53.874 15.761 77.159 30.178l67.297-290.367-316.416 190.976-316.416-190.976 83.968 359.936-279.552 242.176 368.128 31.232 143.872 339.456zM828.465 580.567l195.535-16.855-154.313-133.972c0.472 6.025 0.713 12.114 0.713 18.26 0 49.35-15.516 95.076-41.935 132.567zM640 652.8c113.108 0 204.8-91.692 204.8-204.8s-91.692-204.8-204.8-204.8c-113.108 0-204.8 91.692-204.8 204.8s91.692 204.8 204.8 204.8zM537.6 499.2v-102.4h92.16l-37.069 41.188c14.234 13.198 32.358 21.39 52.429 21.39 36.25 0 62.259-26.144 73.011-62.439l24.269 8.875c-14.234 47.673-49.664 82.009-97.28 82.009-27.136 0-51.712-11.264-70.656-29.582l-36.864 40.96z" />
<glyph unicode="&#xe91c;" glyph-name="Reject" d="M512 960c-282.624 0-512-229.376-512-512s229.376-512 512-512c282.624 0 512 229.376 512 512s-229.376 512-512 512zM512 38.4c-226.304 0-409.6 183.296-409.6 409.6 0 94.72 32.256 181.76 86.528 250.88l573.952-573.952c-69.12-54.272-156.16-86.528-250.88-86.528zM835.072 197.12l-573.952 573.952c69.12 54.272 156.16 86.528 250.88 86.528 226.304 0 409.6-183.296 409.6-409.6 0-94.72-32.256-181.76-86.528-250.88z" />
<glyph unicode="&#xe91d;" glyph-name="Refesh" d="M837.818 634.182l-186.182-186.182h139.636c0-154.065-125.207-279.273-279.273-279.273-47.011 0-91.695 11.636-130.327 32.582l-67.956-67.956c57.251-36.305 125.207-57.716 198.284-57.716 205.731 0 372.364 166.633 372.364 372.364h139.636l-186.182 186.182zM232.727 448c0 154.065 125.207 279.273 279.273 279.273 47.011 0 91.695-11.636 130.327-32.582l67.956 67.956c-57.251 36.305-125.207 57.716-198.284 57.716-205.731 0-372.364-166.633-372.364-372.364h-139.636l186.182-186.182 186.182 186.182h-139.636z" />
<glyph unicode="&#xe91e;" glyph-name="Push-to-database" d="M430.581 860.444c-193.479 0-316.928-66.788-316.928-112.754s123.449-112.754 316.928-112.754c193.479 0 316.928 66.788 316.928 112.754s-123.449 112.754-316.928 112.754zM430.581 549.604c-229.319 0-402.261 85.163-402.261 198.087s172.942 198.087 402.261 198.087c229.319 0 402.261-85.163 402.261-198.087s-172.942-198.087-402.261-198.087zM113.636 448.887c0 0 0.057 0 0.057 0h-85.333c0 0-0.057 0-0.057 0 0-102.684 143.36-182.215 341.845-195.755 2.731 29.696 9.785 58.084 20.196 84.764-169.7 8.59-276.708 68.38-276.708 110.99zM430.859 37.387h-0.284c-193.422 0-316.871 66.788-316.871 112.754h-85.333c0-112.924 172.885-198.087 402.204-198.087 30.891 0 60.644 1.65 89.145 4.608-34.588 20.992-64.74 48.412-88.86 80.725zM832.859 747.696c0 23.552-19.115 42.667-42.667 42.667s-42.667-19.115-42.667-42.667v-217.828c30.322-6.485 58.994-17.351 85.333-31.972v249.799zM70.969 107.497c-23.552 0-42.667 19.115-42.667 42.667v597.504c0 23.552 19.115 42.667 42.667 42.667s42.667-19.115 42.667-42.667v-597.504c0-23.552-19.115-42.667-42.667-42.667zM681.58 428.527c-112.697 0-204.459-91.705-204.459-204.402 0-112.754 91.762-204.459 204.459-204.459s204.402 91.705 204.402 204.459c0 112.697-91.705 204.402-204.402 204.402zM681.58-37.222c-144.1 0-261.348 117.248-261.348 261.348s117.248 261.291 261.348 261.291c144.043 0 261.291-117.191 261.291-261.291s-117.248-261.348-261.291-261.348zM596.582 222.834c-7.282 0-14.564 2.788-20.139 8.306-11.093 11.15-11.093 29.127 0 40.277l84.252 84.139c11.093 11.093 29.127 11.093 40.22 0s11.093-29.127 0-40.22l-84.196-84.196c-5.575-5.518-12.857-8.306-20.139-8.306zM766.527 221.275c-7.282 0-14.564 2.788-20.139 8.306l-85.675 85.732c-11.15 11.15-11.15 29.127 0 40.22 11.093 11.15 29.070 11.15 40.22 0l85.732-85.675c11.093-11.15 11.093-29.127 0-40.277-5.575-5.518-12.857-8.306-20.139-8.306zM680.801 76.999c-15.701 0-28.444 12.743-28.444 28.444v197.291c0 15.701 12.743 28.444 28.444 28.444s28.444-12.743 28.444-28.444v-197.291c0-15.701-12.743-28.444-28.444-28.444z" />
<glyph unicode="&#xe91f;" glyph-name="Print" d="M870.4 652.8h-716.8c-84.992 0-153.6-68.608-153.6-153.6v-307.2h204.8v-204.8h614.4v204.8h204.8v307.2c0 84.992-68.608 153.6-153.6 153.6zM716.8 89.6h-409.6v256h409.6v-256zM870.4 448c-28.16 0-51.2 23.040-51.2 51.2s23.040 51.2 51.2 51.2c28.16 0 51.2-23.040 51.2-51.2s-23.040-51.2-51.2-51.2zM819.2 908.8h-614.4v-204.8h614.4v204.8z" />
<glyph unicode="&#xe920;" glyph-name="Power" d="M568.889 960h-113.778v-568.889h113.778v568.889zM843.662 836.551l-80.782-80.782c89.884-72.249 147.342-183.182 147.342-307.769 0-220.16-178.062-398.222-398.222-398.222s-398.222 178.062-398.222 398.222c0 124.587 57.458 235.52 146.773 308.338l-80.213 80.213c-110.364-93.867-180.338-232.676-180.338-388.551 0-282.738 229.262-512 512-512s512 229.262 512 512c0 155.876-69.973 294.684-180.338 388.551z" />
<glyph unicode="&#xe921;" glyph-name="Merge-line-with-previous-line" d="M0 960h1024v-128h-1024v128zM0 704h1024v-128h-1024v128zM609.344-64v330.88l168.384-166.4 90.24 90.24-322.624 321.28-321.28-321.408 90.24-90.24 167.040 166.528v-330.88z" />
<glyph unicode="&#xe922;" glyph-name="Map-preferences" d="M124.121 541.091h62.061v-186.182h-62.061v186.182zM31.030 479.030h155.152v-62.061h-155.152c-17.138 0-31.030 13.893-31.030 31.030s13.893 31.030 31.030 31.030zM434.424 727.273h-62.061v-186.182h62.061v186.182zM527.515 665.212h-155.152v-62.061h155.152c17.138 0 31.030 13.893 31.030 31.030s-13.893 31.030-31.030 31.030zM31.030 665.212h279.273v-62.061h-279.273c-17.138 0-31.030 13.893-31.030 31.030s13.893 31.030 31.030 31.030zM279.273 354.909h-62.061v-186.182h62.061v186.182zM527.515 292.848h-248.242v-62.061h248.242c17.138 0 31.030 13.893 31.030 31.030s-13.893 31.030-31.030 31.030zM31.030 292.848h155.152v-62.061h-155.152c-17.138 0-31.030 13.893-31.030 31.030s13.893 31.030 31.030 31.030zM527.515 479.030h-279.273v-62.061h279.273c17.138 0 31.030 13.893 31.030 31.030s-13.893 31.030-31.030 31.030zM994.832 518.542l-94.953-94.746-94.953 94.746-29.168-29.168 124.121-124.121 124.121 124.121z" />
<glyph unicode="&#xe923;" glyph-name="Lock" d="M512 179.81c53.638 0 97.524 43.886 97.524 97.524s-43.886 97.524-97.524 97.524c-53.638 0-97.524-43.886-97.524-97.524s43.886-97.524 97.524-97.524zM804.571 618.667h-48.762v97.524c0 134.583-109.227 243.81-243.81 243.81s-243.81-109.227-243.81-243.81v-97.524h97.703v97.524c0 83.383 62.724 151.162 146.106 151.162s151.162-67.779 151.162-151.162v-97.524h-443.733c-53.638 0-97.524-43.886-97.524-97.524v-487.619c0-53.638 43.886-97.524 97.524-97.524h585.143c53.638 0 97.524 43.886 97.524 97.524v487.619c0 53.638-43.886 97.524-97.524 97.524zM804.571 33.524h-585.143v487.619h585.143v-487.619z" />
<glyph unicode="&#xe924;" d="M1024 448c0-282.77-229.23-512-512-512s-512 229.23-512 512c0 282.77 229.23 512 512 512s512-229.23 512-512z" />
<glyph unicode="&#xe925;" d="M512 675.556c15.709 0 28.444-12.735 28.444-28.444v-398.222c0-15.709-12.735-28.444-28.444-28.444s-28.444 12.735-28.444 28.444v398.222c0 15.709 12.735 28.444 28.444 28.444z" />
<glyph unicode="&#xe926;" d="M312.889 476.444h398.222c15.709 0 28.444-12.735 28.444-28.444s-12.735-28.444-28.444-28.444h-398.222c-15.709 0-28.444 12.735-28.444 28.444s12.735 28.444 28.444 28.444z" />
<glyph unicode="&#xe927;" glyph-name="Help" d="M460.8 140.8h102.4v102.4h-102.4v-102.4zM512 960c-282.624 0-512-229.376-512-512s229.376-512 512-512c282.624 0 512 229.376 512 512s-229.376 512-512 512zM512 38.4c-225.792 0-409.6 183.808-409.6 409.6s183.808 409.6 409.6 409.6c225.792 0 409.6-183.808 409.6-409.6s-183.808-409.6-409.6-409.6zM512 755.2c-113.152 0-204.8-91.648-204.8-204.8h102.4c0 56.32 46.080 102.4 102.4 102.4s102.4-46.080 102.4-102.4c0-102.4-153.6-89.6-153.6-256h102.4c0 115.2 153.6 128 153.6 256 0 113.152-91.648 204.8-204.8 204.8z" />
<glyph unicode="&#xe928;" glyph-name="Edit" d="M0 149.333v-213.333h213.333l629.191 629.191-213.333 213.333-629.191-629.191zM1007.502 730.169c22.187 22.187 22.187 58.027 0 80.213l-133.12 133.12c-22.187 22.187-58.027 22.187-80.213 0l-104.107-104.107 213.333-213.333 104.107 104.107z" />
<glyph unicode="&#xe929;" glyph-name="Drag-indicator" d="M448 64c0-70.4-57.6-128-128-128s-128 57.6-128 128c0 70.4 57.6 128 128 128s128-57.6 128-128zM320 576c-70.4 0-128-57.6-128-128s57.6-128 128-128c70.4 0 128 57.6 128 128s-57.6 128-128 128zM320 960c-70.4 0-128-57.6-128-128s57.6-128 128-128c70.4 0 128 57.6 128 128s-57.6 128-128 128zM704 704c70.4 0 128 57.6 128 128s-57.6 128-128 128c-70.4 0-128-57.6-128-128s57.6-128 128-128zM704 576c-70.4 0-128-57.6-128-128s57.6-128 128-128c70.4 0 128 57.6 128 128s-57.6 128-128 128zM704 192c-70.4 0-128-57.6-128-128s57.6-128 128-128c70.4 0 128 57.6 128 128s-57.6 128-128 128z" />
<glyph unicode="&#xe92a;" glyph-name="Download" d="M910.222 448v-398.222h-796.444v398.222h-113.778v-398.222c0-62.578 51.2-113.778 113.778-113.778h796.444c62.578 0 113.778 51.2 113.778 113.778v398.222h-113.778zM568.889 409.884l147.342 146.773 80.213-80.213-284.444-284.444-284.444 284.444 80.213 80.213 147.342-146.773v550.116h113.778v-550.116z" />
<glyph unicode="&#xe92b;" glyph-name="Download-file" horiz-adv-x="819" d="M567.203 960l252.093-260.963v-46.808l-0.096 0.008v-665.037c0-28.277-22.923-51.2-51.2-51.2h-716.8c-28.277 0-51.2 22.923-51.2 51.2v921.6c0 28.277 22.923 51.2 51.2 51.2h516.003zM512 857.6h-409.6v-819.2h614.4v613.837l-204.8-0.008v205.371zM440.32 550.4v-293.395l79.565 78.279 43.315-42.78-153.6-151.704-153.6 151.704 43.315 42.78 79.565-78.279v293.395h61.44z" />
<glyph unicode="&#xe92c;" glyph-name="Delete" d="M170.667 49.778c0-62.578 51.2-113.778 113.778-113.778h455.111c62.578 0 113.778 51.2 113.778 113.778v682.667h-682.667v-682.667zM284.444 618.667h455.111v-568.889h-455.111v568.889zM455.111 504.889v-341.333h-56.889v341.333h56.889zM625.778 504.889v-341.333h-56.889v341.333h56.889zM654.222 960l56.889-56.889h199.111v-113.778h-796.444v113.778h199.111l56.889 56.889h284.444z" />
<glyph unicode="&#xe92d;" glyph-name="Cloud-upload" d="M825.6 531.627c-29.013 147.2-158.293 257.707-313.6 257.707-123.307 0-230.4-69.973-283.733-172.373-128.427-13.653-228.267-122.453-228.267-254.293 0-141.227 114.773-256 256-256h554.667c117.76 0 213.333 95.573 213.333 213.333 0 112.64-87.467 203.947-198.4 211.627zM810.667 192h-554.667c-94.293 0-170.667 76.373-170.667 170.667s76.373 170.667 170.667 170.667h30.293c28.16 98.56 118.187 170.667 225.707 170.667 129.707 0 234.667-104.96 234.667-234.667v-21.333h64c70.827 0 128-57.173 128-128s-57.173-128-128-128zM537.6 514.446l66.304-58.709 36.096 32.085-128 113.778-128-113.778 36.096-32.085 66.304 58.709v-220.046h51.2z" />
<glyph unicode="&#xe92e;" glyph-name="Cloud-download" d="M825.6 531.627c-29.013 147.2-158.293 257.707-313.6 257.707-123.307 0-230.4-69.973-283.733-172.373-128.427-13.653-228.267-122.453-228.267-254.293 0-141.227 114.773-256 256-256h554.667c117.76 0 213.333 95.573 213.333 213.333 0 112.64-87.467 203.947-198.4 211.627zM810.667 192h-554.667c-94.293 0-170.667 76.373-170.667 170.667s76.373 170.667 170.667 170.667h30.293c28.16 98.56 118.187 170.667 225.707 170.667 129.707 0 234.667-104.96 234.667-234.667v-21.333h64c70.827 0 128-57.173 128-128s-57.173-128-128-128zM537.6 381.554l66.304 58.709 36.096-32.085-128-113.778-128 113.778 36.096 32.085 66.304-58.709v220.046h51.2z" />
<glyph unicode="&#xe92f;" glyph-name="Clear" d="M1024 856.869l-103.131 103.131-408.869-408.869-408.869 408.869-103.131-103.131 408.869-408.869-408.869-408.869 103.131-103.131 408.869 408.869 408.869-408.869 103.131 103.131-408.869 408.869z" />
<glyph unicode="&#xe930;" glyph-name="Clear_border" d="M644.608 652.8l-132.608-132.608-132.608 132.608-72.192-72.192 132.608-132.608-132.608-132.608 72.192-72.192 132.608 132.608 132.608-132.608 72.192 72.192-132.608 132.608 132.608 132.608-72.192 72.192zM512 960c-283.136 0-512-228.864-512-512s228.864-512 512-512c283.136 0 512 228.864 512 512s-228.864 512-512 512zM512 38.4c-225.792 0-409.6 183.808-409.6 409.6s183.808 409.6 409.6 409.6c225.792 0 409.6-183.808 409.6-409.6s-183.808-409.6-409.6-409.6z" />
<glyph unicode="&#xe931;" glyph-name="Clear-All" d="M512 960c59.981 0 109.122-46.414 113.466-105.286l0.028-1.494 0.284-0.052-0.228-1.541v-0.114l0.114-2.446 0.114-2.844c0-11.261-1.636-22.139-4.683-32.411l-21.406-179.538c138.839-24.011 204.929-103.62 209.582-163.518 2.323-29.908 1.686-137.389-25.891-137.389v0h-271.38c-119.234 0.621-200.364 0.986-243.388 1.094l-22.107 0.034c-48.991 0-33.499 106.591-31.017 136.261 6.344 75.824 71.495 145.285 211.436 165.064l-23.145 175.183c-3.607 11.090-5.556 22.927-5.556 35.219 0 1.866 0.045 3.722 0.134 5.566l-0.134 1.38c3.814 59.619 53.282 106.832 113.778 106.832zM512 903.111c-31.419 0-56.889-25.47-56.889-56.889s25.47-56.889 56.889-56.889c31.419 0 56.889 25.47 56.889 56.889s-25.47 56.889-56.889 56.889zM256 277.333h512c15.709 0 28.444-12.735 28.444-28.444v-284.444c0-15.709-12.735-28.444-28.444-28.444h-77.528c-11.183 0-21.329 6.553-25.928 16.747l-33.876 75.084-31.599-74.494c-4.458-10.51-14.769-17.337-26.186-17.337h-85.986c-12.135 0-22.934 7.699-26.89 19.17l-39.858 115.568-46.074-116.737c-4.288-10.863-14.78-18.002-26.458-18.002h-91.617c-15.709 0-28.444 12.735-28.444 28.444v284.444c0 15.709 12.735 28.444 28.444 28.444z" />
<glyph unicode="&#xe932;" glyph-name="Add" d="M1024 374.857h-438.857v-438.857h-146.286v438.857h-438.857v146.286h438.857v438.857h146.286v-438.857h438.857z" />
<glyph unicode="&#xe933;" glyph-name="Add_Circle" d="M563.2 704h-102.4v-204.8h-204.8v-102.4h204.8v-204.8h102.4v204.8h204.8v102.4h-204.8v204.8zM512 960c-282.624 0-512-229.376-512-512s229.376-512 512-512c282.624 0 512 229.376 512 512s-229.376 512-512 512zM512 38.4c-225.792 0-409.6 183.808-409.6 409.6s183.808 409.6 409.6 409.6c225.792 0 409.6-183.808 409.6-409.6s-183.808-409.6-409.6-409.6z" />
<glyph unicode="&#xe934;" glyph-name="Add-file" horiz-adv-x="819" d="M567.203 960l252.093-260.963v-46.808l-0.096 0.008v-665.037c0-28.277-22.923-51.2-51.2-51.2h-716.8c-28.277 0-51.2 22.923-51.2 51.2v921.6c0 28.277 22.923 51.2 51.2 51.2h516.003zM512 857.6h-409.6v-819.2h614.4v613.837l-204.8-0.008v205.371zM450.56 550.4v-163.84h163.84v-81.92h-163.84v-163.84h-81.92v163.84h-163.84v81.92h163.84v163.84h81.92z" />
<glyph unicode="&#xe935;" glyph-name="Star_Filled" horiz-adv-x="1078" d="M1077.895 569.802l-387.503 33.415-151.444 356.783-151.444-357.322-387.503-32.876 294.265-254.922-88.387-378.88 333.069 201.027 333.069-201.027-87.848 378.88z" />
<glyph unicode="&#xe936;" glyph-name="Star-Outline" horiz-adv-x="1078" d="M1077.895 569.802l-387.503 33.415-151.444 356.783-151.444-357.322-387.503-32.876 294.265-254.922-88.387-378.88 333.069 201.027 333.069-201.027-87.848 378.88 293.726 254.922zM538.947 237.811l-202.644-122.341 53.895 230.669-178.931 155.217 236.059 20.48 91.621 217.196 92.16-217.735 236.059-20.48-178.931-155.217 53.895-230.669-203.183 122.88z" />
<glyph unicode="&#xe937;" glyph-name="Send" horiz-adv-x="1195" d="M0.569-64l1194.098 512-1194.098 512-0.569-398.222 853.333-113.778-853.333-113.778z" />
<glyph unicode="&#xe938;" glyph-name="Message" d="M921.6 960h-819.2c-56.32 0-102.4-46.080-102.4-102.4v-921.6l204.8 204.8h716.8c56.32 0 102.4 46.080 102.4 102.4v614.4c0 56.32-46.080 102.4-102.4 102.4zM921.6 243.2h-716.8l-102.4-102.4v716.8h819.2v-614.4zM256 652.8h512v-102.4h-512v102.4zM256 499.2h256v-102.4h-256v102.4z" />
<glyph unicode="&#xe939;" glyph-name="Email" horiz-adv-x="1280" d="M1152 960h-1024c-70.4 0-127.36-57.6-127.36-128l-0.64-768c0-70.4 57.6-128 128-128h1024c70.4 0 128 57.6 128 128v768c0 70.4-57.6 128-128 128zM1152 64h-1024v640l512-320 512 320v-640zM640 512l-512 320h1024l-512-320z" />
<glyph unicode="&#xe93a;" glyph-name="Sort" horiz-adv-x="1536" d="M85.333-64h341.333c47.128 0 85.333 38.205 85.333 85.333s-38.205 85.333-85.333 85.333h-341.333c-47.128 0-85.333-38.205-85.333-85.333s38.205-85.333 85.333-85.333zM0 874.667c0-47.128 38.205-85.333 85.333-85.333h1365.333c47.128 0 85.333 38.205 85.333 85.333s-38.205 85.333-85.333 85.333h-1365.333c-47.128 0-85.333-38.205-85.333-85.333zM85.333 362.667h853.333c47.128 0 85.333 38.205 85.333 85.333s-38.205 85.333-85.333 85.333h-853.333c-47.128 0-85.333-38.205-85.333-85.333s38.205-85.333 85.333-85.333z" />
<glyph unicode="&#xe93b;" glyph-name="Preview" horiz-adv-x="1408" d="M704 928c-320 0-593.28-199.040-704-480 110.72-280.96 384-480 704-480s593.28 199.040 704 480c-110.72 280.96-384 480-704 480zM704 128c-176.64 0-320 143.36-320 320s143.36 320 320 320c176.64 0 320-143.36 320-320s-143.36-320-320-320zM704 640c-106.24 0-192-85.76-192-192s85.76-192 192-192c106.24 0 192 85.76 192 192s-85.76 192-192 192z" />
<glyph unicode="&#xe93c;" glyph-name="Link" d="M944.384 496.064l-192-192c-58.909-60.517-142.836-89.829-226.613-79.147s-157.662 60.118-199.499 133.483l89.6 89.6c4.383 3.847 9.271 7.077 14.528 9.6 6.139-21.722 17.676-41.537 33.536-57.6 53.073-52.89 138.927-52.89 192 0l192 192c49.483 53.585 47.83 136.68-3.745 188.255s-134.67 53.228-188.255 3.745l-68.16-68.096c-55.178 21.216-114.924 27.722-173.376 18.88l145.6 145.6c106.371 104.806 277.373 104.172 382.965-1.419s106.225-276.593 1.419-382.965v0.064zM436.224 180.096l-68.416-68.416c-53.717-48.574-136.084-46.505-187.294 4.706s-53.28 133.577-4.706 187.294l192 192c53.073 52.89 138.927 52.89 192 0 15.861-16.073 27.417-35.882 33.6-57.6 5.246 2.641 10.111 5.978 14.464 9.92l89.6 89.6c-11.343 19.982-25.218 38.417-41.28 54.848-50.965 50.986-120.101 79.632-192.192 79.632s-141.227-28.646-192.192-79.632l-192-192c-104.806-106.371-104.172-277.373 1.419-382.965s276.593-106.225 382.965-1.419l145.664 145.664c-58.49-9.062-118.332-2.731-173.632 18.368z" />
<glyph unicode="&#xe93d;" glyph-name="Filter" horiz-adv-x="862" d="M809.089 960c29.765 0 53.895-24.129 53.895-53.895 0-11.616-3.753-22.92-10.699-32.23l-259.107-347.243v-428.948c0-89.296-72.388-161.684-161.684-161.684s-161.684 72.388-161.684 161.684v428.894l-259.107 347.297c-17.8 23.856-12.891 57.626 10.966 75.426 9.31 6.946 20.614 10.699 32.23 10.699h755.191zM700.848 851.788h-547.195l223.933-290.754 0.014-463.35c0-29.765 24.129-53.895 53.895-53.895s53.895 24.129 53.895 53.895v0l-0.014 465.505 215.473 288.598z" />
<glyph unicode="&#xe93e;" glyph-name="Clock" d="M511.488 960c-282.624 0-511.488-229.376-511.488-512s228.864-512 511.488-512c283.136 0 512.512 229.376 512.512 512s-229.376 512-512.512 512zM512 38.4c-226.304 0-409.6 183.296-409.6 409.6s183.296 409.6 409.6 409.6c226.304 0 409.6-183.296 409.6-409.6s-183.296-409.6-409.6-409.6zM537.6 704h-76.8v-307.2l268.8-161.28 38.4 62.976-230.4 136.704z" />
<glyph unicode="&#xe93f;" glyph-name="Calendar" horiz-adv-x="922" d="M307.2 499.2h-102.4v-102.4h102.4v102.4zM512 499.2h-102.4v-102.4h102.4v102.4zM716.8 499.2h-102.4v-102.4h102.4v102.4zM819.2 857.6h-51.2v102.4h-102.4v-102.4h-409.6v102.4h-102.4v-102.4h-51.2c-56.832 0-101.888-46.080-101.888-102.4l-0.512-716.8c0-56.32 45.568-102.4 102.4-102.4h716.8c56.32 0 102.4 46.080 102.4 102.4v716.8c0 56.32-46.080 102.4-102.4 102.4zM819.2 38.4h-716.8v563.2h716.8v-563.2z" />
<glyph unicode="&#xe940;" glyph-name="Desktop" horiz-adv-x="1138" d="M1080.889 960c31.419 0 56.889-25.47 56.889-56.889v-739.556c0-31.419-25.47-56.889-56.889-56.889h-1024c-31.419 0-56.889 25.47-56.889 56.889v739.556c0 31.419 25.47 56.889 56.889 56.889h1024zM967.111 846.222h-796.444c-31.419 0-56.889-25.47-56.889-56.889v0-512c0-31.419 25.47-56.889 56.889-56.889v0h796.444c31.419 0 56.889 25.47 56.889 56.889v0 512c0 31.419-25.47 56.889-56.889 56.889v0zM398.222 49.778h341.333c31.419 0 56.889-25.47 56.889-56.889v-56.889h-455.111v56.889c0 31.419 25.47 56.889 56.889 56.889z" />
<glyph unicode="&#xe941;" glyph-name="Undo" horiz-adv-x="2276" d="M1194.667 846.222c-301.511 0-574.578-112.64-785.067-295.822l-409.6 409.6v-1024h1024l-411.876 411.876c158.151 131.982 359.538 213.902 582.542 213.902 402.773 0 691.769-261.442 811.236-624.393l269.653 88.747c-158.151 476.729-551.822 820.091-1080.889 820.091z" />
<glyph unicode="&#xe942;" glyph-name="Redo" horiz-adv-x="2276" d="M1080.889 846.222c301.511 0 574.578-112.64 785.067-295.822l409.6 409.6v-1024h-1024l411.876 411.876c-158.151 131.982-359.538 213.902-582.542 213.902-402.773 0-691.769-261.442-811.236-624.393l-269.653 88.747c158.151 476.729 551.822 820.091 1080.889 820.091z" />
<glyph unicode="&#xe943;" glyph-name="Multiline-chart" horiz-adv-x="1463" d="M1462.857 819.566l-103.131 103.131-208.457-234.789c-150.674 169.691-359.131 272.091-594.651 272.091-211.383 0-405.211-84.846-556.617-219.429l103.863-103.863c124.343 108.983 281.6 177.006 452.754 177.006 200.411 0 372.297-92.16 495.177-236.983l-210.651-236.983-292.571 292.571-548.571-549.303 109.714-109.714 438.857 439.589 292.571-292.571 296.229 332.8c54.857-98.743 91.429-212.114 105.326-332.8h147.017c-16.091 168.229-69.486 321.097-149.211 449.097l222.354 250.149z" />
<glyph unicode="&#xe944;" glyph-name="List-numbered" horiz-adv-x="1216" d="M0 128h128v-32h-64v-64h64v-32h-128v-64h192v256h-192v-64zM64 704h64v256h-128v-64h64v-192zM0 512h115.2l-115.2-134.4v-57.6h192v64h-115.2l115.2 134.4v57.6h-192v-64zM320 896v-128h896v128h-896zM320 0h896v128h-896v-128zM320 384h896v128h-896v-128z" />
<glyph unicode="&#xe945;" glyph-name="List-bulleted" horiz-adv-x="1216" d="M128 544c-53.12 0-96-42.88-96-96s42.88-96 96-96c53.12 0 96 42.88 96 96s-42.88 96-96 96zM128 928c-53.12 0-96-42.88-96-96s42.88-96 96-96c53.12 0 96 42.88 96 96s-42.88 96-96 96zM128 160c-53.12 0-96-43.52-96-96s43.52-96 96-96c52.48 0 96 43.52 96 96s-42.88 96-96 96zM320 0h896v128h-896v-128zM320 384h896v128h-896v-128zM320 896v-128h896v128h-896z" />
<glyph unicode="&#xe946;" glyph-name="Line-chart" horiz-adv-x="1463" d="M109.714-26.697l438.857 439.589 292.571-292.571 621.714 699.246-103.131 103.131-518.583-582.949-292.571 292.571-548.571-549.303z" />
<glyph unicode="&#xe947;" glyph-name="Insert-table" horiz-adv-x="1078" d="M943.158 960c59.284 0 107.789-51.2 107.789-113.778v0-796.444c0-62.578-48.505-113.778-107.789-113.778v0h-808.421c-59.284 0-107.789 51.2-107.789 113.778v0 796.444c0 62.578 48.505 113.778 107.789 113.778v0zM323.368 582.737h-188.632v-490.442h188.632v490.442zM646.737 582.737h-215.579v-490.442h215.579v490.442zM943.158 582.737h-188.632v-490.442h188.632v490.442zM943.158 852.211h-808.421v-161.684h808.421v161.684z" />
<glyph unicode="&#xe948;" glyph-name="Insert-chart" horiz-adv-x="1138" d="M398.222 163.556h-113.778v398.222h113.778v-398.222zM625.778 163.556h-113.778v568.889h113.778v-568.889zM853.333 163.556h-113.778v227.556h113.778v-227.556zM995.556 44.089h-853.333v802.133h853.333v-802.133zM995.556 960h-853.333c-62.578 0-113.778-51.2-113.778-113.778v-796.444c0-62.578 51.2-113.778 113.778-113.778h853.333c62.578 0 113.778 51.2 113.778 113.778v796.444c0 62.578-51.2 113.778-113.778 113.778z" />
<glyph unicode="&#xe949;" glyph-name="Indent-increase" d="M0-64h1024v113.778h-1024v-113.778zM0 675.556v-455.111l227.556 227.556-227.556 227.556zM455.111 163.556h568.889v113.778h-568.889v-113.778zM0 960v-113.778h1024v113.778h-1024zM455.111 618.667h568.889v113.778h-568.889v-113.778zM455.111 391.111h568.889v113.778h-568.889v-113.778z" />
<glyph unicode="&#xe94a;" glyph-name="Indent-decrease" d="M455.111 163.556h568.889v113.778h-568.889v-113.778zM0 448l227.556-227.556v455.111l-227.556-227.556zM0-64h1024v113.778h-1024v-113.778zM0 960v-113.778h1024v113.778h-1024zM455.111 618.667h568.889v113.778h-568.889v-113.778zM455.111 391.111h568.889v113.778h-568.889v-113.778z" />
<glyph unicode="&#xe94b;" glyph-name="format_align_center-24px" d="M227.556 277.333v-113.778h568.889v113.778h-568.889zM0-64h1024v113.778h-1024v-113.778zM0 391.111h1024v113.778h-1024v-113.778zM227.556 732.444v-113.778h568.889v113.778h-568.889zM0 960v-113.778h1024v113.778h-1024z" />
<glyph unicode="&#xe94c;" glyph-name="Format-underline" horiz-adv-x="796" d="M398.222 163.556c188.302 0 341.333 153.031 341.333 341.333v455.111h-142.222v-455.111c0-109.796-89.316-199.111-199.111-199.111s-199.111 89.316-199.111 199.111v455.111h-142.222v-455.111c0-188.302 153.031-341.333 341.333-341.333zM0 49.778v-113.778h796.444v113.778h-796.444z" />
<glyph unicode="&#xe94d;" glyph-name="Format-Italic" horiz-adv-x="878" d="M292.571 960v-219.429h161.646l-250.149-585.143h-204.069v-219.429h585.143v219.429h-161.646l250.149 585.143h204.069v219.429z" />
<glyph unicode="&#xe94e;" glyph-name="Format-bold" horiz-adv-x="805" d="M629.029 463.36c70.949 49.006 120.686 129.463 120.686 204.069 0 165.303-128 292.571-292.571 292.571h-457.143v-1024h514.926c152.869 0 271.36 124.343 271.36 277.211 0 111.177-62.903 206.263-157.257 250.149zM219.429 777.143h219.429c60.709 0 109.714-49.006 109.714-109.714s-49.006-109.714-109.714-109.714h-219.429v219.429zM475.429 118.857h-256v219.429h256c60.709 0 109.714-49.006 109.714-109.714s-49.006-109.714-109.714-109.714z" />
<glyph unicode="&#xe94f;" glyph-name="Align-right" d="M0-64h1024v113.778h-1024v-113.778zM341.333 163.556h682.667v113.778h-682.667v-113.778zM0 391.111h1024v113.778h-1024v-113.778zM341.333 618.667h682.667v113.778h-682.667v-113.778zM0 960v-113.778h1024v113.778h-1024z" />
<glyph unicode="&#xe950;" glyph-name="Align-left" d="M682.667 277.333h-682.667v-113.778h682.667v113.778zM682.667 732.444h-682.667v-113.778h682.667v113.778zM0 391.111h1024v113.778h-1024v-113.778zM0-64h1024v113.778h-1024v-113.778zM0 960v-113.778h1024v113.778h-1024z" />
<glyph unicode="&#xe951;" glyph-name="Align-justify" d="M0-64h1024v113.778h-1024v-113.778zM0 163.556h1024v113.778h-1024v-113.778zM0 391.111h1024v113.778h-1024v-113.778zM0 618.667h1024v113.778h-1024v-113.778zM0 960v-113.778h1024v113.778h-1024z" />
<glyph unicode="&#xe952;" glyph-name="Zip-File" horiz-adv-x="819" d="M567.203 960l252.093-260.963v-46.808l-0.096 0.008v-665.037c0-28.277-22.923-51.2-51.2-51.2h-716.8c-28.277 0-51.2 22.923-51.2 51.2v921.6c0 28.277 22.923 51.2 51.2 51.2h516.003zM324.403 817.715h-59.802v39.885h-162.202v-819.2h614.4v613.837l-204.8-0.008v205.371h-187.597v-39.885zM324.198 618.291v-179.456c0-11-8.917-19.917-19.917-19.917-90.778 0-99.686 8.909-99.686 19.917v0 139.571h59.802v39.885h59.802zM304.486 498.432h-79.77v-39.68h79.565l0.205 39.68zM264.397 658.176v-39.885h-59.802v39.885h59.802zM324.403 698.061v-39.885h-59.802v39.885h59.802zM264.602 737.946v-39.834h-60.006l0.205 39.834h59.802zM324.403 777.83v-39.885h-59.802v39.885h59.802zM264.602 817.715v-39.885h-60.006l0.205 39.885h59.802z" />
<glyph unicode="&#xe953;" glyph-name="Microsoft-Word" horiz-adv-x="819" d="M240.64 448h63.334l35.84-175.462 48.538 175.462h57.242l43.366-175.462 35.84 175.462h55.091l-55.091-256h-70.451l-40.448 167.987-44.186-167.987h-65.638zM567.203 960l252.093-260.963v-46.808l-0.096 0.008v-665.037c0-28.277-22.923-51.2-51.2-51.2h-716.8c-28.277 0-51.2 22.923-51.2 51.2v921.6c0 28.277 22.923 51.2 51.2 51.2h516.003zM512 857.6h-409.6v-819.2h614.4v613.837l-204.8-0.008v205.371z" />
<glyph unicode="&#xe954;" glyph-name="Microsoft-powerpoint" horiz-adv-x="819" d="M567.203 960l252.093-260.963v-46.808l-0.096 0.008v-665.037c0-28.277-22.923-51.2-51.2-51.2h-716.8c-28.277 0-51.2 22.923-51.2 51.2v921.6c0 28.277 22.923 51.2 51.2 51.2h516.003zM512 857.6h-409.6v-819.2h614.4v613.837l-204.8-0.008v205.371zM422.127 448c49.332 0 89.323-36.677 89.323-81.92s-39.991-81.92-89.323-81.92h-38.127v-92.16h-51.2v256h89.327zM422.127 396.8h-37.002v-61.44h37.002c20.665 0 38.123 14.068 38.123 30.72s-17.458 30.72-38.123 30.72z" />
<glyph unicode="&#xe955;" glyph-name="Microsoft-Excel" horiz-adv-x="819" d="M567.203 960l252.093-260.963v-46.808l-0.096 0.008v-665.037c0-28.277-22.923-51.2-51.2-51.2h-716.8c-28.277 0-51.2 22.923-51.2 51.2v921.6c0 28.277 22.923 51.2 51.2 51.2h516.003zM512 857.6h-409.6v-819.2h614.4v613.837l-204.8-0.008v205.371zM465.715 217.754h71.987l-94.669 139.622 78.643 116.224h-71.936l-42.65-63.027-42.65 63.027h-72.038l78.694-116.224-94.618-139.776h156.416l-25.6 41.318h-30.925l30.72 45.312z" />
<glyph unicode="&#xe956;" glyph-name="Image-File" horiz-adv-x="819" d="M567.203 960l252.093-260.963v-46.808l-0.096 0.008v-665.037c0-28.277-22.923-51.2-51.2-51.2h-716.8c-28.277 0-51.2 22.923-51.2 51.2v921.6c0 28.277 22.923 51.2 51.2 51.2h516.003zM512 857.6h-409.6v-819.2h614.4v613.837l-204.8-0.008v205.371zM345.521 358.418c7.253 0 14.166-3.077 19.021-8.466l56.271-62.566 20.426 23.347c4.862 5.598 11.913 8.813 19.328 8.813s14.466-3.215 19.328-8.813l77.824-88.934c6.759-7.569 8.409-18.416 4.207-27.653s-13.464-15.119-23.612-14.996h-155.699l-2.865 0.256h-149.609c-10.057 0.102-19.122 6.082-23.173 15.288s-2.336 19.93 4.382 27.413l115.149 127.846c4.855 5.389 11.767 8.466 19.021 8.466zM441.342 448c21.179 0 38.349-17.169 38.349-38.349s-17.169-38.349-38.349-38.349c-21.179 0-38.349 17.169-38.349 38.349s17.169 38.349 38.349 38.349z" />
<glyph unicode="&#xe957;" glyph-name="HTML-File" horiz-adv-x="819" d="M567.203 960l252.093-260.963v-46.808l-0.096 0.008v-665.037c0-28.277-22.923-51.2-51.2-51.2h-716.8c-28.277 0-51.2 22.923-51.2 51.2v921.6c0 28.277 22.923 51.2 51.2 51.2h516.003zM512 857.6h-409.6v-819.2h614.4v613.837l-204.8-0.008v205.371zM409.6 546.15c-60.411 0.021-114.886-36.354-138.018-92.161s-10.368-120.053 32.342-162.778c42.71-42.725 106.952-55.512 162.767-32.398s92.208 77.575 92.208 137.987c0 82.464-66.835 149.322-149.299 149.35zM394.65 278.374c-59.739 7.441-104.573 58.225-104.55 118.426 0.046 8.997 1.094 17.961 3.123 26.726l71.68-71.68v-14.95c0.056-16.462 13.387-29.793 29.85-29.85l-0.102-28.672zM497.664 316.314c-3.899 12.374-15.391 20.775-28.365 20.736h-14.899v44.851c-0.056 8.225-6.725 14.871-14.95 14.899h-89.6v29.901h29.85c8.245 0.028 14.922 6.705 14.95 14.95v29.85h29.85c16.462 0.056 29.793 13.387 29.85 29.85v6.144c36.274-14.609 63.075-46.081 71.718-84.22s-1.971-78.090-28.403-106.91v-0.051z" />
<glyph unicode="&#xe958;" glyph-name="Folder" horiz-adv-x="1084" d="M0 839.529c0 66.534 53.937 120.471 120.471 120.471h240.941l120.471-180.706h481.882c66.534 0 120.471-53.937 120.471-120.471v-602.353c0-66.534-53.937-120.471-120.471-120.471h-843.294c-66.534 0-120.471 53.937-120.471 120.471v783.059zM993.882 688.941h-903.529v-662.588h903.529v662.588z" />
<glyph unicode="&#xe959;" glyph-name="File" horiz-adv-x="819" d="M567.203 960l252.093-260.963v-46.808l-0.096 0.008v-665.037c0-28.277-22.923-51.2-51.2-51.2h-716.8c-28.277 0-51.2 22.923-51.2 51.2v921.6c0 28.277 22.923 51.2 51.2 51.2h516.003zM512 857.6h-409.6v-819.2h614.4v613.837l-204.8-0.008v205.371zM179.2 448h460.8v-102.4h-460.8v102.4zM179.2 294.4h460.8v-102.4h-460.8v102.4z" />
<glyph unicode="&#xe95a;" glyph-name="Attachment" horiz-adv-x="563" d="M281.6 960c155.648 0 281.6-125.952 281.6-281.6v-537.6c0-113.152-91.648-204.8-204.8-204.8s-204.8 91.648-204.8 204.8v435.2c0 70.656 57.344 128 128 128s128-57.344 128-128v-384h-102.4v388.608c0 28.16-51.2 28.16-51.2 0v-439.808c0-56.32 46.080-102.4 102.4-102.4s102.4 46.080 102.4 102.4v537.6c0 98.816-80.384 179.2-179.2 179.2s-179.2-80.384-179.2-179.2v-486.4h-102.4v486.4c0 155.648 125.952 281.6 281.6 281.6z" />
<glyph unicode="&#xe95b;" glyph-name="Adobe-Acrobat" horiz-adv-x="819" d="M567.203 960l252.093-260.963v-46.808l-0.096 0.008v-665.037c0-28.277-22.923-51.2-51.2-51.2h-716.8c-28.277 0-51.2 22.923-51.2 51.2v921.6c0 28.277 22.923 51.2 51.2 51.2h516.003zM512 857.6h-409.6v-819.2h614.4v613.837l-204.8-0.008v205.371zM353.952 499.162c10.652-0.496 20.72-5.717 26.511-13.811 7.722-10.792 10.453-24.334 11.483-39.846 0.928-13.987-4.463-32.923-6.509-49.662 10.166-12.782 16.131-24.491 28.496-36.857s24.1-18.33 36.883-28.496c16.719 2.040 35.664 7.542 49.636 6.615 15.512-1.030 28.975-3.813 39.767-11.536s16.472-23.024 12.674-37.201c-3.799-14.176-16.426-24.717-29.633-26.008s-26.215 3.163-40.164 10.028c-12.579 6.19-26.265 20.337-39.741 30.48-16.153-2.413-29.304-1.692-46.196-6.218s-27.905-11.713-43.101-17.701c-6.598-15.519-11.359-34.68-19.156-46.329-8.647-12.919-17.682-23.249-29.766-28.734s-28.331-2.678-38.709 7.699c-10.377 10.377-13.157 26.519-7.673 38.603s15.894 21.145 28.813 29.792c11.642 7.793 30.766 12.56 46.276 19.156 5.989 15.198 13.173 26.205 17.701 43.101 4.524 16.883 3.805 30.051 6.218 46.196-10.134 13.466-24.294 27.144-30.48 39.714-6.864 13.948-11.293 27.063-10.001 40.27s11.806 25.782 25.982 29.58c3.544 0.95 7.138 1.329 10.689 1.164zM319.793 264.901c-4.833-2.616-13.397-4.537-17.33-7.17-10.736-7.186-17.386-14.521-19.262-18.653s-2.404-3.946 2.196-8.546c4.6-4.6 4.467-4.098 8.599-2.223s11.52 8.499 18.706 19.235c2.633 3.933 4.474 12.524 7.091 17.357zM498.625 310.356c-4.712 0.312-13.069-2.339-18.548-2.487 4.695-2.886 10.612-9.414 14.87-11.509 11.591-5.705 21.175-7.769 25.691-7.329s4.693-0.097 6.376 6.191c1.684 6.283 1.362 5.958-2.328 8.599s-13.171 5.68-26.061 6.535zM380.541 358.881c-1.802-8.331-0.886-15.15-3.122-23.495-2.246-8.383-6.456-13.888-9.075-22.040 8.126 2.609 13.552 6.889 21.908 9.128 8.362 2.241 15.199 1.291 23.548 3.096-6.331 5.74-12.713 8.321-18.838 14.446-6.116 6.116-8.687 12.542-14.42 18.865zM353.819 472.969c-0.891-0.143-2.028-0.425-3.598-0.846-6.284-1.683-5.83-1.861-6.271-6.377s1.651-14.179 7.355-25.77c2.079-4.224 8.519-10.135 11.377-14.79 0.148 5.489 2.826 13.855 2.513 18.574-0.856 12.891-3.789 22.292-6.429 25.982-1.98 2.767-2.276 3.664-4.947 3.228z" />
<glyph unicode="&#xe95c;" glyph-name="Unpin" d="M577.133 545.788h370.119v-192.569h-370.119zM119.918 500.412h326.030v-96.711h-326.030zM120.24 403.949l-120.237 49.841 120.961 47.186 22.808-50.243zM984.145 311.509v0c-47.128 0-85.333 38.205-85.333 85.333v113.778c0 47.128 38.205 85.333 85.333 85.333v0-284.444zM526.367 703.476v0c62.838 0 113.778-50.94 113.778-113.778v-284.444c0-62.838-50.94-113.778-113.778-113.778v0 512z" />
<glyph unicode="&#xe95d;" glyph-name="Stepper" d="M146.286 594.286l365.714 365.714 365.714-365.714zM146.286 301.714l365.714-365.714 365.714 365.714z" />
<glyph unicode="&#xe95e;" glyph-name="Single-chevron-right" d="M341.333 960l-120.32-120.32 390.827-391.68-390.827-391.68 120.32-120.32 512 512z" />
<glyph unicode="&#xe95f;" glyph-name="Single-chevro-left" d="M802.987 839.68l-120.32 120.32-512-512 512-512 120.32 120.32-390.827 391.68z" />
<glyph unicode="&#xe960;" glyph-name="Pin" d="M440.978 544.402l336.489 336.489 175.072-175.072-336.489-336.489zM66.56 87.479l296.406 296.406 87.924-87.924-296.406-296.406zM154.551 0.073l-154.624-64 67.072 152.869 66.414-24.942zM1024 701.44v0c-42.846-42.846-112.313-42.846-155.159 0l-103.44 103.44c-42.846 42.846-42.846 112.313 0 155.159v0l258.599-258.599zM251.465 641.609v0c57.128 57.128 149.751 57.128 206.879 0l258.599-258.599c57.128-57.128 57.128-149.751 0-206.879v0l-465.478 465.478z" />
<glyph unicode="&#xe961;" glyph-name="More_Vertical" horiz-adv-x="256" d="M128 704c70.4 0 128 57.6 128 128s-57.6 128-128 128c-70.4 0-128-57.6-128-128s57.6-128 128-128zM128 576c-70.4 0-128-57.6-128-128s57.6-128 128-128c70.4 0 128 57.6 128 128s-57.6 128-128 128zM128 192c-70.4 0-128-57.6-128-128s57.6-128 128-128c70.4 0 128 57.6 128 128s-57.6 128-128 128z" />
<glyph unicode="&#xe962;" glyph-name="More_border" d="M512 960c282.77 0 512-229.23 512-512s-229.23-512-512-512c-282.77 0-512 229.23-512 512s229.23 512 512 512zM512 846.222c-219.932 0-398.222-178.29-398.222-398.222s178.29-398.222 398.222-398.222c219.932 0 398.222 178.29 398.222 398.222s-178.29 398.222-398.222 398.222zM281.6 524.8c-42.24 0-76.8-34.56-76.8-76.8s34.56-76.8 76.8-76.8c42.24 0 76.8 34.56 76.8 76.8s-34.56 76.8-76.8 76.8zM742.4 524.8c-42.24 0-76.8-34.56-76.8-76.8s34.56-76.8 76.8-76.8c42.24 0 76.8 34.56 76.8 76.8s-34.56 76.8-76.8 76.8zM512 524.8c-42.24 0-76.8-34.56-76.8-76.8s34.56-76.8 76.8-76.8c42.24 0 76.8 34.56 76.8 76.8s-34.56 76.8-76.8 76.8z" />
<glyph unicode="&#xe963;" glyph-name="Menu-cascade-right" d="M256 960l512-512-512-512z" />
<glyph unicode="&#xe964;" glyph-name="Menu-cascade-left" d="M768 960l-512-512 512-512z" />
<glyph unicode="&#xe965;" glyph-name="Last-page" d="M46.474 809.551l361.551-361.551-361.551-361.551 111.065-111.065 472.615 472.615-472.615 472.615-111.065-111.065zM866.462 920.615h157.538v-945.231h-157.538v945.231z" />
<glyph unicode="&#xe966;" glyph-name="Full-screen" d="M146.286 301.714h-146.286v-365.714h365.714v146.286h-219.429v219.429zM0 594.286h146.286v219.429h219.429v146.286h-365.714v-365.714zM877.714 82.286h-219.429v-146.286h365.714v365.714h-146.286v-219.429zM658.286 960v-146.286h219.429v-219.429h146.286v365.714h-365.714z" />
<glyph unicode="&#xe967;" glyph-name="First-page" d="M977.526 86.449l-361.551 361.551 361.551 361.551-111.065 111.065-472.615-472.615 472.615-472.615 111.065 111.065zM0 920.615h157.538v-945.231h-157.538v945.231z" />
<glyph unicode="&#xe968;" glyph-name="Expand-more" d="M903.68 738.987l-391.68-390.827-391.68 390.827-120.32-120.32 512-512 512 512z" />
<glyph unicode="&#xe969;" glyph-name="Expand-less" d="M903.68 157.013l-391.68 390.827-391.68-390.827-120.32 120.32 512 512 512-512z" />
<glyph unicode="&#xe96a;" glyph-name="Exit-full-screen" d="M0 155.429h219.429v-219.429h146.286v365.714h-365.714v-146.286zM219.429 740.571h-219.429v-146.286h365.714v365.714h-146.286v-219.429zM658.286-64h146.286v219.429h219.429v146.286h-365.714v-365.714zM804.571 740.571v219.429h-146.286v-365.714h365.714v146.286h-219.429z" />
<glyph unicode="&#xe96b;" glyph-name="Chevron-right" d="M391.68 839.68l120.32 120.32 512-512-512-512-120.32 120.32 390.827 391.68zM-0.853 839.68l120.32 120.32 512-512-512-512-120.32 120.32 390.827 391.68z" />
<glyph unicode="&#xe96c;" glyph-name="Chevron-left" d="M632.32 839.68l-120.32 120.32-512-512 512-512 120.32 120.32-390.827 391.68zM1024.853 839.68l-120.32 120.32-512-512 512-512 120.32 120.32-390.827 391.68z" />
<glyph unicode="&#xe96d;" glyph-name="Arrow-right" d="M512 960l-90.24-90.24 357.12-357.76h-778.88v-128h778.88l-357.12-357.76 90.24-90.24 512 512z" />
<glyph unicode="&#xe96e;" glyph-name="Arrow-left" d="M512 960l90.24-90.24-357.12-357.76h778.88v-128h-778.88l357.12-357.76-90.24-90.24-512 512z" />
<glyph unicode="&#xe96f;" glyph-name="Apps" d="M0 704h256v256h-256v-256zM384-64h256v256h-256v-256zM0-64h256v256h-256v-256zM0 320h256v256h-256v-256zM384 320h256v256h-256v-256zM768 960v-256h256v256h-256zM384 704h256v256h-256v-256zM768 320h256v256h-256v-256zM768-64h256v256h-256v-256z" />
<glyph unicode="&#xe970;" glyph-name="Warning-outline" horiz-adv-x="1252" d="M625.778 789.333l428.373-739.556h-856.747l428.373 739.556zM625.778 960c-20.405 0.081-39.291-10.773-49.493-28.444l-526.791-910.222c-10.183-17.637-10.161-39.371 0.056-56.988s29.072-28.427 49.437-28.347h1053.582c20.365-0.081 39.22 10.73 49.437 28.347s10.239 39.351 0.056 56.988l-526.791 910.222c-10.203 17.671-29.088 28.525-49.493 28.444zM568.889 561.778h113.778v-227.556h-113.778zM568.889 220.444h113.778v-113.778h-113.778z" />
<glyph unicode="&#xe971;" glyph-name="Warning-filled" horiz-adv-x="1252" d="M96.711-64h1052.444c20.668-0.71 40.094 9.853 50.734 27.586s10.819 39.844 0.466 57.747l-529.067 910.222c-9.178 18.291-27.891 29.838-48.356 29.838s-39.178-11.547-48.356-29.838l-529.067-910.222c-8.15-18.095-6.922-39.035 3.289-56.053s28.109-27.956 47.911-29.28v0zM682.667 106.667h-113.778v113.778h113.778v-113.778zM682.667 334.222h-113.778v227.556h113.778v-227.556z" />
<glyph unicode="&#xe972;" glyph-name="Success" d="M747.008 674.304l-337.408-337.408-183.808 183.296-72.192-72.192 256-256 409.6 409.6-72.192 72.704zM512 960c-282.624 0-512-229.376-512-512s229.376-512 512-512c282.624 0 512 229.376 512 512s-229.376 512-512 512zM512 38.4c-226.304 0-409.6 183.296-409.6 409.6s183.296 409.6 409.6 409.6c226.304 0 409.6-183.296 409.6-409.6s-183.296-409.6-409.6-409.6z" />
<glyph unicode="&#xe973;" glyph-name="Information" d="M460.8 704h102.4v-102.4h-102.4v102.4zM460.8 499.2h102.4v-307.2h-102.4v307.2zM511.488 960c-282.624 0-511.488-229.376-511.488-512s228.864-512 511.488-512c283.136 0 512.512 229.376 512.512 512s-229.376 512-512.512 512zM512 38.4c-226.304 0-409.6 183.296-409.6 409.6s183.296 409.6 409.6 409.6c226.304 0 409.6-183.296 409.6-409.6s-183.296-409.6-409.6-409.6z" />
<glyph unicode="&#xe974;" glyph-name="Flag" horiz-adv-x="717" d="M51.2 960c28.277 0 51.2-22.923 51.2-51.2v-921.6c0-28.277-22.923-51.2-51.2-51.2s-51.2 22.923-51.2 51.2v921.6c0 28.277 22.923 51.2 51.2 51.2zM51.2 960h665.6l-256-260.493 256-251.507h-716.8v460.8c0 28.277 22.923 51.2 51.2 51.2z" />
<glyph unicode="&#xe975;" glyph-name="Error" d="M460.8 294.4h102.4v-102.4h-102.4v102.4zM460.8 704h102.4v-307.2h-102.4v307.2zM511.488 960c-282.624 0-511.488-229.376-511.488-512s228.864-512 511.488-512c283.136 0 512.512 229.376 512.512 512s-229.376 512-512.512 512zM512 38.4c-226.304 0-409.6 183.296-409.6 409.6s183.296 409.6 409.6 409.6c226.304 0 409.6-183.296 409.6-409.6s-183.296-409.6-409.6-409.6z" />
<glyph unicode="&#xe976;" glyph-name="Email-notification" horiz-adv-x="1195" d="M627.051 732.422l-513.274 0.022 455.111-284.444 116.241 72.607c19.486-26.892 43.146-50.562 70.029-70.060l-186.27-116.325-455.111 284.444v-568.889h910.222l0.010 353.114c42.243 11.949 80.854 32.549 113.799 59.764l-0.031-412.878c0-62.578-51.2-113.778-113.778-113.778v0h-910.222c-62.578 0-113.778 51.2-113.778 113.778v0l0.569 682.667c0 62.578 50.631 113.778 113.209 113.778v0l546.103-0.027c-17.724-34.681-29.168-73.105-32.83-113.773zM938.667 960c141.385 0 256-114.615 256-256s-114.615-256-256-256c-141.385 0-256 114.615-256 256s114.615 256 256 256zM967.111 590.222h-56.889c0-15.644 12.8-28.444 28.444-28.444s28.444 12.8 28.444 28.444zM938.667 839.111c-11.804 0-21.333-9.529-21.333-21.333v-9.671c-40.676-9.671-64-46.080-64-89.884v-71.111l-28.444-28.444v-14.222h227.556v14.222l-28.444 28.444v71.111c0 43.662-23.182 80.213-64 89.884v9.671c0 11.804-9.529 21.333-21.333 21.333zM938.667 782.222c35.413 0 56.889-28.729 56.889-64v-85.333h-113.778v85.333c0 35.271 21.476 64 56.889 64z" />
<glyph unicode="&#xe977;" glyph-name="Bell-notification" horiz-adv-x="819" d="M409.6-64c56.32 0 102.4 46.080 102.4 102.4h-204.8c0-56.32 46.080-102.4 102.4-102.4zM716.8 243.2v256c0 157.184-83.456 288.768-230.4 323.584v34.816c0 42.496-34.304 76.8-76.8 76.8s-76.8-34.304-76.8-76.8v-34.816c-146.432-34.816-230.4-165.888-230.4-323.584v-256l-102.4-102.4v-51.2h819.2v51.2l-102.4 102.4zM614.4 192h-409.6v307.2c0 126.976 77.312 230.4 204.8 230.4s204.8-103.424 204.8-230.4v-307.2z" />
<glyph unicode="&#xe978;" glyph-name="Badge-Pass" horiz-adv-x="819" d="M409.6 960c226.216 0 409.6-183.384 409.6-409.6 0-151.585-82.344-283.938-204.741-354.768l-0.059-259.632-204.8 102.4-204.8-102.4-0.008 259.602c-122.425 70.823-204.792 203.192-204.792 354.798 0 226.216 183.384 409.6 409.6 409.6zM409.6 857.6c-169.662 0-307.2-137.538-307.2-307.2s137.538-307.2 307.2-307.2c169.662 0 307.2 137.538 307.2 307.2s-137.538 307.2-307.2 307.2zM284.444 593.067l-56.889-85.333 193.991-129.138 182.613 243.484-81.92 61.44-124.587-166.116z" />
<glyph unicode="&#xe979;" glyph-name="Badge-Fail" horiz-adv-x="819" d="M409.6 960c226.216 0 409.6-183.384 409.6-409.6 0-151.585-82.344-283.938-204.741-354.768l-0.059-259.632-204.8 102.4-204.8-102.4-0.008 259.602c-122.425 70.823-204.792 203.192-204.792 354.798 0 226.216 183.384 409.6 409.6 409.6zM409.6 857.6c-169.662 0-307.2-137.538-307.2-307.2s137.538-307.2 307.2-307.2c169.662 0 307.2 137.538 307.2 307.2s-137.538 307.2-307.2 307.2zM511.254 680.96l67.18-77.282-90.782-78.929 90.782-78.92-67.18-77.282-101.682 88.414-101.626-88.414-67.18 77.282 90.778 78.92-90.778 78.929 67.18 77.282 101.626-88.371 101.682 88.371z" />
<glyph unicode="&#xe97a;" glyph-name="Reactivate-user" horiz-adv-x="1088" d="M512 384c18.749 0 39.548-1.032 61.721-3.096-25.556-34.83-44.198-75.020-53.965-118.564l-7.756 0.060c-190.080 0-390.4-93.44-390.4-134.4v0-70.4l419.925-0.037c22.376-48.265 56.427-90.016 98.527-121.625l-640.052 0.062v192c0 170.24 341.12 256 512 256zM512 960c141.44 0 256-114.56 256-256s-114.56-256-256-256c-141.44 0-256 114.56-256 256s114.56 256 256 256zM512 838.4c-74.24 0-134.4-60.16-134.4-134.4s60.16-134.4 134.4-134.4c74.24 0 134.4 60.16 134.4 134.4s-60.16 134.4-134.4 134.4zM832 448c141.385 0 256-114.615 256-256s-114.615-256-256-256c-141.385 0-256 114.615-256 256s114.615 256 256 256zM917.49 288l-117.237-113.696-58.022 54.407-38.23-39.761 96.252-92.95 159.748 150.58-42.51 41.42z" />
<glyph unicode="&#xe97b;" glyph-name="Person" d="M512 838.4c74.24 0 134.4-60.16 134.4-134.4s-60.16-134.4-134.4-134.4c-74.24 0-134.4 60.16-134.4 134.4s60.16 134.4 134.4 134.4zM512 262.4c190.080 0 390.4-93.44 390.4-134.4v-70.4h-780.8v70.4c0 40.96 200.32 134.4 390.4 134.4zM512 960c-141.44 0-256-114.56-256-256s114.56-256 256-256c141.44 0 256 114.56 256 256s-114.56 256-256 256zM512 384c-170.88 0-512-85.76-512-256v-192h1024v192c0 170.24-341.12 256-512 256z" />
<glyph unicode="&#xe97c;" glyph-name="People" horiz-adv-x="1609" d="M1133.714 374.857c-87.771 0-224.549-24.869-329.143-73.143-104.594 49.006-241.371 73.143-329.143 73.143-158.72 0-475.429-78.994-475.429-237.714v-201.143h1609.143v201.143c0 158.72-316.709 237.714-475.429 237.714zM841.143 45.714h-731.429v91.429c0 39.497 187.246 128 365.714 128s365.714-88.503 365.714-128v-91.429zM1499.429 45.714h-548.571v91.429c0 33.646-14.629 62.903-38.034 89.234 64.366 21.943 143.36 38.766 220.891 38.766 178.469 0 365.714-88.503 365.714-128v-91.429zM475.429 448c141.166 0 256 114.834 256 256s-114.834 256-256 256c-141.166 0-256-114.834-256-256s114.834-256 256-256zM475.429 850.286c80.457 0 146.286-65.829 146.286-146.286s-65.829-146.286-146.286-146.286c-80.457 0-146.286 65.829-146.286 146.286s65.829 146.286 146.286 146.286zM1133.714 448c141.166 0 256 114.834 256 256s-114.834 256-256 256c-141.166 0-256-114.834-256-256s114.834-256 256-256zM1133.714 850.286c80.457 0 146.286-65.829 146.286-146.286s-65.829-146.286-146.286-146.286c-80.457 0-146.286 65.829-146.286 146.286s65.829 146.286 146.286 146.286z" />
<glyph unicode="&#xe97d;" glyph-name="Deactivate-user" horiz-adv-x="1088" d="M512 384c18.749 0 39.548-1.032 61.721-3.096-25.556-34.83-44.198-75.020-53.965-118.564l-7.756 0.060c-190.080 0-390.4-93.44-390.4-134.4v0-70.4l419.925-0.037c22.376-48.265 56.427-90.016 98.527-121.625l-640.052 0.062v192c0 170.24 341.12 256 512 256zM512 960c141.44 0 256-114.56 256-256s-114.56-256-256-256c-141.44 0-256 114.56-256 256s114.56 256 256 256zM512 838.4c-74.24 0-134.4-60.16-134.4-134.4s60.16-134.4 134.4-134.4c74.24 0 134.4 60.16 134.4 134.4s-60.16 134.4-134.4 134.4zM832 448c141.385 0 256-114.615 256-256s-114.615-256-256-256c-141.385 0-256 114.615-256 256s114.615 256 256 256zM928 224h-192v-64h192v64z" />
<glyph unicode="&#xe97e;" glyph-name="User-Management" d="M481.882 417.882c83.529 0 210.278-21.772 312.821-65.148-51.641-10.577-97.214-37.637-131.031-75.436-56.119 15.489-119.538 26.137-181.79 26.137-178.899 0-367.435-87.944-367.435-126.494v0-66.259h488.026l0.174-6.002c1.935-39.376 13.324-76.268 31.943-108.452l-634.591 0.007v180.706c0 160.226 321.054 240.941 481.882 240.941zM481.882 960c133.12 0 240.941-107.821 240.941-240.941s-107.821-240.941-240.941-240.941c-133.12 0-240.941 107.821-240.941 240.941s107.821 240.941 240.941 240.941zM481.882 845.553c-69.873 0-126.494-56.621-126.494-126.494s56.621-126.494 126.494-126.494c69.873 0 126.494 56.621 126.494 126.494s-56.621 126.494-126.494 126.494zM880.232 297.412c4.692 0 8.661-3.253 8.661-7.59v0l7.218-48.068c11.188-4.698 21.653-10.481 31.397-17.709v0l46.194 18.071c3.97 1.446 9.022 0 11.188-3.976v0l37.171-62.524c2.165-3.976 1.444-9.035-2.165-11.565v0l-38.976-29.636c0.722-5.783 1.444-11.565 1.444-17.709s-0.722-11.927-1.444-17.709v0l39.698-29.997c3.609-2.891 4.331-7.59 2.165-11.565v0l-37.171-62.524c-2.165-3.976-6.857-5.783-11.188-3.976v0l-46.194 18.071c-9.744-6.867-20.21-13.372-31.397-17.709v0l-7.218-47.706c-0.361-4.337-4.331-7.59-9.022-7.59v0h-74.343c-4.692 0-8.661 3.253-9.022 7.59v0l-7.218 47.706c-11.188 4.698-21.653 10.481-31.397 17.709v0l-46.194-18.071c-3.97-1.446-9.022 0-11.188 3.976v0l-37.171 62.524c-2.165 3.976-1.444 9.035 2.165 11.565v0l39.337 29.997c-0.722 5.783-1.444 11.565-1.444 17.709 0 5.783 0.361 11.927 1.083 17.709v0l-38.976 29.636c-3.609 2.891-4.692 7.59-2.526 11.927v0l37.171 62.524c2.165 3.976 6.857 5.783 11.188 3.976v0l46.194-18.071c9.744 6.867 20.21 13.372 31.397 17.709v0l7.218 47.706c0.722 4.337 4.692 7.59 9.383 7.59v0zM843.294 176.941c-33.129 0-60.235-26.848-60.235-60.235s27.106-60.235 60.235-60.235c33.464 0 60.235 26.848 60.235 60.235s-27.106 60.235-60.235 60.235z" />
<glyph unicode="&#xe97f;" glyph-name="Add-as-new-line-item" d="M409.6 294.4h614.4v102.4h-614.4v-102.4zM409.6 89.6h614.4v102.4h-614.4v-102.4zM204.8 499.2v-204.8h102.4v204.8h204.8v102.4h-204.8v204.8h-102.4v-204.8h-204.8v-102.4h204.8zM1024 601.6h-409.6v-102.4h409.6v102.4z" />
<glyph unicode="&#xe980;" glyph-name="Accept" d="M747.008 674.304l-337.408-337.408-183.808 183.296-72.192-72.192 256-256 409.6 409.6-72.192 72.704zM512 960c-282.624 0-512-229.376-512-512s229.376-512 512-512c282.624 0 512 229.376 512 512s-229.376 512-512 512zM512 38.4c-226.304 0-409.6 183.296-409.6 409.6s183.296 409.6 409.6 409.6c226.304 0 409.6-183.296 409.6-409.6s-183.296-409.6-409.6-409.6z" />
<glyph unicode="&#xe981;" glyph-name="Requests" horiz-adv-x="819" d="M450.56 550.4h-81.92v-163.84h-163.84v-81.92h163.84v-163.84h81.92v163.84h163.84v81.92h-163.84zM567.203 960l252.093-260.963v-46.808l-0.096 0.008v-665.037c0-28.277-22.923-51.2-51.2-51.2h-716.8c-28.277 0-51.2 22.923-51.2 51.2v921.6c0 28.277 22.923 51.2 51.2 51.2h516.003zM512 857.6h-409.6v-819.2h614.4v613.837l-204.8-0.008v205.371z" />
<glyph unicode="&#xe982;" glyph-name="Reports" d="M972.8 857.6c28.277 0 51.2-22.923 51.2-51.2v-716.8c0-28.277-22.923-51.2-51.2-51.2h-921.6c-28.277 0-51.2 22.923-51.2 51.2v716.8c0 28.277 22.923 51.2 51.2 51.2h921.6zM921.6 755.2h-819.2v-614.4h819.2v614.4zM256 652.8c28.277 0 51.2-22.923 51.2-51.2s-22.923-51.2-51.2-51.2c-28.277 0-51.2 22.923-51.2 51.2s22.923 51.2 51.2 51.2zM409.6 652.8h358.4c28.277 0 51.2-22.923 51.2-51.2s-22.923-51.2-51.2-51.2h-358.4c-28.277 0-51.2 22.923-51.2 51.2s22.923 51.2 51.2 51.2zM409.6 499.2h358.4c28.277 0 51.2-22.923 51.2-51.2s-22.923-51.2-51.2-51.2h-358.4c-28.277 0-51.2 22.923-51.2 51.2s22.923 51.2 51.2 51.2zM409.6 345.6h358.4c28.277 0 51.2-22.923 51.2-51.2s-22.923-51.2-51.2-51.2h-358.4c-28.277 0-51.2 22.923-51.2 51.2s22.923 51.2 51.2 51.2zM256 499.2c28.277 0 51.2-22.923 51.2-51.2s-22.923-51.2-51.2-51.2c-28.277 0-51.2 22.923-51.2 51.2s22.923 51.2 51.2 51.2zM256 345.6c28.277 0 51.2-22.923 51.2-51.2s-22.923-51.2-51.2-51.2c-28.277 0-51.2 22.923-51.2 51.2s22.923 51.2 51.2 51.2z" />
<glyph unicode="&#xe983;" glyph-name="Preferences" d="M227.556 618.667h113.778v-341.333h-113.778v341.333zM56.889 504.889h284.444v-113.778h-284.444c-31.419 0-56.889 25.47-56.889 56.889s25.47 56.889 56.889 56.889zM796.444 960h-113.778v-341.333h113.778v341.333zM967.111 846.222h-284.444v-113.778h284.444c31.419 0 56.889 25.47 56.889 56.889s-25.47 56.889-56.889 56.889zM56.889 846.222h512v-113.778h-512c-31.419 0-56.889 25.47-56.889 56.889s25.47 56.889 56.889 56.889zM512 277.333h-113.778v-341.333h113.778v341.333zM967.111 163.556h-455.111v-113.778h455.111c31.419 0 56.889 25.47 56.889 56.889s-25.47 56.889-56.889 56.889zM56.889 163.556h284.444v-113.778h-284.444c-31.419 0-56.889 25.47-56.889 56.889s25.47 56.889 56.889 56.889zM967.111 504.889h-512v-113.778h512c31.419 0 56.889 25.47 56.889 56.889s-25.47 56.889-56.889 56.889z" />
<glyph unicode="&#xe984;" glyph-name="Portfolio" d="M665.6 448v-51.2h256v-102.4h-256v-51.2h-307.2v51.2h-256v102.4h256v51.2h307.2zM614.4 729.6v102.4h-204.8v-102.4h204.8zM102.4 627.2v-563.2h819.2v563.2h-819.2zM921.6 729.6c56.832 0 102.4-45.568 102.4-102.4v-563.2c0-56.832-45.568-102.4-102.4-102.4h-819.2c-56.832 0-102.4 45.568-102.4 102.4l0.512 563.2c0 56.832 45.056 102.4 101.888 102.4h204.8v102.4c0 56.832 45.568 102.4 102.4 102.4h204.8c56.832 0 102.4-45.568 102.4-102.4v-102.4h204.8z" />
<glyph unicode="&#xe985;" glyph-name="Overview" d="M972.8 857.6c28.277 0 51.2-22.923 51.2-51.2v-716.8c0-28.277-22.923-51.2-51.2-51.2h-921.6c-28.277 0-51.2 22.923-51.2 51.2v716.8c0 28.277 22.923 51.2 51.2 51.2h921.6zM921.6 755.2h-819.2v-614.4h819.2v614.4zM204.8 652.8h307.2v-204.8h-307.2v204.8zM204.8 396.8h307.2v-51.2h-307.2v51.2zM204.8 294.4h307.2v-51.2h-307.2v51.2zM665.6 499.2h102.4v-256h-102.4v256zM665.6 652.8h102.4v-102.4h-102.4v102.4z" />
<glyph unicode="&#xe986;" glyph-name="Options" d="M384 960c35.346 0 64-28.654 64-64v-320c0-35.346-28.654-64-64-64h-320c-35.346 0-64 28.654-64 64v320c0 35.346 28.654 64 64 64h320zM320 832h-192v-192h192v192zM384 384c35.346 0 64-28.654 64-64v-320c0-35.346-28.654-64-64-64h-320c-35.346 0-64 28.654-64 64v320c0 35.346 28.654 64 64 64h320zM320 256h-192v-192h192v192zM960 384c35.346 0 64-28.654 64-64v-320c0-35.346-28.654-64-64-64h-320c-35.346 0-64 28.654-64 64v320c0 35.346 28.654 64 64 64h320zM896 256h-192v-192h192v192zM640 960h320c35.346 0 64-28.654 64-64v-320c0-35.346-28.654-64-64-64h-320c-35.346 0-64 28.654-64 64v320c0 35.346 28.654 64 64 64z" />
<glyph unicode="&#xe987;" glyph-name="Document-Repository" horiz-adv-x="819" d="M153.6 857.6h204.8v-307.2l-102.339 51.2-102.461-51.2zM768 960c28.277 0 51.2-22.923 51.2-51.2v-921.6c0-28.277-22.923-51.2-51.2-51.2h-716.8c-28.277 0-51.2 22.923-51.2 51.2v921.6c0 28.277 22.923 51.2 51.2 51.2h716.8zM716.8 857.6h-614.4v-819.2h614.4v819.2z" />
<glyph unicode="&#xe988;" glyph-name="Database" horiz-adv-x="910" d="M860.388 748.316c0.657 4.162 1.055 8.361 1.195 12.572 0 112.924-172.942 198.087-402.261 198.087s-402.432-85.163-402.432-198.087c0-2.958 0.569-5.689 0.796-8.647-0.484-1.871-0.845-3.771-1.081-5.689v-597.333c0-0.341 0-0.626 0-0.91 1.934-112.014 174.023-196.267 402.091-196.267 223.801 0 393.444 81.237 401.465 190.123 0.657 2.192 1.114 4.439 1.365 6.713v592.213c-0.151 2.439-0.532 4.858-1.138 7.225v0zM459.321 873.472c193.422 0 316.928-66.788 316.928-112.754s-123.449-112.754-316.928-112.754c-193.479 0-317.099 66.958-317.099 112.924s123.62 112.754 317.099 112.754v-0.171zM776.533 150.13h-0.569c0-45.966-123.506-112.754-316.928-112.754s-316.814 66.788-316.814 112.754v0 174.137c97.177-52.374 206.619-77.736 316.928-73.444 110.552-4.294 220.221 21.252 317.497 73.956l-0.114-174.649zM775.908 448.91v0c0-45.966-123.449-112.754-316.928-112.754s-316.757 66.788-316.757 112.754v0 187.733c97.235-52.509 206.79-77.933 317.212-73.614 110.363-4.368 219.875 20.976 317.099 73.387v-187.733l-0.626 0.228z" />
<glyph unicode="&#xe989;" glyph-name="Dashboard" d="M0 652.8h219.429v-716.8h-219.429v716.8zM409.6 960h204.8v-1024h-204.8v1024zM819.2 374.857h204.8v-438.857h-204.8v438.857z" />
<glyph unicode="&#xe98a;" glyph-name="Capacity-Planner" d="M796.444 220.444l-227.556 227.556v180.907c65.991 23.893 113.778 86.471 113.778 160.427 0 94.436-76.231 170.667-170.667 170.667s-170.667-76.231-170.667-170.667c0-73.956 47.787-136.533 113.778-160.427v-180.907l-227.556-227.556h-227.556v-284.444h284.444v173.511l227.556 238.933 227.556-238.933v-173.511h284.444v284.444h-227.556z" />
<glyph unicode="&#xe98c;" glyph-name="Template1" d="M921.6 857.6h-819.2c-56.32 0-101.888-46.080-101.888-102.4l-0.512-614.4c0-56.32 46.080-102.4 102.4-102.4h819.2c56.32 0 102.4 46.080 102.4 102.4v614.4c0 56.32-46.080 102.4-102.4 102.4zM665.6 140.8h-563.2v204.8h563.2v-204.8zM665.6 396.8h-563.2v204.8h563.2v-204.8zM921.6 140.8h-204.8v460.8h204.8v-460.8z" />
<glyph unicode="&#xe98d;" glyph-name="Settings1" d="M561.284 960c12.654 0 23.409-9.245 25.31-21.755l13.707-90.187c47.091-10.347 91.146-28.796 130.628-53.813l72.321 55.191c10.192 7.782 24.57 6.822 33.637-2.245l72.001-72.001c8.948-8.948 10.016-23.090 2.513-33.28l-54.128-73.455c25.2-39.386 43.845-83.369 54.398-130.411l90.131-12.131c12.71-1.704 22.198-12.549 22.198-25.373v-101.824c0-12.654-9.245-23.409-21.755-25.31l-90.187-13.707c-10.347-47.091-28.796-91.146-53.813-130.628l55.191-72.321c7.782-10.192 6.822-24.57-2.245-33.637l-72.001-72.001c-8.948-8.948-23.090-10.016-33.28-2.513l-73.455 54.128c-39.872-25.511-84.456-44.305-132.155-54.785l-13.707-90.187c-1.663-10.946-10.105-19.393-20.667-21.334l-4.643-0.422h-101.824c-11.221 0-20.926 7.264-24.319 17.595l-1.054 4.603-12.131 90.131c-47.042 10.553-91.025 29.198-130.411 54.398l-73.455-54.128c-8.916-6.564-20.858-6.567-29.699-0.471l-3.581 2.985-72.001 72.001c-7.934 7.934-9.661 19.934-4.755 29.638l2.51 4 55.191 72.321c-25.017 39.482-43.466 83.537-53.813 130.628l-90.187 13.707c-10.946 1.663-19.393 10.105-21.334 20.667l-0.422 4.643v101.824c0 11.221 7.264 20.926 17.595 24.319l4.603 1.054 90.131 12.131c10.553 47.042 29.198 91.025 54.398 130.411l-54.128 73.455c-6.564 8.916-6.567 20.858-0.471 29.699l2.985 3.581 72.001 72.001c7.934 7.934 19.934 9.661 29.638 4.755l4-2.51 72.321-55.191c38.994 24.708 82.449 43.009 128.884 53.426l12.131 90.131c1.704 12.71 12.549 22.198 25.373 22.198h101.824zM512 755.2c-169.662 0-307.2-137.538-307.2-307.2s137.538-307.2 307.2-307.2c169.662 0 307.2 137.538 307.2 307.2s-137.538 307.2-307.2 307.2zM512 652.8c113.108 0 204.8-91.692 204.8-204.8s-91.692-204.8-204.8-204.8c-113.108 0-204.8 91.692-204.8 204.8s91.692 204.8 204.8 204.8zM512 550.4c-56.554 0-102.4-45.846-102.4-102.4s45.846-102.4 102.4-102.4c56.554 0 102.4 45.846 102.4 102.4s-45.846 102.4-102.4 102.4z" />
<glyph unicode="&#xe995;" glyph-name="Database1" d="M51.2 38.4h921.6c28.277 0 51.2 22.923 51.2 51.2v102.4c0 28.277-22.923 51.2-51.2 51.2h-921.6c-28.277 0-51.2-22.923-51.2-51.2v-102.4c0-28.277 22.923-51.2 51.2-51.2zM102.4 192h102.4v-102.4h-102.4v102.4zM0 806.4v-102.4c0-28.277 22.923-51.2 51.2-51.2h921.6c28.277 0 51.2 22.923 51.2 51.2v102.4c0 28.277-22.923 51.2-51.2 51.2h-921.6c-28.277 0-51.2-22.923-51.2-51.2zM204.8 704h-102.4v102.4h102.4v-102.4zM51.2 345.6h921.6c28.277 0 51.2 22.923 51.2 51.2v102.4c0 28.277-22.923 51.2-51.2 51.2h-921.6c-28.277 0-51.2-22.923-51.2-51.2v-102.4c0-28.277 22.923-51.2 51.2-51.2zM102.4 499.2h102.4v-102.4h-102.4v102.4z" />
</font>
</defs>
</svg>
