<svg xmlns="http://www.w3.org/2000/svg" width="16" height="16" viewBox="0 0 16 16"><defs><style>.a{fill:none;fill-rule:evenodd;}.b{fill:#50505c;}</style></defs><g transform="translate(0 0)"><path class="a" d="M0,0H16V16H0Z"/><path class="b" d="M9.667,13.333A1.333,1.333,0,1,1,8.333,12,1.337,1.337,0,0,1,9.667,13.333ZM8.333,8A1.333,1.333,0,1,0,9.667,9.333,1.337,1.337,0,0,0,8.333,8Zm0-4A1.333,1.333,0,1,0,9.667,5.333,1.337,1.337,0,0,0,8.333,4Zm4,2.667A1.333,1.333,0,1,0,11,5.333,1.337,1.337,0,0,0,12.333,6.667Zm0,1.333a1.333,1.333,0,1,0,1.333,1.333A1.337,1.337,0,0,0,12.333,8Zm0,4a1.333,1.333,0,1,0,1.333,1.333A1.337,1.337,0,0,0,12.333,12Z" transform="translate(-2.333 -1.333)"/></g></svg>