<svg xmlns="http://www.w3.org/2000/svg" xmlns:xlink="http://www.w3.org/1999/xlink" width="24" height="24" viewBox="0 0 24 24">
  <defs>
    <clipPath id="clip-PDF-FileType">
      <rect width="24" height="24"/>
    </clipPath>
  </defs>
  <g id="PDF-FileType" clip-path="url(#clip-PDF-FileType)">
    <rect width="24" height="24" fill="#fff"/>
    <g id="PDF-FileType-2" data-name="PDF-FileType">
      <rect id="Rectangle" width="24" height="24" fill="none"/>
      <path id="Combined-Shape" d="M15.076,2,20,7.1V21a1,1,0,0,1-1,1H5a1,1,0,0,1-1-1V3A1,1,0,0,1,5,2Zm-.035,2H6V20H18V6.961Z" fill="#d30000" fill-rule="evenodd"/>
      <path id="Path-2" d="M14,2h1.078L20,7.1v.914H14Z" fill="#d30000" fill-rule="evenodd"/>
      <path id="Combined-Shape-2" data-name="Combined-Shape" d="M10.913,11a.68.68,0,0,1,.518.27,1.472,1.472,0,0,1,.224.778,6.3,6.3,0,0,1-.127.97,7.088,7.088,0,0,0,.557.72,7.092,7.092,0,0,0,.72.557,6.327,6.327,0,0,1,.969-.129,1.467,1.467,0,0,1,.777.225.692.692,0,0,1-.331,1.235,1.468,1.468,0,0,1-.784-.2,6.3,6.3,0,0,1-.776-.6,7.092,7.092,0,0,0-.9.121,7.086,7.086,0,0,0-.842.346,6.32,6.32,0,0,1-.374.9,1.466,1.466,0,0,1-.581.561.693.693,0,0,1-.906-.9,1.471,1.471,0,0,1,.563-.582,6.311,6.311,0,0,1,.9-.374,7.083,7.083,0,0,0,.346-.842,7.1,7.1,0,0,0,.121-.9,6.3,6.3,0,0,1-.6-.776,1.474,1.474,0,0,1-.2-.787.693.693,0,0,1,.507-.578A.683.683,0,0,1,10.913,11Zm-.667,4.575c-.094.051-.262.089-.338.14a1.129,1.129,0,0,0-.376.364c-.037.081-.047.077.043.167s.087.08.168.043a1.126,1.126,0,0,0,.365-.376C10.159,15.838,10.195,15.671,10.246,15.576Zm3.493-.888c-.092-.006-.255.046-.362.049.092.056.207.184.29.225a1.121,1.121,0,0,0,.5.143c.088-.009.092,0,.125-.121s.027-.116-.045-.168A1.134,1.134,0,0,0,13.739,14.688Zm-2.306-.948c-.035.163-.017.3-.061.459s-.126.271-.177.43c.159-.051.265-.135.428-.178s.3-.025.46-.06c-.124-.112-.248-.163-.368-.282S11.544,13.864,11.432,13.741Zm-.522-2.228c-.017,0-.04.008-.07.017-.123.033-.114.036-.122.125a1.128,1.128,0,0,0,.144.5c.041.083.166.2.222.289,0-.107.055-.271.049-.363a1.132,1.132,0,0,0-.126-.507C10.968,11.521,10.963,11.5,10.911,11.512Z" fill="#d30000"/>
    </g>
  </g>
</svg>
