<svg xmlns="http://www.w3.org/2000/svg" width="24" height="24" viewBox="0 0 24 24" fill="none">
  <mask id="mask0_1996_22550" style="mask-type:alpha" maskUnits="userSpaceOnUse" x="0" y="0" width="24" height="24">
    <circle cx="12" cy="12" r="11.125" stroke="black" stroke-width="1.75"/>
  </mask>
  <g mask="url(#mask0_1996_22550)">
    <path fill-rule="evenodd" clip-rule="evenodd" d="M7.83022 0.747761C10.1841 -0.124523 12.7523 -0.236653 15.1732 0.427154L14.5386 2.74172C12.6018 2.21068 10.5473 2.30038 8.66418 2.99821C6.78107 3.69604 5.16423 4.96685 4.04124 6.63175C2.91824 8.29666 2.34565 10.2718 2.40406 12.2792C2.46247 14.2866 3.14894 16.2251 4.36684 17.8219C5.58475 19.4187 7.27275 20.5934 9.19324 21.1805C11.1137 21.7677 13.17 21.7378 15.0726 21.095C16.9752 20.4522 18.6283 19.229 19.7993 17.5975C20.9702 15.9659 21.6 14.0082 21.6 12H24C24 14.5103 23.2128 16.9574 21.7491 18.9968C20.2854 21.0362 18.219 22.5653 15.8407 23.3688C13.4625 24.1722 10.8922 24.2096 8.49154 23.4757C6.09093 22.7417 3.98093 21.2734 2.45856 19.2774C0.93618 17.2814 0.0780918 14.8583 0.00507896 12.349C-0.0679336 9.83978 0.647806 7.37083 2.05155 5.28969C3.45529 3.20856 5.47634 1.62005 7.83022 0.747761Z" fill="#021155"/>
  </g>
</svg>