<svg xmlns="http://www.w3.org/2000/svg" width="14" height="12" viewBox="0 0 14 12" fill="none">
  <path fill-rule="evenodd" clip-rule="evenodd" d="M9.62547 11.2499C9.72493 11.2499 9.82031 11.2104 9.89064 11.1401C9.96097 11.0698 10.0005 10.9744 10.0005 10.8749V2.03019L12.36 4.39044C12.4304 4.46085 12.5259 4.50041 12.6255 4.50041C12.7251 4.50041 12.8206 4.46085 12.891 4.39044C12.9614 4.32002 13.0009 4.22452 13.0009 4.12494C13.0009 4.02536 12.9614 3.92985 12.891 3.85944L9.89097 0.859438C9.85614 0.824515 9.81476 0.796808 9.7692 0.777904C9.72364 0.758999 9.6748 0.749268 9.62547 0.749268C9.57615 0.749268 9.52731 0.758999 9.48175 0.777904C9.43619 0.796808 9.39481 0.824515 9.35997 0.859438L6.35997 3.85944C6.28956 3.92985 6.25 4.02536 6.25 4.12494C6.25 4.22452 6.28956 4.32002 6.35997 4.39044C6.43039 4.46085 6.52589 4.50041 6.62547 4.50041C6.72506 4.50041 6.82056 4.46085 6.89097 4.39044L9.25047 2.03019V10.8749C9.25047 10.9744 9.28998 11.0698 9.36031 11.1401C9.43063 11.2104 9.52602 11.2499 9.62547 11.2499ZM4.37547 0.749938C4.47493 0.749938 4.57031 0.789447 4.64064 0.859773C4.71096 0.930099 4.75047 1.02548 4.75047 1.12494V9.96969L7.10997 7.60944C7.18039 7.53902 7.27589 7.49946 7.37547 7.49946C7.47506 7.49946 7.57056 7.53902 7.64097 7.60944C7.71139 7.67985 7.75095 7.77536 7.75095 7.87494C7.75095 7.97452 7.71139 8.07002 7.64097 8.14044L4.64097 11.1404C4.60614 11.1754 4.56476 11.2031 4.5192 11.222C4.47364 11.2409 4.4248 11.2506 4.37547 11.2506C4.32615 11.2506 4.27731 11.2409 4.23175 11.222C4.18619 11.2031 4.14481 11.1754 4.10997 11.1404L1.10997 8.14044C1.03956 8.07002 1 7.97452 1 7.87494C1 7.77536 1.03956 7.67985 1.10997 7.60944C1.18039 7.53902 1.27589 7.49946 1.37547 7.49946C1.47506 7.49946 1.57056 7.53902 1.64097 7.60944L4.00047 9.96969V1.12494C4.00047 1.02548 4.03998 0.930099 4.11031 0.859773C4.18063 0.789447 4.27602 0.749938 4.37547 0.749938Z" fill="#ABABB3" stroke="#ABABB3" stroke-width="0.6"/>
</svg>