<svg xmlns="http://www.w3.org/2000/svg" width="210.5" height="75" viewBox="0 0 210.5 75">
  <g id="BEAT_Foliosure_dark" data-name="BEAT Foliosure dark" transform="translate(0 -6)">
    <path id="Path_61" data-name="Path 61" d="M12.4,0a6.992,6.992,0,0,0,4.98-1.877,5.938,5.938,0,0,0,2-4.48,5.2,5.2,0,0,0-.356-1.9,6.682,6.682,0,0,0-.772-1.491,5.727,5.727,0,0,0-.991-1.052q-.575-.477-.795-.621a3.707,3.707,0,0,0-.341-.2l.56-.439a4.492,4.492,0,0,0,1.067-1.514,5.333,5.333,0,0,0,.537-2.392,5.333,5.333,0,0,0-1.862-4,6.347,6.347,0,0,0-4.5-1.741H3.1V0ZM6.509-2.952v-7.129H12.4a3.448,3.448,0,0,1,2.551,1.029,3.468,3.468,0,0,1,1.022,2.543A3.43,3.43,0,0,1,14.94-3.973,3.468,3.468,0,0,1,12.4-2.952Zm5.419-15.8a2.863,2.863,0,0,1,2.112.84,2.854,2.854,0,0,1,.84,2.1,2.854,2.854,0,0,1-.84,2.1,2.863,2.863,0,0,1-2.112.84H6.509v-5.888ZM27.73-3.1v-6.66h9.46v-3.1H27.73V-18.6H39.673v-3.1H24.325V0H39.976V-3.1ZM42.141,0H45.7l2.331-5.737h9.612L59.972,0h3.557L54.538-21.706H51.132Zm10.7-17.831L56.4-8.84H49.27Zm10.066-3.875v3.1h6.509V0h3.406V-18.6h6.509v-3.1Z" transform="translate(63.108 40.93)" fill="#021155"/>
    <g id="BEAT_Logo_Dark" data-name="BEAT Logo Dark" transform="translate(0 6)">
      <rect id="Bounding_box" data-name="Bounding box" width="75" height="75" fill="none"/>
      <g id="BEAT_Logo" data-name="BEAT Logo" transform="translate(22.482 12.334)">
        <path id="Polygon_1-3" data-name="Polygon 1-3" d="M39.324,19.048a5.725,5.725,0,0,1,2.03,8.119,5.075,5.075,0,0,1-2.03,2.03L23.4,38.408a6.025,6.025,0,0,1-8.119-2.03,4.993,4.993,0,0,1-.781-2.966V14.833A5.93,5.93,0,0,1,20.433,8.9a6.477,6.477,0,0,1,2.966.781Z" transform="translate(-14.344 -8.9)" fill="#021155"/>
        <path id="Polygon_2-3" data-name="Polygon 2-3" d="M41.41,31.253a5.852,5.852,0,0,1,2.03,8.119,6.3,6.3,0,0,1-2.03,2.03L23.455,52.174a6.025,6.025,0,0,1-8.119-2.03,5.275,5.275,0,0,1-.937-3.123V25.633A5.93,5.93,0,0,1,20.333,19.7a6.025,6.025,0,0,1,3.123.937Z" transform="translate(-14.4 -2.838)" fill="#9c27b0" opacity="0.7"/>
      </g>
    </g>
    <path id="Path_60" data-name="Path 60" d="M2.6-18.205V0H5.459V-7.935h7.795v-2.59H5.459V-15.6h9.877v-2.6ZM28.474-6.24a4.106,4.106,0,0,1-1.155,2.952,3.671,3.671,0,0,1-2.742,1.206,3.691,3.691,0,0,1-2.749-1.206A4.094,4.094,0,0,1,20.666-6.24a4.094,4.094,0,0,1,1.162-2.952A3.691,3.691,0,0,1,24.576-10.4a3.671,3.671,0,0,1,2.742,1.206A4.106,4.106,0,0,1,28.474-6.24Zm-10.4,0a6.236,6.236,0,0,0,1.936,4.558A6.243,6.243,0,0,0,24.576.254,6.243,6.243,0,0,0,29.14-1.682,6.236,6.236,0,0,0,31.076-6.24,6.257,6.257,0,0,0,29.14-10.8a6.233,6.233,0,0,0-4.564-1.942A6.233,6.233,0,0,0,20.012-10.8,6.257,6.257,0,0,0,18.076-6.24Zm20.78-11.965h-2.59V0h2.59Zm8.707,5.726h-2.6V0h2.6Zm.267-3.9a1.515,1.515,0,0,0-.444-1.117,1.515,1.515,0,0,0-1.117-.444,1.515,1.515,0,0,0-1.117.444,1.515,1.515,0,0,0-.444,1.117,1.515,1.515,0,0,0,.444,1.117,1.515,1.515,0,0,0,1.117.444,1.515,1.515,0,0,0,1.117-.444A1.515,1.515,0,0,0,47.83-16.377ZM63.037-6.24a4.106,4.106,0,0,1-1.155,2.952,3.671,3.671,0,0,1-2.742,1.206,3.691,3.691,0,0,1-2.749-1.206A4.094,4.094,0,0,1,55.229-6.24a4.094,4.094,0,0,1,1.162-2.952A3.691,3.691,0,0,1,59.139-10.4a3.671,3.671,0,0,1,2.742,1.206A4.106,4.106,0,0,1,63.037-6.24Zm-10.4,0a6.236,6.236,0,0,0,1.936,4.558A6.243,6.243,0,0,0,59.139.254,6.243,6.243,0,0,0,63.7-1.682,6.236,6.236,0,0,0,65.639-6.24,6.257,6.257,0,0,0,63.7-10.8a6.233,6.233,0,0,0-4.564-1.942A6.233,6.233,0,0,0,54.575-10.8,6.257,6.257,0,0,0,52.639-6.24Zm27.42,1.035a2.572,2.572,0,0,1-.978,2.044,4,4,0,0,1-2.666.825,6.591,6.591,0,0,1-1.733-.222,6.056,6.056,0,0,1-1.314-.5,5.555,5.555,0,0,1-.92-.635A5.275,5.275,0,0,1,71.9-4.2q-.121-.146-.171-.222L69.916-2.6l.254.317a5.8,5.8,0,0,0,.774.7A10.276,10.276,0,0,0,72.2-.755a7.8,7.8,0,0,0,1.847.711,9.19,9.19,0,0,0,2.368.3A6.967,6.967,0,0,0,81.189-1.27a5.006,5.006,0,0,0,1.727-3.936,4.914,4.914,0,0,0-.533-2.361A3.989,3.989,0,0,0,81-9.09,9.728,9.728,0,0,0,79.132-10a21.229,21.229,0,0,0-2.057-.635,16.658,16.658,0,0,1-1.873-.584,3.62,3.62,0,0,1-1.377-.9,1.987,1.987,0,0,1-.533-1.409,2.066,2.066,0,0,1,.857-1.638,3.477,3.477,0,0,1,2.266-.7,5.2,5.2,0,0,1,1.327.165,4.653,4.653,0,0,1,1.016.375,5.307,5.307,0,0,1,.724.47,2.857,2.857,0,0,1,.432.381,2.141,2.141,0,0,0,.146.171l1.815-1.828-.2-.254a4.447,4.447,0,0,0-.679-.578,10.015,10.015,0,0,0-1.079-.673,7,7,0,0,0-1.549-.584,7.568,7.568,0,0,0-1.949-.248,6.386,6.386,0,0,0-4.367,1.416,4.5,4.5,0,0,0-1.612,3.523,4.9,4.9,0,0,0,.533,2.368,4,4,0,0,0,1.377,1.517,10,10,0,0,0,1.873.914,20.167,20.167,0,0,0,2.057.641,16.658,16.658,0,0,1,1.873.584,3.659,3.659,0,0,1,1.377.889A1.965,1.965,0,0,1,80.059-5.205ZM96.815,0h2.6V-12.479h-2.6v6.754a3.818,3.818,0,0,1-.882,2.685,3.062,3.062,0,0,1-2.368.958,2.835,2.835,0,0,1-2.126-.889,3.09,3.09,0,0,1-.857-2.234V-12.48h-2.6v7.274a5.546,5.546,0,0,0,1.4,3.98A4.817,4.817,0,0,0,93.044.254,5.125,5.125,0,0,0,94.339.089a5.454,5.454,0,0,0,1.054-.375,5.7,5.7,0,0,0,.781-.47,4.529,4.529,0,0,0,.476-.375l.165-.165Zm15.474-10.271v-2.476h-.647a4.97,4.97,0,0,0-1.289.171,5.5,5.5,0,0,0-1.054.381,6.257,6.257,0,0,0-.781.47,4.365,4.365,0,0,0-.482.375l-.165.165v-1.295h-2.6V0h2.6V-6.754a3.818,3.818,0,0,1,.882-2.685,3.062,3.062,0,0,1,2.368-.958A4.938,4.938,0,0,1,112.289-10.271ZM128-5.332l.14-1.295A5.933,5.933,0,0,0,126.4-11a5.925,5.925,0,0,0-4.367-1.746,6.129,6.129,0,0,0-4.494,1.873,6.137,6.137,0,0,0-1.873,4.5,6.422,6.422,0,0,0,1.923,4.678A6.21,6.21,0,0,0,122.163.254a6.534,6.534,0,0,0,1.923-.286A7.45,7.45,0,0,0,125.6-.654a7.622,7.622,0,0,0,1.1-.774,7.01,7.01,0,0,0,.679-.622q.159-.184.235-.286l-1.688-1.688-.394.482a4.459,4.459,0,0,1-1.339.965,4.328,4.328,0,0,1-2.038.5,3.822,3.822,0,0,1-2.609-.965,3.743,3.743,0,0,1-1.3-2.285Zm-5.98-5.192a3.5,3.5,0,0,1,2.387.832,3.572,3.572,0,0,1,1.181,2.152h-7.224a4.078,4.078,0,0,1,1.289-2.152A3.485,3.485,0,0,1,122.024-10.524Z" transform="translate(64.869 68.47)" fill="#021155"/>
    <line id="Line_116" data-name="Line 116" x1="11" transform="translate(199.5 25.5)" fill="none"/>
  </g>
</svg>
