<svg xmlns="http://www.w3.org/2000/svg" width="135.157" height="48" viewBox="0 0 135.157 48">
  <g id="BEAT_Foliosure_dark" data-name="BEAT Foliosure dark" transform="translate(0 -6)">
    <path id="Path_61" data-name="Path 61" d="M9.07-7.769a4.489,4.489,0,0,0,3.2-1.205,3.813,3.813,0,0,0,1.283-2.877,3.34,3.34,0,0,0-.228-1.22,4.291,4.291,0,0,0-.5-.957,3.677,3.677,0,0,0-.637-.675q-.369-.306-.51-.4a2.38,2.38,0,0,0-.219-.131l.36-.282a2.884,2.884,0,0,0,.685-.972,3.424,3.424,0,0,0,.345-1.536,3.424,3.424,0,0,0-1.2-2.566,4.075,4.075,0,0,0-2.887-1.118H3.1V-7.769ZM5.29-9.664v-4.578H9.07a2.214,2.214,0,0,1,1.638.661,2.227,2.227,0,0,1,.656,1.633A2.2,2.2,0,0,1,10.7-10.32a2.227,2.227,0,0,1-1.633.656ZM8.769-19.811a1.839,1.839,0,0,1,1.356.539,1.833,1.833,0,0,1,.539,1.351,1.833,1.833,0,0,1-.539,1.351,1.839,1.839,0,0,1-1.356.539H5.29v-3.781ZM18.916-9.761v-4.276H24.99V-16.03H18.916v-3.683h7.668v-1.992H16.729V-7.769H26.778V-9.761Zm9.252,1.992h2.284l1.5-3.683H38.12l1.5,3.683H41.9L36.128-21.706H33.941Zm6.871-11.449,2.284,5.773H32.746ZM41.5-21.706v1.992h4.179V-7.769h2.187V-19.714h4.179v-1.992Z" transform="translate(39.409 36.197)" fill="#021155"/>
    <g id="BEAT_Logo_Dark" data-name="BEAT Logo Dark" transform="translate(0 6)">
      <rect id="Bounding_box" data-name="Bounding box" width="48" height="48" fill="none"/>
      <g id="BEAT_Logo" data-name="BEAT Logo" transform="translate(14.435 7.919)">
        <path id="Polygon_1-3" data-name="Polygon 1-3" d="M30.439,15.416a3.676,3.676,0,0,1,1.3,5.213,3.258,3.258,0,0,1-1.3,1.3L20.214,27.846A3.869,3.869,0,0,1,15,26.543a3.206,3.206,0,0,1-.5-1.9V12.709A3.808,3.808,0,0,1,18.309,8.9a4.159,4.159,0,0,1,1.9.5Z" transform="translate(-14.4 -8.9)" fill="#021155"/>
        <path id="Polygon_2-3" data-name="Polygon 2-3" d="M31.742,27.118a3.757,3.757,0,0,1,1.3,5.213,4.046,4.046,0,0,1-1.3,1.3L20.214,40.551A3.869,3.869,0,0,1,15,39.248a3.387,3.387,0,0,1-.6-2V23.509A3.808,3.808,0,0,1,18.209,19.7a3.868,3.868,0,0,1,2,.6Z" transform="translate(-14.4 -8.874)" fill="#9c27b0" opacity="0.7"/>
      </g>
    </g>
    <path id="Path_60" data-name="Path 60" d="M2.6-18.3V-6.607H4.437V-11.7h5v-1.663h-5v-3.261h6.342V-18.3Zm16.611,7.683a2.637,2.637,0,0,1-.742,1.9,2.357,2.357,0,0,1-1.761.774,2.37,2.37,0,0,1-1.765-.774,2.629,2.629,0,0,1-.746-1.9,2.629,2.629,0,0,1,.746-1.9,2.37,2.37,0,0,1,1.765-.774,2.357,2.357,0,0,1,1.761.774A2.637,2.637,0,0,1,19.214-10.613Zm-6.676,0a4,4,0,0,0,1.243,2.926,4.009,4.009,0,0,0,2.93,1.243,4.009,4.009,0,0,0,2.93-1.243,4,4,0,0,0,1.243-2.926,4.017,4.017,0,0,0-1.243-2.93,4,4,0,0,0-2.93-1.247,4,4,0,0,0-2.93,1.247A4.017,4.017,0,0,0,12.538-10.613ZM25.88-18.3H24.217V-6.607H25.88Zm5.591,3.676H29.8v8.013h1.671Zm.171-2.5a.973.973,0,0,0-.285-.717.973.973,0,0,0-.717-.285.973.973,0,0,0-.717.285.973.973,0,0,0-.285.717.973.973,0,0,0,.285.717.973.973,0,0,0,.717.285.973.973,0,0,0,.717-.285A.973.973,0,0,0,31.642-17.122Zm9.764,6.509a2.637,2.637,0,0,1-.742,1.9,2.357,2.357,0,0,1-1.761.774,2.37,2.37,0,0,1-1.765-.774,2.629,2.629,0,0,1-.746-1.9,2.629,2.629,0,0,1,.746-1.9,2.37,2.37,0,0,1,1.765-.774,2.357,2.357,0,0,1,1.761.774A2.637,2.637,0,0,1,41.406-10.613Zm-6.676,0a4,4,0,0,0,1.243,2.926A4.009,4.009,0,0,0,38.9-6.444a4.009,4.009,0,0,0,2.93-1.243,4,4,0,0,0,1.243-2.926,4.017,4.017,0,0,0-1.243-2.93,4,4,0,0,0-2.93-1.247,4,4,0,0,0-2.93,1.247A4.017,4.017,0,0,0,34.73-10.613Zm17.606.664a1.651,1.651,0,0,1-.628,1.312A2.57,2.57,0,0,1,50-8.107a4.232,4.232,0,0,1-1.113-.143,3.888,3.888,0,0,1-.844-.318,3.567,3.567,0,0,1-.591-.408A3.387,3.387,0,0,1,47.1-9.3q-.077-.094-.11-.143L45.823-8.278l.163.2a3.725,3.725,0,0,0,.5.448,6.6,6.6,0,0,0,.807.534,5.01,5.01,0,0,0,1.186.456A5.9,5.9,0,0,0,50-6.444a4.474,4.474,0,0,0,3.065-.978A3.214,3.214,0,0,0,54.17-9.949a3.155,3.155,0,0,0-.342-1.516,2.561,2.561,0,0,0-.884-.978,6.246,6.246,0,0,0-1.2-.583,13.631,13.631,0,0,0-1.321-.408,10.7,10.7,0,0,1-1.2-.375,2.325,2.325,0,0,1-.884-.575,1.276,1.276,0,0,1-.342-.9,1.326,1.326,0,0,1,.55-1.052A2.232,2.232,0,0,1,50-16.788a3.341,3.341,0,0,1,.852.106,2.988,2.988,0,0,1,.652.24,3.407,3.407,0,0,1,.465.3,1.834,1.834,0,0,1,.277.245,1.375,1.375,0,0,0,.094.11L53.5-16.959l-.13-.163a2.855,2.855,0,0,0-.436-.371,6.431,6.431,0,0,0-.693-.432,4.5,4.5,0,0,0-.994-.375A4.859,4.859,0,0,0,50-18.459a4.1,4.1,0,0,0-2.8.909,2.888,2.888,0,0,0-1.035,2.262,3.149,3.149,0,0,0,.342,1.52,2.569,2.569,0,0,0,.884.974,6.418,6.418,0,0,0,1.2.587,12.948,12.948,0,0,0,1.321.412,10.7,10.7,0,0,1,1.2.375,2.349,2.349,0,0,1,.884.571A1.262,1.262,0,0,1,52.336-9.949ZM63.094-6.607h1.671V-14.62H63.094v4.337a2.451,2.451,0,0,1-.567,1.724,1.966,1.966,0,0,1-1.52.615,1.82,1.82,0,0,1-1.365-.571,1.984,1.984,0,0,1-.55-1.435V-14.62H57.421v4.671a3.561,3.561,0,0,0,.9,2.555,3.093,3.093,0,0,0,2.352.95A3.291,3.291,0,0,0,61.5-6.55a3.5,3.5,0,0,0,.677-.24,3.658,3.658,0,0,0,.5-.3,2.907,2.907,0,0,0,.306-.24l.106-.106ZM73.029-13.2v-1.59h-.416a3.191,3.191,0,0,0-.827.11,3.532,3.532,0,0,0-.677.245,4.018,4.018,0,0,0-.5.3,2.8,2.8,0,0,0-.31.24l-.106.106v-.831H68.522v8.013h1.671v-4.337a2.451,2.451,0,0,1,.567-1.724,1.966,1.966,0,0,1,1.52-.615A3.171,3.171,0,0,1,73.029-13.2Zm10.09,3.171.09-.831a3.809,3.809,0,0,0-1.121-2.808,3.8,3.8,0,0,0-2.8-1.121,3.935,3.935,0,0,0-2.886,1.2,3.94,3.94,0,0,0-1.2,2.89,4.124,4.124,0,0,0,1.235,3A3.988,3.988,0,0,0,79.37-6.444,4.2,4.2,0,0,0,80.6-6.627a4.784,4.784,0,0,0,.974-.4,4.894,4.894,0,0,0,.709-.5,4.5,4.5,0,0,0,.436-.4q.1-.118.151-.183L81.791-9.191l-.253.31a2.863,2.863,0,0,1-.86.62,2.779,2.779,0,0,1-1.308.318,2.454,2.454,0,0,1-1.675-.62,2.4,2.4,0,0,1-.836-1.467ZM79.28-13.364a2.246,2.246,0,0,1,1.532.534,2.294,2.294,0,0,1,.758,1.382H76.933a2.618,2.618,0,0,1,.827-1.382A2.238,2.238,0,0,1,79.28-13.364Z" transform="translate(40.719 52.718)" fill="#021155"/>
    <line id="Line_116" data-name="Line 116" x1="7.063" transform="translate(128.094 18.52)" fill="none"/>
  </g>
</svg>
