<svg xmlns="http://www.w3.org/2000/svg" width="142.227" height="122" viewBox="0 0 142.227 122">
  <g id="Group_9174" data-name="Group 9174" transform="translate(0 -0.002)">
    <path id="Path_31871" data-name="Path 31871" d="M522.495,198.077l-65.441,22.117a3.247,3.247,0,0,1-4.111-2.034l-30.313-89.69a3.247,3.247,0,0,1,2.034-4.111L490.1,102.241a3.247,3.247,0,0,1,4.111,2.034l30.313,89.69a3.247,3.247,0,0,1-2.034,4.111Z" transform="translate(-382.473 -102.068)" fill="#e6e6e6"/>
    <path id="Path_31872" data-name="Path 31872" d="M532.044,207.64,468.6,229.084a2.194,2.194,0,0,1-2.778-1.374l-29.639-87.7a2.194,2.194,0,0,1,1.374-2.778L501,115.791a2.194,2.194,0,0,1,2.778,1.374l29.639,87.7A2.194,2.194,0,0,1,532.044,207.64Z" transform="translate(-393.693 -113.288)" fill="#fff"/>
    <path id="Path_31873" data-name="Path 31873" d="M552.357,320.593H483.28a3.247,3.247,0,0,1-3.243-3.243V222.675a3.247,3.247,0,0,1,3.243-3.243h69.077a3.247,3.247,0,0,1,3.243,3.243v94.674A3.247,3.247,0,0,1,552.357,320.593Z" transform="translate(-429.956 -198.854)" fill="#ccc"/>
    <path id="Path_31874" data-name="Path 31874" d="M561.2,328.385H494.229a2.194,2.194,0,0,1-2.192-2.192v-92.57a2.194,2.194,0,0,1,2.192-2.192H561.2a2.194,2.194,0,0,1,2.192,2.192v92.57A2.194,2.194,0,0,1,561.2,328.385Z" transform="translate(-439.852 -208.75)" fill="#fff"/>
    <path id="Path_31875" data-name="Path 31875" d="M590.482,367.99H546.248a1.405,1.405,0,0,1,0-2.81h44.234a1.405,1.405,0,0,1,0,2.81Z" transform="translate(-483.4 -319.049)" fill="#ccc"/>
    <path id="Path_31876" data-name="Path 31876" d="M596.278,395.038h-50.03a1.405,1.405,0,0,1,0-2.81h50.03a1.405,1.405,0,1,1,0,2.81Z" transform="translate(-483.4 -341.355)" fill="#ccc"/>
    <path id="Path_31877" data-name="Path 31877" d="M590.482,489.2H546.248a1.405,1.405,0,0,1,0-2.81h44.234a1.405,1.405,0,0,1,0,2.81Z" transform="translate(-483.4 -419.011)" fill="#021155"/>
    <path id="Path_31878" data-name="Path 31878" d="M596.278,516.251h-50.03a1.405,1.405,0,0,1,0-2.81h50.03a1.405,1.405,0,1,1,0,2.81Z" transform="translate(-483.4 -441.317)" fill="#ccc"/>
    <path id="Path_31879" data-name="Path 31879" d="M590.482,610.417H546.248a1.405,1.405,0,0,1,0-2.81h44.234a1.405,1.405,0,1,1,0,2.81Z" transform="translate(-483.4 -518.973)" fill="#ccc"/>
    <path id="Path_31880" data-name="Path 31880" d="M596.278,637.465h-50.03a1.405,1.405,0,0,1,0-2.81h50.03a1.405,1.405,0,1,1,0,2.81Z" transform="translate(-483.4 -541.279)" fill="#ccc"/>
    <path id="Path_31881" data-name="Path 31881" d="M347.333,420.741H337.165a.79.79,0,0,1-.789-.789v-4.383a5.873,5.873,0,0,1,11.747,0v4.383a.79.79,0,0,1-.789.789Z" transform="translate(-311.481 -355.76)" fill="#2f2e41"/>
    <path id="Path_31882" data-name="Path 31882" d="M455.823,570.969a1.763,1.763,0,0,1-1.625-2.16l-5.3-3.342,2.966-1.343,4.577,3.38a1.773,1.773,0,0,1-.619,3.466Z" transform="translate(-404.277 -483.113)" fill="#ffb8b8"/>
    <path id="Path_31883" data-name="Path 31883" d="M386.668,504.772a.945.945,0,0,1-.494-.2l-14.578-11.3-1.88-3.343a1.855,1.855,0,0,1,.163-2.067h0a1.861,1.861,0,0,1,2.722-.212l16.249,13.179a.952.952,0,0,1,.244,1.34l-1.558,2.2a.945.945,0,0,1-.638.392A.967.967,0,0,1,386.668,504.772Z" transform="translate(-338.779 -419.643)" fill="#2f2e41"/>
    <path id="Path_31884" data-name="Path 31884" d="M77.194,633.924l1.993.806,4.058-7.3-2.941-1.19Z" transform="translate(-63.66 -516.444)" fill="#ffb8b8"/>
    <path id="Path_31885" data-name="Path 31885" d="M265.266,767.259l3.924,1.588h0a2.7,2.7,0,0,1,1.489,3.513l-.033.081-6.425-2.6Z" transform="translate(-251.977 -650.634)" fill="#2f2e41"/>
    <path id="Path_31886" data-name="Path 31886" d="M209.617,643.863h2.149l1.023-8.291h-3.172Z" transform="translate(-172.866 -524.14)" fill="#ffb8b8"/>
    <path id="Path_31887" data-name="Path 31887" d="M400.876,780.926h4.233a2.7,2.7,0,0,1,2.7,2.7v.088h-6.931Z" transform="translate(-364.673 -661.905)" fill="#2f2e41"/>
    <path id="Path_31888" data-name="Path 31888" d="M301.357,594.065a5.1,5.1,0,0,1-2.153-.579.871.871,0,0,1-.468-.612l-4.531-22.842-11.754,21.991a.875.875,0,0,1-.5.418,3.713,3.713,0,0,1-4.388-1.1.861.861,0,0,1-.1-.893l5.444-11.826,3.291-11.233,3.327-8.221.073.008,11.125,1.171,1.353,7.44,1.362,24.772a.861.861,0,0,1-.159.554A2.268,2.268,0,0,1,301.357,594.065Z" transform="translate(-262.835 -479.029)" fill="#2f2e41"/>
    <circle id="Ellipse_384" data-name="Ellipse 384" cx="4.306" cy="4.306" r="4.306" transform="translate(27.911 56.302)" fill="#ffb8b8"/>
    <path id="Path_31889" data-name="Path 31889" d="M353.924,498.284c-1.875,0-4.194-1.1-6.918-3.277l-.046-.037,1.926-15.194.09,0a9.689,9.689,0,0,1,6.853,2.144l.016.017,1.505,1.935v.035l.212,11.885-.005.017a3.783,3.783,0,0,1-2.417,2.307A4.2,4.2,0,0,1,353.924,498.284Z" transform="translate(-320.21 -413.543)" fill="#021155"/>
    <path id="Path_31890" data-name="Path 31890" d="M334.641,504.919a.958.958,0,0,1-.923-.71L331.074,494.2l-1.675,9.119a.952.952,0,0,1-1.07.772l-7.293-1.018a.953.953,0,0,1-.771-1.251l3.689-10.874-.826-6.371a4.771,4.771,0,0,1,4.532-5.38l.074,0,3.508,8.46.558-2.232.873-4.8.13.076a7.762,7.762,0,0,1,3.877,7.075l-.221,5.088,1.96,10.388a.955.955,0,0,1-.759,1.114l-2.843.541A.944.944,0,0,1,334.641,504.919Z" transform="translate(-298.153 -413.075)" fill="#021155"/>
    <path id="Path_31891" data-name="Path 31891" d="M363.47,423.429h-6.218l-.064-.893-.319.893h-.957l-.126-1.769-.632,1.769H353.3v-.088a4.651,4.651,0,0,1,4.646-4.646h.877a4.651,4.651,0,0,1,4.646,4.646Z" transform="translate(-325.439 -363.182)" fill="#2f2e41"/>
    <path id="Path_31892" data-name="Path 31892" d="M334.115,796.282H194.559a.175.175,0,1,1,0-.351H334.115a.175.175,0,1,1,0,.351Z" transform="translate(-194.383 -674.28)" fill="#ccc"/>
    <path id="Path_31893" data-name="Path 31893" d="M387.537,583a1.962,1.962,0,0,0,2.239,1.944,3.3,3.3,0,0,0,3.028,1.984h0a3.3,3.3,0,0,0,3.3-3.3v-2.862c0-.737-.6-.983-1.334-.983h-3.938c-.737,0-1.334.247-1.334.983v.273A1.966,1.966,0,0,0,387.537,583Zm.536,0a1.43,1.43,0,0,1,1.428-1.428v2.053a3.309,3.309,0,0,0,.1.8c-.033,0-.065,0-.1,0A1.43,1.43,0,0,1,388.073,583Z" transform="translate(-353.673 -496.025)" fill="#021155"/>
    <path id="Path_31894" data-name="Path 31894" d="M359.43,576.685a1.763,1.763,0,0,0-2.642-.573l-5.251-3.417.02,3.256,4.984,2.746a1.773,1.773,0,0,0,2.889-2.011Z" transform="translate(-323.984 -490.182)" fill="#ffb8b8"/>
    <path id="Path_31895" data-name="Path 31895" d="M327.593,507.235a.789.789,0,0,1-.558-.231l-6.687-6.687a1.768,1.768,0,0,1-.476-1.654c.572-2.5,1.967-8.481,2.556-9.954a5.2,5.2,0,0,1,2.254-2.626l.026-.013,2.117.391.187,6.53-2.557,5.48,5.437,5.133a.786.786,0,0,1,.082,1.057l-1.758,2.268a.79.79,0,0,1-.574.3Z" transform="translate(-297.833 -418.745)" fill="#2f2e41"/>
    <ellipse id="Ellipse_385" data-name="Ellipse 385" cx="2.455" cy="0.351" rx="2.455" ry="0.351" transform="translate(36.669 83.957)" fill="#2f2e41"/>
  </g>
</svg>
