<svg xmlns="http://www.w3.org/2000/svg" xmlns:xlink="http://www.w3.org/1999/xlink" width="1366" height="768" viewBox="0 0 1366 768">
  <defs>
    <linearGradient id="linear-gradient" x1="0.978" y1="0.045" x2="0.023" y2="0.968" gradientUnits="objectBoundingBox">
      <stop offset="0" stop-color="#fff"/>
      <stop offset="1" stop-color="#9ed3f0" stop-opacity="0.243"/>
    </linearGradient>
  </defs>
  <g id="boxes" opacity="0.1" style="isolation: isolate">
    <g id="Layer_1" data-name="Layer 1">
      <path id="Path_1247" data-name="Path 1247" d="M1366,17.67l-39.34,21.2L1270.11,8.53l16-8.53h-6.61l-12.67,6.8h-.07L1254,0h-6.48l15.94,8.53L1207,38.87,1150.45,8.53,1166.39,0h-6.55l-12.73,6.8L1134.37,0h-6.47l15.94,8.53-56.49,30.34L1030.8,8.53,1046.73,0h-6.54l-12.74,6.8L1014.79,0h-6.54l16,8.53L967.62,38.87,911.14,8.53l16-8.53H920.6L907.94,6.8,895.21,0h-6.62l16,8.53L848,38.87,791.56,8.53,807.49,0h-6.61L788.21,6.8,775.48,0h-6.54l15.93,8.53L728.39,38.87,671.9,8.53,687.84,0h-6.55L668.56,6.8,655.9,0h-6.62l16,8.53L608.73,38.87,552.18,8.53l16-8.53h-6.54L548.9,6.8,536.24,0h-6.61l16,8.53L489.15,38.87,432.59,8.53,448.53,0H442L429.32,6.8,416.59,0H410l16,8.53L369.42,38.87,312.94,8.53,328.87,0H322.4L309.67,6.8,296.93,0h-6.61l15.93,8.53L249.77,38.87,193.21,8.53l16-8.53h-6.55L189.94,6.8,177.28,0h-6.62l16,8.53L130.18,38.87,73.56,8.53,89.56,0H83L70.36,6.8,57.62,0H51.15L67.08,8.53,10.6,38.87h-.14L0,33.27v3.47L7.18,40.6,0,44.4v3.54L10.46,42.4,67.08,72.67,10.6,103h-.14L0,97.41v3.47l7.18,3.86L0,108.54v3.6l10.6-5.6,56.48,30.34L10.6,167.15h-.14L0,161.55V165l7.18,4L0,172.75v3.46l10.46-5.53L67.08,201,10.6,231.22h-.14L0,225.69v3.46l7.18,3.94L0,236.89v3.53l10.6-5.6,56.48,30.34L10.46,295.49,0,289.83v3.46l7.18,3.94L0,301v3.46L10.46,299l56.62,30.3L10.46,359.63,0,354v3.47l7.18,3.93L0,365.17v3.53l10.46-5.53,56.62,30.2-56.62,30.4L0,418.1v3.47l7.18,3.87L0,429.3v3.54l10.46-5.54,56.62,30.34-56.62,30.2L0,482.24v3.54l7.18,3.93L0,493.51V497l10.46-5.54h.14L67.08,521.8,10.46,552,0,546.38v3.53l7.18,3.94L0,557.65v3.47l10.46-5.61h.14l56.48,30.41L10.6,616.25,0,610.52v3.53L7.18,618,0,621.79v3.46l10.46-5.6h.14L67.08,650,10.46,680.33,0,674.73v3.46l7.18,3.87L0,685.93v3.53l10.46-5.53h.14l56.48,30.2L10.6,744.46,0,738.8v3.53l7.18,3.87L0,750.06v3.54l10.46-5.54h.14L47.81,768h6.68L13.87,746.2,70.36,716l56.55,30.2L86.15,768h6.76l37.27-19.94L167.39,768h6.76l-40.69-21.8L189.94,716l56.63,30.2L205.8,768h6.69l37.28-19.94L287,768h6.83l-40.69-21.8L309.67,716l56.48,30.2L325.53,768h6.69l37.2-19.94L406.7,768h6.76l-40.69-21.8L429.32,716l56.48,30.2L445.11,768h6.76l37.28-19.94L526.35,768h6.76l-40.69-21.8L548.9,716l56.63,30.2L564.77,768h6.69l37.27-19.94L646,768h6.76l-40.69-21.8L668.56,716l56.55,30.2L684.42,768h6.76l37.21-19.94L765.59,768h6.83l-40.76-21.8L788.28,716l56.49,30.2L804.08,768h6.76L848,748.06,885.32,768h6.76l-40.77-21.8L907.94,716l56.48,30.2L923.73,768h6.69l37.2-19.94L1005,768h6.69L970.9,746.2l56.55-30.2,56.63,30.2L1043.32,768h6.75l37.28-19.94L1124.56,768h6.68l-40.62-21.8,56.49-30.2,56.62,30.2L1163,768h6.76L1207,748.06,1244.2,768h6.8l-40.69-21.8,56.48-30.2,56.56,30.2L1282.63,768h6.75l37.28-19.94L1363.94,768H1366v-2.4l-36.14-19.4L1366,726.86v-3.53l-39.34,21.13-56.55-30.33,56.55-30.2L1366,705v-3.53l-36.14-19.4L1366,662.72v-3.53l-39.34,21.14L1270.11,650l56.55-30.34,39.34,21.2v-3.54L1329.86,618,1366,598.6v-3.54l-39.34,21.2-56.55-30.33,56.55-30.41,39.34,21.2v-3.54l-36.14-19.33L1366,534.38v-3.47L1326.66,552l-56.55-30.2,56.55-30.34L1366,512.58V509l-36.14-19.33L1366,470.24v-3.53l-39.34,21.13-56.55-30.2,56.55-30.34L1366,448.44v-3.53l-36.14-19.47L1366,406.1v-3.53l-39.34,21.2-56.55-30.4,56.55-30.2L1366,384.3v-3.53l-36.14-19.41L1366,342v-3.53l-39.34,21.2L1270,329.3l56.66-30.3L1366,320.09v-3.46l-36.14-19.4L1366,277.82v-3.53l-39.34,21.2-56.55-30.33,56.55-30.34L1366,256v-3.54l-36.14-19.33L1366,213.62v-3.47l-39.34,21.07L1270.11,201l56.55-30.34L1366,191.82v-3.54L1329.86,169,1366,149.48V146l-39.34,21.2-56.55-30.27,56.55-30.34L1366,127.68v-3.54l-36.14-19.4L1366,85.34V81.81L1326.66,103l-56.55-30.34,56.55-30.27L1366,63.54V60l-36.14-19.4L1366,21.2Zm-102.51,55L1207,103l-56.56-30.34L1207,42.4ZM372.77,361.36l56.55-30.26,56.48,30.26L429.32,391.7Zm53.21,32-56.56,30.4-56.48-30.4,56.48-30.2Zm63.17-30.2,56.48,30.2-56.48,30.4-56.56-30.4Zm3.27-1.81L548.9,331.1l56.63,30.26L548.9,391.7Zm116.31,1.81,56.56,30.2-56.56,30.4-56.55-30.4Zm3.35-1.81,56.48-30.26,56.55,30.26L668.56,391.7Zm116.31,1.81,56.48,30.2-56.48,30.4-56.56-30.4Zm3.27-1.81,56.62-30.26,56.49,30.26L788.21,391.7ZM848,363.17l56.56,30.2L848,423.77l-56.48-30.4Zm3.27-1.81L907.9,331.1l56.48,30.26L907.94,391.7Zm116.31,1.81,56.63,30.2-56.63,30.4-56.48-30.4ZM911.14,329.3,967.62,299l56.63,30.34-56.63,30.33Zm-3.2-1.74-56.63-30.33,56.63-30.34,56.48,30.34Zm-3.34,1.74L848,359.63,791.56,329.3,848,299Zm-116.39-1.74-56.55-30.33,56.55-30.34,56.56,30.34Zm-3.34,1.74-56.48,30.33L671.83,329.3,728.39,299Zm-116.31-1.74-56.48-30.33,56.48-30.34,56.55,30.34Zm-3.27,1.74-56.56,30.33L552.18,329.3,608.73,299ZM548.9,327.56l-56.48-30.33,56.48-30.34,56.63,30.34Zm-3.27,1.74-56.48,30.33L432.59,329.3,489.15,299Zm-116.31-1.74-56.55-30.33,56.55-30.34,56.48,30.34ZM426,329.3l-56.56,30.33-56.5-30.33L369.42,299Zm-116.31-1.74-56.56-30.33,56.56-30.34,56.48,30.34Zm56.48,33.8-56.5,30.34-56.56-30.34,56.56-30.26Zm0,64.08-56.48,30.33-56.56-30.33,56.56-30.21Zm3.27,1.86L426,457.64l-56.56,30.2-56.48-30.2Zm3.35-1.86,56.55-30.21,56.48,30.21-56.48,30.33Zm116.38,1.86,56.48,30.34-56.48,30.2-56.56-30.2Zm3.27-1.86,56.48-30.21,56.63,30.21L548.9,455.77Zm116.31,1.86,56.56,30.34-56.56,30.2-56.55-30.2Zm3.35-1.86,56.48-30.21,56.55,30.21-56.55,30.33Zm116.31,1.86,56.48,30.34-56.48,30.2-56.56-30.2Zm3.27-1.86,56.62-30.21,56.49,30.21L788.3,455.77ZM848,427.3l56.56,30.34L848,487.84l-56.48-30.2Zm3.27-1.86,56.63-30.21,56.48,30.21L907.9,455.77Zm116.31,1.86,56.63,30.34-56.63,30.2-56.48-30.2Zm3.28-1.86,56.55-30.21,56.63,30.21-56.63,30.33Zm0-64.08,56.55-30.26,56.63,30.26-56.63,30.34Zm.07-64.13,56.48-30.34,56.63,30.34-56.63,30.33Zm0-64.14,56.48-30.34,56.63,30.34-56.63,30.2Zm53.28,32.07-56.63,30.33L911.1,265.16l56.48-30.34ZM907.9,263.29l-56.63-30.2,56.63-30.34,56.48,30.34Zm-3.34,1.87L848,295.49l-56.48-30.33L848,234.82Zm-116.39-1.74-56.55-30.33,56.55-30.34,56.56,30.34Zm-3.34,1.74-56.48,30.33-56.56-30.33,56.56-30.34Zm-116.31-1.74-56.48-30.33,56.48-30.34,56.55,30.34Zm-3.27,1.74-56.56,30.33-56.55-30.33,56.55-30.34ZM548.9,263.42l-56.48-30.33,56.48-30.34,56.63,30.34Zm-3.27,1.74-56.48,30.33-56.56-30.33,56.56-30.34Zm-116.31-1.74-56.55-30.33,56.55-30.34,56.48,30.34ZM426,265.16l-56.56,30.33-56.48-30.33,56.48-30.34Zm-116.31-1.74-56.56-30.33,56.56-30.34,56.48,30.34Zm-3.42,1.74-56.48,30.33-56.56-30.33,56.56-30.34Zm0,64.14-56.48,30.33L193.21,329.3,249.77,299Zm0,64.07-56.48,30.4-56.56-30.4,56.56-30.2Zm0,64.27-56.48,30.2-56.56-30.2,56.56-30.34Zm0,64.14L249.77,552l-56.56-30.2,56.56-30.34Zm-53.14-32.07,56.56-30.34,56.48,30.34-56.48,30.2Zm116.31,1.73L426,521.78,369.42,552l-56.48-30.2Zm3.35-1.73,56.55-30.34,56.48,30.34-56.48,30.2Zm116.38,1.73,56.48,30.34L489.15,552l-56.56-30.2Zm3.27-1.73,56.48-30.34,56.63,30.34-56.63,30.2Zm116.31,1.73,56.56,30.34L608.73,552l-56.55-30.2Zm3.35-1.73,56.48-30.34,56.55,30.34-56.55,30.2Zm116.31,1.73,56.48,30.34L728.39,552l-56.56-30.2Zm3.27-1.73,56.55-30.34,56.56,30.34-56.49,30.2ZM848,491.44l56.56,30.34L848,552l-56.48-30.2Zm3.27-1.73,56.63-30.34,56.48,30.34-56.48,30.2Zm116.31,1.73,56.63,30.34L967.62,552l-56.48-30.2Zm3.28-1.73,56.55-30.34,56.63,30.34-56.63,30.2Zm116.45,1.73,56.49,30.34L1087.35,552l-56.55-30.2Zm-56.55-33.8,56.55-30.34,56.49,30.34-56.49,30.2Zm0-64.27,56.55-30.2,56.49,30.2-56.49,30.4Zm0-64.07,56.59-30.3,56.49,30.34-56.49,30.33Zm0-64.14,56.55-30.34,56.49,30.34-56.49,30.33Zm0-64.14,56.55-30.34L1143.84,201l-56.49,30.2Zm-3.35-1.87L970.9,169l56.55-30.34L1084,169Zm-3.2,1.87-56.63,30.2L911.14,201l56.48-30.34ZM907.9,199.15,851.31,169l56.63-30.34L964.42,169ZM904.6,201,848,231.22,791.56,201,848,170.68Zm-116.32-1.87L731.66,169l56.62-30.34L844.77,169ZM784.87,201l-56.48,30.2L671.83,201l56.56-30.34Zm-116.31-1.87L612.08,169l56.48-30.34L725.11,169ZM665.29,201l-56.56,30.2L552.18,201l56.55-30.34ZM548.9,199.15,492.42,169l56.48-30.34L605.53,169ZM545.63,201l-56.48,30.2L432.59,201l56.56-30.34Zm-116.31-1.87L372.77,169l56.55-30.34L485.8,169ZM426,201l-56.56,30.2L312.94,201l56.48-30.34Zm-116.31-1.87L253.11,169l56.56-30.34L366.15,169ZM306.25,201l-56.48,30.2L193.21,201l56.56-30.34Zm-116.31-1.87L133.46,169l56.48-30.34L246.57,169Zm56.63,33.94L189.94,263.4l-56.48-30.33,56.48-30.34Zm0,64.14-56.63,30.33-56.48-30.33,56.48-30.34Zm0,64.13L189.94,391.7l-56.48-30.34,56.48-30.26Zm0,64.08-56.63,30.33-56.48-30.33,56.48-30.21Zm0,64.27-56.63,30.2-56.48-30.2,56.48-30.34Zm0,64.14-56.63,30.2-56.48-30.2,56.48-30.34Zm3.2,1.66,56.48,30.41-56.48,30.33L193.21,585.9Zm3.34-1.66,56.56-30.34,56.48,30.34-56.48,30.33Zm116.31,1.66L426,585.92l-56.56,30.33-56.48-30.33Zm3.35-1.66,56.55-30.34,56.48,30.34-56.48,30.33Zm116.38,1.66,56.48,30.41-56.48,30.33L432.59,585.9Zm3.27-1.66,56.48-30.34,56.63,30.34L548.9,584.18Zm116.31,1.66,56.56,30.41-56.56,30.33L552.18,585.9Zm3.35-1.66,56.48-30.34,56.55,30.34-56.55,30.33Zm116.31,1.66,56.48,30.41-56.48,30.33L671.83,585.9Zm3.27-1.66,56.55-30.34,56.56,30.34-56.49,30.2ZM848,555.51l56.56,30.41L848,616.25l-56.48-30.33Zm3.27-1.66,56.63-30.34,56.48,30.34-56.48,30.2Zm116.31,1.66,56.63,30.41-56.63,30.33L911.1,585.92Zm3.35-1.66,56.48-30.34,56.63,30.34-56.63,30.2Zm116.38,1.66,56.49,30.41-56.49,30.33-56.55-30.33Zm3.27-1.66,56.49-30.34,56.62,30.34-56.62,30.33Zm0-64.14,56.49-30.34,56.62,30.34-56.62,30.2Zm0-64.27,56.49-30.21,56.62,30.21-56.62,30.33Zm0-64.08,56.49-30.26,56.62,30.26-56.62,30.34Zm0-64.13,56.49-30.34,56.62,30.34-56.62,30.33Zm0-64.14,56.49-30.34,56.62,30.34-56.62,30.33Zm0-64.14,56.49-30.34L1203.73,169l-56.62,30.2Zm0-64.21,56.49-30.27,56.62,30.27-56.62,30.34Zm53.22,32.07v.07l-56.49,30.27-56.55-30.34,56.55-30.27Zm-116.39-1.73L970.9,104.74l56.55-30.27,56.63,30.27Zm-3.2,1.73v.07l-56.63,30.27L911.1,136.88l56.48-30.34ZM907.9,135.08l-56.63-30.34L907.9,74.47l56.48,30.27Zm-3.34,1.73v.07L848,167.15l-56.48-30.27L848,106.54Zm-116.32-1.73-56.62-30.34,56.62-30.27,56.49,30.27Zm-3.41,1.73v.07l-56.48,30.27L671.9,136.88l56.49-30.34Zm-116.31-1.73-56.48-30.34,56.48-30.27,56.55,30.27Zm-3.27,1.73v.07l-56.56,30.27-56.55-30.27,56.55-30.34ZM548.9,135.08l-56.48-30.34L548.9,74.47l56.63,30.27Zm-3.27,1.8-56.48,30.27-56.56-30.27,56.56-30.34Zm-116.31-1.8-56.55-30.34,56.55-30.27,56.48,30.27Zm-3.34,1.8-56.56,30.27-56.48-30.27,56.48-30.34Zm-116.31-1.8-56.56-30.34,56.56-30.27,56.48,30.27Zm-3.42,1.8-56.48,30.27-56.56-30.27v-.07l56.56-30.27Zm-116.31-1.8-56.48-30.34,56.48-30.27,56.63,30.27Zm-3.27,1.8-56.49,30.27L73.56,136.88v-.07l56.62-30.27Zm0,64.14-56.49,30.2L73.56,201l56.62-30.34Zm0,64.14-56.49,30.33L73.56,265.16l56.62-30.34Zm0,64.14-56.49,30.33L73.56,329.3,130.18,299Zm0,64.07-56.49,30.4-56.62-30.4,56.62-30.2Zm0,64.27-56.49,30.2-56.62-30.2,56.62-30.34Zm0,64.14L130.18,552,73.56,521.8l56.62-30.34Zm0,64.14-56.49,30.33L73.56,585.92l56.62-30.41Zm0,64.07-56.49,30.34L73.56,650l56.62-30.34Zm-53.21-32,56.48-30.41L246.57,618l-56.63,30.33Zm116.31,1.66L306.25,650l-56.48,30.34L193.21,650Zm3.34-1.66,56.56-30.41L366.15,618l-56.48,30.33Zm116.31,1.66L426,650l-56.56,30.34L312.94,650Zm3.35-1.66,56.55-30.41L485.8,618l-56.48,30.33Zm116.38,1.66L545.63,650l-56.48,30.34L432.59,650Zm3.27-1.66,56.48-30.41L605.53,618,548.9,648.32Zm116.31,1.66L665.29,650l-56.56,30.34L552.18,650Zm3.35-1.66,56.48-30.41L725.11,618l-56.55,30.33Zm116.31,1.66L784.87,650l-56.48,30.34L671.9,650Zm3.27-1.66,56.55-30.41L844.77,618l-56.56,30.33ZM848,619.65,904.6,650,848,680.33,791.56,650Zm3.27-1.66,56.63-30.41L964.42,618l-56.48,30.33Zm116.31,1.66L1024.25,650l-56.63,30.34L911.14,650ZM971,618l56.48-30.41,56.6,30.41-56.63,30.33Zm116.38,1.66L1143.84,650l-56.49,30.34L1030.8,650Zm3.27-1.66,56.49-30.41L1203.73,618l-56.62,30.33ZM1207,619.65,1263.49,650,1207,680.33,1150.45,650Zm-56.56-33.73L1207,555.51l56.48,30.41L1207,616.25Zm0-64.14L1207,491.44l56.48,30.34L1207,552Zm0-64.14L1207,427.3l56.48,30.34L1207,487.84Zm0-64.27,56.56-30.2,56.48,30.2L1207,423.77Zm0-64.07L1207,299l56.48,30.34L1207,359.63Zm0-64.14L1207,234.82l56.48,30.34L1207,295.49Zm0-64.14L1207,170.68,1263.49,201,1207,231.22Zm0-64.14L1207,106.54l56.48,30.27v.07L1207,167.15ZM1147.1,10.33l56.62,30.27L1147.1,70.94,1090.62,40.6Zm-3.27,62.34L1087.35,103,1030.8,72.67l56.55-30.27ZM1027.45,10.33,1084,40.6l-56.56,30.34L970.9,40.6Zm-3.2,62.34L967.62,103,911.14,72.67,967.62,42.4ZM907.94,10.33,964.42,40.6,907.94,70.94,851.31,40.6ZM904.6,72.67,848,103,791.56,72.67,848,42.4ZM788.28,10.33,844.77,40.6,788.28,70.94h-.07L731.66,40.6Zm-3.41,62.34L728.39,103,671.9,72.67,728.39,42.4ZM668.56,10.27v.06L725.11,40.6,668.56,70.94,612.08,40.6Zm-3.27,62.4L608.73,103,552.18,72.67,608.73,42.4ZM548.9,10.33,605.53,40.6,548.9,70.94,492.42,40.6Zm-3.27,62.34L489.15,103,432.59,72.67,489.15,42.4ZM429.32,10.33,485.8,40.6,429.32,70.94,372.77,40.6ZM426,72.67,369.42,103,312.94,72.67,369.42,42.4ZM309.67,10.33,366.15,40.6,309.67,70.94,253.11,40.6Zm-3.42,62.34L249.77,103,193.21,72.67,249.77,42.4ZM189.94,10.33,246.57,40.6,189.94,70.94,133.46,40.6Zm-3.27,62.34L130.18,103,73.56,72.67,130.18,42.4ZM13.87,40.6,70.36,10.33,126.91,40.6,70.36,70.94Zm0,64.14L70.36,74.47l56.55,30.27L70.36,135.08Zm0,64.21,56.49-30.34L126.91,169,70.36,199.2Zm0,64.14,56.49-30.34,56.55,30.34-56.55,30.2Zm0,64.14,56.49-30.34,56.55,30.34L70.36,327.56Zm0,64.13L70.36,331.1l56.55,30.26L70.36,391.7Zm0,64.08,56.49-30.21,56.55,30.21L70.36,455.77Zm0,64.27,56.49-30.34,56.55,30.34-56.55,30.2Zm0,64.14,56.49-30.34,56.55,30.34-56.55,30.2Zm0,64.14,56.49-30.41L126.91,618,70.36,648.32Zm0,64.07,56.49-30.2,56.55,30.2L70.36,712.39Zm116.31,62.4L73.56,714.13l56.62-30.2,56.49,30.2Zm3.28-62.4,56.48-30.2,56.63,30.2-56.63,30.33Zm116.31,62.4-56.56-30.33,56.56-30.2,56.48,30.2Zm3.34-62.4,56.56-30.2,56.48,30.2-56.48,30.33Zm116.31,62.4-56.48-30.33,56.48-30.2L426,714.13Zm3.35-62.4,56.55-30.2,56.48,30.2-56.48,30.33Zm116.38,62.4-56.56-30.33,56.56-30.2,56.48,30.2Zm3.27-62.4,56.48-30.2,56.56,30.2L548.9,712.39Zm116.31,62.4-56.55-30.33,56.55-30.2,56.56,30.2Zm3.35-62.4,56.48-30.2,56.55,30.2-56.55,30.33Zm116.31,62.4L671.9,714.13l56.49-30.2,56.48,30.2Zm59.82-32.07-56.55-30.33,56.62-30.2,56.49,30.2ZM848,744.46l-56.48-30.33L848,683.93l56.56,30.2Zm3.27-62.4,56.63-30.2,56.48,30.2L907.9,712.39Zm116.31,62.4L911.1,714.13l56.48-30.2,56.63,30.2Zm3.35-62.4,56.48-30.2,56.63,30.2-56.63,30.33Zm116.38,62.4-56.55-30.33,56.55-30.2,56.49,30.2Zm3.27-62.4,56.49-30.2,56.62,30.2-56.62,30.33ZM1207,744.46l-56.56-30.33,56.56-30.2,56.48,30.2Zm116.31-62.4-56.49,30.33h-.07l-56.48-30.33,56.55-30.2Zm0-64.07-56.49,30.33h-.07L1210.28,618l56.48-30.41h.07Zm0-64.14-56.49,30.33-56.55-30.33,56.48-30.34h.07Zm0-64.14-56.49,30.2h-.07l-56.48-30.2,56.55-30.34Zm0-64.27-56.49,30.33-56.55-30.33,56.55-30.21Zm0-64.08-56.49,30.34-56.55-30.34,56.55-30.26Zm0-64.13-56.49,30.33-56.55-30.33,56.55-30.34Zm0-64.14-56.49,30.33h-.07l-56.48-30.33,56.48-30.34h.07Zm0-64.14-56.49,30.2L1210.28,169l56.48-30.34h.07Zm0-64.21-56.49,30.34h-.07l-56.48-30.34,56.55-30.27Zm-56.49-33.8L1210.28,40.6l56.48-30.33.07.06,56.49,30.27Z" opacity="0.52" fill="url(#linear-gradient)" style="mix-blend-mode: multiply;isolation: isolate"/>
    </g>
  </g>
</svg>
