<svg xmlns="http://www.w3.org/2000/svg" width="24" height="24" viewBox="0 0 24 24">
  <g id="Group_2557" data-name="Group 2557" transform="translate(-285 -594)">
    <g id="Group_1575" data-name="Group 1575" transform="translate(236 193)">
      <g id="Union_1" data-name="Union 1" transform="translate(51 406)" fill="none">
        <path d="M5,13.333a5,5,0,0,1-.544-9.971A6.252,6.252,0,0,1,16.127,5.01a4.167,4.167,0,0,1-.293,8.323Z" stroke="none"/>
        <path d="M 15.83366012573242 11.83316135406494 C 17.30388069152832 11.83316135406494 18.5 10.63700103759766 18.5 9.16671085357666 C 18.5 7.771450996398926 17.41189956665039 6.602851390838623 16.02282905578613 6.50628137588501 L 14.8820104598999 6.426960945129395 L 14.65635967254639 5.30587100982666 C 14.21249008178711 3.100601196289062 12.25421047210693 1.500001192092896 10 1.500001192092896 C 8.22350025177002 1.500001192092896 6.608610153198242 2.47956109046936 5.785540103912354 4.056421279907227 L 5.414490222930908 4.767291069030762 L 4.617269992828369 4.853610992431641 C 2.840140104293823 5.046051025390625 1.5 6.542101383209229 1.5 8.333551406860352 C 1.5 10.26324081420898 3.069940090179443 11.83316135406494 4.999650001525879 11.83316135406494 L 15.83366012573242 11.83316135406494 M 15.83366012573242 13.33316135406494 L 4.999650001525879 13.33316135406494 C 2.23882007598877 13.33316135406494 0 11.09503078460693 0 8.333551406860352 C 0 5.755811214447021 1.950829982757568 3.633581161499023 4.455790042877197 3.36233115196228 C 5.498740196228027 1.364231109619141 7.590169906616211 1.153869675363239e-06 10 1.153869675363239e-06 C 13.02711963653564 1.153869675363239e-06 15.55167961120605 2.152161121368408 16.12686920166016 5.009891033172607 C 18.29109954833984 5.160361289978027 20 6.964301109313965 20 9.16671085357666 C 20 11.46780109405518 18.13471984863281 13.33316135406494 15.83366012573242 13.33316135406494 Z" stroke="none" fill="#75787b"/>
      </g>
      <g id="Group_1574" data-name="Group 1574" transform="translate(57.818 410.2)">
        <g id="Rectangle_942" data-name="Rectangle 942" transform="translate(1.682 0.227)" fill="none" stroke="#75787b" stroke-width="1.5">
          <rect width="3" height="3" stroke="none"/>
          <rect x="0.75" y="0.75" width="1.5" height="1.5" fill="none"/>
        </g>
        <path id="Path_671" data-name="Path 671" d="M4.5,4.5V0H0Z" transform="translate(6.364 3.182) rotate(135)" fill="#75787b"/>
      </g>
    </g>
    <rect id="Rectangle_943" data-name="Rectangle 943" width="24" height="24" transform="translate(285 594)" fill="none"/>
  </g>
</svg>
