<svg xmlns="http://www.w3.org/2000/svg" width="14" height="12" viewBox="0 0 14 12" fill="none">
  <path fill-rule="evenodd" clip-rule="evenodd" d="M9.62547 11.25C9.72493 11.25 9.82031 11.2105 9.89064 11.1402C9.96097 11.0698 10.0005 10.9745 10.0005 10.875V2.03025L12.36 4.3905C12.4304 4.46091 12.5259 4.50047 12.6255 4.50047C12.7251 4.50047 12.8206 4.46091 12.891 4.3905C12.9614 4.32008 13.0009 4.22458 13.0009 4.125C13.0009 4.02542 12.9614 3.92991 12.891 3.8595L9.89097 0.859499C9.85614 0.824577 9.81476 0.796869 9.7692 0.777965C9.72364 0.75906 9.6748 0.749329 9.62547 0.749329C9.57615 0.749329 9.52731 0.75906 9.48175 0.777965C9.43619 0.796869 9.39481 0.824577 9.35997 0.859499L6.35997 3.8595C6.28956 3.92991 6.25 4.02542 6.25 4.125C6.25 4.22458 6.28956 4.32008 6.35997 4.3905C6.43039 4.46091 6.52589 4.50047 6.62547 4.50047C6.72506 4.50047 6.82056 4.46091 6.89097 4.3905L9.25047 2.03025V10.875C9.25047 10.9745 9.28998 11.0698 9.36031 11.1402C9.43063 11.2105 9.52602 11.25 9.62547 11.25ZM4.37547 0.749999C4.47493 0.749999 4.57031 0.789508 4.64064 0.859834C4.71096 0.93016 4.75047 1.02554 4.75047 1.125V9.96975L7.10997 7.6095C7.18039 7.53908 7.27589 7.49953 7.37547 7.49953C7.47506 7.49953 7.57056 7.53908 7.64097 7.6095C7.71139 7.67991 7.75095 7.77542 7.75095 7.875C7.75095 7.97458 7.71139 8.07008 7.64097 8.1405L4.64097 11.1405C4.60614 11.1754 4.56476 11.2031 4.5192 11.222C4.47364 11.2409 4.4248 11.2507 4.37547 11.2507C4.32615 11.2507 4.27731 11.2409 4.23175 11.222C4.18619 11.2031 4.14481 11.1754 4.10997 11.1405L1.10997 8.1405C1.03956 8.07008 1 7.97458 1 7.875C1 7.77542 1.03956 7.67991 1.10997 7.6095C1.18039 7.53908 1.27589 7.49953 1.37547 7.49953C1.47506 7.49953 1.57056 7.53908 1.64097 7.6095L4.00047 9.96975V1.125C4.00047 1.02554 4.03998 0.93016 4.11031 0.859834C4.18063 0.789508 4.27602 0.749999 4.37547 0.749999Z" fill="#021155" stroke="#021155" stroke-width="0.6"/>
</svg>