<svg xmlns="http://www.w3.org/2000/svg" width="16" height="16" viewBox="0 0 16 16">
  <g id="Configuration_White" data-name="Configuration White" transform="translate(-1111 -110)">
    <g id="Group_1463" data-name="Group 1463" transform="translate(1111 110)">
      <g id="Group_1460" data-name="Group 1460">
        <path id="Rectangle_918" data-name="Rectangle 918" d="M.667,0H8.889a0,0,0,0,1,0,0V1.333a0,0,0,0,1,0,0H.667A.667.667,0,0,1,0,.667v0A.667.667,0,0,1,.667,0Z" transform="translate(0 2)" fill="#021155"/>
        <path id="Rectangle_919" data-name="Rectangle 919" d="M0,0H3.778a.667.667,0,0,1,.667.667v0a.667.667,0,0,1-.667.667H0a0,0,0,0,1,0,0V0A0,0,0,0,1,0,0Z" transform="translate(11.556 2)" fill="#021155"/>
        <rect id="Rectangle_920" data-name="Rectangle 920" width="5.333" height="1.333" transform="translate(12) rotate(90)" fill="#021155"/>
      </g>
      <g id="Group_1461" data-name="Group 1461" transform="translate(0 5.333)">
        <path id="Rectangle_918-2" data-name="Rectangle 918" d="M0,0H8.222a.667.667,0,0,1,.667.667v0a.667.667,0,0,1-.667.667H0a0,0,0,0,1,0,0V0A0,0,0,0,1,0,0Z" transform="translate(7.111 2)" fill="#021155"/>
        <path id="Rectangle_919-2" data-name="Rectangle 919" d="M.667,0H4.444a0,0,0,0,1,0,0V1.333a0,0,0,0,1,0,0H.667A.667.667,0,0,1,0,.667v0A.667.667,0,0,1,.667,0Z" transform="translate(0 2)" fill="#021155"/>
        <rect id="Rectangle_920-2" data-name="Rectangle 920" width="5.333" height="1.333" transform="translate(5.333) rotate(90)" fill="#021155"/>
      </g>
      <g id="Group_1462" data-name="Group 1462" transform="translate(0 10.667)">
        <path id="Rectangle_918-3" data-name="Rectangle 918" d="M0,0H8.222a.667.667,0,0,1,.667.667v0a.667.667,0,0,1-.667.667H0a0,0,0,0,1,0,0V0A0,0,0,0,1,0,0Z" transform="translate(7.111 2)" fill="#021155"/>
        <path id="Rectangle_919-3" data-name="Rectangle 919" d="M.667,0H5.333a0,0,0,0,1,0,0V1.333a0,0,0,0,1,0,0H.667A.667.667,0,0,1,0,.667v0A.667.667,0,0,1,.667,0Z" transform="translate(0 2)" fill="#021155"/>
        <rect id="Rectangle_920-3" data-name="Rectangle 920" width="5.333" height="1.333" transform="translate(8) rotate(90)" fill="#021155"/>
      </g>
    </g>
  </g>
</svg>
