<svg xmlns="http://www.w3.org/2000/svg" width="24" height="24" viewBox="0 0 24 24"><defs><style>.a,.b{fill:none;}.c{fill:#707070;}.d,.e{stroke:none;}.e{fill:#75787b;}</style></defs><g transform="translate(-1192 -192)"><rect class="a" width="24" height="24" transform="translate(1192 192)"/><g transform="translate(1192 192)"><g class="b" transform="translate(6 7.5)"><path class="d" d="M0,0H12l-.565,10.5a2,2,0,0,1-2,2H2.542a2,2,0,0,1-2-2Z"/><path class="e" d="M 1.579495429992676 1.5 L 2.04047966003418 10.42261028289795 L 2.04248046875 10.46127986907959 L 2.04248046875 10.5 C 2.04248046875 10.77569961547852 2.266779899597168 11 2.54248046875 11 L 9.435060501098633 11 C 9.710760116577148 11 9.935060501098633 10.77569961547852 9.935060501098633 10.5 L 9.935060501098633 10.45968055725098 L 9.937230110168457 10.41940975189209 L 10.41712856292725 1.5 L 1.579495429992676 1.5 M 0 0 L 12 0 L 11.43506050109863 10.5 C 11.43506050109863 11.60457038879395 10.53962993621826 12.5 9.435060501098633 12.5 L 2.54248046875 12.5 C 1.437910079956055 12.5 0.54248046875 11.60457038879395 0.54248046875 10.5 L 0 0 Z"/></g><g class="b" transform="translate(8 4)"><path class="d" d="M2,0H6A2,2,0,0,1,8,2V5H0V2A2,2,0,0,1,2,0Z"/><path class="e" d="M 2 1.5 C 1.724299907684326 1.5 1.5 1.724299907684326 1.5 2 L 1.5 3.5 L 6.5 3.5 L 6.5 2 C 6.5 1.724299907684326 6.275700092315674 1.5 6 1.5 L 2 1.5 M 2 0 L 6 0 C 7.104569911956787 0 8 0.8954300880432129 8 2 L 8 5 L 0 5 L 0 2 C 0 0.8954300880432129 0.8954300880432129 0 2 0 Z"/></g><g class="c" transform="translate(5 7.5)"><path class="d" d="M 13.25 1 L 0.75 1 C 0.6121500134468079 1 0.5 0.8878499865531921 0.5 0.75 C 0.5 0.6121500134468079 0.6121500134468079 0.5 0.75 0.5 L 13.25 0.5 C 13.38784980773926 0.5 13.5 0.6121500134468079 13.5 0.75 C 13.5 0.8878499865531921 13.38784980773926 1 13.25 1 Z"/><path class="e" d="M 0.75 0 L 13.25 0 C 13.66421031951904 0 14 0.3357900381088257 14 0.75 C 14 1.164209961891174 13.66421031951904 1.5 13.25 1.5 L 0.75 1.5 C 0.335789680480957 1.5 0 1.164209961891174 0 0.75 C 0 0.3357900381088257 0.335789680480957 0 0.75 0 Z"/></g><g class="b" transform="translate(10 11.5)"><path class="d" d="M.5,0A.5.5,0,0,1,1,.5v4a.5.5,0,0,1-1,0V.5A.5.5,0,0,1,.5,0Z"/><path class="e" d="M 0.5 0 C 0.7761399745941162 0 1 0.2238597869873047 1 0.5 L 1 4.5 C 1 4.776140213012695 0.7761399745941162 5 0.5 5 C 0.2238600254058838 5 0 4.776140213012695 0 4.5 L 0 0.5 C 0 0.2238597869873047 0.2238600254058838 0 0.5 0 Z"/></g><g class="b" transform="translate(13 11.5)"><path class="d" d="M.5,0A.5.5,0,0,1,1,.5v4a.5.5,0,0,1-1,0V.5A.5.5,0,0,1,.5,0Z"/><path class="e" d="M 0.5 0 C 0.7761399745941162 0 1 0.2238597869873047 1 0.5 L 1 4.5 C 1 4.776140213012695 0.7761399745941162 5 0.5 5 C 0.2238600254058838 5 0 4.776140213012695 0 4.5 L 0 0.5 C 0 0.2238597869873047 0.2238600254058838 0 0.5 0 Z"/></g></g></g></svg>