<svg xmlns="http://www.w3.org/2000/svg" width="24" height="24" viewBox="0 0 24 24">
  <g id="Group_9219" data-name="Group 9219" transform="translate(-1134.399 -374)">
    <path id="Icon_material-content-copy" data-name="Icon material-content-copy" d="M13.182,1.5H4.455A1.459,1.459,0,0,0,3,2.955V13.136H4.455V2.955h8.727Zm2.182,2.909h-8A1.459,1.459,0,0,0,5.909,5.864V16.045A1.459,1.459,0,0,0,7.364,17.5h8a1.459,1.459,0,0,0,1.455-1.455V5.864A1.459,1.459,0,0,0,15.364,4.409Zm0,11.636h-8V5.864h8Z" transform="translate(1136.5 376.5)" fill="#75787b"/>
    <rect id="Rectangle_3669" data-name="Rectangle 3669" width="24" height="24" transform="translate(1134.399 374)" fill="none"/>
  </g>
</svg>
