<svg xmlns="http://www.w3.org/2000/svg" width="24" height="24" viewBox="0 0 24 24"><defs><style>.a{fill:none;fill-rule:evenodd;}.b{fill:#75787b;}</style></defs><g transform="translate(3.45 2)"><path class="a" d="M0,0H24V24H0Z" transform="translate(-3.45 -2)"/><path class="b" d="M15.769,3.753H1.752l7.009,4.38,7.009-4.38V5.5L8.761,9.885,1.752,5.5v8.761H15.769V2a1.779,1.779,0,0,1,1.767,1.753l-.015,10.513a1.757,1.757,0,0,1-1.752,1.752H1.752A1.757,1.757,0,0,1,0,14.265H0L.009,3.752A1.75,1.75,0,0,1,1.752,2H15.769C16.837,2,15.769,3.753,15.769,3.753Z" transform="translate(-0.2 1.124)"/></g></svg>