<svg width="118" height="65" viewBox="0 0 118 65" fill="none" xmlns="http://www.w3.org/2000/svg">
<g id="Empty state (illustrations)" clip-path="url(#clip0_1551_2409)">
<g id="Group 1847">
<g id="Rectangle 1015">
<path id="Path 30856" d="M21 0H96C97.0609 0 98.0783 0.421427 98.8284 1.17157C99.5786 1.92172 100 2.93913 100 4V65H17V4C17 2.93913 17.4214 1.92172 18.1716 1.17157C18.9217 0.421427 19.9391 0 21 0Z" fill="#FAFAFC"/>
<path id="Path 30857" d="M21 0.5H96C96.9283 0.5 97.8185 0.868749 98.4749 1.52513C99.1313 2.1815 99.5 3.07174 99.5 4V64C99.5 64.1326 99.4473 64.2598 99.3536 64.3536C99.2598 64.4473 99.1326 64.5 99 64.5H18C17.8674 64.5 17.7402 64.4473 17.6464 64.3536C17.5527 64.2598 17.5 64.1326 17.5 64V4C17.5 3.07174 17.8687 2.1815 18.5251 1.52513C19.1815 0.868749 20.0717 0.5 21 0.5Z" stroke="#DEDFE0"/>
</g>
<path id="Rectangle 1032" opacity="0.1" d="M106 40H60C58.3431 40 57 41.3431 57 43V55C57 56.6569 58.3431 58 60 58H106C107.657 58 109 56.6569 109 55V43C109 41.3431 107.657 40 106 40Z" fill="black"/>
<path id="Line 2" d="M17.5 7.5H99.5" stroke="#DEDFE0"/>
<g id="Rectangle 1020">
<path id="Vector" d="M108 38H62C60.3431 38 59 39.3431 59 41V53C59 54.6569 60.3431 56 62 56H108C109.657 56 111 54.6569 111 53V41C111 39.3431 109.657 38 108 38Z" fill="white"/>
<path id="Vector_2" d="M108 38.5H62C60.6193 38.5 59.5 39.6193 59.5 41V53C59.5 54.3807 60.6193 55.5 62 55.5H108C109.381 55.5 110.5 54.3807 110.5 53V41C110.5 39.6193 109.381 38.5 108 38.5Z" stroke="#A3A3A3"/>
</g>
<path id="Path 654" opacity="0.1" d="M18.073 26.0642L32.5353 24.0497C33.325 23.9527 34.1209 24.1734 34.7479 24.6633C35.3749 25.1531 35.7816 25.872 35.8785 26.6617L37.9503 43.535C38.0473 44.3247 37.8266 45.1206 37.3367 45.7476C36.8469 46.3745 36.128 46.7813 35.3383 46.8782L17.9979 49.101L18.073 26.0642Z" fill="black"/>
<g id="Group 1846">
<path id="Rectangle 1024" d="M27.542 22.1718L12.6538 23.9998C10.4611 24.2691 8.90184 26.2648 9.17107 28.4575L10.9991 43.3457C11.2683 45.5384 13.2641 47.0976 15.4568 46.8284L30.345 45.0003C32.5376 44.7311 34.0969 42.7354 33.8277 40.5427L31.9996 25.6545C31.7304 23.4618 29.7346 21.9026 27.542 22.1718Z" fill="#021155"/>
<path id="Rectangle 1025" d="M25.8578 33.3143L15.9551 34.7061L16.2334 36.6866L26.1361 35.2949L25.8578 33.3143Z" fill="white"/>
<path id="Rectangle 1026" d="M21.5574 29.9042L19.5723 30.1479L20.791 40.0734L22.7761 39.8297L21.5574 29.9042Z" fill="white"/>
</g>
<path id="Line 1" d="M0.5 64.5H117.5" stroke="#CAC9C7"/>
<path id="Rectangle 1031" opacity="0.1" d="M106 17H60C58.3431 17 57 18.3431 57 20V32C57 33.6569 58.3431 35 60 35H106C107.657 35 109 33.6569 109 32V20C109 18.3431 107.657 17 106 17Z" fill="black"/>
<g id="Rectangle 1016">
<path id="Vector_3" d="M108 15H62C60.3431 15 59 16.3431 59 18V30C59 31.6569 60.3431 33 62 33H108C109.657 33 111 31.6569 111 30V18C111 16.3431 109.657 15 108 15Z" fill="white"/>
<path id="Vector_4" d="M108 15.5H62C60.6193 15.5 59.5 16.6193 59.5 18V30C59.5 31.3807 60.6193 32.5 62 32.5H108C109.381 32.5 110.5 31.3807 110.5 30V18C110.5 16.6193 109.381 15.5 108 15.5Z" stroke="#A3A3A3"/>
</g>
<path id="Rectangle 1017" d="M81 20H64C63.4477 20 63 20.4477 63 21C63 21.5523 63.4477 22 64 22H81C81.5523 22 82 21.5523 82 21C82 20.4477 81.5523 20 81 20Z" fill="#C5CAE9"/>
<path id="Rectangle 1029" d="M81 43H64C63.4477 43 63 43.4477 63 44C63 44.5523 63.4477 45 64 45H81C81.5523 45 82 44.5523 82 44C82 43.4477 81.5523 43 81 43Z" fill="#C5CAE9"/>
<path id="Rectangle 1018" d="M87 26H64C63.4477 26 63 26.4477 63 27C63 27.5523 63.4477 28 64 28H87C87.5523 28 88 27.5523 88 27C88 26.4477 87.5523 26 87 26Z" fill="#C5CAE9"/>
<path id="Rectangle 1028" d="M87 49H64C63.4477 49 63 49.4477 63 50C63 50.5523 63.4477 51 64 51H87C87.5523 51 88 50.5523 88 50C88 49.4477 87.5523 49 87 49Z" fill="#C5CAE9"/>
<path id="Rectangle 1019" d="M105 24H98C96.8954 24 96 24.8954 96 26C96 27.1046 96.8954 28 98 28H105C106.105 28 107 27.1046 107 26C107 24.8954 106.105 24 105 24Z" fill="#C5CAE9"/>
<path id="Rectangle 1030" d="M105 47H98C96.8954 47 96 47.8954 96 49C96 50.1046 96.8954 51 98 51H105C106.105 51 107 50.1046 107 49C107 47.8954 106.105 47 105 47Z" fill="#C5CAE9"/>
</g>
</g>
<defs>
<clipPath id="clip0_1551_2409">
<rect width="117" height="65" fill="white" transform="translate(0.5)"/>
</clipPath>
</defs>
</svg>
