<svg xmlns="http://www.w3.org/2000/svg" width="117" height="65" viewBox="0 0 117 65"><defs><style>.a{fill:#fafafb;}.a,.c{stroke:#dedfe0;}.b{opacity:0.1;}.c,.g,.j{fill:none;}.d,.f{fill:#fff;}.d{stroke:#a3a3a3;}.e{fill:#021155;}.g{stroke:#cac9c7;}.h{fill:#c5cae9;}.i{stroke:none;}</style></defs><g transform="translate(293.5 -488)"><g class="a" transform="translate(-277 488)"><path class="i" d="M4,0H79a4,4,0,0,1,4,4V65a0,0,0,0,1,0,0H0a0,0,0,0,1,0,0V4A4,4,0,0,1,4,0Z"/><path class="j" d="M4,.5H79A3.5,3.5,0,0,1,82.5,4V64a.5.5,0,0,1-.5.5H1A.5.5,0,0,1,.5,64V4A3.5,3.5,0,0,1,4,.5Z"/></g><rect class="b" width="52" height="18" rx="3" transform="translate(-237 528)"/><line class="c" x2="82" transform="translate(-276.5 495.5)"/><g class="d" transform="translate(-235 526)"><rect class="i" width="52" height="18" rx="3"/><rect class="j" x="0.5" y="0.5" width="51" height="17" rx="2.5"/></g><path class="b" d="M5.4.237,20,0a3,3,0,0,1,3,3V20a3,3,0,0,1-3,3l-17.482.093Z" transform="translate(-281.316 514.487) rotate(-7)"/><g transform="translate(389 28)"><rect class="e" width="23" height="23" rx="4" transform="translate(-674.316 484.487) rotate(-7)"/><rect class="f" width="10" height="2" transform="translate(-667.045 494.706) rotate(-8)"/><rect class="f" width="2" height="10" transform="translate(-663.428 490.148) rotate(-7)"/></g><line class="g" x2="117" transform="translate(-293.5 552.5)"/><rect class="b" width="52" height="18" rx="3" transform="translate(-237 505)"/><g class="d" transform="translate(-235 503)"><rect class="i" width="52" height="18" rx="3"/><rect class="j" x="0.5" y="0.5" width="51" height="17" rx="2.5"/></g><rect class="h" width="19" height="2" rx="1" transform="translate(-231 508)"/><rect class="h" width="19" height="2" rx="1" transform="translate(-231 531)"/><rect class="h" width="25" height="2" rx="1" transform="translate(-231 514)"/><rect class="h" width="25" height="2" rx="1" transform="translate(-231 537)"/><rect class="h" width="11" height="4" rx="2" transform="translate(-198 512)"/><rect class="h" width="11" height="4" rx="2" transform="translate(-198 535)"/></g></svg>