<svg xmlns="http://www.w3.org/2000/svg" xmlns:xlink="http://www.w3.org/1999/xlink" width="206.486" height="154.453" viewBox="0 0 206.486 154.453">
  <defs>
    <clipPath id="clip-path">
      <path id="SVGID" d="M159.977,163.493h-1.422c-.142-1.813-1.294-4.586-1-3.185a13.729,13.729,0,0,1,.185,3.185h-4.408a16.564,16.564,0,0,1-4.408,2.7,15.687,15.687,0,0,1-2.922.9,16.441,16.441,0,0,1-3.469.37,16.676,16.676,0,0,1-4.024-.491,16.292,16.292,0,0,1-4.664-1.955,15.347,15.347,0,0,1-2.111-1.528h-1.5a7.773,7.773,0,0,1-.043-1.486c-.149-.171-.292-.334-.434-.5-.157.718-.27,1.436-.349,1.991h-2.588a15.014,15.014,0,0,1,.839-5.183,16.657,16.657,0,0,1,3.285-19.466,13.869,13.869,0,0,1,3.967-4.2l.021-.021a10.714,10.714,0,0,1,12.733-3.7c.036.014.071.021.107.035a12.925,12.925,0,0,1,8.183,9.413q.053.373.107.725a16.645,16.645,0,0,1,2.659,13.636A25.9,25.9,0,0,1,159.977,163.493Z" transform="translate(-125.872 -130.18)" fill="none"/>
    </clipPath>
    <clipPath id="clip-path-2">
      <path id="SVGID-2" data-name="SVGID" d="M424.129,246.075a11.751,11.751,0,0,1-7.06,10.768c-.12.055-.246.105-.376.156-.065.025-.135.055-.2.075a10.814,10.814,0,0,1-2.055.556,11.107,11.107,0,0,1-2.055.186,11,11,0,0,1-1.223-.065c-.175-.015-.345-.035-.521-.065-.205-.03-.411-.065-.616-.11-.065-.01-.125-.025-.186-.04-.31-.065-.616-.145-.917-.235-.326-.105-.646-.216-.962-.346a.5.5,0,0,1-.075-.035,1.092,1.092,0,0,1-.175-.075,10.3,10.3,0,0,1-1.133-.566,11.739,11.739,0,0,1-1.549-19.352c.12-.451.246-.882.386-1.278-2.03-1.378-1.132-3.979-.772-4.53.376-.581,1.629.786,1.629.786s.406-1.623.872-1.724.8.962.8.962a21.565,21.565,0,0,1,6.469-.09c2.992.531,4.029,3.783,4.029,3.783s1.559.576,1.909,1.779a2.025,2.025,0,0,1-.01.817A11.729,11.729,0,0,1,424.129,246.075Z" transform="translate(-400.643 -230.173)" fill="none"/>
    </clipPath>
  </defs>
  <g id="Group_7705" data-name="Group 7705" transform="translate(-729 -267.047)">
    <g id="Device" transform="translate(729 339.841)">
      <g id="Group_62" data-name="Group 62">
        <g id="Group_27" data-name="Group 27" transform="translate(16.255 76.472)">
          <rect id="Rectangle_12" data-name="Rectangle 12" width="62.622" height="5.187" fill="#5e5f5f"/>
          <rect id="Rectangle_13" data-name="Rectangle 13" width="119.243" height="5.187" transform="translate(62.622)" fill="#40474b"/>
        </g>
        <g id="Group_61" data-name="Group 61">
          <path id="Path_2205" data-name="Path 2205" d="M177.066,348.638H57.813L41.559,272.166H160.812Z" transform="translate(-41.559 -272.166)" fill="#222"/>
          <g id="Group_60" data-name="Group 60" transform="translate(5.855 4.828)">
            <path id="Path_2206" data-name="Path 2206" d="M101.534,348.8H67.671l-14.2-66.815H87.332Z" transform="translate(-53.469 -281.988)" fill="#fff"/>
            <g id="Group_30" data-name="Group 30" transform="translate(8.336 19.576)">
              <g id="Group_29" data-name="Group 29" transform="translate(0 0)">
                <path id="Path_2207" data-name="Path 2207" d="M75.583,327.332a2.318,2.318,0,0,1-.783.36,3.252,3.252,0,0,1-2.354-.361A4.019,4.019,0,0,1,70.73,325.5a2.446,2.446,0,0,1,1.424-3.605,3.744,3.744,0,0,1,4.071,2.19A2.556,2.556,0,0,1,75.583,327.332Z" transform="translate(-70.427 -321.812)" fill="#039be5"/>
                <g id="Group_28" data-name="Group 28" transform="translate(1.906 1.735)">
                  <path id="Path_2208" data-name="Path 2208" d="M76.431,326.248a.712.712,0,0,1-.715.907,1.183,1.183,0,0,1-1.1-.907.712.712,0,0,1,.714-.907A1.183,1.183,0,0,1,76.431,326.248Z" transform="translate(-74.452 -325.341)" fill="#fff"/>
                  <path id="Path_2209" data-name="Path 2209" d="M77.475,330.657l.079.375a2.318,2.318,0,0,1-.783.36,3.252,3.252,0,0,1-2.354-.361l-.079-.373a1.232,1.232,0,0,1,1.235-1.568A2.046,2.046,0,0,1,77.475,330.657Z" transform="translate(-74.303 -327.247)" fill="#fff"/>
                </g>
              </g>
              <path id="Path_2210" data-name="Path 2210" d="M99.564,322.983H85.98l-.249-1.172H99.315Z" transform="translate(-78.208 -321.812)" fill="#c7c7c7"/>
              <path id="Path_2211" data-name="Path 2211" d="M105.574,327.861H87.017l-.143-.674h18.557Z" transform="translate(-78.789 -324.545)" fill="#c7c7c7"/>
              <path id="Path_2212" data-name="Path 2212" d="M106.2,330.821H87.646l-.143-.674H106.06Z" transform="translate(-79.109 -326.05)" fill="#c7c7c7"/>
            </g>
            <g id="Group_33" data-name="Group 33" transform="translate(10.318 28.901)">
              <g id="Group_32" data-name="Group 32" transform="translate(0 0)">
                <path id="Path_2213" data-name="Path 2213" d="M79.616,346.3a2.329,2.329,0,0,1-.784.36,3.253,3.253,0,0,1-2.353-.361,4.016,4.016,0,0,1-1.717-1.827,2.446,2.446,0,0,1,1.424-3.605,3.744,3.744,0,0,1,4.071,2.19A2.556,2.556,0,0,1,79.616,346.3Z" transform="translate(-74.46 -340.783)" fill="#c0ca33"/>
                <g id="Group_31" data-name="Group 31" transform="translate(1.905 1.734)">
                  <path id="Path_2214" data-name="Path 2214" d="M80.463,345.219a.712.712,0,0,1-.714.907,1.183,1.183,0,0,1-1.1-.907.713.713,0,0,1,.715-.908A1.183,1.183,0,0,1,80.463,345.219Z" transform="translate(-78.484 -344.311)" fill="#fff"/>
                  <path id="Path_2215" data-name="Path 2215" d="M81.508,349.628l.08.375a2.329,2.329,0,0,1-.784.36A3.253,3.253,0,0,1,78.451,350l-.079-.373a1.231,1.231,0,0,1,1.235-1.568A2.046,2.046,0,0,1,81.508,349.628Z" transform="translate(-78.336 -346.217)" fill="#fff"/>
                </g>
              </g>
              <path id="Path_2216" data-name="Path 2216" d="M103.6,341.954H90.013l-.249-1.172h13.584Z" transform="translate(-82.241 -340.783)" fill="#c7c7c7"/>
              <path id="Path_2217" data-name="Path 2217" d="M109.607,346.832H91.049l-.143-.674h18.557Z" transform="translate(-82.822 -343.516)" fill="#c7c7c7"/>
              <path id="Path_2218" data-name="Path 2218" d="M110.236,349.792H91.679l-.143-.674h18.557Z" transform="translate(-83.142 -345.021)" fill="#c7c7c7"/>
            </g>
            <g id="Group_36" data-name="Group 36" transform="translate(12.3 38.226)">
              <g id="Group_35" data-name="Group 35" transform="translate(0 0)">
                <path id="Path_2219" data-name="Path 2219" d="M83.648,365.273a2.325,2.325,0,0,1-.784.36,3.253,3.253,0,0,1-2.353-.361,4.019,4.019,0,0,1-1.717-1.827,2.446,2.446,0,0,1,1.424-3.605,3.743,3.743,0,0,1,4.071,2.19A2.556,2.556,0,0,1,83.648,365.273Z" transform="translate(-78.492 -359.754)" fill="#ffb300"/>
                <g id="Group_34" data-name="Group 34" transform="translate(1.905 1.734)">
                  <path id="Path_2220" data-name="Path 2220" d="M84.5,364.19a.713.713,0,0,1-.715.907,1.183,1.183,0,0,1-1.1-.907.713.713,0,0,1,.715-.908A1.183,1.183,0,0,1,84.5,364.19Z" transform="translate(-82.516 -363.282)" fill="#fff"/>
                  <path id="Path_2221" data-name="Path 2221" d="M85.54,368.6l.08.375a2.325,2.325,0,0,1-.784.36,3.253,3.253,0,0,1-2.353-.361L82.4,368.6a1.231,1.231,0,0,1,1.235-1.568A2.045,2.045,0,0,1,85.54,368.6Z" transform="translate(-82.368 -365.188)" fill="#fff"/>
                </g>
              </g>
              <path id="Path_2222" data-name="Path 2222" d="M107.629,360.925H94.045l-.249-1.171H107.38Z" transform="translate(-86.273 -359.754)" fill="#c7c7c7"/>
              <path id="Path_2223" data-name="Path 2223" d="M113.639,365.8H95.082l-.143-.674H113.5Z" transform="translate(-86.854 -362.486)" fill="#c7c7c7"/>
              <path id="Path_2224" data-name="Path 2224" d="M114.268,368.763H95.711l-.143-.674h18.557Z" transform="translate(-87.174 -363.992)" fill="#c7c7c7"/>
            </g>
            <g id="Group_39" data-name="Group 39" transform="translate(14.282 47.551)">
              <g id="Group_38" data-name="Group 38">
                <path id="Path_2225" data-name="Path 2225" d="M87.681,384.244a2.343,2.343,0,0,1-.784.36,3.254,3.254,0,0,1-2.354-.361,4.017,4.017,0,0,1-1.717-1.828,2.446,2.446,0,0,1,1.424-3.605A3.744,3.744,0,0,1,88.322,381,2.556,2.556,0,0,1,87.681,384.244Z" transform="translate(-82.524 -378.724)" fill="#6d4c41"/>
                <g id="Group_37" data-name="Group 37" transform="translate(1.905 1.735)">
                  <path id="Path_2226" data-name="Path 2226" d="M88.528,383.16a.713.713,0,0,1-.715.908,1.183,1.183,0,0,1-1.1-.908.712.712,0,0,1,.715-.907A1.183,1.183,0,0,1,88.528,383.16Z" transform="translate(-86.549 -382.253)" fill="#fff"/>
                  <path id="Path_2227" data-name="Path 2227" d="M89.572,387.57l.08.375a2.343,2.343,0,0,1-.784.36,3.254,3.254,0,0,1-2.354-.361l-.079-.373A1.232,1.232,0,0,1,87.67,386,2.046,2.046,0,0,1,89.572,387.57Z" transform="translate(-86.4 -384.159)" fill="#fff"/>
                </g>
              </g>
              <path id="Path_2228" data-name="Path 2228" d="M111.661,379.9H98.077l-.249-1.172h13.584Z" transform="translate(-90.305 -378.724)" fill="#c7c7c7"/>
              <path id="Path_2229" data-name="Path 2229" d="M117.671,384.774H99.114l-.143-.674h18.557Z" transform="translate(-90.886 -381.457)" fill="#c7c7c7"/>
              <path id="Path_2230" data-name="Path 2230" d="M118.3,387.734H99.743l-.143-.674h18.557Z" transform="translate(-91.206 -382.962)" fill="#c7c7c7"/>
            </g>
            <g id="Group_42" data-name="Group 42" transform="translate(16.265 56.877)">
              <g id="Group_41" data-name="Group 41">
                <path id="Path_2231" data-name="Path 2231" d="M91.713,403.215a2.33,2.33,0,0,1-.784.36,3.253,3.253,0,0,1-2.353-.361,4.018,4.018,0,0,1-1.717-1.828,2.446,2.446,0,0,1,1.424-3.605,3.744,3.744,0,0,1,4.071,2.19A2.556,2.556,0,0,1,91.713,403.215Z" transform="translate(-86.557 -397.695)" fill="#5e35b1"/>
                <g id="Group_40" data-name="Group 40" transform="translate(1.905 1.735)">
                  <path id="Path_2232" data-name="Path 2232" d="M92.56,402.131a.712.712,0,0,1-.714.907,1.183,1.183,0,0,1-1.1-.907.712.712,0,0,1,.715-.907A1.183,1.183,0,0,1,92.56,402.131Z" transform="translate(-90.581 -401.224)" fill="#fff"/>
                  <path id="Path_2233" data-name="Path 2233" d="M93.6,406.541l.08.374a2.33,2.33,0,0,1-.784.36,3.253,3.253,0,0,1-2.353-.361l-.079-.373a1.231,1.231,0,0,1,1.235-1.568A2.045,2.045,0,0,1,93.6,406.541Z" transform="translate(-90.433 -403.13)" fill="#fff"/>
                </g>
              </g>
              <path id="Path_2234" data-name="Path 2234" d="M115.693,398.867H102.11l-.249-1.172h13.584Z" transform="translate(-94.338 -397.695)" fill="#c7c7c7"/>
              <path id="Path_2235" data-name="Path 2235" d="M121.7,403.745H103.146L103,403.07H121.56Z" transform="translate(-94.919 -400.428)" fill="#c7c7c7"/>
              <path id="Path_2236" data-name="Path 2236" d="M122.333,406.7H103.776l-.143-.674H122.19Z" transform="translate(-95.239 -401.933)" fill="#c7c7c7"/>
            </g>
            <g id="Group_47" data-name="Group 47" transform="translate(5.184 5.754)">
              <g id="Group_44" data-name="Group 44">
                <path id="Path_2237" data-name="Path 2237" d="M67.225,297.13a1.45,1.45,0,0,1-.488.224,2.027,2.027,0,0,1-1.465-.225,2.5,2.5,0,0,1-1.069-1.137,1.523,1.523,0,0,1,.886-2.244,2.33,2.33,0,0,1,2.534,1.364A1.59,1.59,0,0,1,67.225,297.13Z" transform="translate(-64.015 -293.694)" fill="#c7c7c7"/>
                <g id="Group_43" data-name="Group 43" transform="translate(1.186 1.08)">
                  <path id="Path_2238" data-name="Path 2238" d="M67.752,296.456a.443.443,0,0,1-.445.565.736.736,0,0,1-.685-.565.443.443,0,0,1,.445-.565A.737.737,0,0,1,67.752,296.456Z" transform="translate(-66.52 -295.891)" fill="#fff"/>
                  <path id="Path_2239" data-name="Path 2239" d="M68.4,299.2l.05.233a1.451,1.451,0,0,1-.488.224,2.027,2.027,0,0,1-1.465-.225l-.05-.233a.767.767,0,0,1,.769-.976A1.273,1.273,0,0,1,68.4,299.2Z" transform="translate(-66.428 -297.077)" fill="#fff"/>
                </g>
              </g>
              <g id="Group_45" data-name="Group 45" transform="translate(26.194 0.866)">
                <path id="Path_2240" data-name="Path 2240" d="M117.843,298.142a.123.123,0,0,1,.124-.157.205.205,0,0,1,.191.157.123.123,0,0,1-.124.157A.205.205,0,0,1,117.843,298.142Z" transform="translate(-117.576 -296.742)" fill="#c7c7c7"/>
                <path id="Path_2241" data-name="Path 2241" d="M117.574,296.878a.123.123,0,0,1,.124-.157.205.205,0,0,1,.191.157.123.123,0,0,1-.124.157A.205.205,0,0,1,117.574,296.878Z" transform="translate(-117.439 -296.099)" fill="#c7c7c7"/>
                <path id="Path_2242" data-name="Path 2242" d="M117.306,295.613a.123.123,0,0,1,.123-.157.205.205,0,0,1,.191.157.123.123,0,0,1-.124.157A.2.2,0,0,1,117.306,295.613Z" transform="translate(-117.303 -295.456)" fill="#c7c7c7"/>
              </g>
              <g id="Group_46" data-name="Group 46" transform="translate(22.133 0.866)">
                <path id="Path_2243" data-name="Path 2243" d="M111.085,296.632H109.29l-.25-1.176h1.794Z" transform="translate(-109.04 -295.456)" fill="#c7c7c7"/>
                <path id="Path_2244" data-name="Path 2244" d="M109.549,297.848l.081.382.307-.382Z" transform="translate(-109.299 -296.672)" fill="#c7c7c7"/>
                <path id="Path_2245" data-name="Path 2245" d="M110.958,295.982h-1.111l-.023-.11h1.111Z" transform="translate(-109.438 -295.667)" fill="#fff"/>
                <path id="Path_2246" data-name="Path 2246" d="M111.059,296.456h-1.111l-.023-.11h1.111Z" transform="translate(-109.49 -295.909)" fill="#fff"/>
                <path id="Path_2247" data-name="Path 2247" d="M111.16,296.93h-1.111l-.023-.11h1.111Z" transform="translate(-109.541 -296.15)" fill="#fff"/>
              </g>
            </g>
            <path id="Path_2248" data-name="Path 2248" d="M163.834,285.6H54.237l-.768-3.614h109.6Z" transform="translate(-53.469 -281.988)" fill="#d5d5d5"/>
            <g id="Group_48" data-name="Group 48" transform="translate(1.444 0.911)">
              <path id="Path_2249" data-name="Path 2249" d="M58.219,284.737a.7.7,0,0,1-.706.9,1.169,1.169,0,0,1-1.087-.9.7.7,0,0,1,.706-.9A1.168,1.168,0,0,1,58.219,284.737Z" transform="translate(-56.406 -283.841)" fill="#9b0b0b"/>
              <path id="Path_2250" data-name="Path 2250" d="M65.664,284.737a.7.7,0,0,1-.706.9,1.169,1.169,0,0,1-1.087-.9.7.7,0,0,1,.706-.9A1.168,1.168,0,0,1,65.664,284.737Z" transform="translate(-60.191 -283.841)" fill="#edbb34"/>
              <path id="Path_2251" data-name="Path 2251" d="M73.109,284.737a.7.7,0,0,1-.706.9,1.168,1.168,0,0,1-1.086-.9.7.7,0,0,1,.705-.9A1.168,1.168,0,0,1,73.109,284.737Z" transform="translate(-63.977 -283.841)" fill="#137b0a"/>
            </g>
            <g id="Group_54" data-name="Group 54" transform="translate(34.631 3.614)">
              <path id="Path_2252" data-name="Path 2252" d="M199.654,289.34H123.92l13.434,63.2h75.734Z" transform="translate(-123.92 -289.34)" fill="#fff"/>
              <g id="Group_53" data-name="Group 53" transform="translate(14.284 56.471)">
                <path id="Path_2253" data-name="Path 2253" d="M226.148,407.905H163.257l-.783-3.684h62.891Z" transform="translate(-157.807 -404.222)" fill="#eaeaea"/>
                <g id="Group_49" data-name="Group 49" transform="translate(65.25 0.982)">
                  <path id="Path_2254" data-name="Path 2254" d="M287.554,407.125a.713.713,0,0,1-.713.909,1.187,1.187,0,0,1-1.1-.909.713.713,0,0,1,.716-.905A1.183,1.183,0,0,1,287.554,407.125Z" transform="translate(-285.72 -406.22)" fill="#55565a"/>
                  <path id="Path_2255" data-name="Path 2255" d="M286.949,407l.671.524-.448.524-.142-.123.342-.4-.513-.4Z" transform="translate(-286.299 -406.615)" fill="#fff"/>
                </g>
                <path id="Path_2256" data-name="Path 2256" d="M165.119,407.931h-.242l-.467-2.2h.242Z" transform="translate(-158.791 -404.991)" fill="#263238"/>
                <g id="Group_50" data-name="Group 50" transform="translate(69.406 0)">
                  <path id="Path_2257" data-name="Path 2257" d="M296.737,410.7a.1.1,0,0,1-.091-.076l-.188-.884a.059.059,0,0,1,.059-.075.1.1,0,0,1,.091.075l.188.884A.059.059,0,0,1,296.737,410.7Z" transform="translate(-295.334 -406.988)" fill="#a6a6a6"/>
                  <path id="Path_2258" data-name="Path 2258" d="M296.911,411.613h-.967a.1.1,0,0,1-.091-.076.059.059,0,0,1,.059-.075h.967a.1.1,0,0,1,.092.075A.06.06,0,0,1,296.911,411.613Z" transform="translate(-295.026 -407.903)" fill="#a6a6a6"/>
                  <path id="Path_2259" data-name="Path 2259" d="M295.653,404.844l.273,1.285a.489.489,0,0,1-.491.622.8.8,0,0,1-.632-.347.754.754,0,0,1-.123-.276l-.273-1.285a.488.488,0,0,1,.49-.622.766.766,0,0,1,.479.182.8.8,0,0,1,.269.41C295.649,404.824,295.651,404.834,295.653,404.844Z" transform="translate(-294.286 -404.222)" fill="#a6a6a6"/>
                  <path id="Path_2260" data-name="Path 2260" d="M295.386,408.4a1.1,1.1,0,0,1-.677-.25,1.154,1.154,0,0,1-.418-.654l-.115-.542a.059.059,0,0,1,.059-.076.1.1,0,0,1,.092.076l.115.542a.96.96,0,0,0,.348.545.9.9,0,0,0,.6.208.606.606,0,0,0,.553-.778l-.11-.516a.059.059,0,0,1,.059-.076.1.1,0,0,1,.091.076l.11.516a.718.718,0,0,1-.666.929Z" transform="translate(-294.174 -405.57)" fill="#a6a6a6"/>
                </g>
                <g id="Group_52" data-name="Group 52" transform="translate(0 0)">
                  <path id="Path_2261" data-name="Path 2261" d="M156.7,406.055a1.445,1.445,0,0,1-1.44,1.85,2.4,2.4,0,0,1-2.24-1.833,1.446,1.446,0,0,1,1.44-1.85A2.4,2.4,0,0,1,156.7,406.055Z" transform="translate(-152.979 -404.222)" fill="#fff"/>
                  <path id="Path_2262" data-name="Path 2262" d="M154.846,406.966a.2.2,0,0,1-.2.261.338.338,0,0,1-.316-.258.2.2,0,0,1,.2-.261A.338.338,0,0,1,154.846,406.966Z" transform="translate(-153.661 -405.486)" fill="#a6a6a6"/>
                  <path id="Path_2263" data-name="Path 2263" d="M158.421,406.95a.2.2,0,0,1-.2.26.338.338,0,0,1-.315-.258.2.2,0,0,1,.2-.261A.338.338,0,0,1,158.421,406.95Z" transform="translate(-155.479 -405.478)" fill="#a6a6a6"/>
                  <g id="Group_51" data-name="Group 51" transform="translate(1.397 1.397)">
                    <path id="Path_2264" data-name="Path 2264" d="M156.6,407.064a.338.338,0,0,1-.033.245.308.308,0,0,1-.273.147.509.509,0,0,1-.475-.389Z" transform="translate(-155.82 -407.064)" fill="#a6a6a6"/>
                    <path id="Path_2265" data-name="Path 2265" d="M156.712,407.448a.307.307,0,0,1-.273.147.49.49,0,0,1-.336-.145.373.373,0,0,1,.28-.114A.556.556,0,0,1,156.712,407.448Z" transform="translate(-155.964 -407.202)" fill="#dbdbdb"/>
                  </g>
                </g>
              </g>
            </g>
            <g id="Group_59" data-name="Group 59" transform="translate(2.496 11.68)">
              <g id="Group_58" data-name="Group 58" transform="translate(4.149 1.961)">
                <g id="Group_56" data-name="Group 56">
                  <g id="Group_55" data-name="Group 55">
                    <path id="Path_2266" data-name="Path 2266" d="M70.174,312.561l-.23.207-.65-.67-.238-.245a.323.323,0,0,0,.094-.06.333.333,0,0,0,.1-.182l.253.26Z" transform="translate(-68.039 -310.691)" fill="#a6a6a6"/>
                    <path id="Path_2267" data-name="Path 2267" d="M68.247,310.032a.8.8,0,0,0-1.077-.138.735.735,0,0,0,.085,1.048.832.832,0,0,0,.988.2.557.557,0,0,0,.089-.067.545.545,0,0,0,.121-.161A.8.8,0,0,0,68.247,310.032Zm-.149.81a.323.323,0,0,1-.094.06.512.512,0,0,1-.551-.143.44.44,0,0,1-.051-.627.476.476,0,0,1,.644.083.507.507,0,0,1,.152.444A.333.333,0,0,1,68.1,310.842Z" transform="translate(-66.987 -309.74)" fill="#a6a6a6"/>
                  </g>
                </g>
                <g id="Group_57" data-name="Group 57" transform="translate(4.946 0.256)">
                  <path id="Path_2268" data-name="Path 2268" d="M77.184,311.369a.038.038,0,0,1,.058-.005.9.9,0,0,0,.477.172.421.421,0,0,0,.276-.088.2.2,0,0,0,.072-.2.283.283,0,0,0-.148-.184,1.07,1.07,0,0,0-.333-.109h0a1.023,1.023,0,0,1-.34-.113.365.365,0,0,1-.188-.233.251.251,0,0,1,.087-.251.459.459,0,0,1,.3-.1.905.905,0,0,1,.446.154.049.049,0,0,1,.024.059.036.036,0,0,1-.055.011.819.819,0,0,0-.4-.142.4.4,0,0,0-.257.08.188.188,0,0,0-.066.184.257.257,0,0,0,.134.163.963.963,0,0,0,.309.1h0a1.1,1.1,0,0,1,.366.122.4.4,0,0,1,.2.253.271.271,0,0,1-.094.268.493.493,0,0,1-.322.105,1.026,1.026,0,0,1-.534-.193A.049.049,0,0,1,77.184,311.369Z" transform="translate(-77.048 -310.261)" fill="#a6a6a6"/>
                  <path id="Path_2269" data-name="Path 2269" d="M79.763,311.588a.363.363,0,0,1,.355-.471.6.6,0,0,1,.544.437v.007a.034.034,0,0,1-.037.042h-.769a.482.482,0,0,0,.44.36.273.273,0,0,0,.266-.171.039.039,0,0,1,.058-.015.058.058,0,0,1,.029.065.347.347,0,0,1-.334.212A.6.6,0,0,1,79.763,311.588Zm.082-.074h.709a.472.472,0,0,0-.416-.3A.283.283,0,0,0,79.844,311.514Z" transform="translate(-78.423 -310.696)" fill="#a6a6a6"/>
                  <path id="Path_2270" data-name="Path 2270" d="M82.861,311.163l.18.846a.036.036,0,0,1-.036.046.061.061,0,0,1-.056-.046l-.029-.14a.34.34,0,0,1-.312.186.6.6,0,0,1-.544-.469.359.359,0,0,1,.344-.469.551.551,0,0,1,.391.184l-.029-.138a.036.036,0,0,1,.036-.046A.058.058,0,0,1,82.861,311.163Zm0,.423a.478.478,0,0,0-.433-.379.289.289,0,0,0-.271.379.478.478,0,0,0,.432.378A.287.287,0,0,0,82.859,311.586Z" transform="translate(-79.593 -310.696)" fill="#a6a6a6"/>
                  <path id="Path_2271" data-name="Path 2271" d="M84.509,311.167a.036.036,0,0,1,.038-.046.059.059,0,0,1,.054.046l.044.206a.108.108,0,0,1,.008-.023.347.347,0,0,1,.326-.23.059.059,0,0,1,.056.046.036.036,0,0,1-.036.046.26.26,0,0,0-.239.153.667.667,0,0,0-.066.218.023.023,0,0,0,0,.015l.087.412a.036.036,0,0,1-.034.046.06.06,0,0,1-.058-.046Z" transform="translate(-80.841 -310.698)" fill="#a6a6a6"/>
                  <path id="Path_2272" data-name="Path 2272" d="M86.156,311.584a.371.371,0,0,1,.383-.467.577.577,0,0,1,.32.1.048.048,0,0,1,.019.063.044.044,0,0,1-.061.007.464.464,0,0,0-.259-.084.3.3,0,0,0-.31.377.5.5,0,0,0,.47.379.325.325,0,0,0,.224-.083.05.05,0,0,1,.065.007.045.045,0,0,1,0,.067.4.4,0,0,1-.273.1A.615.615,0,0,1,86.156,311.584Z" transform="translate(-81.674 -310.696)" fill="#a6a6a6"/>
                  <path id="Path_2273" data-name="Path 2273" d="M89.013,311.071a.363.363,0,0,0-.357-.276.22.22,0,0,0-.238.276l.111.523v.005s0,.006,0,.008l0,.007a.032.032,0,0,1-.024.023l0,0h-.01a.062.062,0,0,1-.039-.015.086.086,0,0,1-.011-.015.043.043,0,0,1-.005-.016l-.111-.523,0-.015-.151-.711a.037.037,0,0,1,.036-.046.062.062,0,0,1,.058.046l.105.494a.306.306,0,0,1,.267-.138.486.486,0,0,1,.47.37l.111.523a.036.036,0,0,1-.038.046.061.061,0,0,1-.056-.046Z" transform="translate(-82.703 -310.28)" fill="#a6a6a6"/>
                  <path id="Path_2274" data-name="Path 2274" d="M91.936,311.584a.37.37,0,0,1,.382-.467.577.577,0,0,1,.32.1.048.048,0,0,1,.019.063.044.044,0,0,1-.061.007.464.464,0,0,0-.259-.084.3.3,0,0,0-.31.377.5.5,0,0,0,.47.379.326.326,0,0,0,.224-.083.049.049,0,0,1,.064.007.045.045,0,0,1,.005.067.4.4,0,0,1-.274.1A.615.615,0,0,1,91.936,311.584Z" transform="translate(-84.613 -310.696)" fill="#a6a6a6"/>
                  <path id="Path_2275" data-name="Path 2275" d="M94.793,311.071a.364.364,0,0,0-.357-.276.22.22,0,0,0-.237.276l.111.523v.005a.036.036,0,0,1,0,.008l0,.007a.032.032,0,0,1-.024.023l0,0h-.009a.064.064,0,0,1-.04-.015.085.085,0,0,1-.011-.015.053.053,0,0,1,0-.016l-.111-.523,0-.015-.151-.711a.036.036,0,0,1,.036-.046.062.062,0,0,1,.058.046l.1.494a.307.307,0,0,1,.267-.138.486.486,0,0,1,.47.37l.111.523a.037.037,0,0,1-.038.046.061.061,0,0,1-.056-.046Z" transform="translate(-85.641 -310.28)" fill="#a6a6a6"/>
                  <path id="Path_2276" data-name="Path 2276" d="M97.431,311.163l.179.846a.036.036,0,0,1-.036.046.061.061,0,0,1-.056-.046l-.03-.14a.339.339,0,0,1-.312.186.6.6,0,0,1-.543-.469.359.359,0,0,1,.344-.469.553.553,0,0,1,.391.184l-.029-.138a.036.036,0,0,1,.036-.046A.059.059,0,0,1,97.431,311.163Zm0,.423a.478.478,0,0,0-.433-.379.289.289,0,0,0-.271.379.478.478,0,0,0,.432.378A.287.287,0,0,0,97.429,311.586Z" transform="translate(-87.001 -310.696)" fill="#a6a6a6"/>
                  <path id="Path_2277" data-name="Path 2277" d="M99.3,310.755a.038.038,0,0,1-.036.046h-.12l.146.683a.1.1,0,0,0,.084.069.07.07,0,0,1,.058.048.04.04,0,0,1-.038.046.207.207,0,0,1-.2-.163l-.145-.683h-.117c-.046,0-.051-.023-.056-.046s-.009-.046.036-.046h.117l-.074-.349a.038.038,0,0,1,.036-.046.068.068,0,0,1,.059.046l.074.349h.12A.065.065,0,0,1,99.3,310.755Z" transform="translate(-88.146 -310.288)" fill="#a6a6a6"/>
                </g>
              </g>
              <rect id="Rectangle_14" data-name="Rectangle 14" width="33.863" height="0.123" transform="translate(1.226 5.77)" fill="#a6a6a6"/>
              <rect id="Rectangle_15" data-name="Rectangle 15" width="33.863" height="0.123" fill="#a6a6a6"/>
            </g>
          </g>
        </g>
      </g>
    </g>
    <g id="Speech_Bubbles" data-name="Speech Bubbles" transform="translate(807.823 287.327)">
      <g id="Group_79" data-name="Group 79" transform="translate(0 0)">
        <g id="Group_69" data-name="Group 69" transform="translate(18.068 52.505)">
          <g id="Group_68" data-name="Group 68">
            <g id="Group_66" data-name="Group 66">
              <path id="Path_2282" data-name="Path 2282" d="M238.669,300.634h68.153V272.147H238.669v28.488Z" transform="translate(-238.669 -272.147)" fill="#021155"/>
              <path id="Path_2283" data-name="Path 2283" d="M377.316,280.549v-8.4h8.749Z" transform="translate(-309.163 -272.147)" fill="#021155"/>
            </g>
            <g id="Group_67" data-name="Group 67" transform="translate(5.197 4.926)">
              <rect id="Rectangle_18" data-name="Rectangle 18" width="57.76" height="0.541" fill="#fff"/>
              <rect id="Rectangle_19" data-name="Rectangle 19" width="41.087" height="0.541" transform="translate(0 2.923)" fill="#fff"/>
              <rect id="Rectangle_20" data-name="Rectangle 20" width="51.155" height="0.541" transform="translate(0 8.77)" fill="#fff"/>
              <rect id="Rectangle_21" data-name="Rectangle 21" width="57.76" height="0.541" transform="translate(0 11.693)" fill="#fff"/>
              <rect id="Rectangle_22" data-name="Rectangle 22" width="57.76" height="0.541" transform="translate(0 14.616)" fill="#fff"/>
              <rect id="Rectangle_23" data-name="Rectangle 23" width="35.51" height="0.541" transform="translate(0 17.539)" fill="#fff"/>
            </g>
          </g>
        </g>
        <g id="Group_72" data-name="Group 72" transform="translate(0.009)">
          <g id="Group_70" data-name="Group 70">
            <rect id="Rectangle_24" data-name="Rectangle 24" width="68.153" height="24.035" transform="translate(8.739)" fill="#9575cd"/>
            <path id="Path_2284" data-name="Path 2284" d="M210.681,173.735v-8.4h-8.749Z" transform="translate(-201.932 -165.333)" fill="#9575cd"/>
          </g>
          <g id="Group_71" data-name="Group 71" transform="translate(14.04 4.439)">
            <rect id="Rectangle_25" data-name="Rectangle 25" width="44.335" height="0.541" fill="#fff"/>
            <rect id="Rectangle_26" data-name="Rectangle 26" width="57.76" height="0.541" transform="translate(0 2.923)" fill="#fff"/>
            <rect id="Rectangle_27" data-name="Rectangle 27" width="57.76" height="0.541" transform="translate(0 5.846)" fill="#fff"/>
            <rect id="Rectangle_28" data-name="Rectangle 28" width="51.399" height="0.541" transform="translate(0 8.77)" fill="#fff"/>
            <rect id="Rectangle_29" data-name="Rectangle 29" width="57.76" height="0.541" transform="translate(0 11.693)" fill="#fff"/>
            <rect id="Rectangle_30" data-name="Rectangle 30" width="36.783" height="0.541" transform="translate(0 14.616)" fill="#fff"/>
          </g>
        </g>
        <g id="Group_75" data-name="Group 75" transform="translate(0.009 27.925)">
          <g id="Group_73" data-name="Group 73">
            <rect id="Rectangle_31" data-name="Rectangle 31" width="68.153" height="17.826" transform="translate(8.739)" fill="#9575cd"/>
            <path id="Path_2285" data-name="Path 2285" d="M210.681,230.543v-8.4h-8.749Z" transform="translate(-201.932 -222.141)" fill="#9575cd"/>
          </g>
          <g id="Group_74" data-name="Group 74" transform="translate(14.04 4.439)">
            <rect id="Rectangle_32" data-name="Rectangle 32" width="57.616" height="0.541" fill="#fff"/>
            <rect id="Rectangle_33" data-name="Rectangle 33" width="43.429" height="0.541" transform="translate(0 2.923)" fill="#fff"/>
            <rect id="Rectangle_34" data-name="Rectangle 34" width="50.059" height="0.541" transform="translate(0 5.846)" fill="#fff"/>
            <rect id="Rectangle_35" data-name="Rectangle 35" width="33.454" height="0.541" transform="translate(0 8.77)" fill="#fff"/>
          </g>
        </g>
        <g id="Group_78" data-name="Group 78" transform="translate(0 86.531)">
          <g id="Group_76" data-name="Group 76">
            <rect id="Rectangle_36" data-name="Rectangle 36" width="68.153" height="16.445" transform="translate(8.749)" fill="#9575cd"/>
            <path id="Path_2286" data-name="Path 2286" d="M210.662,349.768v-8.4h-8.749Z" transform="translate(-201.913 -341.366)" fill="#9575cd"/>
          </g>
          <g id="Group_77" data-name="Group 77" transform="translate(14.049 4.439)">
            <rect id="Rectangle_37" data-name="Rectangle 37" width="53.293" height="0.541" fill="#fff"/>
            <rect id="Rectangle_38" data-name="Rectangle 38" width="39.494" height="0.541" transform="translate(0 2.923)" fill="#fff"/>
            <rect id="Rectangle_39" data-name="Rectangle 39" width="49.591" height="0.541" transform="translate(0 5.846)" fill="#fff"/>
          </g>
        </g>
      </g>
    </g>
    <g id="Group_132" data-name="Group 132" transform="translate(762.445 267.047)">
      <g id="Group_131" data-name="Group 131" clip-path="url(#clip-path)">
        <g id="Group_130" data-name="Group 130" transform="translate(5.816 34.842)">
          <path id="Path_2348" data-name="Path 2348" d="M156.529,203.477a8.284,8.284,0,0,1-4.692,4.863c-3.683,1.329-10.579-2.851-14.07-5.226a.4.4,0,0,0-.064-.05,19.587,19.587,0,0,1,2.154-2.005,16.292,16.292,0,0,0,4.664,1.955,16.676,16.676,0,0,0,4.024.491,16.441,16.441,0,0,0,3.469-.37,15.687,15.687,0,0,0,2.922-.9A17.632,17.632,0,0,1,156.529,203.477Z" transform="translate(-137.703 -201.06)" fill="#455a64"/>
          <g id="Group_129" data-name="Group 129" transform="translate(6.818 1.955)">
            <g id="Group_128" data-name="Group 128">
              <path id="Path_2349" data-name="Path 2349" d="M159.067,205.159c-.036,1.628-.235,3.228-.825,3.291-2.41.277-5.041-1.735-6.669-3.412a16.676,16.676,0,0,0,4.024.491A16.441,16.441,0,0,0,159.067,205.159Z" transform="translate(-151.573 -205.038)" fill="#dd6a57"/>
            </g>
          </g>
        </g>
      </g>
    </g>
    <g id="Group_7704" data-name="Group 7704">
      <circle id="Ellipse_121" data-name="Ellipse 121" cx="13.658" cy="13.658" r="13.658" transform="translate(773.507 277.578)" fill="#fff" stroke="#9575cd" stroke-width="1"/>
      <circle id="Ellipse_335" data-name="Ellipse 335" cx="13.658" cy="13.658" r="13.658" transform="translate(773.507 277.578)" fill="#e5e3e3"/>
      <g id="Group_127" data-name="Group 127" transform="translate(776.346 275.578)">
        <path id="Path_2325" data-name="Path 2325" d="M149.414,152.17h-.925c-.1-1.184-.846-2.994-.654-2.08a9.108,9.108,0,0,1,.118,2.08H132.267a17.057,17.057,0,0,1,.614-4.708,12.288,12.288,0,0,0-1.387,4.708h-1.482a11.022,11.022,0,0,1,.224-2.881,9.578,9.578,0,0,0-.761,2.881h-1.686a11.032,11.032,0,0,1,1.962-6.242c1.139-1.7-.271-2.7-.242-6.011a7.755,7.755,0,0,1,3.558-6.564c6.846-6.344,13.06-.457,13.725,3.733.643,4.1-.536,4.641,1.37,8.362A15.606,15.606,0,0,1,149.414,152.17Z" transform="translate(-127.784 -130.44)" fill="#263238"/>
        <path id="Path_2326" data-name="Path 2326" d="M137.7,198.793c.013.013-1.134,2.065-1.121,2.078,2.277,1.55,4.328,3.152,8.683,3.186,2.478.019,5.542-.9,6.078-1.406s.719-2.227,0-3.51-3.716-1.734-4.333-2.145C143.46,194.638,140.261,196.052,137.7,198.793Z" transform="translate(-134.522 -174.762)" fill="#455a64"/>
        <g id="Group_126" data-name="Group 126" transform="translate(2.689)">
          <g id="Group_114" data-name="Group 114" transform="translate(3.81 13.472)">
            <path id="Path_2327" data-name="Path 2327" d="M148.164,181.414c.16.525,2.939,3.819,5.371,3.542.792-.092.484-4.436.484-4.436l.051-.326.705-4.562-5.507-3.035-.793-.4s-.111,1.261-.232,2.832c-.006.073-.012.146-.017.224s-.019.173-.024.256c-.022.234-.042.474-.058.713-.013.182-.026.359-.032.55s-.018.378-.029.57A29.718,29.718,0,0,0,148.164,181.414Z" transform="translate(-148.056 -172.199)" fill="#cc9c80"/>
            <path id="Path_2328" data-name="Path 2328" d="M148.637,175.031a9.26,9.26,0,0,0,5.827,5.163l.705-4.562-5.507-3.035-.793-.4S148.759,173.46,148.637,175.031Z" transform="translate(-148.451 -172.199)" fill="#987560"/>
          </g>
          <g id="Group_125" data-name="Group 125">
            <path id="Path_2329" data-name="Path 2329" d="M155.289,140.412c1.272,8-3.377,9.666-5.1,9.939-1.567.247-6.932.889-9.024-6.938s1.227-10.948,4.78-11.7S154.018,132.41,155.289,140.412Z" transform="translate(-139.12 -131.1)" fill="#cc9c80"/>
            <path id="Path_2330" data-name="Path 2330" d="M139.1,143.054c2-.238,2.076-6.466,2.076-7.231a14.637,14.637,0,0,0,.368,3.117,1.957,1.957,0,0,0,.621-.172h.005a6.019,6.019,0,0,1,0-.916c0-.142.079.3.2.845.111-.041.231-.089.363-.134a7.361,7.361,0,0,1,.031-1.95c.039-.245.193.831.5,1.757A24.347,24.347,0,0,1,148.455,137c.5-.06.933-.09,1.317-.1-.06-.751-.212-1.544-.143-1.377a7.307,7.307,0,0,1,.43,1.37c.208-.005.4-.007.575,0-.037-1.065-.681-2.716-.49-2.472a7.5,7.5,0,0,1,1.241,2.527c.736.08.947.205.952.016a8.878,8.878,0,0,0-3.146-5.261c-2.709-2.157-7.771-2.337-10.295,1.543a6.558,6.558,0,0,0-2.365,4.19C136.366,139.906,137.945,143.19,139.1,143.054Z" transform="translate(-136.408 -130.179)" fill="#263238"/>
            <g id="Group_115" data-name="Group 115" transform="translate(10.938 13.645)">
              <path id="Path_2331" data-name="Path 2331" d="M172.177,173.066a2.263,2.263,0,0,1-.749.866,1.018,1.018,0,0,1-.6.159c-.461-.027-.553-.427-.542-.787a2.431,2.431,0,0,1,.091-.566A2.926,2.926,0,0,0,172.177,173.066Z" transform="translate(-170.287 -172.738)" fill="#fff"/>
            </g>
            <g id="Group_121" data-name="Group 121" transform="translate(8.613 7.5)">
              <path id="Path_2332" data-name="Path 2332" d="M178.884,154.4a5.29,5.29,0,0,1-.556-.067.9.9,0,0,1-.553-.176.288.288,0,0,1-.03-.35.714.714,0,0,1,.687-.228,1.049,1.049,0,0,1,.689.312A.307.307,0,0,1,178.884,154.4Z" transform="translate(-172.998 -153.571)" fill="#263238"/>
              <path id="Path_2333" data-name="Path 2333" d="M164.393,156.24a5.259,5.259,0,0,0,.535-.163.906.906,0,0,0,.514-.27.289.289,0,0,0-.031-.35.714.714,0,0,0-.716-.1,1.051,1.051,0,0,0-.624.428A.307.307,0,0,0,164.393,156.24Z" transform="translate(-163.704 -154.749)" fill="#263238"/>
              <g id="Group_117" data-name="Group 117" transform="translate(0 2.915)">
                <g id="Group_116" data-name="Group 116" transform="translate(0.777)">
                  <path id="Path_2334" data-name="Path 2334" d="M168.154,164.27c-.006-.021-.04.031-.037.053.079.546.077,1.185-.4,1.422-.015.007-.01.035.008.03C168.321,165.623,168.315,164.775,168.154,164.27Z" transform="translate(-166.987 -163.752)" fill="#263238"/>
                  <path id="Path_2335" data-name="Path 2335" d="M166.071,162.663c-.889.031-.761,1.808.063,1.779S166.817,162.637,166.071,162.663Z" transform="translate(-165.458 -162.663)" fill="#263238"/>
                </g>
                <path id="Path_2336" data-name="Path 2336" d="M164.084,163.009c-.148.112-.287.3-.473.332-.215.037-.392-.137-.546-.306-.016-.018-.03,0-.029.023.02.341.176.68.544.7.336.022.553-.3.614-.644C164.2,163.054,164.143,162.964,164.084,163.009Z" transform="translate(-163.036 -162.89)" fill="#263238"/>
              </g>
              <g id="Group_119" data-name="Group 119" transform="translate(4.982 2.215)">
                <g id="Group_118" data-name="Group 118" transform="translate(0 0.107)">
                  <path id="Path_2337" data-name="Path 2337" d="M178.591,162.711c0-.021.045.023.046.046.018.552.131,1.181.641,1.331.016,0,.016.032,0,.031C178.662,164.073,178.52,163.237,178.591,162.711Z" transform="translate(-178.574 -162.098)" fill="#263238"/>
                  <path id="Path_2338" data-name="Path 2338" d="M179.059,160.818c.881-.124,1.064,1.647.248,1.762S178.32,160.922,179.059,160.818Z" transform="translate(-178.587 -160.812)" fill="#263238"/>
                </g>
                <path id="Path_2339" data-name="Path 2339" d="M181.059,160.67c.15.08.306.236.474.229.2-.007.319-.214.424-.41.011-.02.026-.007.03.016.044.338-.031.7-.35.8-.29.09-.538-.178-.654-.507C180.961,160.739,181,160.638,181.059,160.67Z" transform="translate(-180.206 -160.479)" fill="#263238"/>
              </g>
              <path id="Path_2340" data-name="Path 2340" d="M169.612,177.367c.136.126.272.3.473.311a1.46,1.46,0,0,0,.589-.155.019.019,0,0,1,.025.028.743.743,0,0,1-.692.318.587.587,0,0,1-.446-.476C169.55,177.362,169.592,177.349,169.612,177.367Z" transform="translate(-167.467 -169.732)" fill="#987560"/>
              <g id="Group_120" data-name="Group 120" transform="translate(2.401 0.119)">
                <path id="Path_2341" data-name="Path 2341" d="M172.4,159.279s.182.811.215,1.2c0,.036-.089.061-.22.08-.006,0-.01.005-.015,0a1.847,1.847,0,0,1-1.846-.538c-.03-.036.016-.08.053-.058a2.785,2.785,0,0,0,1.721.34c.019-.11-.359-1.379-.3-1.389a3.4,3.4,0,0,1,.9.125c-.331-1.7-.932-3.336-1.236-5.035a.053.053,0,0,1,.1-.033,28.058,28.058,0,0,1,1.562,5.367C173.382,159.556,172.56,159.332,172.4,159.279Z" transform="translate(-170.524 -153.943)" fill="#987560"/>
              </g>
            </g>
            <g id="Group_122" data-name="Group 122" transform="translate(1.023 8.23)">
              <path id="Path_2342" data-name="Path 2342" d="M161.141,162.629a2.414,2.414,0,1,1,2.358-2.994h0a2.414,2.414,0,0,1-2.358,2.994Zm.029-4.5a2.091,2.091,0,1,0,2.016,1.588A2.1,2.1,0,0,0,161.17,158.124Z" transform="translate(-152.529 -157.175)" fill="#a72e18"/>
              <path id="Path_2343" data-name="Path 2343" d="M179.326,160.662a2.251,2.251,0,0,1-1.894-2.209,2.881,2.881,0,0,1,.321-1.733,1.5,1.5,0,0,1,2.558-.284,2.883,2.883,0,0,1,.693,1.621c.146,1.323-.535,2.488-1.519,2.6A1.458,1.458,0,0,1,179.326,160.662Zm-.216-4.491a1.048,1.048,0,0,0-.122.006,1.287,1.287,0,0,0-.955.7,2.563,2.563,0,0,0-.281,1.538c.127,1.146.885,2.006,1.7,1.915s1.361-1.095,1.235-2.24a2.56,2.56,0,0,0-.61-1.44A1.33,1.33,0,0,0,179.11,156.171Z" transform="translate(-165.213 -155.848)" fill="#a72e18"/>
              <path id="Path_2344" data-name="Path 2344" d="M172.928,162.8l-.233-.223a1.318,1.318,0,0,1,1.781-.288l-.21.245C173.68,162.027,172.959,162.766,172.928,162.8Z" transform="translate(-162.008 -160.051)" fill="#a72e18"/>
              <path id="Path_2345" data-name="Path 2345" d="M139.663,165.909l-.3-.116c.054-.14.547-1.378,1.25-1.574.658-.181,5-.255,5.186-.258l.005.323c-1.245.02-4.6.1-5.1.246C140.235,164.66,139.794,165.57,139.663,165.909Z" transform="translate(-139.362 -161.36)" fill="#a72e18"/>
            </g>
            <g id="Group_124" data-name="Group 124" transform="translate(0 10.908)">
              <g id="Group_123" data-name="Group 123">
                <path id="Path_2346" data-name="Path 2346" d="M139.583,166.018s-1.943-2.4-3.043-1.687.487,4.273,1.866,4.677a1.37,1.37,0,0,0,1.779-.865Z" transform="translate(-136.172 -164.199)" fill="#cc9c80"/>
                <path id="Path_2347" data-name="Path 2347" d="M138.779,167.76a.019.019,0,0,0,0,.036,3.462,3.462,0,0,1,1.939,2.034.756.756,0,0,0-1.143-.126c-.023.019,0,.056.029.049a.842.842,0,0,1,.946.227,4.051,4.051,0,0,1,.5.717c.05.081.2.025.16-.07l-.009-.021C141.131,169.4,140.078,167.789,138.779,167.76Z" transform="translate(-137.931 -166.618)" fill="#987560"/>
              </g>
            </g>
          </g>
        </g>
      </g>
    </g>
    <g id="Group_7703" data-name="Group 7703">
      <g id="Group_81" data-name="Group 81" transform="translate(925.761 345.611)">
        <g id="Group_80" data-name="Group 80">
          <path id="Path_2287" data-name="Path 2287" d="M441.839,283.907a0,0,0,0,0,0,0" transform="translate(-441.839 -283.903)" fill="none" stroke="#f5a79e" stroke-linecap="round" stroke-linejoin="round" stroke-width="0"/>
        </g>
      </g>
      <circle id="Ellipse_337" data-name="Ellipse 337" cx="13.821" cy="13.821" r="13.821" transform="translate(907.344 336.253)" fill="#fff" stroke="#021155" stroke-width="1"/>
      <g id="Group_7702" data-name="Group 7702" transform="translate(180 59)">
        <circle id="Ellipse_336" data-name="Ellipse 336" cx="13.658" cy="13.658" r="13.658" transform="translate(727.507 277.578)" fill="#bab8b8"/>
        <g id="Group_96" data-name="Group 96" transform="translate(729.487 277.253)">
          <g id="Group_95" data-name="Group 95" clip-path="url(#clip-path-2)">
            <g id="Group_94" data-name="Group 94" transform="translate(3.486 -0.001)">
              <path id="Path_2288" data-name="Path 2288" d="M418.676,293.206l1.041,4.7,7.595-5.612,2.722,2.51s-6.1,7.115-11.047,7.115c-2.6,0-3.106-5.958-3.106-5.958Z" transform="translate(-413.781 -269.521)" fill="#ffc727"/>
              <g id="Group_83" data-name="Group 83" transform="translate(4.559 16.435)">
                <g id="Group_82" data-name="Group 82">
                  <path id="Path_2289" data-name="Path 2289" d="M424.115,287.6c1.909.593,5.445-2.142,6.928-4.454.1-.159-.032-1.913-.092-4.053-.032-1.3-.036-2.745.056-4.065.02-.271-8.419,1.438-8.419,1.438a21.082,21.082,0,0,1,.449,5.124,2.986,2.986,0,0,1-.094.538c0,.025-.014.054-.018.089C422.685,283.236,422.271,287.027,424.115,287.6Z" transform="translate(-422.588 -275.001)" fill="#ffd9c2"/>
                </g>
                <path id="Path_2290" data-name="Path 2290" d="M430.525,275.063c-.576,2.3-2.39,7.537-6.749,7.331a5.177,5.177,0,0,1-.847-.105c.005-.035.01-.065.015-.09a2.535,2.535,0,0,0,.1-.536v-.03a15.11,15.11,0,0,0-.06-2.571,24.637,24.637,0,0,0-.386-2.525l.005-.005.055-.035C423.295,276.366,428.832,275.254,430.525,275.063Z" transform="translate(-422.591 -275.04)" fill="#cbae9d"/>
              </g>
              <g id="Group_92" data-name="Group 92">
                <g id="Group_84" data-name="Group 84" transform="translate(0 1.486)">
                  <path id="Path_2291" data-name="Path 2291" d="M423.846,238.691c1.022,2.9-.169,11.462-2.18,13.445-2.915,2.874-7.867,3.348-10.355-.2-2.411-3.436-.661-14.564,1.6-16.384C416.246,232.873,422.336,234.4,423.846,238.691Z" transform="translate(-410.152 -234.223)" fill="#ffd9c2"/>
                </g>
                <path id="Path_2292" data-name="Path 2292" d="M423.092,243.291c-2.005-.3-1.855-4-1.855-4s-3.361-1.075-3.477-3.742c0,0-3.578,1.6-6.011.29s-1.462-4.141-1.086-4.72,1.631.786,1.631.786.407-1.621.871-1.723.794.964.794.964a21.6,21.6,0,0,1,6.469-.089c2.992.53,4.031,3.78,4.031,3.78s1.556.579,1.91,1.782S424.37,243.485,423.092,243.291Z" transform="translate(-410.152 -230.171)" fill="#263238"/>
                <path id="Path_2293" data-name="Path 2293" d="M441.839,283.906s0,0,0,0" transform="translate(-430.222 -264.204)" fill="none" stroke="#f5a79e" stroke-linecap="round" stroke-linejoin="round" stroke-width="0"/>
                <g id="Group_90" data-name="Group 90" transform="translate(0.542 8.821)">
                  <g id="Group_85" data-name="Group 85" transform="translate(4.802 2.529)">
                    <path id="Path_2294" data-name="Path 2294" d="M424.842,262.578c.008-.021.041.034.037.057-.1.574-.109,1.248.388,1.51.015.008.01.037-.009.032C424.633,264,424.66,263.107,424.842,262.578Z" transform="translate(-424.729 -262.044)" fill="#263238"/>
                    <path id="Path_2295" data-name="Path 2295" d="M425.5,261.131c.937.054.76,1.925-.108,1.875S424.714,261.085,425.5,261.131Z" transform="translate(-424.79 -261.13)" fill="#263238"/>
                  </g>
                  <g id="Group_86" data-name="Group 86" transform="translate(0.247 2.176)">
                    <path id="Path_2296" data-name="Path 2296" d="M414.514,261.968c0-.023-.048.023-.049.047-.037.581-.176,1.241-.719,1.384-.017,0-.018.034,0,.033C414.4,263.4,414.573,262.524,414.514,261.968Z" transform="translate(-413.21 -261.304)" fill="#263238"/>
                    <path id="Path_2297" data-name="Path 2297" d="M413.15,260.177c-.925-.159-1.175,1.7-.318,1.851S413.926,260.31,413.15,260.177Z" transform="translate(-412.306 -260.168)" fill="#263238"/>
                  </g>
                  <path id="Path_2298" data-name="Path 2298" d="M426.5,256.564a7.255,7.255,0,0,1-.7-.324,1.248,1.248,0,0,1-.651-.466.4.4,0,0,1,.109-.473.985.985,0,0,1,1-.007,1.445,1.445,0,0,1,.771.7A.424.424,0,0,1,426.5,256.564Z" transform="translate(-420.167 -254.821)" fill="#263238"/>
                  <path id="Path_2299" data-name="Path 2299" d="M412.089,255.408a7.369,7.369,0,0,0,.762-.122,1.246,1.246,0,0,0,.753-.273.4.4,0,0,0,.023-.485.986.986,0,0,0-.959-.277,1.451,1.451,0,0,0-.933.467A.424.424,0,0,0,412.089,255.408Z" transform="translate(-411.632 -254.233)" fill="#263238"/>
                  <path id="Path_2300" data-name="Path 2300" d="M423.108,277.383c-.152.122-.308.3-.52.294a1.533,1.533,0,0,1-.609-.2.021.021,0,0,0-.028.027.783.783,0,0,0,.706.384.62.62,0,0,0,.5-.469C423.173,277.382,423.13,277.365,423.108,277.383Z" transform="translate(-418.166 -268.891)" fill="#cbae9d"/>
                  <g id="Group_88" data-name="Group 88" transform="translate(1.177 0.171)">
                    <g id="Group_87" data-name="Group 87">
                      <path id="Path_2301" data-name="Path 2301" d="M418.164,261.262a1.986,1.986,0,0,1-1.411.739,2.506,2.506,0,0,1-.714-.043.7.7,0,0,1-.134-.03c-.042-.01-.08-.018-.125-.033a.145.145,0,0,1-.1-.142v0a.269.269,0,0,1,.012-.059v0l.007-.051c.035-.448.151-1.122.151-1.122-.172.065-1.044.35-1.006.118a29.888,29.888,0,0,1,1.4-5.895.054.054,0,0,1,.1.026c-.235,1.857-.795,3.659-1.06,5.52a3.481,3.481,0,0,1,.962-.184c.062.025-.246,1.3-.246,1.5a.07.07,0,0,0,0,.022,2.752,2.752,0,0,0,2.111-.418C418.162,261.176,418.2,261.22,418.164,261.262Z" transform="translate(-414.841 -254.7)" fill="#cbae9d"/>
                    </g>
                  </g>
                  <g id="Group_89" data-name="Group 89" transform="translate(2.668 6.709)">
                    <path id="Path_2302" data-name="Path 2302" d="M418.909,273.127a2.355,2.355,0,0,0,.9.788,1.058,1.058,0,0,0,.64.079c.472-.093.51-.519.447-.89a2.548,2.548,0,0,0-.174-.572A3.051,3.051,0,0,1,418.909,273.127Z" transform="translate(-418.909 -272.532)" fill="#cbae9d"/>
                    <path id="Path_2303" data-name="Path 2303" d="M421.355,274.9a1.059,1.059,0,0,0,.64.079c.472-.094.51-.52.447-.89A1.1,1.1,0,0,0,421.355,274.9Z" transform="translate(-420.458 -273.52)" fill="#ff99ba"/>
                  </g>
                </g>
                <g id="Group_91" data-name="Group 91" transform="translate(11.738 10.719)">
                  <path id="Path_2304" data-name="Path 2304" d="M442.6,261.643s1.86-2.791,3.123-2.134-.093,4.674-1.545,5.251a1.489,1.489,0,0,1-2.013-.756Z" transform="translate(-442.168 -259.409)" fill="#ffd9c2"/>
                  <path id="Path_2305" data-name="Path 2305" d="M446.7,262.881a.02.02,0,0,1,.009.039,3.765,3.765,0,0,0-1.893,2.4.822.822,0,0,1,1.225-.252c.027.019,0,.061-.027.056a.916.916,0,0,0-1,.342,4.443,4.443,0,0,0-.465.826c-.046.093-.213.047-.18-.059,0-.008.005-.016.008-.024C444.322,264.9,445.3,263.044,446.7,262.881Z" transform="translate(-443.56 -261.608)" fill="#cbae9d"/>
                </g>
              </g>
              <g id="Group_93" data-name="Group 93" transform="translate(2.78 21.701)">
                <path id="Path_2306" data-name="Path 2306" d="M420.238,290.753l1.017,4.867,7.007-6.256,1.744,1.965s-6.833,9.9-6.875,9.453l-2.063-4.191-2.875,2.965,1.154-7.364Z" transform="translate(-418.025 -289.364)" fill="#fff"/>
                <path id="Path_2307" data-name="Path 2307" d="M418.994,296.449c.011-.041.085-.064.083-.013-.063,1.5-1.022,5.815-1,6.927l.012-.013c.12-.128,2.667-2.611,2.692-2.572.445.664,1.959,3.716,2.063,3.994.969-1.426,5.462-7.289,6.557-8.778a.042.042,0,0,1,.073.041c-.811,1.658-6.493,9.355-6.566,9.335a47.448,47.448,0,0,1-2.158-4.431,32.191,32.191,0,0,1-3.008,3.157A46.469,46.469,0,0,1,418.994,296.449Z" transform="translate(-417.735 -293.552)" fill="#263238"/>
              </g>
            </g>
          </g>
        </g>
      </g>
    </g>
  </g>
</svg>
