<svg width="80" height="83" viewBox="0 0 80 83" fill="none" xmlns="http://www.w3.org/2000/svg">
<g id="Empty state (illustrations)" clip-path="url(#clip0_276_9796)">
<g id="Group 7914">
<g id="Rectangle 3574">
<path id="Vector" d="M76.6835 0.608994H3.31662C1.93134 0.608994 0.80835 1.73198 0.80835 3.11726V80.4917C0.80835 81.877 1.93134 83 3.31662 83H76.6835C78.0688 83 79.1918 81.877 79.1918 80.4917V3.11726C79.1918 1.73198 78.0688 0.608994 76.6835 0.608994Z" fill="white"/>
<path id="Vector_2" d="M76.6834 0.922523H3.31656C2.10444 0.922523 1.12183 1.90514 1.12183 3.11726V80.4917C1.12183 81.7038 2.10444 82.6865 3.31656 82.6865H76.6834C77.8956 82.6865 78.8782 81.7038 78.8782 80.4917V3.11726C78.8782 1.90514 77.8956 0.922523 76.6834 0.922523Z" stroke="#E1E1E8" stroke-width="0.627067"/>
</g>
<g id="Group 7768">
<path id="Polygon 12" d="M28.2657 40.5701C28.3241 40.5107 28.3937 40.4635 28.4706 40.4313C28.5474 40.399 28.6298 40.3824 28.7131 40.3824C28.7965 40.3824 28.8789 40.399 28.9557 40.4313C29.0326 40.4635 29.1022 40.5107 29.1606 40.5701L44.2842 55.9791C44.3706 56.0672 44.4291 56.179 44.4523 56.3003C44.4755 56.4216 44.4623 56.547 44.4145 56.6608C44.3667 56.7747 44.2863 56.8719 44.1835 56.9402C44.0807 57.0086 43.9599 57.0451 43.8364 57.0451H13.5905C13.467 57.0451 13.3463 57.0086 13.2434 56.9402C13.1406 56.8719 13.0602 56.7747 13.0124 56.6608C12.9646 56.547 12.9515 56.4216 12.9747 56.3003C12.9978 56.179 13.0563 56.0672 13.1428 55.9791L28.2657 40.5701Z" fill="#EDEDF2"/>
<path id="Polygon 13" d="M47.7054 37.4329C47.7638 37.3737 47.8333 37.3266 47.91 37.2945C47.9867 37.2624 48.0691 37.2458 48.1522 37.2458C48.2354 37.2458 48.3177 37.2624 48.3944 37.2945C48.4711 37.3266 48.5407 37.3737 48.599 37.4329L66.8548 55.9791C66.9412 56.0672 66.9997 56.1789 67.0229 56.3001C67.0461 56.4213 67.033 56.5467 66.9853 56.6605C66.9375 56.7744 66.8573 56.8716 66.7545 56.94C66.6518 57.0084 66.5311 57.0449 66.4077 57.0451H29.8973C29.7739 57.0449 29.6533 57.0084 29.5505 56.94C29.4478 56.8716 29.3675 56.7744 29.3198 56.6605C29.2721 56.5467 29.259 56.4213 29.2822 56.3001C29.3054 56.1789 29.3638 56.0672 29.4502 55.9791L47.7054 37.4329Z" fill="#EDEDF2"/>
<path id="Ellipse 652" d="M37.4918 33.843C40.0892 33.843 42.1948 31.7373 42.1948 29.1399C42.1948 26.5426 40.0892 24.4369 37.4918 24.4369C34.8944 24.4369 32.7888 26.5426 32.7888 29.1399C32.7888 31.7373 34.8944 33.843 37.4918 33.843Z" fill="#EDEDF2"/>
</g>
</g>
</g>
<defs>
<clipPath id="clip0_276_9796">
<rect width="78.3834" height="82.391" fill="white" transform="translate(0.80835 0.608994)"/>
</clipPath>
</defs>
</svg>
