<svg xmlns="http://www.w3.org/2000/svg" width="79.977" height="70.088" viewBox="0 0 79.977 70.088"><defs><style>.a{fill:#e0e2ee;}.b{fill:#e8ebf2;}.c{fill:#d8dbea;}.d{fill:#f1f2f7;}.e{fill:rgba(255,255,255,0.1);}.f{fill:#021155;}.g{fill:#c5cae9;}.h{fill:rgba(255,255,255,0.5);}</style></defs><g transform="translate(-38.494 -29.239)"><g transform="translate(38.494 29.239)"><path class="a" d="M39.774,59.338H4.513A4.534,4.534,0,0,1,0,54.81V4.527A4.533,4.533,0,0,1,4.513,0H39.774a4.534,4.534,0,0,1,4.514,4.527V54.81a4.534,4.534,0,0,1-4.514,4.528" transform="translate(6.02)"/><path class="b" d="M39.774,59.338H4.513A4.534,4.534,0,0,1,0,54.81V4.527A4.533,4.533,0,0,1,4.513,0H39.774a4.534,4.534,0,0,1,4.514,4.527V54.81a4.534,4.534,0,0,1-4.514,4.528" transform="translate(3.01 2.15)"/><path class="c" d="M39.856,59.092H4.523A4.529,4.529,0,0,1,0,54.583V4.508A4.529,4.529,0,0,1,4.523,0H39.856A4.529,4.529,0,0,1,44.38,4.508V54.583a4.53,4.53,0,0,1-4.524,4.509" transform="translate(0 4.093)"/><path class="d" d="M39.856,59.092H4.523A4.529,4.529,0,0,1,0,54.583V4.508A4.529,4.529,0,0,1,4.523,0H39.856A4.529,4.529,0,0,1,44.38,4.508V54.583a4.53,4.53,0,0,1-4.524,4.509" transform="translate(0 4.093)"/><path class="a" d="M27.454,2.58H1.355A1.328,1.328,0,0,1,0,1.29,1.328,1.328,0,0,1,1.355,0h26.1A1.328,1.328,0,0,1,28.81,1.29a1.328,1.328,0,0,1-1.356,1.29" transform="translate(7.31 16.769)"/><path class="a" d="M27.454,2.58H1.355A1.328,1.328,0,0,1,0,1.29,1.328,1.328,0,0,1,1.355,0h26.1A1.328,1.328,0,0,1,28.81,1.29a1.328,1.328,0,0,1-1.356,1.29" transform="translate(7.31 24.509)"/><path class="a" d="M27.454,2.58H1.355A1.328,1.328,0,0,1,0,1.29,1.329,1.329,0,0,1,1.355,0h26.1A1.329,1.329,0,0,1,28.81,1.29a1.328,1.328,0,0,1-1.356,1.29" transform="translate(7.31 32.249)"/><path class="a" d="M27.454,2.58H1.355A1.328,1.328,0,0,1,0,1.29,1.328,1.328,0,0,1,1.355,0h26.1A1.328,1.328,0,0,1,28.81,1.29a1.328,1.328,0,0,1-1.356,1.29" transform="translate(7.31 39.989)"/><path class="a" d="M14.978,2.58H1.361A1.331,1.331,0,0,1,0,1.29,1.331,1.331,0,0,1,1.361,0H14.978a1.331,1.331,0,0,1,1.361,1.29,1.331,1.331,0,0,1-1.361,1.29" transform="translate(7.31 47.728)"/><g transform="translate(20.639 11.61)"><path class="e" d="M25.694,25.686A15.06,15.06,0,0,1,6.531,27.464,15.822,15.822,0,0,1,4.4,25.686a14.556,14.556,0,0,1-2.547-3.411A14.382,14.382,0,0,1,.277,17.921,15.049,15.049,0,0,1,17.928.274a14.882,14.882,0,0,1,4.354,1.578A15.13,15.13,0,0,1,24.62,3.439a14.309,14.309,0,0,1,1.064.969,15,15,0,0,1,.01,21.278" transform="translate(3.44 3.01)"/><path class="a" d="M17.847,35.689A17.826,17.826,0,1,1,32.172,28.5a18.022,18.022,0,0,1-1.705,1.968,18.232,18.232,0,0,1-1.967,1.7,17.814,17.814,0,0,1-10.651,3.519h0Zm0-31.741a13.848,13.848,0,1,0,5.228,1.017,13.848,13.848,0,0,0-5.228-1.017Z"/><path class="f" d="M25.207,24.914l-.293.293a4.994,4.994,0,0,1-7.042,0L0,7.334,7.334,0,25.207,17.872a4.994,4.994,0,0,1,0,7.042" transform="translate(32.679 31.819)"/><path class="a" d="M3.748,0,9.03,5.281,5.28,9.03,0,3.748A18.591,18.591,0,0,0,2.008,2.007,18.264,18.264,0,0,0,3.748,0" transform="translate(28.809 27.949)"/><path class="g" d="M8.6,1.313,1.312,8.6,0,7.287,7.287,0Z" transform="translate(49.018 48.158)"/><path class="g" d="M8.6,1.112,1.112,8.6,0,7.487,7.487,0Z" transform="translate(31.819 30.959)"/><path class="h" d="M19.779,1.418,1.417,19.779A12.9,12.9,0,0,1,0,15.866L15.865,0a13.4,13.4,0,0,1,3.914,1.418" transform="translate(4.3 4.73)"/><path class="h" d="M22.789,2.773,2.938,21.5A14.756,14.756,0,0,1,.919,19.91,13.121,13.121,0,0,1,0,18.957L20.093,0c.352.272.686.562,1.01.868a13.692,13.692,0,0,1,1.686,1.9" transform="translate(7.31 7.74)"/></g></g></g></svg>