<svg width="12" height="12" viewBox="0 0 12 12" fill="none" xmlns="http://www.w3.org/2000/svg">
<g id="Icon">
<path id="Vector" d="M11.8649 9.83362C12.2495 10.5002 11.7668 11.3334 10.9988 11.3334H1.00113C0.23161 11.3334 -0.248848 10.4989 0.134943 9.83362L5.13382 1.16637C5.51855 0.49952 6.48215 0.500729 6.86619 1.16637L11.8649 9.83362ZM6.00001 8.04169C5.47074 8.04169 5.04167 8.47075 5.04167 9.00002C5.04167 9.52929 5.47074 9.95835 6.00001 9.95835C6.52928 9.95835 6.95834 9.52929 6.95834 9.00002C6.95834 8.47075 6.52928 8.04169 6.00001 8.04169ZM5.09015 4.59698L5.24469 7.43031C5.25192 7.5629 5.36155 7.66669 5.49432 7.66669H6.50569C6.63846 7.66669 6.74809 7.5629 6.75532 7.43031L6.90986 4.59698C6.91767 4.45377 6.80365 4.33335 6.66024 4.33335H5.33976C5.19634 4.33335 5.08234 4.45377 5.09015 4.59698Z" fill="#C62828"/>
</g>
</svg>
