<svg xmlns="http://www.w3.org/2000/svg" width="24" height="24" viewBox="0 0 24 24" fill="none">
  <path fill-rule="evenodd" clip-rule="evenodd" d="M5.5 6C5.5 5.72386 5.72386 5.5 6 5.5H18C18.2761 5.5 18.5 5.72386 18.5 6V18C18.5 18.2761 18.2761 18.5 18 18.5H13.0625V14.1429C13.0625 11.9339 11.2994 10.1429 9.125 10.1429H8C8 12.3518 9.76309 14.1429 11.9375 14.1429V18.5H6C5.72386 18.5 5.5 18.2761 5.5 18V6ZM6 4C4.89543 4 4 4.89543 4 6V18C4 19.1046 4.89543 20 6 20H18C19.1046 20 20 19.1046 20 18V6C20 4.89543 19.1046 4 18 4H6ZM12.435 11.0571C13.1082 9.83036 14.3949 9 15.875 9H17C17 11.0696 15.4531 12.7696 13.4721 12.9786C13.2822 12.2518 12.9219 11.5964 12.435 11.0571Z" fill="white"/>
</svg>