<svg width="12" height="12" viewBox="0 0 12 12" fill="none" xmlns="http://www.w3.org/2000/svg">
<g id="react-icons/fa/FaFileExcel">
<path id="Vector" d="M6.75 3.1875V0H2.0625C1.75078 0 1.5 0.250781 1.5 0.5625V11.4375C1.5 11.7492 1.75078 12 2.0625 12H9.9375C10.2492 12 10.5 11.7492 10.5 11.4375V3.75H7.3125C7.00313 3.75 6.75 3.49688 6.75 3.1875ZM8.15859 5.68359L6.75 7.875L8.15859 10.0664C8.27813 10.2539 8.14453 10.5 7.92188 10.5H7.10391C7.00078 10.5 6.90469 10.4438 6.85547 10.3523C6.39609 9.50391 6 8.74219 6 8.74219C5.85 9.08906 5.76562 9.21094 5.14219 10.3547C5.09297 10.4461 4.99922 10.5023 4.89609 10.5023H4.07812C3.85547 10.5023 3.72187 10.2563 3.84141 10.0688L5.25469 7.87734L3.84141 5.68594C3.71953 5.49844 3.85547 5.25234 4.07812 5.25234H4.89375C4.99688 5.25234 5.09297 5.30859 5.14219 5.4C5.75391 6.54375 5.61094 6.1875 6 7.00547C6 7.00547 6.14297 6.73125 6.85781 5.4C6.90703 5.30859 7.00312 5.25234 7.10625 5.25234H7.92188C8.14453 5.25 8.27813 5.49609 8.15859 5.68359ZM10.5 2.85703V3H7.5V0H7.64297C7.79297 0 7.93594 0.0585938 8.04141 0.164062L10.3359 2.46094C10.4414 2.56641 10.5 2.70938 10.5 2.85703Z" fill="#021155"/>
</g>
</svg>
