<svg width="14" height="14" viewBox="0 0 14 14" fill="none" xmlns="http://www.w3.org/2000/svg">
<g id="File Icon">
<path id="Vector" d="M11.8645 2.67694L9.57031 0.3828C9.32422 0.136707 8.99063 -0.00274658 8.64336 -0.00274658H3.0625C2.33789 -1.2207e-05 1.75 0.587878 1.75 1.31249V12.6875C1.75 13.4121 2.33789 14 3.0625 14H10.9375C11.6621 14 12.25 13.4121 12.25 12.6875V3.60663C12.25 3.25936 12.1105 2.92303 11.8645 2.67694ZM10.8309 3.49999H8.75V1.41913L10.8309 3.49999ZM3.0625 12.6875V1.31249H7.4375V4.15624C7.4375 4.51991 7.73008 4.81249 8.09375 4.81249H10.9375V12.6875H3.0625ZM8.85938 6.12499H8.07187C7.95156 6.12499 7.84219 6.19061 7.78477 6.29725C7.29258 7.20233 7.17773 7.45663 7.00273 7.87499C6.62266 7.07928 6.81406 7.40194 6.2207 6.29725C6.16328 6.19061 6.05117 6.12499 5.93086 6.12499H5.14062C4.88633 6.12499 4.73047 6.39843 4.85625 6.61718L6.12227 8.74999L4.85625 10.8828C4.72773 11.1016 4.88633 11.375 5.14062 11.375H5.93086C6.05117 11.375 6.16055 11.3094 6.21797 11.2027C6.81133 10.109 6.84688 9.97225 7 9.62499C7.40742 10.4508 7.16133 10.0598 7.78203 11.2027C7.83945 11.3094 7.95156 11.375 8.07187 11.375H8.85938C9.11367 11.375 9.26953 11.1016 9.14375 10.8828L7.875 8.74999C7.89414 8.71991 8.70352 7.36913 9.14102 6.61718C9.26953 6.39843 9.11094 6.12499 8.85938 6.12499Z" fill="#666666"/>
</g>
</svg>
