<svg width="16" height="16" viewBox="0 0 16 16" fill="none" xmlns="http://www.w3.org/2000/svg">
<path d="M6.00938 5.0002V6.0002H7.00938V5.0002H6.00938ZM8.00938 2.0002H7.00938V3.0002H8.00938V2.0002ZM6.00938 3.0002V4.0002H7.00938V3.0002H6.00938ZM8.00938 4.0002H7.00938V5.0002H8.00938V4.0002ZM13.5594 3.05957L10.9375 0.437695C10.6562 0.156445 10.275 -0.00292969 9.87813 -0.00292969H3.5C2.67188 0.000195313 2 0.67207 2 1.5002V14.5002C2 15.3283 2.67188 16.0002 3.5 16.0002H12.5C13.3281 16.0002 14 15.3283 14 14.5002V4.12207C14 3.7252 13.8406 3.34082 13.5594 3.05957ZM10 1.62207L12.3781 4.0002H10V1.62207ZM12.5 14.5002H3.5V1.5002H5.99062V2.0002H6.99062V1.5002H8.5V4.7502C8.5 5.16582 8.83437 5.5002 9.25 5.5002H12.5V14.5002ZM8.06875 8.30332C8.03437 8.12832 7.88125 8.0002 7.7 8.0002H7.00938V7.0002H6.00938V8.0002L5.39375 11.0346C5.1875 12.0502 5.9625 13.0002 7 13.0002C8.03437 13.0002 8.80938 12.0564 8.60938 11.0439L8.06875 8.30332ZM7.00938 12.1908C6.45 12.1908 5.99688 11.8127 5.99688 11.3471C5.99688 10.8814 6.45 10.5033 7.00938 10.5033C7.56875 10.5033 8.02187 10.8814 8.02187 11.3471C8.02187 11.8127 7.56875 12.1908 7.00938 12.1908ZM8.00938 6.0002H7.00938V7.0002H8.00938V6.0002Z" fill="#50505C"/>
</svg>
