<svg xmlns="http://www.w3.org/2000/svg" width="24" height="24" viewBox="0 0 24 24">
  <g id="Feedback_Star_Grey" data-name="Feedback Star Grey" transform="translate(-2737 -1323)">
    <g id="Path_6" data-name="Path 6" transform="translate(2738 1323.064)" fill="#021155" stroke-linecap="round" stroke-linejoin="round">
      <path d="M 15.44816875457764 17.28190040588379 L 11.8490104675293 15.38971519470215 L 11.5 15.2062349319458 L 11.1509895324707 15.38971519470215 L 7.551831245422363 17.28190040588379 L 8.23921012878418 13.27416515350342 L 8.305859565734863 12.8855447769165 L 8.023509979248047 12.61031532287598 L 5.11173152923584 9.772036552429199 L 9.135709762573242 9.187314987182617 L 9.525910377502441 9.130615234375 L 9.700409889221191 8.77702522277832 L 11.5 5.130666732788086 L 13.29959011077881 8.77702522277832 L 13.47408962249756 9.130615234375 L 13.86429023742676 9.187314987182617 L 17.88826942443848 9.772036552429199 L 14.97649002075195 12.61031532287598 L 14.69414043426514 12.8855447769165 L 14.76078987121582 13.27416515350342 L 15.44816875457764 17.28190040588379 Z" stroke="none"/>
      <path d="M 11.5 6.825328826904297 L 10.37296009063721 9.108955383300781 C 10.15447044372559 9.551665306091309 9.732119560241699 9.858525276184082 9.243559837341309 9.92951488494873 L 6.723443984985352 10.29571151733398 L 8.547019958496094 12.07325553894043 C 8.90054988861084 12.41786479949951 9.061869621276855 12.9143648147583 8.978409767150879 13.40095520019531 L 8.547922134399414 15.91089534759521 L 10.80198955535889 14.72586441040039 C 11.23897075653076 14.49613571166992 11.76102924346924 14.49613571166992 12.19801044464111 14.72586441040039 L 14.45207786560059 15.91089534759521 L 14.02159023284912 13.40095520019531 C 13.93813037872314 12.9143648147583 14.09945011138916 12.41786479949951 14.45298004150391 12.07325553894043 L 16.27655410766602 10.29571151733398 L 13.75644016265869 9.92951488494873 C 13.2678804397583 9.858525276184082 12.84552955627441 9.551665306091309 12.62703990936279 9.108955383300781 L 11.5 6.825328826904297 M 11.5 3.436014175415039 L 13.97214031219482 8.445104598999023 L 19.5 9.248354911804199 L 15.5 13.14738464355469 L 16.44427108764648 18.65291595458984 L 11.5 16.05356597900391 L 6.555730819702148 18.65291595458984 L 7.5 13.14738464355469 L 3.5 9.248354911804199 L 9.027859687805176 8.445104598999023 L 11.5 3.436014175415039 Z" stroke="none" fill="#021155"/>
    </g>
    <rect id="Rectangle_978" data-name="Rectangle 978" width="24" height="24" transform="translate(2737 1323)" fill="none"/>
  </g>
</svg>
