<svg xmlns="http://www.w3.org/2000/svg" width="24" height="24" viewBox="0 0 24 24">
  <g id="Feedback_Star_Grey" data-name="Feedback Star Grey" transform="translate(-2737 -1323)">
    <g id="Path_6" data-name="Path 6" transform="translate(2738 1323.064)" fill="none" stroke-linecap="round" stroke-linejoin="round">
      <path d="M11.5,3.436l2.472,5.009,5.528.8-4,3.9.944,5.506-4.944-2.6-4.944,2.6L7.5,13.147l-4-3.9,5.528-.8Z" stroke="none"/>
      <path d="M 11.5 6.825328826904297 L 10.37296009063721 9.108955383300781 C 10.15447044372559 9.551665306091309 9.732119560241699 9.858525276184082 9.243559837341309 9.92951488494873 L 6.723443984985352 10.29571151733398 L 8.547019958496094 12.07325553894043 C 8.90054988861084 12.41786479949951 9.061869621276855 12.9143648147583 8.978409767150879 13.40095520019531 L 8.547922134399414 15.91089534759521 L 10.80198955535889 14.72586441040039 C 11.23897075653076 14.49613571166992 11.76102924346924 14.49613571166992 12.19801044464111 14.72586441040039 L 14.45207786560059 15.91089534759521 L 14.02159023284912 13.40095520019531 C 13.93813037872314 12.9143648147583 14.09945011138916 12.41786479949951 14.45298004150391 12.07325553894043 L 16.27655410766602 10.29571151733398 L 13.75644016265869 9.92951488494873 C 13.2678804397583 9.858525276184082 12.84552955627441 9.551665306091309 12.62703990936279 9.108955383300781 L 11.5 6.825328826904297 M 11.5 3.436014175415039 L 13.97214031219482 8.445104598999023 L 19.5 9.248354911804199 L 15.5 13.14738464355469 L 16.44427108764648 18.65291595458984 L 11.5 16.05356597900391 L 6.555730819702148 18.65291595458984 L 7.5 13.14738464355469 L 3.5 9.248354911804199 L 9.027859687805176 8.445104598999023 L 11.5 3.436014175415039 Z" stroke="none" fill="#75787b"/>
    </g>
    <rect id="Rectangle_978" data-name="Rectangle 978" width="24" height="24" transform="translate(2737 1323)" fill="none"/>
  </g>
</svg>
