<svg width="16" height="16" viewBox="0 0 16 16" fill="none" xmlns="http://www.w3.org/2000/svg">
<g id="react-icons/md/MdCheckCircleOutline">
<path id="Vector" d="M11.06 5.05333L6.66668 9.44666L4.27334 7.06L3.33334 8L6.66668 11.3333L12 6L11.06 5.05333ZM8.00001 1.33333C4.32001 1.33333 1.33334 4.32 1.33334 8C1.33334 11.68 4.32001 14.6667 8.00001 14.6667C11.68 14.6667 14.6667 11.68 14.6667 8C14.6667 4.32 11.68 1.33333 8.00001 1.33333ZM8.00001 13.3333C5.05334 13.3333 2.66668 10.9467 2.66668 8C2.66668 5.05333 5.05334 2.66666 8.00001 2.66666C10.9467 2.66666 13.3333 5.05333 13.3333 8C13.3333 10.9467 10.9467 13.3333 8.00001 13.3333Z" fill="#388E3C"/>
</g>
</svg>
