<svg width="12" height="12" viewBox="0 0 12 12" fill="none" xmlns="http://www.w3.org/2000/svg">
<g id="Icon">
<mask id="mask0_1_6619" style="mask-type:alpha" maskUnits="userSpaceOnUse" x="0" y="0" width="12" height="12">
<circle id="Background" cx="6" cy="6" r="5.125" stroke="black" stroke-width="1.75"/>
</mask>
<g mask="url(#mask0_1_6619)">
<path id="loader" fill-rule="evenodd" clip-rule="evenodd" d="M3.91511 0.373881C5.09205 -0.0622614 6.37613 -0.118327 7.5866 0.213577L7.26928 1.37086C6.3009 1.10534 5.27364 1.15019 4.33209 1.4991C3.39054 1.84802 2.58212 2.48342 2.02062 3.31588C1.45912 4.14833 1.17283 5.13591 1.20203 6.13961C1.23124 7.1433 1.57447 8.11257 2.18342 8.91097C2.79237 9.70936 3.63637 10.2967 4.59662 10.5903C5.55686 10.8838 6.585 10.8689 7.5363 10.5475C8.4876 10.2261 9.31416 9.6145 9.89963 8.79873C10.4851 7.98296 10.8 7.00412 10.8 6H12C12 7.25515 11.6064 8.4787 10.8745 9.49841C10.1427 10.5181 9.1095 11.2827 7.92037 11.6844C6.73125 12.0861 5.44608 12.1048 4.24577 11.7378C3.04547 11.3709 1.99047 10.6367 1.22928 9.63871C0.46809 8.64071 0.0390459 7.42913 0.00253948 6.17451C-0.0339668 4.91989 0.323903 3.68541 1.02577 2.64485C1.72764 1.60428 2.73817 0.810023 3.91511 0.373881Z" fill="#021155"/>
</g>
</g>
</svg>
