<svg width="16" height="16" viewBox="0 0 16 16" fill="none" xmlns="http://www.w3.org/2000/svg">
<g id="react-icons/md/MdDoDisturbAlt">
<path id="Vector" d="M8.00001 1.33334C4.32001 1.33334 1.33334 4.32 1.33334 8C1.33334 11.68 4.32001 14.6667 8.00001 14.6667C11.68 14.6667 14.6667 11.68 14.6667 8C14.6667 4.32 11.68 1.33334 8.00001 1.33334ZM8.00001 13.3333C5.05334 13.3333 2.66668 10.9467 2.66668 8C2.66668 6.76667 3.08668 5.63334 3.79334 4.73334L11.2667 12.2067C10.3354 12.9388 9.1846 13.3357 8.00001 13.3333ZM12.2067 11.2667L4.73334 3.79334C5.66459 3.06118 6.81542 2.66426 8.00001 2.66667C10.9467 2.66667 13.3333 5.05334 13.3333 8C13.3333 9.23334 12.9133 10.3667 12.2067 11.2667Z" fill="#C62828"/>
</g>
</svg>
