<svg width="128" height="133" viewBox="0 0 128 133" fill="none" xmlns="http://www.w3.org/2000/svg">
<g id="Group 11937">
<path id="Path 30620" opacity="0.5" d="M61.9425 61.1247C61.9425 61.1247 87.295 48.9585 91.754 48.2615C96.213 47.5645 100.096 46.0812 108.666 47.4802C117.236 48.8792 124.467 57.806 125.602 62.822C126.737 67.838 128.344 70.0764 126.353 79.4294C124.362 88.7824 120.81 93.2478 120.81 93.2478L100.887 122.931C100.887 122.931 95.6532 130.76 90.2862 132.59C84.9192 134.42 76.6937 129.625 73.0577 128.129C69.4217 126.633 53.741 117.166 47.838 117.541C41.935 117.916 17.1749 116.049 17.1749 116.049C17.1749 116.049 4.6956 116.028 1.8946 110.885C-0.906397 105.742 1.37328 97.3064 7.24128 88.5974C13.1093 79.8884 24.5418 73.9825 26.4288 72.9275C28.3158 71.8725 61.9425 61.1247 61.9425 61.1247Z" fill="#E8EAF6"/>
<g id="Cloud">
<path id="Vector" d="M102.432 95.5521L102.439 96.3539L102.964 96.0906C105.839 97.2356 108.237 99.331 109.757 102.031C111.313 104.794 111.85 108.015 111.276 111.134C110.701 114.253 109.051 117.071 106.613 119.098C104.175 121.126 101.103 122.234 97.9316 122.23H97.9309H34.8607H34.8596C29.8381 122.241 25.0096 120.296 21.3976 116.808C17.7856 113.319 15.674 108.561 15.5103 103.543C15.3466 98.5238 17.1437 93.6384 20.5208 89.9221C23.8978 86.2058 28.5893 83.9506 33.6008 83.6345L33.9758 83.6108L34.0574 83.2441C35.0723 78.684 37.4797 74.5522 40.9464 71.4206C44.413 68.289 48.7674 66.3126 53.4069 65.7648C58.0463 65.2171 62.7413 66.1252 66.8419 68.3634C70.9425 70.6015 74.2459 74.0591 76.2948 78.2575L76.4991 78.6762L76.9312 78.5019C79.7355 77.3707 82.7736 76.9418 85.7814 77.2526C88.7892 77.5634 91.6755 78.6045 94.1892 80.2852C96.7029 81.9659 98.7678 84.2354 100.204 86.8961C101.641 89.5569 102.405 92.5284 102.432 95.5521ZM34.8607 122.73H97.9309L33.5694 83.1355C28.4281 83.4597 23.6152 85.7733 20.1507 89.5859C16.6863 93.3984 14.8426 98.4101 15.0105 103.559C15.1785 108.708 17.3448 113.589 21.0503 117.167C24.7558 120.746 29.7092 122.741 34.8607 122.73Z" fill="#021155" stroke="#E1E1E3"/>
<path id="Vector_2" d="M88.7454 89.1449H38.2735C37.8626 89.143 37.4692 88.9788 37.1791 88.6879C36.8889 88.3971 36.7255 88.0033 36.7246 87.5925C36.7256 87.182 36.889 86.7886 37.1793 86.4983C37.4696 86.2081 37.863 86.0446 38.2735 86.0436H88.7454C89.1559 86.0446 89.5493 86.2081 89.8396 86.4983C90.1298 86.7886 90.2933 87.182 90.2942 87.5925C90.2933 88.0033 90.1299 88.3971 89.8398 88.6879C89.5496 88.9788 89.1562 89.143 88.7454 89.1449Z" fill="#DADADA"/>
<path id="Vector_3" d="M81.134 110.106H45.8859C44.5046 110.106 43.1799 109.558 42.2032 108.581C41.2264 107.604 40.6777 106.279 40.6777 104.898C40.6777 103.517 41.2264 102.192 42.2032 101.215C43.1799 100.239 44.5046 99.69 45.8859 99.69H81.134C82.5153 99.69 83.84 100.239 84.8167 101.215C85.7934 102.192 86.3421 103.517 86.3421 104.898C86.3421 106.279 85.7934 107.604 84.8167 108.581C83.84 109.558 82.5153 110.106 81.134 110.106ZM45.8859 100.048C44.5995 100.048 43.3657 100.559 42.4561 101.468C41.5465 102.378 41.0354 103.612 41.0354 104.898C41.0354 106.185 41.5465 107.418 42.4561 108.328C43.3657 109.238 44.5995 109.749 45.8859 109.749H81.134C82.4204 109.749 83.6541 109.238 84.5638 108.328C85.4734 107.418 85.9844 106.185 85.9844 104.898C85.9844 103.612 85.4734 102.378 84.5638 101.468C83.6541 100.559 82.4204 100.048 81.134 100.048H45.8859Z" fill="white"/>
<path id="Vector_4" d="M81.1027 108.854L45.8921 108.854C44.8409 108.855 43.8322 108.439 43.0872 107.698C42.3422 106.956 41.9218 105.949 41.918 104.898C41.9208 103.849 42.3384 102.844 43.0796 102.103C43.8208 101.361 44.8255 100.942 45.8742 100.938L81.0848 100.938C82.1335 100.942 83.1382 101.361 83.8794 102.103C84.6206 102.844 85.0382 103.849 85.041 104.898C85.0373 105.943 84.6217 106.945 83.8845 107.685C83.1472 108.426 82.1477 108.846 81.1027 108.854Z" fill="white"/>
<path id="Vector_5" d="M88.1859 59.0764L81.4932 87.5925H41.5664L52.7339 40.0001L80.3808 46.4853L88.1859 59.0764Z" fill="#E1E1E3"/>
<path id="Vector_6" d="M90.1859 58.0764L83.4932 86.5925H43.5664L54.7339 39.0001L82.3808 45.4853L90.1859 58.0764Z" fill="#FAFAFA"/>
<path id="Vector_7" d="M84.9775 64.3776L54.6515 57.2593C54.5478 57.2353 54.4499 57.191 54.3633 57.1291C54.2768 57.0672 54.2033 56.9887 54.1471 56.8983C54.091 56.808 54.0532 56.7074 54.036 56.6023C54.0188 56.4973 54.0225 56.3899 54.0469 56.2863C54.0955 56.0768 54.2252 55.895 54.4076 55.781C54.59 55.667 54.8102 55.63 55.0199 55.6782L85.3495 62.7858C85.5587 62.8359 85.7396 62.9667 85.8528 63.1496C85.9661 63.3325 86.0024 63.5527 85.9541 63.7623C85.9054 63.973 85.7755 64.1559 85.5926 64.2711C85.4096 64.3864 85.1886 64.4247 84.9775 64.3776Z" fill="#021155"/>
<path id="Vector_8" d="M83.8194 69.3139L53.4933 62.1956C53.3895 62.1712 53.2915 62.1265 53.2049 62.0643C53.1184 62.002 53.0449 61.9232 52.9888 61.8325C52.9326 61.7419 52.8949 61.641 52.8778 61.5357C52.8606 61.4305 52.8644 61.3229 52.8888 61.219C52.939 61.0099 53.0697 60.829 53.2526 60.7157C53.4355 60.6025 53.6557 60.5661 53.8653 60.6145L84.1914 67.7328C84.4003 67.7822 84.5812 67.9122 84.6945 68.0945C84.8078 68.2769 84.8442 68.4966 84.7959 68.7058C84.7466 68.9156 84.6161 69.0974 84.4331 69.2113C84.2502 69.3253 84.0295 69.3621 83.8194 69.3139Z" fill="#021155"/>
<path id="Vector_9" d="M82.6605 74.2323L52.3344 67.1176C52.1252 67.0675 51.9443 66.9367 51.8311 66.7538C51.7179 66.5709 51.6815 66.3507 51.7299 66.1411C51.7809 65.9324 51.9118 65.7521 52.0945 65.639C52.2771 65.5259 52.4969 65.4891 52.7064 65.5366L83.0325 72.6513C83.1363 72.6757 83.2343 72.7203 83.3209 72.7826C83.4075 72.8449 83.4809 72.9236 83.5371 73.0143C83.5932 73.105 83.6309 73.2059 83.6481 73.3111C83.6652 73.4164 83.6615 73.524 83.637 73.6278C83.6126 73.7316 83.568 73.8296 83.5057 73.9162C83.4434 74.0028 83.3647 74.0762 83.274 74.1324C83.1833 74.1885 83.0824 74.2262 82.9772 74.2434C82.8719 74.2605 82.7643 74.2568 82.6605 74.2323Z" fill="#021155"/>
<path id="Vector_10" d="M81.5052 79.1829L51.1755 72.0861C50.9668 72.0351 50.7865 71.9042 50.6734 71.7215C50.5604 71.5388 50.5236 71.3191 50.571 71.1096C50.6211 70.9004 50.7519 70.7195 50.9348 70.6063C51.1177 70.493 51.3379 70.4566 51.5475 70.505L81.8736 77.6198C82.0829 77.67 82.2641 77.8006 82.3779 77.9833C82.4917 78.1661 82.529 78.3863 82.4817 78.5963C82.4285 78.8027 82.2963 78.9798 82.1136 79.0896C81.9309 79.1993 81.7124 79.2329 81.5052 79.1829Z" fill="#021155"/>
<path id="Vector_11" d="M68.2887 81.2898L50.0208 76.9974C49.8138 76.9449 49.6357 76.813 49.5253 76.6302C49.4148 76.4475 49.3808 76.2285 49.4306 76.0208C49.4546 75.9172 49.4989 75.8192 49.5608 75.7327C49.6227 75.6461 49.7011 75.5727 49.7915 75.5165C49.8819 75.4604 49.9825 75.4226 50.0876 75.4054C50.1926 75.3882 50.3 75.3919 50.4036 75.4163L68.675 79.7088C68.7789 79.7332 68.8769 79.7778 68.9634 79.8401C69.05 79.9024 69.1235 79.9811 69.1796 80.0718C69.2357 80.1625 69.2734 80.2633 69.2906 80.3686C69.3078 80.4739 69.304 80.5815 69.2796 80.6853C69.2553 80.7906 69.2102 80.8901 69.1469 80.9777C69.0837 81.0654 69.0036 81.1396 68.9113 81.1959C68.819 81.2522 68.7164 81.2895 68.6095 81.3056C68.5026 81.3218 68.3935 81.3164 68.2887 81.2898Z" fill="#021155"/>
<path id="Vector_12" d="M90.1864 59.0764L79.9883 56.6834L82.3813 46.4852L90.1864 59.0764Z" fill="#021155"/>
</g>
<g id="speech-bubble">
<path id="Vector_13" d="M119.293 6.10352e-05H93.7147C92.7295 6.10352e-05 91.7847 0.391431 91.088 1.08807C90.3914 1.78471 90 2.72957 90 3.71477V28.582C90 29.5672 90.3914 30.512 91.088 31.2087C91.7847 31.9053 92.7295 32.2967 93.7147 32.2967H101.899L96.389 39.7847L105.914 32.2967H119.285C120.27 32.2967 121.215 31.9053 121.912 31.2087C122.609 30.512 123 29.5672 123 28.582V3.71477C123 2.73083 122.61 1.78709 121.915 1.09065C121.22 0.394224 120.277 0.00200173 119.293 6.10352e-05Z" fill="#EBEBEB"/>
<path id="Vector_14" opacity="0.6" d="M119.293 6.10352e-05H93.7147C92.7295 6.10352e-05 91.7847 0.391431 91.088 1.08807C90.3914 1.78471 90 2.72957 90 3.71477V28.582C90 29.5672 90.3914 30.512 91.088 31.2087C91.7847 31.9053 92.7295 32.2967 93.7147 32.2967H101.899L96.389 39.7847L105.914 32.2967H119.285C120.27 32.2967 121.215 31.9053 121.912 31.2087C122.609 30.512 123 29.5672 123 28.582V3.71477C123 2.73083 122.61 1.78709 121.915 1.09065C121.22 0.394224 120.277 0.00200173 119.293 6.10352e-05Z" fill="#F3F4FA"/>
<g id="Group 8599">
<g id="Group">
<path id="Path 31718" d="M121.21 29.7822L95.7328 32.0598C95.291 32.0993 94.847 32.0158 94.4448 31.8176C94.0427 31.6194 93.6961 31.3134 93.4394 30.9297C93.1828 30.546 93.0248 30.0979 92.9811 29.6296C92.9375 29.1613 93.0096 28.6891 93.1905 28.2595L103.984 2.62647C104.17 2.18468 104.465 1.8039 104.836 1.52381C105.208 1.24371 105.644 1.07454 106.098 1.03391C106.553 0.993281 107.009 1.08267 107.42 1.2928C107.831 1.50292 108.181 1.82608 108.434 2.22861L123.117 25.5837C123.363 25.9752 123.509 26.428 123.54 26.8975C123.571 27.3669 123.485 27.8368 123.293 28.2608C123.1 28.6847 122.807 29.048 122.441 29.3148C122.076 29.5816 121.652 29.7427 121.21 29.7822Z" fill="white"/>
</g>
<g id="Group 8585">
<path id="Path 31719" d="M121.29 30.8065L95.8127 33.0844C95.2032 33.1389 94.5908 33.0238 94.0361 32.7505C93.4813 32.4772 93.0033 32.0551 92.6492 31.5258C92.2951 30.9966 92.0773 30.3785 92.0171 29.7326C91.9569 29.0867 92.0565 28.4353 92.306 27.8427L103.099 2.20972C103.356 1.60038 103.762 1.07518 104.275 0.688858C104.788 0.302532 105.389 0.0692056 106.015 0.0131771C106.642 -0.0428515 107.272 0.0804653 107.838 0.370294C108.405 0.660122 108.888 1.10585 109.237 1.66105L123.92 25.0164C124.259 25.5564 124.46 26.1808 124.502 26.8283C124.545 27.4757 124.427 28.1237 124.162 28.7083C123.896 29.2929 123.491 29.7939 122.988 30.1618C122.484 30.5298 121.898 30.752 121.289 30.8065H121.29ZM106.179 2.05676C105.896 2.07964 105.625 2.18374 105.394 2.3579C105.162 2.53205 104.98 2.7697 104.866 3.04539L94.0728 28.6784C93.9604 28.9451 93.9155 29.2383 93.9426 29.5291C93.9696 29.8198 94.0677 30.098 94.2271 30.3363C94.3864 30.5745 94.6016 30.7645 94.8513 30.8875C95.101 31.0105 95.3767 31.0623 95.651 31.0377L121.128 28.7601C121.402 28.7356 121.666 28.6357 121.892 28.4701C122.119 28.3045 122.301 28.0789 122.421 27.8158C122.541 27.5526 122.593 27.261 122.574 26.9695C122.555 26.6781 122.465 26.397 122.312 26.154L107.63 2.79987C107.475 2.54792 107.257 2.34564 107.002 2.21473C106.746 2.08381 106.462 2.0292 106.179 2.05676Z" fill="#C68700"/>
</g>
<g id="Group 8587">
<g id="Group 8586">
<path id="Path 31720" d="M105.582 25.8623C105.552 25.5313 105.586 25.1974 105.681 24.8805C105.771 24.5805 105.92 24.3038 106.117 24.068C106.322 23.8259 106.571 23.6301 106.849 23.4921C107.165 23.3371 107.504 23.2445 107.851 23.219C108.2 23.1829 108.552 23.2136 108.89 23.3098C109.189 23.3949 109.468 23.5437 109.71 23.7469C109.942 23.9444 110.132 24.1909 110.268 24.4705C110.412 24.7661 110.498 25.0893 110.521 25.4208C110.551 25.7492 110.517 26.0806 110.421 26.3946C110.329 26.6919 110.18 26.9659 109.983 27.1996C109.776 27.4432 109.525 27.6394 109.244 27.7761C108.925 27.9309 108.583 28.0236 108.234 28.0498C107.888 28.0863 107.538 28.0553 107.203 27.9585C106.907 27.872 106.63 27.7231 106.39 27.5207C106.16 27.3251 105.97 27.0814 105.833 26.8048C105.689 26.5121 105.604 26.1914 105.582 25.8623ZM109.521 20.9702L105.851 21.2984L104.275 8.03931L108.985 7.61823L109.521 20.9702Z" fill="#C68700"/>
</g>
</g>
</g>
</g>
</g>
</svg>
