<svg xmlns="http://www.w3.org/2000/svg" width="24" height="24" viewBox="0 0 24 24">
  <g id="Edit_Grey" data-name="Edit Grey" transform="translate(-1236 -192)">
    <rect id="Rectangle_871" data-name="Rectangle 871" width="24" height="24" transform="translate(1236 192)" fill="none"/>
    <g id="function" transform="translate(1231.208 403.715)">
      <path id="Path_32558" data-name="Path 32558" d="M11.185-207.63a2.841,2.841,0,0,0-1.823,1.438c-.217.41-.226.46-.268,2.341l-.042,1.923-.945.042c-.869.042-.961.059-1.112.242a.8.8,0,0,0,0,.936c.15.184.242.2,1.112.242l.945.042v2.734c0,2.642-.008,2.734-.176,2.968a1.637,1.637,0,0,1-1.145.652,2.69,2.69,0,0,0-.585.142.765.765,0,0,0-.293.836c.309.886,2.316.468,3.1-.652.5-.719.51-.744.56-3.837l.042-2.842.92-.042a5.478,5.478,0,0,0,1.02-.109.834.834,0,0,0,.2-.385.632.632,0,0,0-.042-.577c-.159-.318-.268-.343-1.3-.376l-.794-.017-.025-1.588c-.033-1.831.025-2.107.46-2.441.276-.209.376-.234,1.271-.276a5.171,5.171,0,0,0,1.162-.159.738.738,0,0,0,.092-1.145c-.142-.125-.334-.159-1.02-.176A7.066,7.066,0,0,0,11.185-207.63Z" transform="translate(0 0)" fill="#707070"/>
      <path id="Path_32559" data-name="Path 32559" d="M92.881-157.635a6.51,6.51,0,0,0-.66,1.078,9.358,9.358,0,0,0-1.045,4.958,9.772,9.772,0,0,0,1.246,4.6c.518.961.961,1.17,1.471.7.276-.268.226-.56-.226-1.421a8.821,8.821,0,0,1-.092-8.3,5.939,5.939,0,0,0,.5-1.221.664.664,0,0,0-.61-.635C93.19-157.92,93.123-157.895,92.881-157.635Z" transform="translate(-77.29 -45.656)" fill="#707070"/>
      <path id="Path_32560" data-name="Path 32560" d="M210.242-157.731a.818.818,0,0,0-.242.4,7.145,7.145,0,0,0,.5,1.154,7.56,7.56,0,0,1,.978,3.7,8.061,8.061,0,0,1-1.028,4.623,5.831,5.831,0,0,0-.451,1.028c0,.242.46.635.736.635.368,0,.627-.259,1-.978A9.544,9.544,0,0,0,212.951-152a9.479,9.479,0,0,0-.535-3.436,8.085,8.085,0,0,0-1.221-2.374A.67.67,0,0,0,210.242-157.731Z" transform="translate(-186.191 -45.585)" fill="#707070"/>
      <path id="Path_32561" data-name="Path 32561" d="M140.074-115.6a.58.58,0,0,0-.268.518c0,.259.092.385.677.987l.669.694-.652.686c-.761.8-.836.978-.577,1.354.376.56.786.468,1.639-.393l.627-.627.677.677c.769.769,1.045.861,1.421.477.343-.343.293-.644-.192-1.212-.234-.268-.527-.577-.644-.686a.729.729,0,0,1-.217-.3,3.138,3.138,0,0,1,.552-.627,5.584,5.584,0,0,0,.677-.786c.117-.226.117-.276-.017-.518a.759.759,0,0,0-.777-.418,4.688,4.688,0,0,0-.786.677,4.018,4.018,0,0,1-.694.627,4.976,4.976,0,0,1-.711-.627C140.726-115.846,140.475-115.938,140.074-115.6Z" transform="translate(-121.849 -84.235)" fill="#707070"/>
    </g>
  </g>
</svg>
