<svg xmlns="http://www.w3.org/2000/svg" width="228.919" height="122" viewBox="0 0 228.919 122">
  <g id="Group_9162" data-name="Group 9162" transform="translate(0.002 0)">
    <path id="Path_31788" data-name="Path 31788" d="M133.375,681.1l.047-.25c.01-.055,1.089-5.527,5.132-8.7s9.615-2.927,9.671-2.924l.254.013-.047.25c-.01.055-1.089,5.527-5.132,8.7s-9.615,2.927-9.671,2.924Zm5.453-8.6c-3.418,2.685-4.649,7.075-4.912,8.179,1.135,0,5.695-.153,9.11-2.835s4.648-7.074,4.912-8.179C146.8,669.656,142.242,669.814,138.828,672.5Z" transform="translate(-122.69 -559.451)" fill="#f1f1f1"/>
    <path id="Path_31789" data-name="Path 31789" d="M138.665,654.6c-1.852,4.77-6.727,7.328-6.727,7.328s-1.873-5.177-.021-9.947,6.727-7.328,6.727-7.328S140.517,649.83,138.665,654.6Z" transform="translate(-120.92 -540.337)" fill="#f1f1f1"/>
    <path id="Path_31790" data-name="Path 31790" d="M1032.488,681.113c-.056,0-5.628.251-9.671-2.924s-5.121-8.648-5.132-8.7l-.047-.25.254-.013c.056,0,5.628-.251,9.671,2.924s5.121,8.648,5.132,8.7l.047.25Zm-14.309-11.452c.264,1.1,1.5,5.5,4.912,8.179s7.975,2.84,9.11,2.835c-.263-1.1-1.494-5.494-4.912-8.179S1019.315,669.656,1018.179,669.661Z" transform="translate(-810.276 -559.451)" fill="#f1f1f1"/>
    <path id="Path_31791" data-name="Path 31791" d="M1051.017,654.6c1.852,4.77,6.727,7.328,6.727,7.328s1.873-5.177.021-9.947-6.727-7.328-6.727-7.328S1049.165,649.83,1051.017,654.6Z" transform="translate(-835.612 -540.337)" fill="#f1f1f1"/>
    <path id="Path_31792" data-name="Path 31792" d="M532.512,655.927l-3.238-1.363-2.221-16.232h-29.58L495.065,654.5l-2.9,1.448a.688.688,0,0,0,.308,1.3h39.769a.688.688,0,0,0,.267-1.322Z" transform="translate(-401.35 -535.418)" fill="#e6e6e6"/>
    <path id="Path_31793" data-name="Path 31793" d="M392.61,566.12h-145.3a2.879,2.879,0,0,1-2.872-2.879v-20.49H395.482v20.49a2.879,2.879,0,0,1-2.872,2.879Z" transform="translate(-208.894 -461.047)" fill="#ccc"/>
    <path id="Path_31794" data-name="Path 31794" d="M395.169,266.795H243.835V179.123a3.474,3.474,0,0,1,3.47-3.47H391.7a3.474,3.474,0,0,1,3.47,3.47Z" transform="translate(-208.429 -175.653)" fill="#3f3d56"/>
    <path id="Path_31795" data-name="Path 31795" d="M408.443,282.744H275.187a2.678,2.678,0,0,1-2.675-2.675V207a2.678,2.678,0,0,1,2.675-2.675H408.443A2.678,2.678,0,0,1,411.119,207v73.065A2.678,2.678,0,0,1,408.443,282.744Z" transform="translate(-230.739 -197.965)" fill="#fff"/>
    <path id="Path_31796" data-name="Path 31796" d="M313.8,721.971H85.571a.348.348,0,0,1-.342-.251.339.339,0,0,1,.328-.426H313.769a.359.359,0,0,1,.359.265.339.339,0,0,1-.332.412Z" transform="translate(-85.219 -599.971)" fill="#ccc"/>
    <rect id="Rectangle_3695" data-name="Rectangle 3695" width="21.925" height="2.059" transform="translate(48.832 34.065)" fill="#e5e5e5"/>
    <rect id="Rectangle_3696" data-name="Rectangle 3696" width="21.925" height="2.059" transform="translate(48.832 39.069)" fill="#e5e5e5"/>
    <rect id="Rectangle_3697" data-name="Rectangle 3697" width="21.925" height="2.059" transform="translate(48.832 44.183)" fill="#e5e5e5"/>
    <rect id="Rectangle_3698" data-name="Rectangle 3698" width="21.925" height="2.059" transform="translate(48.832 49.297)" fill="#e5e5e5"/>
    <rect id="Rectangle_3699" data-name="Rectangle 3699" width="11.539" height="1.787" transform="translate(54.031 55.795)" fill="#021155"/>
    <rect id="Rectangle_3700" data-name="Rectangle 3700" width="0.21" height="0.629" transform="translate(104.766 46.861)" fill="#e5e5e5"/>
    <path id="Path_31797" data-name="Path 31797" d="M556.62,407.34h-.21V406h.21Zm0-2.68h-.21v-1.34h.21Zm0-2.68h-.21v-1.34h.21Zm0-2.68h-.21v-1.34h.21Zm0-2.68h-.21v-1.34h.21Z" transform="translate(-451.644 -346.436)" fill="#e5e5e5"/>
    <rect id="Rectangle_3701" data-name="Rectangle 3701" width="0.21" height="0.629" transform="translate(104.766 62.261)" fill="#e5e5e5"/>
    <rect id="Rectangle_3702" data-name="Rectangle 3702" width="0.21" height="0.629" transform="translate(127.769 46.861)" fill="#e5e5e5"/>
    <path id="Path_31798" data-name="Path 31798" d="M660.074,407.34h-.21V406h.21Zm0-2.68h-.21v-1.34h.21Zm0-2.68h-.21v-1.34h.21Zm0-2.68h-.21v-1.34h.21Zm0-2.68h-.21v-1.34h.21Z" transform="translate(-532.096 -346.436)" fill="#e5e5e5"/>
    <rect id="Rectangle_3703" data-name="Rectangle 3703" width="0.21" height="0.629" transform="translate(127.769 62.261)" fill="#e5e5e5"/>
    <rect id="Rectangle_3704" data-name="Rectangle 3704" width="0.21" height="0.629" transform="translate(139.372 34.532)" fill="#e5e5e5"/>
    <path id="Path_31799" data-name="Path 31799" d="M712.26,364.065h-.21v-1.288h.21Zm0-2.576h-.21V360.2h.21Zm0-2.576h-.21v-1.288h.21Zm0-2.576h-.21V355.05h.21Zm0-2.576h-.21v-1.288h.21Zm0-2.576h-.21V349.9h.21Zm0-2.576h-.21v-1.288h.21Zm0-2.576h-.21v-1.288h.21Zm0-2.576h-.21v-1.288h.21Zm0-2.576h-.21V339.6h.21Z" transform="translate(-572.678 -303.126)" fill="#e5e5e5"/>
    <rect id="Rectangle_3705" data-name="Rectangle 3705" width="0.21" height="0.629" transform="translate(139.372 62.261)" fill="#e5e5e5"/>
    <rect id="Rectangle_3706" data-name="Rectangle 3706" width="0.21" height="0.629" transform="translate(150.86 29.49)" fill="#e5e5e5"/>
    <path id="Path_31800" data-name="Path 31800" d="M763.924,346.41h-.21v-1.283h.21Zm0-2.566h-.21v-1.283h.21Zm0-2.566h-.21v-1.283h.21Zm0-2.566h-.21v-1.283h.21Zm0-2.566h-.21v-1.283h.21Zm0-2.566h-.21V332.3h.21Zm0-2.566h-.21v-1.283h.21Zm0-2.566h-.21v-1.283h.21Zm0-2.566h-.21V324.6h.21Zm0-2.566h-.21v-1.283h.21Zm0-2.566h-.21v-1.283h.21Zm0-2.566h-.21V316.9h.21Z" transform="translate(-612.855 -285.474)" fill="#e5e5e5"/>
    <rect id="Rectangle_3707" data-name="Rectangle 3707" width="0.21" height="0.629" transform="translate(150.86 62.261)" fill="#e5e5e5"/>
    <rect id="Rectangle_3708" data-name="Rectangle 3708" width="0.21" height="0.629" transform="translate(116.32 38.418)" fill="#e5e5e5"/>
    <path id="Path_31801" data-name="Path 31801" d="M608.584,377.494h-.21v-1.219h.21Zm0-2.439h-.21v-1.219h.21Zm0-2.439h-.21V371.4h.21Zm0-2.439h-.21v-1.219h.21Zm0-2.439h-.21V366.52h.21Zm0-2.439h-.21v-1.219h.21Zm0-2.439h-.21v-1.219h.21Zm0-2.439h-.21V359.2h.21Zm0-2.438h-.21v-1.219h.21Z" transform="translate(-492.054 -316.48)" fill="#e5e5e5"/>
    <rect id="Rectangle_3709" data-name="Rectangle 3709" width="0.21" height="0.629" transform="translate(116.32 62.261)" fill="#e5e5e5"/>
    <path id="Path_31802" data-name="Path 31802" d="M572.923,341.647H503.518a.217.217,0,0,1-.217-.217V308.164a.217.217,0,1,1,.434,0v33.049h69.188a.217.217,0,1,1,0,.434Z" transform="translate(-410.261 -278.509)" fill="#3f3d56"/>
    <path id="Path_31803" data-name="Path 31803" d="M494.259,149.9l-11.54-8.643-11.382,8.525-.26-.348,11.642-8.72,11.484,8.6,11.412-12.489.046-.019,11.512-4.638.162.4-11.466,4.62Z" transform="translate(-366.283 -102.771)" fill="#3f3d56"/>
    <circle id="Ellipse_366" data-name="Ellipse 366" cx="1.303" cy="1.303" r="1.303" transform="translate(103.568 45.556)" fill="#021155"/>
    <circle id="Ellipse_367" data-name="Ellipse 367" cx="1.303" cy="1.303" r="1.303" transform="translate(115.103 37.068)" fill="#021155"/>
    <circle id="Ellipse_368" data-name="Ellipse 368" cx="1.303" cy="1.303" r="1.303" transform="translate(126.639 45.556)" fill="#021155"/>
    <circle id="Ellipse_369" data-name="Ellipse 369" cx="1.303" cy="1.303" r="1.303" transform="translate(138.174 32.932)" fill="#021155"/>
    <circle id="Ellipse_370" data-name="Ellipse 370" cx="1.303" cy="1.303" r="1.303" transform="translate(149.71 28.144)" fill="#021155"/>
    <rect id="Rectangle_3710" data-name="Rectangle 3710" width="0.444" height="78.416" transform="translate(77.213 6.363)" fill="#e5e5e5"/>
    <path id="Path_31804" data-name="Path 31804" d="M895.817,525.517a1.63,1.63,0,0,0-.435-2.461l1.083-5.69-2.778,1.158-.6,5.226a1.639,1.639,0,0,0,2.733,1.768Z" transform="translate(-713.324 -441.375)" fill="#ffb7b7"/>
    <path id="Path_31805" data-name="Path 31805" d="M871.026,503.977h-2.353l-1.119-9.074h3.472Z" transform="translate(-674.586 -384.839)" fill="#ffb7b7"/>
    <path id="Path_31806" data-name="Path 31806" d="M944.522,711.036h-7.586v-.1a2.953,2.953,0,0,1,2.952-2.953h4.633Z" transform="translate(-747.483 -589.618)" fill="#2f2e41"/>
    <path id="Path_31807" data-name="Path 31807" d="M813.086,503.977h-2.353l-1.119-9.074h3.472Z" transform="translate(-629.596 -384.839)" fill="#ffb7b7"/>
    <path id="Path_31808" data-name="Path 31808" d="M883.988,711.036H876.4v-.1a2.953,2.953,0,0,1,2.952-2.953h4.633Z" transform="translate(-700.475 -589.618)" fill="#2f2e41"/>
    <path id="Path_31809" data-name="Path 31809" d="M809.655,363.083l-2.3,5.3-1.9,30.492,4.8-.192,1.31-14.535,4.042-12.946,2.324,14.433.959,12.665,3.97.172,1.582-35.393Z" transform="translate(-626.265 -282.27)" fill="#2f2e41"/>
    <path id="Path_31810" data-name="Path 31810" d="M915.016,420.766l-6.674.167-3.918,2.012-.215,14.84-2.444,10.246s15.269,1.051,17.38-.484l-2.495-11.705L920,423.191Z" transform="translate(-720.115 -366.234)" fill="#021155"/>
    <path id="Path_31811" data-name="Path 31811" d="M897.851,430.815l-.713-.232a5.443,5.443,0,0,0-2.046,4.96s-.085,1.816,0,3.024c.093,1.386-2.686,15.159-2.686,15.159h4.03l1.727-12.473Z" transform="translate(-712.92 -373.874)" fill="#021155"/>
    <path id="Path_31812" data-name="Path 31812" d="M981.181,526.381a1.63,1.63,0,0,1,.435-2.461l-1.083-5.69,2.778,1.158.6,5.226a1.639,1.639,0,0,1-2.733,1.768Z" transform="translate(-781.405 -442.048)" fill="#ffb7b7"/>
    <path id="Path_31813" data-name="Path 31813" d="M972.939,431.68l.713-.232a5.443,5.443,0,0,1,2.046,4.96s.085,1.816,0,3.024c-.093,1.386,1.151,15.159,1.151,15.159h-4.03L971.1,442.119Z" transform="translate(-774.062 -374.546)" fill="#021155"/>
    <path id="Path_31814" data-name="Path 31814" d="M936.419,376.484a4.627,4.627,0,1,1-4.627-4.627h0a4.615,4.615,0,0,1,4.626,4.6C936.419,376.468,936.419,376.476,936.419,376.484Z" transform="translate(-739.88 -328.225)" fill="#ffb7b7"/>
    <path id="Path_31815" data-name="Path 31815" d="M926.539,360.3c.542-1.165,1.591-.935,2.508-.54,1.162-.258,2.266-1.029,3.518-.573,1.233,1.793,5.372,1.266,4.491,4.185,0,.7,1.316.292,1.086,1.438.7,2.2-2.519,6.38-4.366,5.5.457-.837,1.5-2.738-.082-2.927-3.4,3.167-.351-6.031-4.628-3.356C927.651,365.328,925.712,361.6,926.539,360.3Z" transform="translate(-739.238 -318.264)" fill="#2f2e41"/>
  </g>
</svg>
