<svg xmlns="http://www.w3.org/2000/svg" width="24" height="24" viewBox="0 0 24 24">
  <g id="Funds_Cashflow" data-name="Funds Cashflow" transform="translate(2.5 -54.994)">
    <path id="Path" d="M0,0H24V24H0Z" transform="translate(-2.5 54.994)" fill="none" fill-rule="evenodd"/>
    <g id="Group_7546" data-name="Group 7546" transform="translate(0.241 1.417)">
      <path id="Path_30643" data-name="Path 30643" d="M9.138,57.892a7.589,7.589,0,0,0-3.728-.9,7.589,7.589,0,0,0-3.728.9A2.9,2.9,0,0,0,0,60.275H0V70.57c0,1.836,2.377,3.275,5.41,3.275s5.41-1.438,5.41-3.275V60.288h0A2.89,2.89,0,0,0,9.138,57.892Zm.741,6.529c0,1.269-2.047,2.342-4.469,2.342S.941,65.69.941,64.421v-.173A6.851,6.851,0,0,0,5.41,65.657,6.852,6.852,0,0,0,9.88,64.248Zm0,2.047c0,1.269-2.047,2.342-4.469,2.342S.941,67.737.941,66.468v-.173A6.852,6.852,0,0,0,5.41,67.7,6.852,6.852,0,0,0,9.88,66.294ZM.941,68.341A6.851,6.851,0,0,0,5.41,69.751a6.852,6.852,0,0,0,4.469-1.41v.173c0,1.269-2.047,2.342-4.469,2.342S.941,69.784.941,68.515v-.173ZM9.88,62.374c0,1.269-2.047,2.342-4.469,2.342S.941,63.643.941,62.374v-.213a6.884,6.884,0,0,0,4.469,1.4,6.884,6.884,0,0,0,4.469-1.4ZM2.152,58.708a6.641,6.641,0,0,1,3.258-.773,6.641,6.641,0,0,1,3.258.773A2.035,2.035,0,0,1,9.88,60.3c0,1.257-2.047,2.319-4.469,2.319S.941,61.557.941,60.3A2.035,2.035,0,0,1,2.152,58.708ZM5.41,72.9C2.988,72.9.941,71.835.941,70.57v-.182A6.852,6.852,0,0,0,5.41,71.8,6.852,6.852,0,0,0,9.88,70.388v.182C9.88,71.835,7.833,72.9,5.41,72.9Z" fill="#fff" stroke="#fff" stroke-width="0.5"/>
      <path id="Path-2" data-name="Path" d="M9,11.222l2.574-1.991,2,.824,2.852-3.409V4.68L13.294,8.2l-1.97-.824L9,9.231Z" transform="translate(2.585 59.977)" fill="#fff"/>
      <path id="Path-3" data-name="Path" d="M9,11.222l2.574-1.991,2,.824,2.852-3.409V4.68L13.294,8.2l-1.97-.824L9,9.231Z" transform="translate(2.585 54.977)" fill="#fff"/>
    </g>
  </g>
</svg>
