<svg xmlns="http://www.w3.org/2000/svg" width="24" height="24" viewBox="0 0 24 24">
  <g id="Group_9026" data-name="Group 9026" transform="translate(-268 -518)">
    <path id="Icon_awesome-money-bill" data-name="Icon awesome-money-bill" d="M19,4.5H1a1,1,0,0,0-1,1v10a1,1,0,0,0,1,1H19a1,1,0,0,0,1-1V5.5A1,1,0,0,0,19,4.5ZM1.5,15V13a2,2,0,0,1,2,2Zm0-7V6h2A2,2,0,0,1,1.5,8ZM10,13.5a2.784,2.784,0,0,1-2.5-3,2.784,2.784,0,0,1,2.5-3,2.784,2.784,0,0,1,2.5,3A2.785,2.785,0,0,1,10,13.5ZM18.5,15h-2a2,2,0,0,1,2-2Zm0-7a2,2,0,0,1-2-2h2Z" transform="translate(270 519.5)" fill="#fff"/>
    <rect id="Rectangle_3550" data-name="Rectangle 3550" width="24" height="24" transform="translate(268 518)" fill="none"/>
  </g>
</svg>
