<svg xmlns="http://www.w3.org/2000/svg" width="20" height="16" viewBox="0 0 20 16">
  <g id="Group_9288" data-name="Group 9288" transform="translate(-1172 -85)">
    <g id="Group_9287" data-name="Group 9287">
      <g id="Align_Justify" data-name="Align Justify" transform="translate(920 -305)">
        <g id="Group_2457" data-name="Group 2457" transform="translate(252 390)">
          <g id="Group_2450" data-name="Group 2450">
            <rect id="Rectangle_1294" data-name="Rectangle 1294" width="10" height="16" fill="none"/>
          </g>
        </g>
        <g id="Group_2458" data-name="Group 2458" transform="translate(252.833 392.25)">
          <rect id="Rectangle_1315" data-name="Rectangle 1315" width="8.333" height="1.5" rx="0.75" fill="#fff"/>
          <rect id="Rectangle_1316" data-name="Rectangle 1316" width="8.333" height="1.5" rx="0.75" transform="translate(0 2.5)" fill="#fff"/>
          <rect id="Rectangle_1319" data-name="Rectangle 1319" width="8.333" height="1.5" rx="0.75" transform="translate(0 7.5)" fill="#fff"/>
          <rect id="Rectangle_1317" data-name="Rectangle 1317" width="8.333" height="1.5" rx="0.75" transform="translate(0 5)" fill="#fff"/>
          <rect id="Rectangle_1318" data-name="Rectangle 1318" width="8.333" height="1.5" rx="0.75" transform="translate(0 10)" fill="#fff"/>
        </g>
      </g>
      <g id="Align_Justify-2" data-name="Align Justify" transform="translate(930 -305)">
        <g id="Group_2457-2" data-name="Group 2457" transform="translate(252 390)">
          <g id="Group_2450-2" data-name="Group 2450">
            <rect id="Rectangle_1294-2" data-name="Rectangle 1294" width="10" height="16" fill="none"/>
          </g>
        </g>
        <g id="Group_2458-2" data-name="Group 2458" transform="translate(252.833 392.25)">
          <rect id="Rectangle_1315-2" data-name="Rectangle 1315" width="8.333" height="1.5" rx="0.75" fill="#fff"/>
          <rect id="Rectangle_1316-2" data-name="Rectangle 1316" width="8.333" height="1.5" rx="0.75" transform="translate(0 2.5)" fill="#fff"/>
          <rect id="Rectangle_1319-2" data-name="Rectangle 1319" width="8.333" height="1.5" rx="0.75" transform="translate(0 7.5)" fill="#fff"/>
          <rect id="Rectangle_1317-2" data-name="Rectangle 1317" width="8.333" height="1.5" rx="0.75" transform="translate(0 5)" fill="#fff"/>
          <rect id="Rectangle_1318-2" data-name="Rectangle 1318" width="8.333" height="1.5" rx="0.75" transform="translate(0 10)" fill="#fff"/>
        </g>
      </g>
    </g>
  </g>
</svg>
