<svg id="Group_9314" data-name="Group 9314" xmlns="http://www.w3.org/2000/svg" width="66.574" height="52.5" viewBox="0 0 66.574 52.5">
  <path id="Path_30724" data-name="Path 30724" d="M319.532,215.63a1.124,1.124,0,0,0-.955,1.434l-3.249,2.321,1.936.745,2.788-2.319a1.13,1.13,0,0,0-.521-2.182Z" transform="translate(-305.297 -207.548)" fill="#ffb8b8"/>
  <path id="Path_30725" data-name="Path 30725" d="M250.349,233.159l-4.03,4.055a3.34,3.34,0,0,1-2.058.964l-4.979.454a1.372,1.372,0,0,1-1.019-.32,1.34,1.34,0,0,1,.591-2.341l5.087-1.083,4.631-3.414a.424.424,0,0,1,.421,0l1.26,1.032a.414.414,0,0,1,.209.434A.4.4,0,0,1,250.349,233.159Z" transform="translate(-234.807 -223.099)" fill="#2f2e41"/>
  <path id="Path_30726" data-name="Path 30726" d="M487.054,157.116a1.356,1.356,0,0,0-.751-1.363L461.224,143.5a1.352,1.352,0,0,0-1.809.62h0l-9.406,19.245a1.354,1.354,0,0,0,.621,1.809l25.079,12.257a1.354,1.354,0,0,0,1.809-.621l9.406-19.245a1.342,1.342,0,0,0,.129-.446Z" transform="translate(-434.104 -143.357)" fill="#f2f2f2"/>
  <path id="Path_30727" data-name="Path 30727" d="M380.174,270.537H347.633a1.508,1.508,0,0,1-1.545-1.464V227.217a1.508,1.508,0,0,1,1.545-1.464h32.541a1.508,1.508,0,0,1,1.545,1.464v41.856A1.508,1.508,0,0,1,380.174,270.537Z" transform="translate(-336.062 -222.334)" fill="#fff"/>
  <circle id="Ellipse_343" data-name="Ellipse 343" cx="2.123" cy="2.123" r="2.123" transform="translate(17.443 13.612)" fill="#e6e6e6"/>
  <path id="Path_30728" data-name="Path 30728" d="M408.2,360.2a6.087,6.087,0,0,0,.939.432l.057.02a6.118,6.118,0,0,0,2.034.345c.139,0,.274,0,.4-.014a6.05,6.05,0,0,0,.908-.125c.164-.036.328-.079.486-.127l.113-.035a6.168,6.168,0,0,0,1.794-.929,2.763,2.763,0,0,0-.143-.24,3.064,3.064,0,0,0-2.568-1.386H411.1a3.074,3.074,0,0,0-2.8,1.8A2.769,2.769,0,0,0,408.2,360.2Z" transform="translate(-391.765 -340)" fill="#e6e6e6"/>
  <path id="Path_30729" data-name="Path 30729" d="M442.026,381.563a.4.4,0,0,0-.2.07,5.928,5.928,0,0,0,.891-.124Z" transform="translate(-422.143 -361.133)" fill="#2f2e41"/>
  <path id="Path_30730" data-name="Path 30730" d="M388.956,273.082a6.209,6.209,0,0,0-3.1,11.59,6.108,6.108,0,0,0,.987.459l.058.02a6.176,6.176,0,0,0,2.053.349c.135,0,.27,0,.4-.014a6.094,6.094,0,0,0,.915-.126c.169-.037.334-.08.49-.128l.113-.035a6.209,6.209,0,0,0-1.922-12.114Zm3.6,10.86a5.885,5.885,0,0,1-1.782.94l-.106.034c-.149.046-.305.086-.466.121a5.718,5.718,0,0,1-.866.121c-.126.009-.255.013-.382.013a5.871,5.871,0,0,1-1.943-.33l-.055-.019a5.729,5.729,0,0,1-.979-.46,5.875,5.875,0,1,1,6.579-.419Z" transform="translate(-368.805 -262.728)" fill="#ccc"/>
  <path id="Path_30731" data-name="Path 30731" d="M364.676,494.922" transform="translate(-349.856 -464.827)" fill="#f2f2f2"/>
  <path id="Path_30732" data-name="Path 30732" d="M380.174,270.537H347.633a1.508,1.508,0,0,1-1.545-1.464V227.217a1.508,1.508,0,0,1,1.545-1.464h32.541a1.508,1.508,0,0,1,1.545,1.464v41.856A1.508,1.508,0,0,1,380.174,270.537Zm-32.541-44.612a1.33,1.33,0,0,0-1.363,1.292v41.856a1.33,1.33,0,0,0,1.363,1.292h32.541a1.331,1.331,0,0,0,1.363-1.292V227.217a1.331,1.331,0,0,0-1.363-1.292Z" transform="translate(-336.062 -222.334)" fill="#ccc"/>
  <path id="Path_30733" data-name="Path 30733" d="M515.775,316.851h-9.208a.728.728,0,1,1,0-1.457h9.208a.728.728,0,1,1,0,1.457Z" transform="translate(-481.689 -300.765)" fill="#e6e6e6"/>
  <path id="Path_30734" data-name="Path 30734" d="M518.78,338.854H506.567a.728.728,0,1,1,0-1.457H518.78a.728.728,0,0,1,0,1.457Z" transform="translate(-482.049 -320.897)" fill="#e6e6e6"/>
  <path id="Path_30735" data-name="Path 30735" d="M406.545,423.243H383.612a.729.729,0,0,1,0-1.457h22.933a.729.729,0,1,1,0,1.457Z" transform="translate(-369.934 -398.109)" fill="#e6e6e6"/>
  <path id="Path_30736" data-name="Path 30736" d="M409.55,445.246H383.612a.728.728,0,0,1,0-1.457H409.55a.728.728,0,1,1,0,1.457Z" transform="translate(-370.249 -418.241)" fill="#e6e6e6"/>
  <path id="Path_30737" data-name="Path 30737" d="M406.545,495.816H383.612a.728.728,0,0,1,0-1.457h22.933a.728.728,0,1,1,0,1.457Z" transform="translate(-369.934 -464.511)" fill="#e6e6e6"/>
  <path id="Path_30738" data-name="Path 30738" d="M409.55,517.819H383.612a.728.728,0,1,1,0-1.457H409.55a.728.728,0,1,1,0,1.457Z" transform="translate(-370.249 -484.643)" fill="#e6e6e6"/>
  <path id="Path_30739" data-name="Path 30739" d="M406.545,568.389H383.612a.728.728,0,1,1,0-1.457h22.933a.728.728,0,1,1,0,1.457Z" transform="translate(-369.934 -530.913)" fill="#e6e6e6"/>
  <path id="Path_30740" data-name="Path 30740" d="M409.55,590.392H383.612a.728.728,0,0,1,0-1.457H409.55a.728.728,0,1,1,0,1.457Z" transform="translate(-370.249 -551.044)" fill="#e6e6e6"/>
  <path id="Path_30741" data-name="Path 30741" d="M477.054,270.116a1.356,1.356,0,0,0-.751-1.363L451.224,256.5a1.352,1.352,0,0,0-1.809.62h0l-9.406,19.245a1.354,1.354,0,0,0,.621,1.809l25.079,12.257a1.354,1.354,0,0,0,1.809-.621l9.406-19.245A1.339,1.339,0,0,0,477.054,270.116Z" transform="translate(-424.765 -248.714)" fill="#fff"/>
  <path id="Path_30742" data-name="Path 30742" d="M477.054,270.116a1.356,1.356,0,0,0-.751-1.363L451.224,256.5a1.352,1.352,0,0,0-1.809.62h0l-9.406,19.245a1.354,1.354,0,0,0,.621,1.809l25.079,12.257a1.354,1.354,0,0,0,1.809-.621l9.406-19.245A1.339,1.339,0,0,0,477.054,270.116Zm-9.679,19.621a1.2,1.2,0,0,1-1.6.548L440.7,278.028a1.2,1.2,0,0,1-.548-1.6l9.406-19.245a1.2,1.2,0,0,1,1.6-.548L476.233,268.9a1.2,1.2,0,0,1,.548,1.6Z" transform="translate(-424.765 -248.714)" fill="#3f3d56"/>
  <path id="Path_30743" data-name="Path 30743" d="M508.906,294.376l-6.568,13.438a.377.377,0,0,1-.5.173h0l-22.812-11.15a.318.318,0,0,1-.047-.027.376.376,0,0,1-.126-.476l6.568-13.438a.376.376,0,0,1,.5-.173h0l22.812,11.15a.376.376,0,0,1,.173.5h0Z" transform="translate(-459.612 -272.894)" fill="#e6e6e6"/>
  <circle id="Ellipse_344" data-name="Ellipse 344" cx="3.304" cy="3.304" r="3.304" transform="translate(27.389 14.801)" fill="#6c63ff"/>
  <path id="Path_30744" data-name="Path 30744" d="M496.033,348.579l-14.561-7.117a.325.325,0,0,1-.052-.031l12.717-8.563a.537.537,0,0,1,.839.41l.709,10.264.034.491Z" transform="translate(-459.712 -318.043)" fill="#3f3d56"/>
  <path id="Path_30745" data-name="Path 30745" d="M361.529,290.825l-4.971-2.43,4.173-2.352.3-.169.15-.085.034.491Z" transform="translate(-326.601 -261.916)" opacity="0.2" style="isolation: isolate"/>
  <path id="Path_30746" data-name="Path 30746" d="M584.643,415.74l-12.594-6.155,4.173-2.352.3-.169L581.96,404a.716.716,0,0,1,.983.41.6.6,0,0,1,.018.079Z" transform="translate(-542.753 -383.036)" fill="#3f3d56"/>
  <path id="Path_30747" data-name="Path 30747" d="M125.841,334.815h1.37l.652-5.284h-2.022Z" transform="translate(-113.745 -302.041)" fill="#ffb8b8"/>
  <path id="Path_30748" data-name="Path 30748" d="M333.868,516.174h2.7a1.719,1.719,0,0,1,1.719,1.719v.056h-4.417Z" transform="translate(-323.534 -484.518)" fill="#2f2e41"/>
  <path id="Path_30749" data-name="Path 30749" d="M30.551,325.5l1.419.278,1.746-5.342-2.095-.41Z" transform="translate(-27.137 -293.392)" fill="#ffb8b8"/>
  <path id="Path_30750" data-name="Path 30750" d="M236.414,507.59l2.795.547h0a1.815,1.815,0,0,1,1.433,2.13l-.011.058-4.576-.9Z" transform="translate(-233.272 -476.806)" fill="#2f2e41"/>
  <path id="Path_30751" data-name="Path 30751" d="M316.444,329.4a1.124,1.124,0,0,0-1.58-.688l-2.855-2.791-.394,2.037,2.772,2.338a1.13,1.13,0,0,0,2.057-.9Z" transform="translate(-300.935 -310.66)" fill="#ffb8b8"/>
  <circle id="Ellipse_345" data-name="Ellipse 345" cx="2.744" cy="2.744" r="2.744" transform="translate(2.716 4.023)" fill="#ffb8b8"/>
  <path id="Path_30752" data-name="Path 30752" d="M235.232,180.284c.146.064.444-1.1.311-1.33-.2-.346-.187-.343-.319-.572a.663.663,0,0,1,.009-.743.391.391,0,0,1,.645.078c-.05-.479.424-.864.893-.973s.965-.041,1.437-.137c.548-.112,1.118-.571.9-1.173a.848.848,0,0,0-.165-.272,2.094,2.094,0,0,0-.951-.522,6.3,6.3,0,0,0-2.215-.464,3.218,3.218,0,0,0-2.843,2.079,2.921,2.921,0,0,0-.121.45,3.016,3.016,0,0,0,1.872,3.313Z" transform="translate(-230.347 -170.73)" fill="#2f2e41"/>
  <path id="Path_30753" data-name="Path 30753" d="M226.8,246.648a.419.419,0,0,1-.2-.415l-1.238-6.135L224.1,235.39h0a2.355,2.355,0,0,1,1.179-2.692l.83-.785,1.81.78.86.875a4.919,4.919,0,0,1,2.569,3.046l1.38,4.722,3.186,4.741a.421.421,0,0,1-.041.523C235.434,247.076,226.8,246.648,226.8,246.648Z" transform="translate(-222.585 -223.802)" fill="#2f2e41"/>
  <path id="Path_30754" data-name="Path 30754" d="M264.881,267.127l-4.7-3.256a3.341,3.341,0,0,1-1.31-1.857l-1.321-4.823a1.372,1.372,0,0,1,.136-1.059,1.34,1.34,0,0,1,2.408.172l1.959,4.818,4.173,3.961a.424.424,0,0,1,.071.415l-.795,1.421a.414.414,0,0,1-.391.282A.4.4,0,0,1,264.881,267.127Z" transform="translate(-252.322 -246.468)" fill="#2f2e41"/>
  <path id="Path_30755" data-name="Path 30755" d="M235.59,373.634a.418.418,0,0,1-.05-.383l2.174-7.9.161-7.743,7.317-.5.036,0,2.2,3.994a10.278,10.278,0,0,1,1.24,4.049l.726,7.959a.415.415,0,0,1-.363.454l-2.206.21a.411.411,0,0,1-.456-.348l-.9-8.088-3.224-5.447-1.082,5.734-2.242,7.919a.415.415,0,0,1-.386.271h-2.615A.407.407,0,0,1,235.59,373.634Z" transform="translate(-232.792 -340.606)" fill="#2f2e41"/>
  <path id="Path_30756" data-name="Path 30756" d="M267.032,438.3H214.654a3.6,3.6,0,0,1-3.5-3.687V404.33a3.6,3.6,0,0,1,3.5-3.687h6.422a3.4,3.4,0,0,1,2.356.959l6.964,5.235a2.393,2.393,0,0,0,1.662.678h35.3a3.417,3.417,0,0,1,2.495,1.1,3.792,3.792,0,0,1,1.008,2.642l-.325,23.409A3.61,3.61,0,0,1,267.032,438.3Z" transform="translate(-211.152 -387.922)" fill="#fff"/>
  <path id="Path_30757" data-name="Path 30757" d="M286.652,448.706H232.911a1.771,1.771,0,0,1-1.76-1.779V416.151a1.771,1.771,0,0,1,1.76-1.779,1.567,1.567,0,0,1,1.556,1.573V444.8a1.66,1.66,0,0,0,1.649,1.667h50.354a1.121,1.121,0,0,1,1.1.848,1.091,1.091,0,0,1-.476,1.25.833.833,0,0,1-.438.137Z" transform="translate(-228.917 -400.117)" fill="#f2f2f2"/>
  <path id="Path_30758" data-name="Path 30758" d="M493.054,576.087l-.143-.143a.153.153,0,0,1-.007-.216l.007-.007,1.255-1.256a.153.153,0,0,1,.216-.007l.007.007,1.255,1.255a.155.155,0,0,1,0,.22l0,0-.143.143a.155.155,0,0,1-.22,0l0,0-.742-.782v1.856a.154.154,0,0,1-.153.156h-.208a.155.155,0,0,1-.155-.156h0v-1.854l-.742.782a.155.155,0,0,1-.22,0Z" transform="translate(-468.994 -538.013)" fill="#6c63ff"/>
  <path id="Path_30759" data-name="Path 30759" d="M482.6,561.975a2.547,2.547,0,1,1-2.547,2.547h0a2.549,2.549,0,0,1,2.547-2.547m0-.335a2.882,2.882,0,1,0,2.882,2.882h0A2.882,2.882,0,0,0,482.6,561.64Z" transform="translate(-457.224 -526.837)" fill="#3f3d56"/>
  <path id="Path_30760" data-name="Path 30760" d="M267.032,438.3H214.654a3.6,3.6,0,0,1-3.5-3.687V404.33a3.6,3.6,0,0,1,3.5-3.687h6.422a3.4,3.4,0,0,1,2.356.959l6.964,5.235a2.393,2.393,0,0,0,1.662.678h35.3a3.417,3.417,0,0,1,2.495,1.1,3.792,3.792,0,0,1,1.008,2.642l-.325,23.409A3.61,3.61,0,0,1,267.032,438.3Zm-52.378-37.433a3.384,3.384,0,0,0-3.29,3.464v30.281a3.384,3.384,0,0,0,3.29,3.464h52.378a3.392,3.392,0,0,0,3.29-3.413l.325-23.409a3.563,3.563,0,0,0-.946-2.482,3.211,3.211,0,0,0-2.344-1.032h-35.3a2.6,2.6,0,0,1-1.8-.732l-6.964-5.235a3.194,3.194,0,0,0-2.218-.9Z" transform="translate(-211.152 -387.922)" fill="#3f3d56"/>
  <path id="Path_30761" data-name="Path 30761" d="M553.991,557.557h-1.37l-.428-5.284h1.8Z" transform="translate(-505.228 -506.59)" fill="#ffb8b8"/>
  <path id="Path_30762" data-name="Path 30762" d="M747.449,740.69h-4.417v-.056a1.719,1.719,0,0,1,1.719-1.719h2.7Z" transform="translate(-698.245 -688.396)" fill="#2f2e41"/>
  <path id="Path_30763" data-name="Path 30763" d="M689.214,557.557h-1.37l-.652-5.284h2.022Z" transform="translate(-630.731 -506.59)" fill="#ffb8b8"/>
  <path id="Path_30764" data-name="Path 30764" d="M884.449,740.69h-4.417v-.056a1.719,1.719,0,0,1,1.719-1.719h2.7Z" transform="translate(-825.617 -688.396)" fill="#2f2e41"/>
  <path id="Path_30765" data-name="Path 30765" d="M863.035,552.778a1.262,1.262,0,0,0,.033-1.6,1.051,1.051,0,0,0-.12-.122l1.032-3.809-1.72.571-.716,3.53a1.271,1.271,0,0,0,.114,1.391.883.883,0,0,0,1.377.038Z" transform="translate(-808.51 -513.657)" fill="#ffb8b8"/>
  <path id="Path_30766" data-name="Path 30766" d="M864.517,472.7a.44.44,0,0,1-.065,0l-.9-.135a.485.485,0,0,1-.337-.233.626.626,0,0,1-.079-.433l1.118-6.244-.758-4.012a1.62,1.62,0,0,1,.877-1.814,1.2,1.2,0,0,1,1.173.15,1.6,1.6,0,0,1,.628,1.141l.537,5.115-.006.022-1.727,6.062A.5.5,0,0,1,864.517,472.7Z" transform="translate(-810.508 -434.582)" fill="#6c63ff"/>
  <circle id="Ellipse_346" data-name="Ellipse 346" cx="2.744" cy="2.744" r="2.744" transform="translate(50.904 20.688)" fill="#ffb8b8"/>
  <path id="Path_30767" data-name="Path 30767" d="M821.669,455.545a.556.556,0,0,1-.2-.037l-4.338-1.669a.557.557,0,0,1-.353-.6l.174-1.306a2.961,2.961,0,0,1,.7-2.636l.106-.116,1.284-2.34a1.37,1.37,0,0,1,1.869-.537l2.266,1.266a1.367,1.367,0,0,1,.631.763,4.18,4.18,0,0,1-.064,2.815l-1.552,4.034A.563.563,0,0,1,821.669,455.545Z" transform="translate(-767.626 -421.475)" fill="#6c63ff"/>
  <path id="Path_30768" data-name="Path 30768" d="M755.2,531.35H755.2a.559.559,0,0,1-.438-.677l3.324-14.53a39.191,39.191,0,0,1,2.246-6.721l1.414-3.224,5.277,2.409.753,1.378a13.487,13.487,0,0,1,.891,4.807l5.362,15.714a.559.559,0,0,1-.437.732l-2.935-.033a.44.44,0,0,1-.084.007.555.555,0,0,1-.516-.35l-6.129-15.888a.113.113,0,0,0-.107-.069.108.108,0,0,0-.1.074L757.9,530.943a.556.556,0,0,1-.624.359Z" transform="translate(-714.328 -481.681)" fill="#2f2e41"/>
  <path id="Path_30769" data-name="Path 30769" d="M782.719,532.428a1.123,1.123,0,0,0,.6-1.615l2.628-3.006-2.056-.28-2.181,2.9a1.13,1.13,0,0,0,1.009,2Z" transform="translate(-733.265 -495.425)" fill="#ffb8b8"/>
  <path id="Path_30770" data-name="Path 30770" d="M794.064,455.946a.562.562,0,0,1-.262-.065l-.925-.493a.559.559,0,0,1-.209-.792l3.416-5.383.593-4.062a1.568,1.568,0,1,1,3.075.6l-1.223,5.007-4.03,4.984A.557.557,0,0,1,794.064,455.946Z" transform="translate(-744.184 -419.778)" fill="#6c63ff"/>
  <path id="Path_30771" data-name="Path 30771" d="M841.1,386.111c.317-1.041,2.151-1.505,3.676-1.074a4.006,4.006,0,0,1,2.875,2.672c.565,2.452-2.38,4.442-1.847,6.894.353,1.622,2.4,3.156,4.7,3.527a12.368,12.368,0,0,1-7.979-1.2c-1.463-.788-2.69-1.977-2.672-3.177a2.9,2.9,0,0,1,1.038-1.924c.565-.555,1.242-1.048,1.76-1.627a2.352,2.352,0,0,0,.727-2.008,2.48,2.48,0,0,0-1.955-1.716Z" transform="translate(-789.927 -365.745)" fill="#2f2e41"/>
  <path id="Path_30772" data-name="Path 30772" d="M648.533,754.866H605.96a.112.112,0,0,1,0-.224h42.573a.112.112,0,0,1,0,.224Z" transform="translate(-582.07 -702.366)" fill="#ccc"/>
</svg>
