<svg xmlns="http://www.w3.org/2000/svg" xmlns:xlink="http://www.w3.org/1999/xlink" width="1280" height="800" viewBox="0 0 1280 800"><defs><style>.a{fill:url(#a);}.b{clip-path:url(#b);}.c,.e{mix-blend-mode:screen;}.az,.bz,.c,.ca,.cb,.cc,.d,.e,.f,.g{isolation:isolate;}.c{fill:url(#c);}.az,.bz,.ca,.cb,.cc,.d,.f,.g{mix-blend-mode:color-dodge;}.d{fill:url(#d);}.e{fill:url(#e);}.f{fill:url(#f);}.h{fill:#c7c7c7;}.i{fill:#8a8a8a;}.j{opacity:0.15;}.k{fill:#c9c9c9;}.l{opacity:0.36;}.m{opacity:0.76;}.n{opacity:0.54;}.o{opacity:0.05;}.p{opacity:0.92;}.q{opacity:0.87;}.r{opacity:0.03;}.s{opacity:0.17;}.t{opacity:0.64;}.u{opacity:0.19;}.v{opacity:0.43;}.w{opacity:0.59;}.x{opacity:0.42;}.y{opacity:0.53;}.z{opacity:0.63;}.aa{opacity:0.04;}.ab{opacity:0.18;}.ac{opacity:0.32;}.ad{opacity:0.52;}.ae{opacity:0.81;}.af{opacity:0.84;}.ag{opacity:0.95;}.ah{opacity:0.13;}.ai{opacity:0.44;}.aj{opacity:0.66;}.ak{opacity:0.55;}.al{opacity:0.56;}.am{opacity:0.31;}.an,.az{opacity:0.88;}.ao{opacity:0.11;}.ap{opacity:0.86;}.aq{opacity:0.58;}.ar{opacity:0.37;}.as{opacity:0.85;}.at{opacity:0.79;}.au{opacity:0.02;}.av{opacity:0.35;}.aw{opacity:0.97;}.ax{opacity:0.1;}.ay{opacity:0.28;}.ba{opacity:0.65;}.bb{opacity:0.41;}.bc{opacity:0.94;}.bd{opacity:0.99;}.be{opacity:0.39;}.bf{opacity:0.08;}.bg{opacity:0.09;}.bh{opacity:0.21;}.bi{opacity:0.51;}.bj{opacity:0.01;}.bk{opacity:0.74;}.bl{opacity:0.69;}.bm{opacity:0.12;}.bn{opacity:0.07;}.bo{opacity:0.46;}.bp{opacity:0.22;}.bq{opacity:0.49;}.br{opacity:0.91;}.bs{opacity:0.16;}.bt{opacity:0.82;}.bu{opacity:0;}.bv{opacity:0.2;}.bw{opacity:0.5;}.bx{opacity:0.77;}.by{opacity:0.27;}.bz{fill:url(#g);}.ca{fill:url(#h);}.cb{fill:url(#i);}.cc{fill:url(#j);}</style><radialGradient id="a" cx="0.51" cy="0.604" r="0.886" gradientTransform="translate(0.214) scale(0.571 1)" gradientUnits="objectBoundingBox"><stop offset="0.22" stop-color="#03225a"/><stop offset="0.3" stop-color="#021b51"/><stop offset="0.53" stop-color="#010c3e"/><stop offset="0.76" stop-color="#000332"/><stop offset="1" stop-color="#00002e"/></radialGradient><clipPath id="b"><rect class="a" width="1280" height="800" transform="translate(0)"/></clipPath><radialGradient id="c" cx="-0.038" cy="0.489" r="1.152" gradientTransform="matrix(0.888, -0.008, 0.003, 0.434, -0.465, 1.982)" gradientUnits="objectBoundingBox"><stop offset="0" stop-color="#00824b"/><stop offset="0.06" stop-color="#006b3e"/><stop offset="0.17" stop-color="#004a2b"/><stop offset="0.29" stop-color="#002f1b"/><stop offset="0.42" stop-color="#001a0f"/><stop offset="0.57" stop-color="#000b07"/><stop offset="0.74" stop-color="#000302"/><stop offset="1"/></radialGradient><radialGradient id="d" cx="-8.151" cy="6.492" r="0.201" gradientTransform="translate(0.046) scale(0.908 1)" xlink:href="#c"/><radialGradient id="e" cx="1.028" cy="0.489" r="1.153" gradientTransform="matrix(0.904, -0.008, 0.003, 0.434, -0.458, 1.96)" gradientUnits="objectBoundingBox"><stop offset="0" stop-color="#ab3200"/><stop offset="0.05" stop-color="#922b00"/><stop offset="0.15" stop-color="#6c1f00"/><stop offset="0.25" stop-color="#4a1600"/><stop offset="0.36" stop-color="#2f0e00"/><stop offset="0.47" stop-color="#1a0800"/><stop offset="0.6" stop-color="#0b0300"/><stop offset="0.76" stop-color="#030100"/><stop offset="1"/></radialGradient><radialGradient id="f" cx="-10.499" cy="6.441" r="0.201" gradientTransform="translate(0.03) scale(0.94 1)" xlink:href="#e"/><radialGradient id="g" cx="0.5" cy="0.888" r="5.071" gradientTransform="translate(-2.672 68.174) scale(0.099 0.1)" gradientUnits="objectBoundingBox"><stop offset="0" stop-color="#e17600"/><stop offset="0.33" stop-color="#944d00"/><stop offset="0.79" stop-color="#2a1600"/><stop offset="1"/></radialGradient><radialGradient id="h" cx="-2.111" cy="74.888" r="1.234" gradientTransform="translate(0.451) scale(0.099 1)" xlink:href="#g"/><radialGradient id="i" cx="0.5" cy="0.871" r="5.071" gradientTransform="translate(-2.412 66.339) scale(0.099 0.1)" gradientUnits="objectBoundingBox"><stop offset="0" stop-color="#baa48b"/><stop offset="0.19" stop-color="#94826e"/><stop offset="0.75" stop-color="#2a251f"/><stop offset="1"/></radialGradient><radialGradient id="j" cx="-2.37" cy="75.723" r="1.234" gradientTransform="translate(0.451) scale(0.099 1)" xlink:href="#i"/></defs><g class="b" transform="translate(0)"><g transform="translate(-55.441 103.7)"><path class="c" d="M-21.83,37.31V794.17C411.211,786,758.386,614.593,756.659,407.833,754.881,202.323,408.367,38.422-21.83,37.31Z" transform="translate(21.83 -37.31)"/><path class="d" d="M-21.83,104V490.338c216.991-6.309,389.537-92.916,388.571-197C365.98,189.578,193.738,106.779-21.83,104Z" transform="translate(21.83 81.359)"/></g><g transform="translate(576.375 153.951)"><path class="e" d="M991.754,55.39c-426.667,11.479-766.5,181.44-764.8,385.893,1.7,203.453,340.978,366.02,764.8,370.551Z" transform="translate(-226.947 -55.39)"/><path class="f" d="M755.411,122.12c-210.489,9.506-375.873,94.5-374.959,196.56.838,101.365,165.841,182.913,374.959,189Z" transform="translate(9.395 63.35)"/></g><g transform="translate(-130.286 280.942)"><g transform="translate(0 50.307)"><g class="g" transform="translate(304.889 191.39)"><path class="h" d="M1418.709,223.741h-39.975l-73.321,80.269H976.7l-55.238-60.452H597.681l-49.524-54.2H189.96v2.085H547.37l49.524,54.2H920.677L975.916,306.1H1306.2l73.346-80.269h39.162Z" transform="translate(-185.871 -185.691)"/><ellipse class="h" cx="4.292" cy="4.697" rx="4.292" ry="4.697"/></g><g class="g" transform="translate(749.6 244.407)"><path class="h" d="M1149.48,297.646H1022.826l-23.67-25.932H781.226l-20.292-22.235H403.6L366.166,208.51l-1.346,1.473,37.994,41.58H760.147L780.439,273.8h217.93l23.67,25.932H1149.48Z" transform="translate(-361.353 -204.633)"/><path class="h" d="M245.112,215.134a5.016,5.016,0,0,1,0-6.643,4.035,4.035,0,0,1,6.07,0,5.016,5.016,0,0,1,0,6.643,3.991,3.991,0,0,1-6.07,0Z" transform="translate(-243.855 -207.115)"/></g><g class="g"><path class="h" d="M1377.684,365.991l-67.606,73.988H1045.925L943.6,328H816.567l-72.076-78.852h-174.7l-67.327-73.71H348.249L296.821,119.18H68.3v2.085H296.033l51.4,56.255H501.672L569,251.23H743.7l72.076,78.852H942.814l102.324,111.982h265.752l67.581-73.988h139.886v-2.085Z" transform="translate(-68.3 -119.18)"/><path class="h" d="M522.172,216.1a4.328,4.328,0,0,0,4.009-2.9,5.056,5.056,0,0,0-.931-5.162,4.049,4.049,0,0,0-4.717-1.019,4.753,4.753,0,0,0-2.653,4.388,4.535,4.535,0,0,0,4.292,4.7Z" transform="translate(927.657 36.465)"/></g><g class="g" transform="translate(0 57.172)"><path class="h" d="M1273.049,365.466l-40.838-44.693H1082.878l-77.841-85.161H752.618l-60.8,66.539H575.449l-70.3-76.934H295.373l-78.1-85.467H68.3v2.085H216.491l78.1,85.467H504.364l70.3,76.934H692.6L753.4,237.7h250.844l77.841,85.161H1231.4l40.863,44.693h205.41v-2.085Z" transform="translate(-68.3 -139.75)"/><path class="h" d="M506.152,229.05a4.328,4.328,0,0,0,4.009-2.9,5.056,5.056,0,0,0-.931-5.162,4.05,4.05,0,0,0-4.717-1.019,4.754,4.754,0,0,0-2.654,4.388,4.508,4.508,0,0,0,4.292,4.7Z" transform="translate(902.991 2.336)"/></g><g class="g" transform="translate(810.489 13.397)"><path class="h" d="M816.682,227.745H693.99l-46.959-51.391H389.33V174.27H647.819l46.959,51.391H815.9L907.324,125.63h150.552v2.085H908.111Z" transform="translate(-384.505 -121.1)"/><path class="h" d="M535.939,124a5.581,5.581,0,1,1-5.079,5.559A5.335,5.335,0,0,1,535.939,124Z" transform="translate(137.153 -124)"/><path class="h" d="M272.909,141.53a5.581,5.581,0,1,0,5.079,5.559A5.335,5.335,0,0,0,272.909,141.53Z" transform="translate(-267.83 -92.807)"/></g><g class="g" transform="translate(0 105.173)"><path class="h" d="M1466.37,196.627l-48.254,52.809H1268.275l-54.6,59.729H1167.5L1028.452,157.02H590.23L488.313,268.53h-75.86l-62.375,68.262H68.3v2.085H350.865l62.375-68.262H489.1L591.018,159.1h436.648l139.048,152.145h47.746l54.6-59.729H1418.9l48.254-52.809h138.87v-2.085Z" transform="translate(-68.3 -157.02)"/></g></g><g class="g" transform="translate(0 18.372)"><path class="i" d="M1189.519,297.162l-81.854-89.58H572.5L481.2,107.69H68.3v1.39H480.668l91.3,99.892h535.187l81.829,89.58h417.041v-1.39Z" transform="translate(-68.3 -107.69)"/></g><g class="g" transform="translate(0 15.398)"><path class="i" d="M983.449,143.336h-590.6L359.271,106.62H68.3v1.39H358.738l33.575,36.716h590.6l64.99,71.153.914-.973Z" transform="translate(-68.3 -106.62)"/><path class="i" d="M338.333,145.511a3.324,3.324,0,0,1,0,4.419,2.7,2.7,0,0,1-4.063,0,3.324,3.324,0,0,1,0-4.419,2.7,2.7,0,0,1,4.064,0Z" transform="translate(643.66 -39.059)"/></g><g class="g"><path class="i" d="M1574.688,538.336,1463.373,416.515H1174.611L1055.5,286.161H845.519L676.376,101.08H237.951L126.2,223.374H68.3v1.39h58.413L238.459,102.47h437.41L844.986,287.55h209.981L1174.078,417.9H1462.84l111.314,121.821h31.873v-1.39Z" transform="translate(-68.3 -101.08)"/></g><g class="g" transform="translate(0 62.676)"><path class="i" d="M1570.218,355.432l-116.19-127.158H1259.843l-100.5,110.009H743.983L615.322,197.507H368.516l-67.5-73.877H68.3v1.39H300.478l67.5,73.877H614.814L743.449,339.673h416.406l100.521-110.009h193.117l116.191,127.158h36.343v-1.39Z" transform="translate(-68.3 -123.63)"/></g><g class="g" transform="translate(0 335.252)"><path class="i" d="M517.443,306.694,439.779,221.7H237.773L86.687,387.075H68.3v1.39H87.2L238.306,223.09H439.271l77.638,84.994H948.452v-1.39Z" transform="translate(-68.3 -221.7)"/><path class="i" d="M297.222,258.538a3.365,3.365,0,0,0,3.1-2.271,3.924,3.924,0,0,0-.738-4,3.143,3.143,0,0,0-3.662-.777,3.693,3.693,0,0,0-2.052,3.409,3.822,3.822,0,0,0,.984,2.584,3.185,3.185,0,0,0,2.369,1.057Z" transform="translate(582.752 -169.208)"/></g><g class="g" transform="translate(0 104.923)"><path class="i" d="M1596.2,206.008l-168.432,184.33H705.278L475.462,138.83H397.29l-90.235,98.752H68.3v1.39H307.564l90.26-98.752h77.1L704.745,391.728H1428.3L1596.732,207.4h9.3v-1.39Z" transform="translate(-68.3 -138.83)"/></g></g><g transform="translate(-49.422 412.714)"><g class="g" transform="translate(777.245 42.719)"><g class="j" transform="translate(579.632)"><path class="k" d="M537.845,164.555v24.514h-22.4V164.555h22.4m.635-.695H514.81v25.9h23.67Z" transform="translate(-514.81 -163.86)"/></g><g class="l" transform="translate(547.479)"><path class="k" d="M525.16,164.555v24.514H502.785V164.555H525.16m.635-.695H502.15v25.9h23.644Z" transform="translate(-502.15 -163.86)"/></g><g class="m" transform="translate(193.702)"><path class="k" d="M385.885,164.555v24.514h-22.4V164.555h22.4m.635-.695H362.85v25.9h23.67Z" transform="translate(-362.85 -163.86)"/></g><g class="n" transform="translate(161.549)"><path class="k" d="M373.2,164.555v24.514H350.825V164.555H373.2m.635-.695H350.19v25.9h23.644Z" transform="translate(-350.19 -163.86)"/></g><g class="o" transform="translate(129.397)"><path class="k" d="M360.54,164.555v24.514H338.165V164.555H360.54m.635-.695H337.53v25.9h23.644Z" transform="translate(-337.53 -163.86)"/></g><g class="p" transform="translate(97.219)"><path class="k" d="M347.895,164.555v24.514h-22.4V164.555h22.4m.635-.695H324.86v25.9h23.67Z" transform="translate(-324.86 -163.86)"/></g><g class="q" transform="translate(65.067)"><path class="k" d="M335.235,164.555v24.514h-22.4V164.555h22.4m.635-.695H312.2v25.9h23.67v-25.9Z" transform="translate(-312.2 -163.86)"/></g><g class="r" transform="translate(32.914)"><path class="k" d="M322.55,164.555v24.514H300.175V164.555H322.55m.635-.695H299.54v25.9h23.644Z" transform="translate(-299.54 -163.86)"/></g><g class="s"><path class="k" d="M309.615,164.555v24.514h-22.4V164.555h22.4m.635-.695H286.58v25.9h23.67Z" transform="translate(-286.58 -163.86)"/></g><g class="t" transform="translate(579.632 32.769)"><path class="k" d="M537.845,176.345v24.514h-22.4V176.345h22.4m.635-.695H514.81v25.987h23.67v-25.9Z" transform="translate(-514.81 -175.65)"/></g><g class="u" transform="translate(547.479 32.769)"><path class="k" d="M525.16,176.345v24.514H502.785V176.345H525.16m.635-.695H502.15v25.987h23.644v-25.9Z" transform="translate(-502.15 -175.65)"/></g><g class="v" transform="translate(515.302 32.769)"><path class="k" d="M512.515,176.345v24.514h-22.4V176.345h22.4m.635-.695H489.48v25.987h23.67v-25.9Z" transform="translate(-489.48 -175.65)"/></g><g class="w" transform="translate(225.879 32.769)"><path class="k" d="M398.529,176.345v24.514H376.155V176.345h22.375m.635-.695H375.52v25.987h23.644v-25.9Z" transform="translate(-375.52 -175.65)"/></g><g class="p" transform="translate(193.702 32.769)"><path class="k" d="M385.885,176.345v24.514h-22.4V176.345h22.4m.635-.695H362.85v25.987h23.67v-25.9Z" transform="translate(-362.85 -175.65)"/></g><g class="x" transform="translate(161.549 32.769)"><path class="k" d="M373.2,176.345v24.514H350.825V176.345H373.2m.635-.695H350.19v25.987h23.644v-25.9Z" transform="translate(-350.19 -175.65)"/></g><g class="y" transform="translate(129.397 32.769)"><path class="k" d="M360.54,176.345v24.514H338.165V176.345H360.54m.635-.695H337.53v25.987h23.644v-25.9Z" transform="translate(-337.53 -175.65)"/></g><g class="z" transform="translate(97.219 32.769)"><path class="k" d="M347.895,176.345v24.514h-22.4V176.345h22.4m.635-.695H324.86v25.987h23.67v-25.9Z" transform="translate(-324.86 -175.65)"/></g><g class="aa" transform="translate(65.067 32.769)"><path class="k" d="M335.235,176.345v24.514h-22.4V176.345h22.4m.635-.695H312.2v25.987h23.67v-25.9Z" transform="translate(-312.2 -175.65)"/></g><g class="ab" transform="translate(579.632 65.538)"><path class="k" d="M537.845,188.135v24.487h-22.4V188.135h22.4m.635-.695H514.81v25.876h23.67Z" transform="translate(-514.81 -187.44)"/></g><g class="ac" transform="translate(547.479 65.538)"><path class="k" d="M525.16,188.135v24.487H502.785V188.135H525.16m.635-.695H502.15v25.876h23.644Z" transform="translate(-502.15 -187.44)"/></g><path class="k" d="M512.515,188.135v24.487h-22.4V188.135h22.4m.635-.695H489.48v25.876h23.67Z" transform="translate(25.822 -121.902)"/><g class="ad" transform="translate(258.032 65.538)"><path class="k" d="M411.19,188.135v24.487H388.815V188.135H411.19m.635-.695H388.18v25.876h23.644Z" transform="translate(-388.18 -187.44)"/></g><g class="ae" transform="translate(225.879 65.538)"><path class="k" d="M398.529,188.135v24.487H376.155V188.135h22.375m.635-.695H375.52v25.876h23.644Z" transform="translate(-375.52 -187.44)"/></g><g class="af" transform="translate(193.702 65.538)"><path class="k" d="M385.885,188.135v24.487h-22.4V188.135h22.4m.635-.695H362.85v25.876h23.67Z" transform="translate(-362.85 -187.44)"/></g><g class="ag" transform="translate(161.549 65.538)"><path class="k" d="M373.2,188.135v24.487H350.825V188.135H373.2m.635-.695H350.19v25.876h23.644Z" transform="translate(-350.19 -187.44)"/></g><g class="ah" transform="translate(129.397 65.538)"><path class="k" d="M360.54,188.135v24.487H338.165V188.135H360.54m.635-.695H337.53v25.876h23.644Z" transform="translate(-337.53 -187.44)"/></g><g class="ai" transform="translate(97.219 65.538)"><path class="k" d="M347.895,188.135v24.487h-22.4V188.135h22.4m.635-.695H324.86v25.876h23.67Z" transform="translate(-324.86 -187.44)"/></g><g class="v" transform="translate(579.632 98.308)"><path class="k" d="M537.845,199.925v24.487h-22.4V199.925h22.4m.635-.695H514.81v25.876h23.67Z" transform="translate(-514.81 -199.23)"/></g><g class="aj" transform="translate(547.479 98.308)"><path class="k" d="M525.16,199.925v24.487H502.785V199.925H525.16m.635-.695H502.15v25.876h23.644Z" transform="translate(-502.15 -199.23)"/></g><g class="ak" transform="translate(515.302 98.308)"><path class="k" d="M512.515,199.925v24.487h-22.4V199.925h22.4m.635-.695H489.48v25.876h23.67Z" transform="translate(-489.48 -199.23)"/></g><g class="v" transform="translate(483.149 98.308)"><path class="k" d="M499.855,199.925v24.487h-22.4V199.925h22.4m.635-.695H476.82v25.876h23.67Z" transform="translate(-476.82 -199.23)"/></g><g class="al" transform="translate(450.997 98.308)"><path class="k" d="M487.169,199.925v24.487H464.795V199.925h22.375m.635-.695H464.16v25.876H487.8Z" transform="translate(-464.16 -199.23)"/></g><g class="am" transform="translate(418.819 98.308)"><path class="k" d="M474.525,199.925v24.487h-22.4V199.925h22.4m.635-.695H451.49v25.876h23.67Z" transform="translate(-451.49 -199.23)"/></g><g class="an" transform="translate(386.667 98.308)"><path class="k" d="M461.865,199.925v24.487h-22.4V199.925h22.4m.635-.695H438.83v25.876H462.5Z" transform="translate(-438.83 -199.23)"/></g><g class="z" transform="translate(354.514 98.308)"><path class="k" d="M449.18,199.925v24.487H426.8V199.925H449.18m.635-.695H426.17v25.876h23.644Z" transform="translate(-426.17 -199.23)"/></g><g class="aa" transform="translate(322.362 98.308)"><path class="k" d="M436.52,199.925v24.487H414.145V199.925H436.52m.635-.695H413.51v25.876h23.644Z" transform="translate(-413.51 -199.23)"/></g><g class="ao" transform="translate(290.184 98.308)"><path class="k" d="M423.875,199.925v24.487h-22.4V199.925h22.4m.635-.695H400.84v25.876h23.67Z" transform="translate(-400.84 -199.23)"/></g><g class="ap" transform="translate(258.032 98.308)"><path class="k" d="M411.19,199.925v24.487H388.815V199.925H411.19m.635-.695H388.18v25.876h23.644Z" transform="translate(-388.18 -199.23)"/></g><g class="aq" transform="translate(225.879 98.308)"><path class="k" d="M398.529,199.925v24.487H376.155V199.925h22.375m.635-.695H375.52v25.876h23.644Z" transform="translate(-375.52 -199.23)"/></g><g class="ad" transform="translate(193.702 98.308)"><path class="k" d="M385.885,199.925v24.487h-22.4V199.925h22.4m.635-.695H362.85v25.876h23.67Z" transform="translate(-362.85 -199.23)"/></g><g class="r" transform="translate(161.549 98.308)"><path class="k" d="M373.2,199.925v24.487H350.825V199.925H373.2m.635-.695H350.19v25.876h23.644Z" transform="translate(-350.19 -199.23)"/></g><g class="ap" transform="translate(129.397 98.308)"><path class="k" d="M360.54,199.925v24.487H338.165V199.925H360.54m.635-.695H337.53v25.876h23.644Z" transform="translate(-337.53 -199.23)"/></g><path class="k" d="M537.845,211.75v24.487h-22.4V211.75h22.4m.635-.695H514.81v25.876h23.67V211Z" transform="translate(64.822 -79.979)"/><g class="ar" transform="translate(547.479 131.021)"><path class="k" d="M525.16,211.75v24.487H502.785V211.75H525.16m.635-.695H502.15v25.876h23.644V211Z" transform="translate(-502.15 -211)"/></g><g class="as" transform="translate(515.302 131.021)"><path class="k" d="M512.515,211.75v24.487h-22.4V211.75h22.4m.635-.695H489.48v25.876h23.67V211Z" transform="translate(-489.48 -211)"/></g><g class="aq" transform="translate(483.149 131.021)"><path class="k" d="M499.855,211.75v24.487h-22.4V211.75h22.4m.635-.695H476.82v25.876h23.67V211Z" transform="translate(-476.82 -211)"/></g><g class="v" transform="translate(450.997 131.021)"><path class="k" d="M487.169,211.75v24.487H464.795V211.75h22.375m.635-.695H464.16v25.876H487.8V211Z" transform="translate(-464.16 -211)"/></g><g class="aa" transform="translate(418.819 131.021)"><path class="k" d="M474.525,211.75v24.487h-22.4V211.75h22.4m.635-.695H451.49v25.876h23.67V211Z" transform="translate(-451.49 -211)"/></g><g class="as" transform="translate(386.667 131.021)"><path class="k" d="M461.865,211.75v24.487h-22.4V211.75h22.4m.635-.695H438.83v25.876H462.5V211Z" transform="translate(-438.83 -211)"/></g><g class="at" transform="translate(354.514 131.021)"><path class="k" d="M449.18,211.75v24.487H426.8V211.75H449.18m.635-.695H426.17v25.876h23.644V211Z" transform="translate(-426.17 -211)"/></g><g class="m" transform="translate(322.362 131.021)"><path class="k" d="M436.52,211.75v24.487H414.145V211.75H436.52m.635-.695H413.51v25.876h23.644V211Z" transform="translate(-413.51 -211)"/></g><g class="au" transform="translate(579.632 163.846)"><path class="k" d="M537.845,223.5v24.487h-22.4V223.5h22.4m.635-.695H514.81v25.876h23.67Z" transform="translate(-514.81 -222.81)"/></g><g class="z" transform="translate(547.479 163.846)"><path class="k" d="M525.16,223.5v24.487H502.785V223.5H525.16m.635-.695H502.15v25.876h23.644Z" transform="translate(-502.15 -222.81)"/></g><g class="au" transform="translate(515.302 163.846)"><path class="k" d="M512.515,223.5v24.487h-22.4V223.5h22.4m.635-.695H489.48v25.876h23.67Z" transform="translate(-489.48 -222.81)"/></g><g class="av" transform="translate(483.149 163.846)"><path class="k" d="M499.855,223.5v24.487h-22.4V223.5h22.4m.635-.695H476.82v25.876h23.67Z" transform="translate(-476.82 -222.81)"/></g><g class="aw" transform="translate(450.997 163.846)"><path class="k" d="M487.169,223.5v24.487H464.795V223.5h22.375m.635-.695H464.16v25.876H487.8Z" transform="translate(-464.16 -222.81)"/></g><g class="ag" transform="translate(418.819 163.846)"><path class="k" d="M474.525,223.5v24.487h-22.4V223.5h22.4m.635-.695H451.49v25.876h23.67Z" transform="translate(-451.49 -222.81)"/></g><g class="ax" transform="translate(386.667 163.846)"><path class="k" d="M461.865,223.5v24.487h-22.4V223.5h22.4m.635-.695H438.83v25.876H462.5Z" transform="translate(-438.83 -222.81)"/></g><g class="ay" transform="translate(354.514 163.846)"><path class="k" d="M449.18,223.5v24.487H426.8V223.5H449.18m.635-.695H426.17v25.876h23.644Z" transform="translate(-426.17 -222.81)"/></g><g class="ai" transform="translate(322.362 163.846)"><path class="k" d="M436.52,223.5v24.487H414.145V223.5H436.52m.635-.695H413.51v25.876h23.644Z" transform="translate(-413.51 -222.81)"/></g></g><g class="az"><g class="j"><path class="k" d="M-.006,149.185v20.6H-18.825v-20.6H-.006m.635-.695H-19.46v21.985H.629Z" transform="translate(19.46 -148.49)"/></g><g class="l" transform="translate(27.327)"><path class="k" d="M10.856,149.185v20.6H-8.065v-20.6H10.856m.635-.695H-8.7v21.985H11.389V148.49Z" transform="translate(8.7 -148.49)"/></g><g class="w" transform="translate(54.629)"><path class="k" d="M21.529,149.185v20.6H2.685v-20.6H21.529m.635-.695H2.05v21.985H22.24V148.49Z" transform="translate(-2.05 -148.49)"/></g><g class="ba" transform="translate(81.956)"><path class="k" d="M32.289,149.185v20.6H13.445v-20.6H32.289m.635-.695H12.81v21.985H32.924Z" transform="translate(-12.81 -148.49)"/></g><g class="bb" transform="translate(109.283)"><path class="k" d="M43.049,149.185v20.6H24.2v-20.6H43.049m.635-.695H23.57v21.985H43.684Z" transform="translate(-23.57 -148.49)"/></g><g class="bc" transform="translate(136.61)"><path class="k" d="M53.809,149.185v20.6H34.965v-20.6H53.809m.635-.695H34.33v21.985H54.444Z" transform="translate(-34.33 -148.49)"/></g><g class="bd" transform="translate(163.937)"><path class="k" d="M64.569,149.185v20.6H45.725v-20.6H64.569m.635-.695H45.09v21.985H65.179V148.49Z" transform="translate(-45.09 -148.49)"/></g><g class="t" transform="translate(0 27.822)"><path class="k" d="M-.006,159.195v20.623H-18.825V159.195H-.006m.635-.695H-19.46v22.013H.629Z" transform="translate(19.46 -158.5)"/></g><g class="u" transform="translate(27.327 27.822)"><path class="k" d="M10.856,159.195v20.623H-8.065V159.195H10.856m.635-.695H-8.7v22.013H11.389V158.5Z" transform="translate(8.7 -158.5)"/></g><g class="v" transform="translate(54.629 27.822)"><path class="k" d="M21.529,159.195v20.623H2.685V159.195H21.529m.635-.695H2.05v22.013H22.24V158.5Z" transform="translate(-2.05 -158.5)"/></g><g class="be" transform="translate(81.956 27.822)"><path class="k" d="M32.289,159.195v20.623H13.445V159.195H32.289m.635-.695H12.81v22.013H32.924Z" transform="translate(-12.81 -158.5)"/></g><g class="ba" transform="translate(109.283 27.822)"><path class="k" d="M43.049,159.195v20.623H24.2V159.195H43.049m.635-.695H23.57v22.013H43.684Z" transform="translate(-23.57 -158.5)"/></g><g class="bf" transform="translate(136.61 27.822)"><path class="k" d="M53.809,159.195v20.623H34.965V159.195H53.809m.635-.695H34.33v22.013H54.444Z" transform="translate(-34.33 -158.5)"/></g><path class="k" d="M64.569,159.195v20.623H45.725V159.195H64.569m.635-.695H45.09v22.013H65.179V158.5Z" transform="translate(118.847 -130.678)"/><g class="bg" transform="translate(191.264 27.822)"><path class="k" d="M75.329,159.195v20.623H56.485V159.195H75.329m.635-.695H55.85v22.013H75.964Z" transform="translate(-55.85 -158.5)"/></g><g class="bh" transform="translate(218.591 27.822)"><path class="k" d="M86.089,159.195v20.623H67.245V159.195H86.089m.635-.695H66.61v22.013H86.724Z" transform="translate(-66.61 -158.5)"/></g><g class="ab" transform="translate(0 55.672)"><path class="k" d="M-.006,169.215v20.623H-18.825V169.215H-.006m.635-.695H-19.46v22.013H.629Z" transform="translate(19.46 -168.52)"/></g><g class="ac" transform="translate(27.327 55.672)"><path class="k" d="M10.856,169.215v20.623H-8.065V169.215H10.856m.635-.695H-8.7v22.013H11.389V168.52Z" transform="translate(8.7 -168.52)"/></g><path class="k" d="M21.529,169.215v20.623H2.685V169.215H21.529m.635-.695H2.05v22.013H22.24V168.52Z" transform="translate(52.579 -112.848)"/><g class="bi" transform="translate(81.956 55.672)"><path class="k" d="M32.289,169.215v20.623H13.445V169.215H32.289m.635-.695H12.81v22.013H32.924Z" transform="translate(-12.81 -168.52)"/></g><g class="bj" transform="translate(109.283 55.672)"><path class="k" d="M43.049,169.215v20.623H24.2V169.215H43.049m.635-.695H23.57v22.013H43.684Z" transform="translate(-23.57 -168.52)"/></g><g class="bk" transform="translate(136.61 55.672)"><path class="k" d="M53.809,169.215v20.623H34.965V169.215H53.809m.635-.695H34.33v22.013H54.444Z" transform="translate(-34.33 -168.52)"/></g><g class="as" transform="translate(163.937 55.672)"><path class="k" d="M64.569,169.215v20.623H45.725V169.215H64.569m.635-.695H45.09v22.013H65.179V168.52Z" transform="translate(-45.09 -168.52)"/></g><g class="y" transform="translate(191.264 55.672)"><path class="k" d="M75.329,169.215v20.623H56.485V169.215H75.329m.635-.695H55.85v22.013H75.964Z" transform="translate(-55.85 -168.52)"/></g><g class="ah" transform="translate(218.591 55.672)"><path class="k" d="M86.089,169.215v20.623H67.245V169.215H86.089m.635-.695H66.61v22.013H86.724Z" transform="translate(-66.61 -168.52)"/></g><g class="ac" transform="translate(245.917 55.672)"><path class="k" d="M96.748,169.215v20.623H78V169.215H96.748m.635-.695H77.37v22.013H97.484V168.52Z" transform="translate(-77.37 -168.52)"/></g><g class="ad" transform="translate(273.244 55.672)"><path class="k" d="M107.609,169.215v20.623H88.765V169.215h18.844m.635-.695H88.13v22.013h20.114V168.52Z" transform="translate(-88.13 -168.52)"/></g><g class="ae" transform="translate(300.571 55.672)"><path class="k" d="M118.369,169.215v20.623H99.525V169.215h18.844m.635-.695H98.89v22.013H119Z" transform="translate(-98.89 -168.52)"/></g><g class="af" transform="translate(327.898 55.672)"><path class="k" d="M129.129,169.215v20.623H110.285V169.215h18.844m.635-.695H109.65v22.013h20.114Z" transform="translate(-109.65 -168.52)"/></g><g class="ag" transform="translate(355.225 55.672)"><path class="k" d="M139.889,169.215v20.623H121.045V169.215h18.844m.635-.695H120.41v22.013h20.114Z" transform="translate(-120.41 -168.52)"/></g><g class="ah" transform="translate(382.552 55.672)"><path class="k" d="M150.649,169.215v20.623H131.8V169.215h18.844m.635-.695H131.17v22.013h20.114Z" transform="translate(-131.17 -168.52)"/></g><g class="ai" transform="translate(409.879 55.672)"><path class="k" d="M161.409,169.215v20.623H142.565V169.215h18.844m.635-.695H141.93v22.013h20.114Z" transform="translate(-141.93 -168.52)"/></g><g class="bf" transform="translate(437.206 55.672)"><path class="k" d="M172.169,169.215v20.623H153.325V169.215h18.844m.635-.695H152.69v22.013H172.8Z" transform="translate(-152.69 -168.52)"/></g><g class="bl" transform="translate(464.533 55.672)"><path class="k" d="M182.929,169.215v20.623H164.085V169.215h18.844m.635-.695H163.45v22.013h20.114Z" transform="translate(-163.45 -168.52)"/></g><g class="ae" transform="translate(492.495 55.672)"><path class="k" d="M193.914,169.215v20.623H175.095V169.215h18.819m.635-.695H174.46v22.013h20.089Z" transform="translate(-174.46 -168.52)"/></g><g class="ad" transform="translate(519.822 55.672)"><path class="k" d="M204.674,169.215v20.623H185.855V169.215h18.819m.635-.695H185.22v22.013h20.089Z" transform="translate(-185.22 -168.52)"/></g><g class="bg" transform="translate(547.2 55.672)"><path class="k" d="M215.4,169.215v20.623H196.584V169.215H215.4m.635-.695H196v22.013h20.089V168.52Z" transform="translate(-196 -168.52)"/></g><g class="v" transform="translate(0 83.521)"><path class="k" d="M-.006,179.235v20.6H-18.825v-20.6H-.006m.635-.695H-19.46v21.985H.629Z" transform="translate(19.46 -178.54)"/></g><g class="am" transform="translate(136.61 83.521)"><path class="k" d="M53.809,179.235v20.6H34.965v-20.6H53.809m.635-.695H34.33v21.985H54.444Z" transform="translate(-34.33 -178.54)"/></g><g class="an" transform="translate(163.937 83.521)"><path class="k" d="M64.569,179.235v20.6H45.725v-20.6H64.569m.635-.695H45.09v21.985H65.179V178.54Z" transform="translate(-45.09 -178.54)"/></g><g class="z" transform="translate(191.264 83.521)"><path class="k" d="M75.329,179.235v20.6H56.485v-20.6H75.329m.635-.695H55.85v21.985H75.964Z" transform="translate(-55.85 -178.54)"/></g><g class="aa" transform="translate(218.591 83.521)"><path class="k" d="M86.089,179.235v20.6H67.245v-20.6H86.089m.635-.695H66.61v21.985H86.724Z" transform="translate(-66.61 -178.54)"/></g><g class="ao" transform="translate(245.917 83.521)"><path class="k" d="M96.748,179.235v20.6H78v-20.6H96.748m.635-.695H77.37v21.985H97.484V178.54Z" transform="translate(-77.37 -178.54)"/></g><g class="ap" transform="translate(273.244 83.521)"><path class="k" d="M107.609,179.235v20.6H88.765v-20.6h18.844m.635-.695H88.13v21.985h20.114V178.54Z" transform="translate(-88.13 -178.54)"/></g><g class="aq" transform="translate(300.571 83.521)"><path class="k" d="M118.369,179.235v20.6H99.525v-20.6h18.844m.635-.695H98.89v21.985H119Z" transform="translate(-98.89 -178.54)"/></g><g class="ad" transform="translate(327.898 83.521)"><path class="k" d="M129.129,179.235v20.6H110.285v-20.6h18.844m.635-.695H109.65v21.985h20.114Z" transform="translate(-109.65 -178.54)"/></g><g class="r" transform="translate(355.225 83.521)"><path class="k" d="M139.889,179.235v20.6H121.045v-20.6h18.844m.635-.695H120.41v21.985h20.114Z" transform="translate(-120.41 -178.54)"/></g><g class="ap" transform="translate(382.552 83.521)"><path class="k" d="M150.649,179.235v20.6H131.8v-20.6h18.844m.635-.695H131.17v21.985h20.114Z" transform="translate(-131.17 -178.54)"/></g><g class="an" transform="translate(409.879 83.521)"><path class="k" d="M161.409,179.235v20.6H142.565v-20.6h18.844m.635-.695H141.93v21.985h20.114Z" transform="translate(-141.93 -178.54)"/></g><g class="l" transform="translate(437.206 83.521)"><path class="k" d="M172.169,179.235v20.6H153.325v-20.6h18.844m.635-.695H152.69v21.985H172.8Z" transform="translate(-152.69 -178.54)"/></g><g class="bm" transform="translate(464.533 83.521)"><path class="k" d="M182.929,179.235v20.6H164.085v-20.6h18.844m.635-.695H163.45v21.985h20.114Z" transform="translate(-163.45 -178.54)"/></g><g class="bn" transform="translate(492.495 83.521)"><path class="k" d="M193.914,179.235v20.6H175.095v-20.6h18.819m.635-.695H174.46v21.985h20.089Z" transform="translate(-174.46 -178.54)"/></g><g class="bo" transform="translate(519.822 83.521)"><path class="k" d="M204.674,179.235v20.6H185.855v-20.6h18.819m.635-.695H185.22v21.985h20.089Z" transform="translate(-185.22 -178.54)"/></g><g class="bp" transform="translate(547.2 83.521)"><path class="k" d="M215.4,179.235v20.6H196.584v-20.6H215.4m.635-.695H196v21.985h20.089V178.54Z" transform="translate(-196 -178.54)"/></g><g class="bj" transform="translate(574.502 83.521)"><path class="k" d="M226.179,179.235v20.6H207.385v-20.6H226.2m.635-.695H206.75v21.985h20.089Z" transform="translate(-206.75 -178.54)"/></g><g class="bq" transform="translate(601.803 83.521)"><path class="k" d="M236.954,179.235v20.6H218.135v-20.6h18.819m.635-.695H217.5v21.985h20.089Z" transform="translate(-217.5 -178.54)"/></g><g class="ap" transform="translate(629.13 83.521)"><path class="k" d="M247.714,179.235v20.6H228.895v-20.6h18.819m.635-.695H228.26v21.985h20.089Z" transform="translate(-228.26 -178.54)"/></g><g class="l" transform="translate(656.406 83.521)"><path class="k" d="M258.5,179.235v20.6H239.686v-20.6H258.5m.635-.695H239v21.985h20.089V178.54Z" transform="translate(-239 -178.54)"/></g><g class="ai" transform="translate(683.708 83.521)"><path class="k" d="M269.28,179.235v20.6h-18.9v-20.6H269.2m.635-.695H249.75v21.985h20.089Z" transform="translate(-249.75 -178.54)"/></g><g class="br" transform="translate(711.111 83.521)"><path class="k" d="M279.994,179.235v20.6H261.175v-20.6h18.819m.635-.695H260.54v21.985h20.089Z" transform="translate(-260.54 -178.54)"/></g><g class="ap" transform="translate(738.438 83.521)"><path class="k" d="M290.856,179.235v20.6H272.036v-20.6h18.819m.635-.695H271.3v21.985h20.089V178.54Z" transform="translate(-271.3 -178.54)"/></g><path class="k" d="M-.006,189.255v20.6H-18.825v-20.6H-.006m.635-.695H-19.46v21.985H.629Z" transform="translate(19.46 -77.189)"/><g class="m" transform="translate(218.591 111.371)"><path class="k" d="M86.089,189.255v20.6H67.245v-20.6H86.089m.635-.695H66.61v21.985H86.724Z" transform="translate(-66.61 -188.56)"/></g><g class="bs" transform="translate(245.917 111.371)"><path class="k" d="M96.748,189.255v20.6H78v-20.6H96.748m.635-.695H77.37v21.985H97.484V188.56Z" transform="translate(-77.37 -188.56)"/></g><g class="y" transform="translate(273.244 111.371)"><path class="k" d="M107.609,189.255v20.6H88.765v-20.6h18.844m.635-.695H88.13v21.985h20.114V188.56Z" transform="translate(-88.13 -188.56)"/></g><g class="y" transform="translate(300.571 111.371)"><path class="k" d="M118.369,189.255v20.6H99.525v-20.6h18.844m.635-.695H98.89v21.985H119Z" transform="translate(-98.89 -188.56)"/></g><g class="bt" transform="translate(327.898 111.371)"><path class="k" d="M129.129,189.255v20.6H110.285v-20.6h18.844m.635-.695H109.65v21.985h20.114Z" transform="translate(-109.65 -188.56)"/></g><g class="x" transform="translate(355.225 111.371)"><path class="k" d="M139.889,189.255v20.6H121.045v-20.6h18.844m.635-.695H120.41v21.985h20.114Z" transform="translate(-120.41 -188.56)"/></g><g class="bb" transform="translate(382.552 111.371)"><path class="k" d="M150.649,189.255v20.6H131.8v-20.6h18.844m.635-.695H131.17v21.985h20.114Z" transform="translate(-131.17 -188.56)"/></g><g class="al" transform="translate(409.879 111.371)"><path class="k" d="M161.409,189.255v20.6H142.565v-20.6h18.844m.635-.695H141.93v21.985h20.114Z" transform="translate(-141.93 -188.56)"/></g><g class="bu" transform="translate(437.206 111.371)"><path class="k" d="M172.169,189.255v20.6H153.325v-20.6h18.844m.635-.695H152.69v21.985H172.8Z" transform="translate(-152.69 -188.56)"/></g><g class="t" transform="translate(464.533 111.371)"><path class="k" d="M182.929,189.255v20.6H164.085v-20.6h18.844m.635-.695H163.45v21.985h20.114Z" transform="translate(-163.45 -188.56)"/></g><g class="ag" transform="translate(492.495 111.371)"><path class="k" d="M193.914,189.255v20.6H175.095v-20.6h18.819m.635-.695H174.46v21.985h20.089Z" transform="translate(-174.46 -188.56)"/></g><g class="bv" transform="translate(519.822 111.371)"><path class="k" d="M204.674,189.255v20.6H185.855v-20.6h18.819m.635-.695H185.22v21.985h20.089Z" transform="translate(-185.22 -188.56)"/></g><g class="bd" transform="translate(547.2 111.371)"><path class="k" d="M215.4,189.255v20.6H196.584v-20.6H215.4m.635-.695H196v21.985h20.089V188.56Z" transform="translate(-196 -188.56)"/></g><g class="bw" transform="translate(574.502 111.371)"><path class="k" d="M226.179,189.255v20.6H207.385v-20.6H226.2m.635-.695H206.75v21.985h20.089Z" transform="translate(-206.75 -188.56)"/></g><g class="bx" transform="translate(601.803 111.371)"><path class="k" d="M236.954,189.255v20.6H218.135v-20.6h18.819m.635-.695H217.5v21.985h20.089Z" transform="translate(-217.5 -188.56)"/></g><g class="aq" transform="translate(629.13 111.371)"><path class="k" d="M247.714,189.255v20.6H228.895v-20.6h18.819m.635-.695H228.26v21.985h20.089Z" transform="translate(-228.26 -188.56)"/></g><g class="bo" transform="translate(656.406 111.371)"><path class="k" d="M258.5,189.255v20.6H239.686v-20.6H258.5m.635-.695H239v21.985h20.089V188.56Z" transform="translate(-239 -188.56)"/></g><g class="au" transform="translate(0 139.193)"><path class="k" d="M-.006,199.265v20.623H-18.825V199.265H-.006m.635-.695H-19.46v22.013H.629Z" transform="translate(19.46 -198.57)"/></g><g class="aw" transform="translate(327.898 139.193)"><path class="k" d="M129.129,199.265v20.623H110.285V199.265h18.844m.635-.695H109.65v22.013h20.114Z" transform="translate(-109.65 -198.57)"/></g><g class="y" transform="translate(601.803 139.193)"><path class="k" d="M236.954,199.265v20.623H218.135V199.265h18.819m.635-.695H217.5v22.013h20.089Z" transform="translate(-217.5 -198.57)"/></g><g class="by" transform="translate(629.13 139.193)"><path class="k" d="M247.714,199.265v20.623H228.895V199.265h18.819m.635-.695H228.26v22.013h20.089Z" transform="translate(-228.26 -198.57)"/></g></g></g><g transform="translate(-303.746 350.706)"><ellipse class="bz" cx="442.997" cy="47.806" rx="442.997" ry="47.806" transform="translate(999.416 132.744)"/><ellipse class="ca" cx="442.997" cy="47.806" rx="442.997" ry="47.806" transform="translate(0 77.99)"/><ellipse class="cb" cx="442.997" cy="47.806" rx="442.997" ry="47.806" transform="translate(660.876)"/><ellipse class="cc" cx="442.997" cy="47.806" rx="442.997" ry="47.806" transform="translate(303.34 132.439)"/></g></g></svg>