<svg width="20" height="20" viewBox="0 0 20 20" fill="none" xmlns="http://www.w3.org/2000/svg">
<g id="Group 2641">
<g id="Group 1567">
<path id="Line 87" d="M9.99219 11.5V4.5" stroke="#C68700" stroke-width="1.5" stroke-miterlimit="10" stroke-linecap="round"/>
<path id="Ellipse 145" d="M10.3918 14.7C10.3918 14.9209 10.2127 15.1 9.9918 15.1C9.77088 15.1 9.5918 14.9209 9.5918 14.7C9.5918 14.4791 9.77088 14.3 9.9918 14.3C10.2127 14.3 10.3918 14.4791 10.3918 14.7Z" fill="#C68700" stroke="#C68700"/>
<g id="Ellipse 146">
<path id="Vector" d="M19.5 10C19.5 15.2467 15.2467 19.5 10 19.5C4.75329 19.5 0.5 15.2467 0.5 10C0.5 4.75329 4.75329 0.5 10 0.5C15.2467 0.5 19.5 4.75329 19.5 10Z" stroke="#C68700"/>
<path id="Vector_2" d="M10 19.25C15.1086 19.25 19.25 15.1086 19.25 10C19.25 4.89137 15.1086 0.75 10 0.75C4.89137 0.75 0.75 4.89137 0.75 10C0.75 15.1086 4.89137 19.25 10 19.25Z" stroke="#C68700" stroke-width="1.5"/>
</g>
</g>
</g>
</svg>
