<svg id="Group_9171" data-name="Group 9171" xmlns="http://www.w3.org/2000/svg" width="138.166" height="122" viewBox="0 0 138.166 122">
  <path id="Path_31816" data-name="Path 31816" d="M398.732,253.17H282.46a3.541,3.541,0,0,1-3.537-3.537v-65.56H402.27v65.56A3.541,3.541,0,0,1,398.732,253.17Z" transform="translate(-278.676 -180.085)" fill="#e6e6e6"/>
  <path id="Path_31817" data-name="Path 31817" d="M417.346,271.211H310.328a1.824,1.824,0,0,1-1.822-1.822V217.477a1.824,1.824,0,0,1,1.822-1.822H417.346a1.824,1.824,0,0,1,1.822,1.822v51.911A1.824,1.824,0,0,1,417.346,271.211Z" transform="translate(-301.916 -204.896)" fill="#fff"/>
  <path id="Path_31818" data-name="Path 31818" d="M401.61,171.849H277.769v-2.84a3.541,3.541,0,0,1,3.537-3.537H398.073a3.541,3.541,0,0,1,3.537,3.537Z" transform="translate(-277.769 -165.471)" fill="#021155"/>
  <path id="Path_31819" data-name="Path 31819" d="M358.6,322.839H339.557a1.824,1.824,0,0,1-1.822-1.822V308.5a1.824,1.824,0,0,1,1.822-1.822H358.6a1.824,1.824,0,0,1,1.822,1.822v12.522A1.824,1.824,0,0,1,358.6,322.839Z" transform="translate(-324.878 -276.401)" fill="#e6e6e6"/>
  <path id="Path_31820" data-name="Path 31820" d="M566.477,308.7H506.295a1.014,1.014,0,0,1,0-2.027h60.182a1.014,1.014,0,0,1,0,2.027Z" transform="translate(-456.505 -276.401)" fill="#e6e6e6"/>
  <path id="Path_31821" data-name="Path 31821" d="M566.477,342.521H506.295a1.014,1.014,0,0,1,0-2.027h60.182a1.014,1.014,0,0,1,0,2.027Z" transform="translate(-456.505 -302.971)" fill="#e6e6e6"/>
  <path id="Path_31822" data-name="Path 31822" d="M566.477,376.342H506.295a1.014,1.014,0,0,1,0-2.027h60.182a1.014,1.014,0,0,1,0,2.027Z" transform="translate(-456.505 -329.541)" fill="#e6e6e6"/>
  <path id="Path_31823" data-name="Path 31823" d="M405.335,519.161h-2.628l-1.25-10.138h3.879Z" transform="translate(-315.388 -399.894)" fill="#a0616a"/>
  <path id="Path_31824" data-name="Path 31824" d="M386.836,552.808H391.9V556h-8.261A3.192,3.192,0,0,1,386.836,552.808Z" transform="translate(-301.395 -434.292)" fill="#2f2e41"/>
  <path id="Path_31825" data-name="Path 31825" d="M456.335,519.161h-2.628l-1.25-10.138h3.879Z" transform="translate(-355.454 -399.894)" fill="#a0616a"/>
  <path id="Path_31826" data-name="Path 31826" d="M437.836,552.808H442.9V556h-8.261A3.192,3.192,0,0,1,437.836,552.808Z" transform="translate(-341.461 -434.292)" fill="#2f2e41"/>
  <path id="Path_31827" data-name="Path 31827" d="M691.511,549.659h-2.676a.97.97,0,0,1-.961-.885l-2.267-27.313a.322.322,0,0,0-.64-.011l-3.256,27.359a.965.965,0,0,1-.958.851h-3.285a.966.966,0,0,1-.964-.959c-.007-1.719-.019-3.45-.031-5.181-.1-15.419-.212-31.363,3.008-37.61l.029-.057,11.618-.2.029.064c3.515,7.682,2.448,24.842,1.416,41.438l-.1,1.6A.966.966,0,0,1,691.511,549.659Z" transform="translate(-590.965 -432.722)" fill="#2f2e41"/>
  <circle id="Ellipse_371" data-name="Ellipse 371" cx="5.266" cy="5.266" r="5.266" transform="translate(89.776 41.871)" fill="#a0616a"/>
  <path id="Path_31828" data-name="Path 31828" d="M683.615,437.663l.145-6.037-1.045-4.711a7.593,7.593,0,0,1,1.688-6.671,7.477,7.477,0,0,1,6.264-2.6h0l.228.019a7.509,7.509,0,0,1,5.174,2.767,7.6,7.6,0,0,1,1.665,5.7l-1.264,11.045Z" transform="translate(-595.752 -363.565)" fill="#021155"/>
  <path id="Path_31829" data-name="Path 31829" d="M653.862,523.571a2.156,2.156,0,0,0,.113-3.3l2.965-7.064-3.913.735-2.215,6.6a2.168,2.168,0,0,0,3.05,3.038Z" transform="translate(-570.472 -438.653)" fill="#a0616a"/>
  <path id="Path_31830" data-name="Path 31830" d="M761.979,526.94a2.156,2.156,0,0,1,.075-3.3l-2.558-7.222,3.865.956,1.836,6.711a2.168,2.168,0,0,1-3.218,2.859Z" transform="translate(-656.219 -441.176)" fill="#a0616a"/>
  <path id="Path_31831" data-name="Path 31831" d="M657.127,454.292a.965.965,0,0,1-.394-.084l-2.255-1.01a.963.963,0,0,1-.524-1.176l3.783-11.753,1.462-8.854a2.378,2.378,0,1,1,4.661.929l-2.222,9.5-3.588,11.769a.964.964,0,0,1-.923.683Z" transform="translate(-573.266 -372.835)" fill="#021155"/>
  <path id="Path_31832" data-name="Path 31832" d="M744.389,454.292a.964.964,0,0,1-.923-.683l-3.586-11.762-2.224-9.5a2.378,2.378,0,1,1,4.661-.929l1.466,8.87,3.78,11.737a.964.964,0,0,1-.524,1.176l-2.255,1.01A.965.965,0,0,1,744.389,454.292Z" transform="translate(-639.012 -372.836)" fill="#021155"/>
  <path id="Path_31833" data-name="Path 31833" d="M691.324,357.028a3.11,3.11,0,0,0-3.966,1.636,5.132,5.132,0,0,0-.053,2.934,12.6,12.6,0,0,1,.461,2.933,2.874,2.874,0,0,1-1.338,2.5,8.88,8.88,0,0,1-1.711.468,1.585,1.585,0,0,0-1.241,1.133c-.124.889.954,1.565.946,2.462-.008.951-1.2,1.515-1.35,2.453A1.628,1.628,0,0,0,683.7,375a4.268,4.268,0,0,0,1.476.715,25.471,25.471,0,0,0,12.7.724,5.1,5.1,0,0,0,2.357-.949,2.007,2.007,0,0,0,.651-2.3c-.562-1.154-2.348-1.22-2.971-2.344a3.85,3.85,0,0,1-.123-2.267c.2-1.979.671-4.291.18-6.218a10.566,10.566,0,0,0-2.787-5.145c-.989-.828-2.877-.451-4.142-.2Z" transform="translate(-596.174 -315.712)" fill="#2f2e41"/>
  <path id="Path_31834" data-name="Path 31834" d="M645.482,732.958H570.446a.214.214,0,0,1,0-.429h75.036a.214.214,0,0,1,0,.429Z" transform="translate(-507.531 -610.958)" fill="#ccc"/>
  <path id="Path_31835" data-name="Path 31835" d="M848.367,673.586c-3.091,4.14-9.509,4.576-9.509,4.576s-1.405-6.277,1.686-10.417,9.509-4.576,9.509-4.576S851.458,669.446,848.367,673.586Z" transform="translate(-718.316 -556.468)" fill="#e6e6e6"/>
  <path id="Path_31836" data-name="Path 31836" d="M806.073,693.829c2.04,2.732,6.274,3.019,6.274,3.019s.927-4.142-1.113-6.874-6.274-3.019-6.274-3.019S804.033,691.1,806.073,693.829Z" transform="translate(-691.771 -575.155)" fill="#e6e6e6"/>
</svg>
