<svg xmlns="http://www.w3.org/2000/svg" width="24" height="24" viewBox="0 0 24 24">
  <g id="Group_9226" data-name="Group 9226" transform="translate(-145 -121)">
    <rect id="Rectangle_3726" data-name="Rectangle 3726" width="24" height="24" transform="translate(145 121)" fill="none"/>
    <path id="user-tie-solid" d="M13.063,4.75A4.75,4.75,0,1,1,8.313,0,4.75,4.75,0,0,1,13.063,4.75Zm-5.3,8.58L6.531,11.281h3.563L8.865,13.33l1.236,4.6,1.466-5.982a5.988,5.988,0,0,1,5.058,5.915A1.142,1.142,0,0,1,15.486,19H1.14A1.141,1.141,0,0,1,0,17.861a5.987,5.987,0,0,1,5.058-5.915l1.466,5.982Z" transform="translate(148.7 123.5)" fill="#fff"/>
  </g>
</svg>
