<svg xmlns="http://www.w3.org/2000/svg" width="16" height="16" viewBox="0 0 16 16">
  <g id="Group_9271" data-name="Group 9271" transform="translate(4 2357)">
    <path id="Icon_open-header" data-name="Icon open-header" d="M0,0V1.429H.714a.707.707,0,0,1,.714.714V7.857a.707.707,0,0,1-.714.714H0V10H4.286V8.571H3.571a.707.707,0,0,1-.714-.714V5.714H7.143V7.857a.707.707,0,0,1-.714.714H5.714V10H10V8.571H9.286a.707.707,0,0,1-.714-.714V2.143a.707.707,0,0,1,.714-.714H10V0H5.714V1.429h.714a.707.707,0,0,1,.714.714V4.286H2.857V2.143a.707.707,0,0,1,.714-.714h.714V0Z" transform="translate(-1 -2354)" fill="#75787b"/>
    <rect id="Rectangle_3678" data-name="Rectangle 3678" width="16" height="16" transform="translate(-4 -2357)" fill="none"/>
  </g>
</svg>
