<svg width="64" height="75" viewBox="0 0 64 75" fill="none" xmlns="http://www.w3.org/2000/svg">
<g id="Group 7954" clip-path="url(#clip0_1937_2967)">
<g id="Group 7954_2">
<g id="Group 1999">
<g id="Path 687">
<path id="Vector" d="M60.6802 73.5627H11.1567C10.1387 73.5627 9.31055 72.7345 9.31055 71.7165V3.40819C9.31055 2.3902 10.1387 1.56201 11.1567 1.56201H49.2313L62.5264 16.7184V71.7165C62.5264 72.7345 61.6982 73.5627 60.6802 73.5627Z" fill="white"/>
<path id="Vector_2" d="M11.1567 2.56201C10.6901 2.56201 10.3105 2.9416 10.3105 3.4082V71.7165C10.3105 72.1831 10.6901 72.5627 11.1567 72.5627H60.6802C61.1468 72.5627 61.5264 72.1831 61.5264 71.7165V17.0949L48.7783 2.56201H11.1567ZM11.1567 0.562012H49.6844L63.5264 16.342V71.7165C63.5264 73.2884 62.2521 74.5627 60.6802 74.5627H11.1567C9.58483 74.5627 8.31055 73.2884 8.31055 71.7165V3.4082C8.31055 1.83629 9.58483 0.562012 11.1567 0.562012Z" fill="#A3A3A3"/>
</g>
<g id="Path 690">
<path id="Vector_3" d="M62.5276 17.7773H50.4351C49.731 17.7773 49.1582 17.2045 49.1582 16.5004V1.99884H49.2443L53.0607 6.20597L60.4956 14.4283L62.5276 16.8629V17.7773Z" fill="white"/>
<path id="Vector_4" d="M50.1582 4.49467V16.5004C50.1582 16.6531 50.2824 16.7773 50.4351 16.7773H61.1536L59.7406 15.0844L52.32 6.87784L50.1582 4.49467ZM48.1582 0.99884H49.6873L53.8014 5.53409L61.2506 13.7724L63.5276 16.5004C63.5276 17.7579 63.5276 18.7773 63.5276 18.7773H50.4351C49.1776 18.7773 48.1582 17.7579 48.1582 16.5004V0.99884Z" fill="#A3A3A3"/>
</g>
</g>
<path id="Path 705" opacity="0.1" d="M10.2592 23.5734L24.6402 21.5698C25.4258 21.4734 26.2174 21.6929 26.841 22.1802C27.4647 22.6674 27.8692 23.3824 27.9657 24.1679L30.0263 40.9509C30.0741 41.3398 30.0448 41.7344 29.9401 42.112C29.8353 42.4896 29.6573 42.8429 29.416 43.1517C29.1748 43.4605 28.875 43.7187 28.534 43.9117C28.1929 44.1047 27.8172 44.2286 27.4282 44.2763L10.1801 46.4868L10.2592 23.5734Z" fill="black"/>
<g id="Group 2000">
<path id="Rectangle 1024" d="M19.4697 20.0186L4.70456 21.8316C2.51189 22.1008 0.952626 24.0965 1.22185 26.2892L3.03478 41.0543C3.30401 43.247 5.29977 44.8063 7.49244 44.537L22.2576 42.7241C24.4502 42.4549 26.0095 40.4591 25.7403 38.2664L23.9273 23.5013C23.6581 21.3087 21.6623 19.7494 19.4697 20.0186Z" fill="#021155"/>
</g>
<g id="Upload White">
<g id="Group 1515">
<path id="Line 83" d="M11.2586 30.2677L13.0508 27.9738" stroke="white" stroke-linecap="round"/>
<path id="Line 90" d="M15.3872 29.7992L13.0508 27.9738" stroke="white" stroke-linecap="round"/>
<path id="Line 84" d="M13.1484 28.7682L13.7365 33.5576" stroke="white" stroke-linecap="round"/>
</g>
<path id="Path 673" d="M9.76562 33.9437L10.111 36.7565L18.0087 35.7868L17.6633 32.974" stroke="white" stroke-linecap="round" stroke-linejoin="round"/>
</g>
</g>
</g>
<defs>
<clipPath id="clip0_1937_2967">
<rect width="62.792" height="74.001" fill="white" transform="translate(0.734375 0.562012)"/>
</clipPath>
</defs>
</svg>
