<svg id="Group_31" data-name="Group 31" xmlns="http://www.w3.org/2000/svg" width="198.198" height="122" viewBox="0 0 198.198 122">
  <path id="Path_133" data-name="Path 133" d="M170.587,596.912a32.975,32.975,0,0,0,1.541,9.116c.021.068.044.136.066.2h5.749c-.006-.061-.012-.13-.018-.2-.383-4.407,1.806-30.907,4.449-35.493C182.142,570.907,170.142,582.911,170.587,596.912Z" transform="translate(-160.879 -484.441)" fill="#f1f1f1"/>
  <path id="Path_134" data-name="Path 134" d="M155.591,667.034c.048.068.1.137.149.2h4.313l-.115-.2c-.712-1.286-2.821-5.13-4.779-9.116-2.1-4.283-4.033-8.728-3.871-10.337C151.239,647.944,149.783,659.006,155.591,667.034Z" transform="translate(-145.451 -545.446)" fill="#f1f1f1"/>
  <path id="Path_42" data-name="Path 42" d="M774.424,261.722a3,3,0,0,0,4.381,1.417l8.323,6.677.515-5.521-7.983-5.494a3.019,3.019,0,0,0-5.236,2.921Z" transform="translate(-638.831 -236.619)" fill="#9f616a"/>
  <path id="Path_43" data-name="Path 43" d="M687.988,122.1l-3.107-2.195-3.524,4.071,4.1,2.429Z" transform="translate(-539.505 -94.94)" fill="#6c63ff"/>
  <path id="Path_44" data-name="Path 44" d="M813.57,267.331l10.469,4.028,10.078-6.6a5.126,5.126,0,0,1,6.62,7.716l-.09.1-15.5,8.311-16.931-7.735Z" transform="translate(-665.767 -241.662)" fill="#021155"/>
  <path id="Path_45" data-name="Path 45" d="M280.852,289.239H171.76L175.716,212h17.072l15.742,11.034h76.278Z" transform="translate(-136.001 -167.863)" fill="#e5e5e5"/>
  <path id="Path_46" data-name="Path 46" d="M449.56,257.662l-63.054-25.967a.9.9,0,0,1-.489-1.174l28.571-69.376a.9.9,0,0,1,1.174-.489l63.054,25.967a.9.9,0,0,1,.489,1.174l-28.571,69.376a.9.9,0,0,1-1.174.489Z" transform="translate(-331.413 -159.84)" fill="#fff"/>
  <path id="Path_47" data-name="Path 47" d="M449.56,257.662l-63.054-25.967a.9.9,0,0,1-.489-1.174l28.571-69.376a.9.9,0,0,1,1.174-.489l63.054,25.967a.9.9,0,0,1,.489,1.174l-28.571,69.376a.9.9,0,0,1-1.174.489Zm-33.935-96.674a.54.54,0,0,0-.7.294l-28.571,69.376a.54.54,0,0,0,.294.7L449.7,257.329a.54.54,0,0,0,.7-.294l28.571-69.376a.54.54,0,0,0-.294-.7Z" transform="translate(-331.413 -159.84)" fill="#3f3d56"/>
  <path id="Path_48" data-name="Path 48" d="M552.435,235.309l-15.639-6.44a.9.9,0,0,1-.489-1.174l6.44-15.639a.9.9,0,0,1,1.174-.489l15.639,6.44a.9.9,0,0,1,.489,1.174l-6.44,15.639A.9.9,0,0,1,552.435,235.309Zm-8.65-23.41a.54.54,0,0,0-.7.294l-6.44,15.639a.54.54,0,0,0,.294.7l15.639,6.44a.54.54,0,0,0,.7-.294l6.44-15.639a.54.54,0,0,0-.294-.7Z" transform="translate(-450.415 -200.152)" fill="#f2f2f2"/>
  <path id="Path_49" data-name="Path 49" d="M527.286,236.271l-15.639-6.44a.811.811,0,0,1-.44-1.057l6.44-15.639a.811.811,0,0,1,1.057-.44l15.639,6.44a.811.811,0,0,1,.44,1.057l-6.44,15.639A.811.811,0,0,1,527.286,236.271Z" transform="translate(-430.545 -201.051)" fill="#021155"/>
  <path id="Path_50" data-name="Path 50" d="M545.42,346.211l-48.912-20.143a.81.81,0,0,1,.617-1.5l48.912,20.143a.81.81,0,1,1-.617,1.5Z" transform="translate(-418.558 -289.635)" fill="#ccc"/>
  <path id="Path_51" data-name="Path 51" d="M523.406,366.119l-37.1-15.279a.81.81,0,1,1,.617-1.5l37.1,15.279a.81.81,0,1,1-.617,1.5Z" transform="translate(-410.48 -309.25)" fill="#ccc"/>
  <path id="Path_52" data-name="Path 52" d="M685.909,297.518l-21.628-8.907a.81.81,0,1,1,.617-1.5l21.628,8.907a.81.81,0,0,1-.617,1.5Z" transform="translate(-551.402 -259.977)" fill="#ccc"/>
  <path id="Path_53" data-name="Path 53" d="M670.309,320.068l-16.23-6.684a.81.81,0,1,1,.617-1.5l16.23,6.684a.81.81,0,1,1-.617,1.5Z" transform="translate(-543.324 -279.592)" fill="#ccc"/>
  <path id="Path_54" data-name="Path 54" d="M525.016,395.756,476.1,375.613a.81.81,0,0,1,.617-1.5l48.912,20.143a.81.81,0,1,1-.617,1.5Z" transform="translate(-402.402 -328.865)" fill="#ccc"/>
  <path id="Path_55" data-name="Path 55" d="M503,415.664l-37.1-15.279a.81.81,0,1,1,.617-1.5l37.1,15.279a.81.81,0,1,1-.617,1.5Z" transform="translate(-394.323 -348.48)" fill="#ccc"/>
  <path id="Path_56" data-name="Path 56" d="M504.612,445.3,455.7,425.158a.81.81,0,1,1,.617-1.5L505.228,443.8a.81.81,0,1,1-.617,1.5Z" transform="translate(-386.245 -368.096)" fill="#ccc"/>
  <path id="Path_57" data-name="Path 57" d="M494.41,470.074,445.5,449.93a.81.81,0,1,1,.617-1.5l48.912,20.143a.81.81,0,1,1-.617,1.5Z" transform="translate(-378.167 -387.711)" fill="#ccc"/>
  <path id="Path_58" data-name="Path 58" d="M566.489,533.546a17.638,17.638,0,0,0,2.934-.09,6.342,6.342,0,0,0,2.559-.7,2.432,2.432,0,0,0,1.212-1.839,1.712,1.712,0,0,0-1.036-1.736,2.042,2.042,0,0,0-2.072.29,2.7,2.7,0,0,0-.926,2.155,4.965,4.965,0,0,0,2.823,4.005,3.022,3.022,0,0,0,4.323-1.805c.088-.4-.457-.539-.685-.282a1.816,1.816,0,0,0,2.534,2.592l-.613-.252a4.37,4.37,0,0,0,3.006,3.175,4.053,4.053,0,0,0,1.118.17,4.776,4.776,0,0,1,1.374.376l3.174,1.034c.467.152.763-.557.292-.71l-2.874-.936c-.479-.156-.957-.316-1.437-.468a8.518,8.518,0,0,0-1.078-.114,3.6,3.6,0,0,1-2.815-2.633.388.388,0,0,0-.613-.252,1.051,1.051,0,1,1-1.462-1.51l-.685-.282a2.209,2.209,0,0,1-2.876,1.347,4.357,4.357,0,0,1-2.631-2.791,2.251,2.251,0,0,1,.164-1.791,1.341,1.341,0,0,1,1.405-.688.962.962,0,0,1,.822,1.056,1.721,1.721,0,0,1-.959,1.3,6.223,6.223,0,0,1-2.271.544,16.41,16.41,0,0,1-2.618.074C566.092,532.759,565.994,533.521,566.489,533.546Z" transform="translate(-474.108 -451.566)" fill="#6c63ff"/>
  <path id="Path_59" data-name="Path 59" d="M280.852,248.034v61H171.76V237h17.072l15.741,11.034Z" transform="translate(-136.001 -187.659)" fill="#fff"/>
  <rect id="Rectangle_9" data-name="Rectangle 9" width="44.553" height="3.539" transform="translate(42.421 109.925)" fill="#021155"/>
  <rect id="Rectangle_10" data-name="Rectangle 10" width="22.276" height="3.539" transform="translate(42.421 103.055)" fill="#021155"/>
  <path id="Path_60" data-name="Path 60" d="M404.268,465.451H294.76V393h17.346l15.742,11.034h76.421Zm-109.092-.416H403.852V404.451H327.716l-15.742-11.034h-16.8Z" transform="translate(-259.209 -343.867)" fill="#3f3d56"/>
  <path id="Path_61" data-name="Path 61" d="M869.071,494.484,865.38,495.8l-6.845-13.61,5.448-1.947Z" transform="translate(-679.796 -380.263)" fill="#9f616a"/>
  <path id="Path_62" data-name="Path 62" d="M985.343,707.267l-.054-.151a4.926,4.926,0,0,1,2.977-6.289l7.27-2.6,1.71,4.784Z" transform="translate(-805.75 -585.551)" fill="#2f2e41"/>
  <path id="Path_63" data-name="Path 63" d="M771.847,508.666h-3.92l-1.865-15.12h5.785Z" transform="translate(-606.575 -390.794)" fill="#9f616a"/>
  <path id="Path_64" data-name="Path 64" d="M874.577,722.1h-12.64v-.16a4.92,4.92,0,0,1,4.92-4.92h7.72Z" transform="translate(-708.305 -600.432)" fill="#2f2e41"/>
  <path id="Path_65" data-name="Path 65" d="M927.925,246.375l-1.7-3.369s-6.351,1.591-6.928,5.272Z" transform="translate(-753.719 -225.1)" fill="#6c63ff"/>
  <path id="Path_66" data-name="Path 66" d="M777.817,284.766l-4.636,25.872,12.31,21.77-7.354,2.878-12.47-21.1-1.6-5.755-.959,30.056-6.632-.2-3.041-28.065,4.877-26.09Z" transform="translate(-596.577 -224.974)" fill="#2f2e41"/>
  <path id="Path_67" data-name="Path 67" d="M907.251,278.367l-.16-15.171a17.331,17.331,0,0,0-4.818-11.607,2.77,2.77,0,0,0-1.471-1.808,4.383,4.383,0,0,0-3.209.162l-5.175,1.94-.024.071c-.055.162-5.277,17.3-6.588,21.6-.187.617-.294.97-.294.97s.02.995.057,2.541c.116,5.318.39,17.162.5,17.659,0,0,9.559,1.449,13.345,1.449a42.655,42.655,0,0,0,11.232-1.325l.156-.032Z" transform="translate(-726.971 -230.264)" fill="#021155"/>
  <circle id="Ellipse_1" data-name="Ellipse 1" cx="6.997" cy="6.997" r="6.997" transform="translate(157.711 7.064) rotate(-28.663)" fill="#9f616a"/>
  <path id="Path_68" data-name="Path 68" d="M894.952,366.534l-9.385,1.908c-.036-1.547-.057-2.541-.057-2.541s.108-.353.294-.97Z" transform="translate(-726.971 -321.642)" opacity="0.2"/>
  <path id="Path_69" data-name="Path 69" d="M793.3,342.779a3,3,0,0,0,4.542-.756l10.461,2.1-2.081-5.14-9.615-1.208a3.019,3.019,0,0,0-3.307,5Z" transform="translate(-653.115 -299.886)" fill="#9f616a"/>
  <path id="Path_70" data-name="Path 70" d="M713.776,184.341l-3.768-.521-1.257,5.236,4.757.272Z" transform="translate(-561.195 -145.55)" fill="#6c63ff"/>
  <path id="Path_71" data-name="Path 71" d="M842.791,283.931l11.149-1.237,5.915-10.494a5.126,5.126,0,0,1,9.426,3.808l-.034.13L859.3,290.645l-18.592.917Z" transform="translate(-691.499 -246.149)" fill="#021155"/>
  <path id="Path_72" data-name="Path 72" d="M903.663,172.923l-5.807.208c-.354.013-1.315-3.808-1.44-4.6a2.163,2.163,0,0,0-2.256-1.75c-.435.041-1.531-.771-2.662-1.733a4.266,4.266,0,0,1,.323-6.8q.1-.063.19-.116A10.335,10.335,0,0,1,896.944,157a9.227,9.227,0,0,1,4.5.907c2.442,1.312,3.741,4.179,3.855,6.948a20.211,20.211,0,0,1-1.781,8.06" transform="translate(-730.497 -157)" fill="#2f2e41"/>
  <path id="Path_73" data-name="Path 73" d="M321.99,741.416H124.208a.208.208,0,1,1,0-.416H321.99a.208.208,0,1,1,0,.416Z" transform="translate(-124 -619.416)" fill="#cbcbcb"/>
</svg>
