<svg xmlns="http://www.w3.org/2000/svg" xmlns:xlink="http://www.w3.org/1999/xlink" width="24" height="24" viewBox="0 0 24 24">
  <defs>
    <clipPath id="clip-Word-FileType">
      <rect width="24" height="24"/>
    </clipPath>
  </defs>
  <g id="Word-FileType" clip-path="url(#clip-Word-FileType)">
    <rect width="24" height="24" fill="#fff"/>
    <g id="Word-FileType-2" data-name="Word-FileType">
      <rect id="Rectangle" width="24" height="24" fill="none"/>
      <path id="Path_717" d="M8.7,12H9.937l.7,3.427L11.585,12H12.7l.847,3.427L14.25,12h1.076L14.25,17H12.874l-.79-3.281L11.221,17H9.939Z" fill="#2b579a"/>
      <path id="Combined-Shape" d="M15.076,2,20,7.1V21a1,1,0,0,1-1,1H5a1,1,0,0,1-1-1V3A1,1,0,0,1,5,2Zm-.035,2H6V20H18V6.961Z" fill="#2b579a" fill-rule="evenodd"/>
      <path id="Path-2" d="M14,2h1.078L20,7.1v.914H14Z" fill="#2b579a" fill-rule="evenodd"/>
    </g>
  </g>
</svg>
