<svg xmlns="http://www.w3.org/2000/svg" xmlns:xlink="http://www.w3.org/1999/xlink" width="24" height="24" viewBox="0 0 24 24">
  <defs>
    <clipPath id="clip-path">
      <path id="Path_714" data-name="Path 714" d="M7.312-19a.583.583,0,0,0-.562.6V-5.6a.583.583,0,0,0,.563.6h9.375a.583.583,0,0,0,.563-.6v-9.993L13.923-19Zm0-1h7.031l3.906,4V-5.6A1.582,1.582,0,0,1,16.688-4H7.312A1.582,1.582,0,0,1,5.75-5.6V-18.4A1.582,1.582,0,0,1,7.312-20Z" fill="#217346"/>
    </clipPath>
    <clipPath id="clip-path-2">
      <path id="Path_716" data-name="Path 716" d="M13.75-20h.595l3.912,4v1H14.75a1,1,0,0,1-1-1Z" fill="#217346" clip-rule="evenodd"/>
    </clipPath>
  </defs>
  <g id="MS_Excel" data-name="MS Excel" transform="translate(-103 -86)">
    <rect id="Rectangle_899" data-name="Rectangle 899" width="24" height="24" transform="translate(103 86)" fill="none"/>
    <g id="Group_2233" data-name="Group 2233">
      <path id="Path_704" data-name="Path 704" d="M21.725,45.927h1.406L21.282,43.2l1.536-2.27H21.413l-.833,1.231-.833-1.231H18.34l1.537,2.27-1.848,2.73h3.055l-.5-.807H19.98l.6-.885Z" transform="translate(94.672 56.073)" fill="#217346"/>
      <g id="Group_2229" data-name="Group 2229" transform="translate(103.25 110)" clip-path="url(#clip-path)">
        <path id="Path_713" data-name="Path 713" d="M.75,1h22.5V-25H.75Z" fill="#217346"/>
      </g>
      <g id="Group_2230" data-name="Group 2230" transform="translate(103.25 110)" clip-path="url(#clip-path-2)">
        <path id="Path_715" data-name="Path 715" d="M8.75-10H23.256V-25H8.75Z" fill="#217346"/>
      </g>
    </g>
  </g>
</svg>
