<svg xmlns="http://www.w3.org/2000/svg" width="125.098" height="114.781" viewBox="0 0 125.098 114.781">
  <g id="Group_2009" data-name="Group 2009" transform="translate(-553.288 -420)">
    <rect id="Rectangle_1117" data-name="Rectangle 1117" width="46.418" height="74.957" rx="4" transform="translate(600.409 421.718) rotate(8)" fill="#e1e1e2"/>
    <g id="Rectangle_1118" data-name="Rectangle 1118" transform="translate(603.845 420) rotate(8)" fill="#fff" stroke="#a3a3a3" stroke-width="2">
      <rect width="46.418" height="74.957" rx="4" stroke="none"/>
      <rect x="1" y="1" width="44.418" height="72.957" rx="3" fill="none"/>
    </g>
    <path id="Path_740" data-name="Path 740" d="M5909.433,278.837a8.516,8.516,0,0,1,1.019-6.067,6.747,6.747,0,0,1,5.639-3.076" transform="translate(-5292.957 163.163)" fill="none" stroke="#dedfe0" stroke-linecap="round" stroke-width="4"/>
    <path id="Path_741" data-name="Path 741" d="M5916.233,269.622a6.942,6.942,0,0,1,7.219,4.466,7.228,7.228,0,0,1-6.146,10.031,7.736,7.736,0,0,1-7.829-5.6" transform="translate(-5293.101 163.222)" fill="none" stroke="#021155" stroke-linecap="round" stroke-width="4"/>
    <path id="Path_742" data-name="Path 742" d="M5894.866,341.132l15.276,2.136" transform="translate(-5283.17 116.279)" fill="none" stroke="#dedfe0" stroke-linecap="round" stroke-width="4"/>
    <path id="Path_744" data-name="Path 744" d="M5894.866,341.132l15.276,2.136" transform="translate(-5280.075 124.001)" fill="none" stroke="#dedfe0" stroke-linecap="round" stroke-width="4"/>
    <rect id="Rectangle_1119" data-name="Rectangle 1119" width="46.648" height="72.094" rx="4" transform="translate(553.288 449.529) rotate(-11)" fill="#e1e1e2"/>
    <g id="Rectangle_1120" data-name="Rectangle 1120" transform="translate(556.966 445.906) rotate(-8)" fill="#fff" stroke="#a3a3a3" stroke-width="2">
      <rect width="47.793" height="74.957" rx="4" stroke="none"/>
      <rect x="1" y="1" width="45.793" height="72.957" rx="3" fill="none"/>
    </g>
    <rect id="Rectangle_1121" data-name="Rectangle 1121" width="2.063" height="12.034" rx="1.032" transform="matrix(0.995, -0.105, 0.105, 0.995, 568.465, 454.069)" fill="#dedfe0"/>
    <rect id="Rectangle_1122" data-name="Rectangle 1122" width="2.063" height="12.034" rx="1.032" transform="matrix(0.995, -0.105, 0.105, 0.995, 565.715, 454.413)" fill="#dedfe0"/>
    <rect id="Rectangle_1123" data-name="Rectangle 1123" width="2.063" height="12.034" rx="1.032" transform="matrix(0.995, -0.105, 0.105, 0.995, 571.56, 453.726)" fill="#dedfe0"/>
    <rect id="Rectangle_1124" data-name="Rectangle 1124" width="2.063" height="12.034" rx="1.032" transform="matrix(0.995, -0.105, 0.105, 0.995, 574.654, 453.382)" fill="#dedfe0"/>
    <rect id="Rectangle_1125" data-name="Rectangle 1125" width="2.063" height="12.034" rx="1.032" transform="matrix(0.995, -0.105, 0.105, 0.995, 577.749, 452.694)" fill="#dedfe0"/>
    <rect id="Rectangle_1126" data-name="Rectangle 1126" width="2.063" height="12.034" rx="1.032" transform="matrix(0.995, -0.105, 0.105, 0.995, 581.187, 452.35)" fill="#dedfe0"/>
    <rect id="Rectangle_1127" data-name="Rectangle 1127" width="2.063" height="12.034" rx="1.032" transform="matrix(0.995, -0.105, 0.105, 0.995, 584.626, 452.006)" fill="#dedfe0"/>
    <rect id="Rectangle_1128" data-name="Rectangle 1128" width="2.063" height="12.034" rx="1.032" transform="matrix(0.995, -0.105, 0.105, 0.995, 587.72, 451.663)" fill="#dedfe0"/>
    <rect id="Rectangle_1129" data-name="Rectangle 1129" width="2.063" height="12.034" rx="1.032" transform="matrix(0.995, -0.105, 0.105, 0.995, 591.158, 451.319)" fill="#dedfe0"/>
    <rect id="Rectangle_1130" data-name="Rectangle 1130" width="2.063" height="12.034" rx="1.032" transform="matrix(0.995, -0.105, 0.105, 0.995, 594.253, 450.975)" fill="#dedfe0"/>
    <rect id="Rectangle_1131" data-name="Rectangle 1131" width="2.063" height="12.034" rx="1.032" transform="matrix(0.995, -0.105, 0.105, 0.995, 597.348, 450.631)" fill="#dedfe0"/>
    <rect id="Rectangle_1132" data-name="Rectangle 1132" width="2.063" height="4.47" rx="1.032" transform="matrix(0.995, -0.105, 0.105, 0.995, 566.505, 461.936)" fill="#021155"/>
    <rect id="Rectangle_1133" data-name="Rectangle 1133" width="2.063" height="6.189" rx="1.032" transform="matrix(0.995, -0.105, 0.105, 0.995, 569.076, 459.883)" fill="#021155"/>
    <rect id="Rectangle_1134" data-name="Rectangle 1134" width="2.063" height="8.596" rx="1.032" transform="matrix(0.995, -0.105, 0.105, 0.995, 571.919, 457.145)" fill="#021155"/>
    <rect id="Rectangle_1135" data-name="Rectangle 1135" width="2.063" height="4.126" rx="1.032" transform="matrix(0.995, -0.105, 0.105, 0.995, 575.481, 461.247)" fill="#021155"/>
    <rect id="Rectangle_1136" data-name="Rectangle 1136" width="2.063" height="6.189" rx="1.032" transform="matrix(0.995, -0.105, 0.105, 0.995, 578.36, 458.507)" fill="#021155"/>
    <rect id="Rectangle_1137" data-name="Rectangle 1137" width="2.063" height="10.659" rx="1.032" transform="matrix(0.995, -0.105, 0.105, 0.995, 581.331, 453.718)" fill="#021155"/>
    <rect id="Rectangle_1138" data-name="Rectangle 1138" width="2.063" height="8.596" rx="1.032" transform="matrix(0.995, -0.105, 0.105, 0.995, 584.985, 455.426)" fill="#021155"/>
    <rect id="Rectangle_1139" data-name="Rectangle 1139" width="2.063" height="4.47" rx="1.032" transform="matrix(0.995, -0.105, 0.105, 0.995, 588.511, 459.185)" fill="#021155"/>
    <rect id="Rectangle_1140" data-name="Rectangle 1140" width="2.063" height="2.407" rx="1.032" transform="matrix(0.995, -0.105, 0.105, 0.995, 592.165, 460.893)" fill="#021155"/>
    <rect id="Rectangle_1141" data-name="Rectangle 1141" width="2.063" height="10.659" rx="1.032" transform="matrix(0.995, -0.105, 0.105, 0.995, 594.397, 452.343)" fill="#021155"/>
    <rect id="Rectangle_1142" data-name="Rectangle 1142" width="2.063" height="8.94" rx="1.032" transform="matrix(0.995, -0.105, 0.105, 0.995, 597.671, 453.709)" fill="#021155"/>
    <rect id="Rectangle_1143" data-name="Rectangle 1143" width="34.384" height="1.375" rx="0.688" transform="translate(566.897 468.032) rotate(-7)" fill="#ccdde9"/>
    <rect id="Rectangle_1144" data-name="Rectangle 1144" width="16.16" height="4.25" rx="2.125" transform="translate(568.164 478.338) rotate(-8)" fill="#dedfe0"/>
    <rect id="Rectangle_1145" data-name="Rectangle 1145" width="16.16" height="4.25" rx="2.125" transform="translate(569.54 486.341) rotate(-8)" fill="#dedfe0"/>
    <rect id="Rectangle_1146" data-name="Rectangle 1146" width="16.16" height="4.25" rx="2.125" transform="translate(586.388 475.243) rotate(-8)" fill="#dedfe0"/>
    <rect id="Rectangle_1147" data-name="Rectangle 1147" width="16.16" height="4.25" rx="2.125" transform="translate(587.763 483.246) rotate(-8)" fill="#dedfe0"/>
    <rect id="Rectangle_1148" data-name="Rectangle 1148" width="35.071" height="2.407" rx="1.203" transform="translate(571.366 501.337) rotate(-8)" fill="#dedfe0"/>
    <rect id="Rectangle_1149" data-name="Rectangle 1149" width="35.071" height="2.407" rx="1.203" transform="translate(572.398 507.182) rotate(-8)" fill="#dedfe0"/>
    <rect id="Rectangle_1150" data-name="Rectangle 1150" width="44.816" height="70.376" rx="4" transform="matrix(0.921, 0.391, -0.391, 0.921, 637.133, 450.722)" fill="#e1e1e2"/>
    <g id="Rectangle_1151" data-name="Rectangle 1151" transform="matrix(0.921, 0.391, -0.391, 0.921, 632.428, 447.378)" fill="#fff" stroke="#a3a3a3" stroke-width="2">
      <rect width="47.106" height="74.957" rx="4" stroke="none"/>
      <rect x="1" y="1" width="45.106" height="72.957" rx="3" fill="none"/>
    </g>
    <path id="Path_745" data-name="Path 745" d="M5923.054,443.654l-7.7,18.094,17.458,7.813" transform="translate(-5296.959 49.008)" fill="none" stroke="#021155" stroke-linecap="round" stroke-linejoin="round" stroke-width="4"/>
    <path id="Path_746" data-name="Path 746" d="M5923.392,481.42l11.932-5.971,2.063,6.63,6.043-3.116" transform="translate(-5302.231 28.146)" fill="none" stroke="#021155" stroke-linecap="round" stroke-linejoin="round" stroke-width="4"/>
    <path id="Path_750" data-name="Path 750" d="M5950.3,363.918l5.994,3.122" transform="translate(-5325.386 115.737)" fill="none" stroke="#dedfe0" stroke-linecap="round" stroke-width="4"/>
    <path id="Path_752" data-name="Path 752" d="M5950.3,363.918l24.891,12.813" transform="translate(-5317.401 101.432)" fill="none" stroke="#dedfe0" stroke-linecap="round" stroke-width="4"/>
    <path id="Path_753" data-name="Path 753" d="M0,0,19.768,10.51" transform="matrix(1, -0.017, 0.017, 1, 628.902, 472.269)" fill="none" stroke="#dedfe0" stroke-linecap="round" stroke-width="4"/>
  </g>
</svg>
