<svg xmlns="http://www.w3.org/2000/svg" xmlns:xlink="http://www.w3.org/1999/xlink" width="42.778" height="36.667" viewBox="0 0 42.778 36.667"><defs><style>.a{fill:#021155;}.b{clip-path:url(#a);}.c{clip-path:url(#b);}.d{clip-path:url(#c);}.e{clip-path:url(#e);}.f{clip-path:url(#g);}.g{clip-path:url(#i);}</style><clipPath id="a"><path class="a" d="M96.478-89.173,87.82-96.992H65.333l-8.658,7.819L55.483-90.5l9.166-8.279H88.5L97.671-90.5Z" transform="translate(-55.483 98.78)"/></clipPath><clipPath id="b"><path class="a" d="M-98,53.222H131.167V-443H-98Z" transform="translate(98 443)"/></clipPath><clipPath id="c"><path class="a" d="M95.1-69.959H57.674A2.681,2.681,0,0,1,55-72.642V-85.61H69.259v.894a4.022,4.022,0,0,0,4.01,4.024h6.238a4.022,4.022,0,0,0,4.01-4.024v-.894H97.778v12.967A2.681,2.681,0,0,1,95.1-69.959ZM56.782-83.821v11.179a.894.894,0,0,0,.891.894H95.1A.894.894,0,0,0,96-72.642V-83.821H85.233A5.808,5.808,0,0,1,79.508-78.9H73.27a5.808,5.808,0,0,1-5.725-4.919Z" transform="translate(-55 85.61)"/></clipPath><clipPath id="e"><path class="a" d="M74.962-118.575l3.119,4.9-1.509.96-3.119-4.9Z" transform="translate(-73.453 118.575)"/></clipPath><clipPath id="g"><path class="a" d="M102.829-118.589l1.5.957-3.13,4.919-1.5-.957Z" transform="translate(-99.7 118.589)"/></clipPath><clipPath id="i"><path class="a" d="M88.542-120h1.782v5.813H88.542Z" transform="translate(-88.542 120)"/></clipPath></defs><g transform="translate(-900.611 -367.667)"><g class="b" transform="translate(900.906 380.634)"><g class="c" transform="translate(-93.795 -210.356)"><path class="a" d="M50.483-88.062h48.3V-103.78h-48.3Z" transform="translate(40.257 311.081)"/></g></g><g class="d" transform="translate(900.611 388.683)"><g class="c" transform="translate(-93.5 -218.405)"><path class="a" d="M50-68.848H98.889V-90.61H50Z" transform="translate(40.444 305.959)"/></g></g><g class="e" transform="translate(911.888 368.537)"><g class="c" transform="translate(-104.777 -198.259)"><path class="a" d="M73.215-125.478l6.4,10.057L72.95-111.18l-6.4-10.057Z" transform="translate(34.008 319.519)"/></g></g><g class="f" transform="translate(927.927 368.529)"><g class="c" transform="translate(-120.816 -198.251)"><path class="a" d="M99.207-125.492l6.66,4.237-6.41,10.075-6.66-4.237Z" transform="translate(23.801 319.524)"/></g></g><g class="g" transform="translate(921.109 367.667)"><g class="c" transform="translate(-113.998 -197.389)"><path class="a" d="M83.542-113.076h7.894V-125H83.542Z" transform="translate(27.4 319.333)"/></g></g></g></svg>