<svg width="126" height="115" viewBox="0 0 126 115" fill="none" xmlns="http://www.w3.org/2000/svg">
<g id="Empty state (illustrations)" clip-path="url(#clip0_268_3496)">
<g id="Group 2009">
<path id="Rectangle 1117" d="M89.5775 7.84094L51.5333 2.49419C49.3457 2.18674 47.323 3.71093 47.0156 5.89857L37.697 72.204C37.3895 74.3916 38.9137 76.4143 41.1013 76.7217L79.1455 82.0685C81.3331 82.3759 83.3558 80.8517 83.6632 78.6641L92.9818 12.3587C93.2893 10.1711 91.7651 8.1484 89.5775 7.84094Z" fill="#E1E1E2"/>
<g id="Rectangle 1118">
<path id="Vector" d="M93.0135 6.12219L54.9694 0.775442C52.7817 0.46799 50.7591 1.99218 50.4516 4.17982L41.133 70.4852C40.8255 72.6728 42.3497 74.6955 44.5374 75.003L82.5815 80.3497C84.7691 80.6572 86.7918 79.133 87.0993 76.9453L96.4179 10.64C96.7253 8.45232 95.2011 6.42965 93.0135 6.12219Z" fill="white"/>
<path id="Vector_2" d="M92.8743 7.11193L54.8302 1.76518C53.1894 1.53459 51.6724 2.67773 51.4419 4.31846L42.1232 70.6238C41.8927 72.2646 43.0358 73.7816 44.6765 74.0122L82.7206 79.3589C84.3614 79.5895 85.8784 78.4464 86.109 76.8056L95.4276 10.5003C95.6582 8.85952 94.515 7.34252 92.8743 7.11193Z" stroke="#A3A3A3" stroke-width="2"/>
</g>
<path id="Path 740" d="M63.639 22.2192C63.2108 20.1405 63.5743 17.9769 64.658 16.1522C65.2683 15.2112 66.1032 14.4371 67.0877 13.9001C68.0723 13.363 69.1752 13.0798 70.2967 13.0762" stroke="#DEDFE0" stroke-width="4" stroke-linecap="round"/>
<path id="Path 741" d="M70.2949 13.0628C71.8228 12.9036 73.3602 13.2556 74.6665 14.0638C75.9728 14.8719 76.9745 16.0906 77.5142 17.5288C77.9632 18.5882 78.1529 19.7394 78.0674 20.8869C77.9819 22.0343 77.6236 23.1447 77.0225 24.1259C76.4213 25.107 75.5948 25.9304 74.6113 26.5277C73.6279 27.1249 72.5159 27.4788 71.3682 27.5598C69.6225 27.6481 67.8982 27.1426 66.4766 26.1257C65.0549 25.1088 64.0195 23.6404 63.5391 21.9598" stroke="#021155" stroke-width="4" stroke-linecap="round"/>
<path id="Path 742" d="M58.8594 37.6289L74.1353 39.7649" stroke="#DEDFE0" stroke-width="4" stroke-linecap="round"/>
<path id="Path 744" d="M61.9541 45.3516L77.23 47.4876" stroke="#DEDFE0" stroke-width="4" stroke-linecap="round"/>
<path id="Rectangle 1119" d="M42.3156 21.6104L4.37768 28.9848C2.20913 29.4063 0.792884 31.506 1.21441 33.6746L13.4441 96.591C13.8656 98.7595 15.9653 100.176 18.1339 99.7542L56.0718 92.3799C58.2403 91.9583 59.6566 89.8587 59.2351 87.6901L47.0054 24.7737C46.5838 22.6051 44.4842 21.1889 42.3156 21.6104Z" fill="#E1E1E2"/>
<g id="Rectangle 1120">
<path id="Vector_3" d="M47.4957 20.0302L8.08998 25.5683C5.90234 25.8758 4.37815 27.8984 4.6856 30.0861L14.0042 96.3915C14.3117 98.5791 16.3343 100.103 18.522 99.7958L57.9277 94.2577C60.1154 93.9503 61.6395 91.9276 61.3321 89.74L52.0135 23.4346C51.706 21.2469 49.6834 19.7227 47.4957 20.0302Z" fill="white"/>
<path id="Vector_4" d="M47.6348 21.0209L8.2291 26.559C6.58838 26.7896 5.44523 28.3066 5.67582 29.9474L14.9944 96.2527C15.225 97.8935 16.742 99.0366 18.3828 98.806L57.7885 93.2679C59.4292 93.0373 60.5724 91.5203 60.3418 89.8796L51.0232 23.5742C50.7926 21.9335 49.2756 20.7903 47.6348 21.0209Z" stroke="#A3A3A3" stroke-width="2"/>
</g>
<path id="Rectangle 1121" d="M17.789 35.0973C17.7291 34.5302 17.2211 34.119 16.6543 34.1788C16.0874 34.2386 15.6764 34.7468 15.7363 35.3139L16.7831 45.2341C16.843 45.8012 17.351 46.2124 17.9178 46.1526C18.4847 46.0928 18.8957 45.5846 18.8358 45.0175L17.789 35.0973Z" fill="#DEDFE0"/>
<path id="Rectangle 1122" d="M15.039 35.4411C14.9791 34.874 14.4711 34.4627 13.9043 34.5226C13.3374 34.5824 12.9264 35.0906 12.9863 35.6577L14.0331 45.5778C14.093 46.145 14.601 46.5562 15.1678 46.4964C15.7347 46.4366 16.1457 45.9283 16.0858 45.3612L15.039 35.4411Z" fill="#DEDFE0"/>
<path id="Rectangle 1123" d="M20.8842 34.7555C20.8243 34.1884 20.3163 33.7772 19.7495 33.837C19.1827 33.8968 18.7717 34.405 18.8315 34.9722L19.8784 44.8923C19.9382 45.4594 20.4462 45.8707 21.0131 45.8108C21.5799 45.751 21.9909 45.2428 21.931 44.6757L20.8842 34.7555Z" fill="#DEDFE0"/>
<path id="Rectangle 1124" d="M23.9784 34.4118C23.9186 33.8447 23.4106 33.4334 22.8437 33.4933C22.2769 33.5531 21.8659 34.0613 21.9257 34.6284L22.9726 44.5486C23.0324 45.1157 23.5405 45.5269 24.1073 45.4671C24.6741 45.4073 25.0851 44.899 25.0253 44.3319L23.9784 34.4118Z" fill="#DEDFE0"/>
<path id="Rectangle 1125" d="M27.0732 33.7223C27.0133 33.1552 26.5053 32.744 25.9385 32.8038C25.3716 32.8636 24.9606 33.3718 25.0205 33.9389L26.0673 43.8591C26.1272 44.4262 26.6352 44.8374 27.202 44.7776C27.7689 44.7178 28.1799 44.2096 28.12 43.6425L27.0732 33.7223Z" fill="#DEDFE0"/>
<path id="Rectangle 1126" d="M30.5111 33.3786C30.4513 32.8115 29.9433 32.4002 29.3764 32.4601C28.8096 32.5199 28.3986 33.0281 28.4585 33.5952L29.5053 43.5153C29.5652 44.0825 30.0732 44.4937 30.64 44.4339C31.2068 44.3741 31.6178 43.8658 31.558 43.2987L30.5111 33.3786Z" fill="#DEDFE0"/>
<path id="Rectangle 1127" d="M33.9501 33.0348C33.8903 32.4677 33.3822 32.0565 32.8154 32.1163C32.2486 32.1761 31.8376 32.6843 31.8974 33.2514L32.9443 43.1716C33.0041 43.7387 33.5121 44.1499 34.079 44.0901C34.6458 44.0303 35.0568 43.5221 34.997 42.955L33.9501 33.0348Z" fill="#DEDFE0"/>
<path id="Rectangle 1128" d="M37.0443 32.6911C36.9845 32.124 36.4765 31.7127 35.9096 31.7726C35.3428 31.8324 34.9318 32.3406 34.9917 32.9077L36.0385 42.8278C36.0984 43.395 36.6064 43.8062 37.1732 43.7464C37.74 43.6866 38.151 43.1783 38.0912 42.6112L37.0443 32.6911Z" fill="#DEDFE0"/>
<path id="Rectangle 1129" d="M40.4823 32.3473C40.4225 31.7802 39.9145 31.369 39.3476 31.4288C38.7808 31.4886 38.3698 31.9968 38.4296 32.5639L39.4765 42.4841C39.5363 43.0512 40.0444 43.4624 40.6112 43.4026C41.178 43.3428 41.589 42.8346 41.5292 42.2675L40.4823 32.3473Z" fill="#DEDFE0"/>
<path id="Rectangle 1130" d="M43.5771 32.0036C43.5172 31.4365 43.0092 31.0252 42.4424 31.0851C41.8755 31.1449 41.4645 31.6531 41.5244 32.2202L42.5712 42.1403C42.6311 42.7075 43.1391 43.1187 43.7059 43.0589C44.2728 42.9991 44.6838 42.4908 44.6239 41.9237L43.5771 32.0036Z" fill="#DEDFE0"/>
<path id="Rectangle 1131" d="M46.6723 31.6598C46.6124 31.0927 46.1044 30.6815 45.5376 30.7413C44.9707 30.8011 44.5597 31.3093 44.6196 31.8764L45.6664 41.7966C45.7263 42.3637 46.2343 42.7749 46.8011 42.7151C47.368 42.6553 47.779 42.1471 47.7191 41.58L46.6723 31.6598Z" fill="#DEDFE0"/>
<path id="Rectangle 1132" d="M15.829 42.9645C15.7692 42.3974 15.2611 41.9862 14.6943 42.046C14.1275 42.1058 13.7165 42.614 13.7763 43.1811L14.029 45.5751C14.0888 46.1422 14.5968 46.5535 15.1637 46.4936C15.7305 46.4338 16.1415 45.9256 16.0816 45.3585L15.829 42.9645Z" fill="#021155"/>
<path id="Rectangle 1133" d="M18.4003 40.9118C18.3405 40.3447 17.8324 39.9334 17.2656 39.9933C16.6988 40.0531 16.2878 40.5613 16.3476 41.1284L16.7807 45.2328C16.8406 45.7999 17.3486 46.2111 17.9154 46.1513C18.4823 46.0915 18.8933 45.5833 18.8334 45.0162L18.4003 40.9118Z" fill="#021155"/>
<path id="Rectangle 1134" d="M21.2431 38.1735C21.1832 37.6064 20.6752 37.1952 20.1084 37.255C19.5415 37.3148 19.1305 37.823 19.1904 38.3901L19.8763 44.8895C19.9361 45.4566 20.4441 45.8678 21.011 45.808C21.5778 45.7482 21.9888 45.24 21.9289 44.6728L21.2431 38.1735Z" fill="#021155"/>
<path id="Rectangle 1135" d="M24.8051 42.2751C24.7452 41.708 24.2372 41.2967 23.6704 41.3565C23.1036 41.4164 22.6926 41.9246 22.7524 42.4917L22.9689 44.5434C23.0288 45.1105 23.5368 45.5217 24.1036 45.4619C24.6704 45.4021 25.0814 44.8939 25.0216 44.3268L24.8051 42.2751Z" fill="#021155"/>
<path id="Rectangle 1136" d="M27.684 39.5368C27.6241 38.9697 27.1161 38.5584 26.5493 38.6183C25.9825 38.6781 25.5715 39.1863 25.6313 39.7534L26.0644 43.8578C26.1243 44.4249 26.6323 44.8361 27.1991 44.7763C27.766 44.7165 28.177 44.2083 28.1171 43.6412L27.684 39.5368Z" fill="#021155"/>
<path id="Rectangle 1137" d="M30.6552 34.7477C30.5953 34.1806 30.0873 33.7694 29.5205 33.8292C28.9536 33.889 28.5427 34.3972 28.6025 34.9643L29.505 43.5164C29.5648 44.0835 30.0728 44.4947 30.6397 44.4349C31.2065 44.3751 31.6175 43.8669 31.5577 43.2997L30.6552 34.7477Z" fill="#021155"/>
<path id="Rectangle 1138" d="M34.309 36.4548C34.2491 35.8876 33.7411 35.4764 33.1743 35.5362C32.6075 35.596 32.1965 36.1043 32.2563 36.6714L32.9422 43.1707C33.002 43.7378 33.51 44.1491 34.0769 44.0892C34.6437 44.0294 35.0547 43.5212 34.9949 42.9541L34.309 36.4548Z" fill="#021155"/>
<path id="Rectangle 1139" d="M37.8354 40.2145C37.7755 39.6474 37.2675 39.2362 36.7007 39.296C36.1338 39.3558 35.7228 39.864 35.7827 40.4311L36.0353 42.8251C36.0952 43.3922 36.6032 43.8035 37.17 43.7436C37.7368 43.6838 38.1478 43.1756 38.088 42.6085L37.8354 40.2145Z" fill="#021155"/>
<path id="Rectangle 1140" d="M41.4892 41.9216C41.4293 41.3544 40.9213 40.9432 40.3545 41.003C39.7876 41.0628 39.3766 41.5711 39.4365 42.1382L39.4725 42.4795C39.5323 43.0466 40.0404 43.4578 40.6072 43.398C41.174 43.3382 41.585 42.8299 41.5252 42.2628L41.4892 41.9216Z" fill="#021155"/>
<path id="Rectangle 1141" d="M43.7211 33.3727C43.6613 32.8056 43.1532 32.3944 42.5864 32.4542C42.0196 32.514 41.6086 33.0222 41.6684 33.5893L42.5709 42.1414C42.6307 42.7085 43.1388 43.1197 43.7056 43.0599C44.2724 43.0001 44.6834 42.4919 44.6236 41.9247L43.7211 33.3727Z" fill="#021155"/>
<path id="Rectangle 1142" d="M46.995 34.738C46.9352 34.1709 46.4272 33.7596 45.8603 33.8194C45.2935 33.8792 44.8825 34.3875 44.9423 34.9546L45.6643 41.7962C45.7242 42.3633 46.2322 42.7745 46.799 42.7147C47.3659 42.6549 47.7769 42.1467 47.717 41.5796L46.995 34.738Z" fill="#021155"/>
<path id="Rectangle 1143" d="M47.5049 44.1435L14.7429 48.1662C14.3658 48.2125 14.0976 48.5555 14.1438 48.9324C14.1901 49.3092 14.5334 49.5772 14.9105 49.5309L47.6725 45.5082C48.0496 45.4619 48.3178 45.1189 48.2715 44.742C48.2253 44.3652 47.882 44.0972 47.5049 44.1435Z" fill="#CCDDE9"/>
<path id="Rectangle 1144" d="M29.2256 56.6033L17.4315 58.2609C16.2693 58.4242 15.4596 59.4988 15.6229 60.661C15.7862 61.8231 16.8608 62.6329 18.023 62.4695L29.817 60.812C30.9792 60.6487 31.789 59.5741 31.6256 58.4119C31.4623 57.2497 30.3877 56.44 29.2256 56.6033Z" fill="#DEDFE0"/>
<path id="Rectangle 1145" d="M30.6015 64.6073L18.8074 66.2648C17.6453 66.4281 16.8355 67.5027 16.9989 68.6649C17.1622 69.827 18.2367 70.6368 19.3989 70.4734L31.193 68.8159C32.3552 68.6526 33.1649 67.578 33.0016 66.4158C32.8383 65.2536 31.7637 64.4439 30.6015 64.6073Z" fill="#DEDFE0"/>
<path id="Rectangle 1146" d="M47.4497 53.5076L35.6556 55.1652C34.4934 55.3285 33.6837 56.4031 33.847 57.5653C34.0103 58.7274 35.0849 59.5372 36.2471 59.3738L48.0412 57.7163C49.2034 57.5529 50.0131 56.4784 49.8497 55.3162C49.6864 54.154 48.6119 53.3443 47.4497 53.5076Z" fill="#DEDFE0"/>
<path id="Rectangle 1147" d="M48.8247 61.5115L37.0306 63.1691C35.8684 63.3324 35.0587 64.407 35.222 65.5692C35.3853 66.7313 36.4599 67.5411 37.6221 67.3777L49.4162 65.7202C50.5784 65.5569 51.3881 64.4823 51.2247 63.3201C51.0614 62.1579 49.9869 61.3482 48.8247 61.5115Z" fill="#DEDFE0"/>
<path id="Rectangle 1148" d="M52.0677 76.8431L19.7206 81.3892C19.0627 81.4817 18.6043 82.09 18.6967 82.7479L18.6969 82.7489C18.7893 83.4069 19.3976 83.8653 20.0556 83.7728L52.4027 79.2267C53.0606 79.1342 53.519 78.5259 53.4266 77.868L53.4264 77.867C53.3339 77.2091 52.7256 76.7507 52.0677 76.8431Z" fill="#DEDFE0"/>
<path id="Rectangle 1149" d="M53.0994 82.6869L20.7523 87.233C20.0944 87.3254 19.636 87.9338 19.7285 88.5917L19.7286 88.5927C19.8211 89.2506 20.4294 89.709 21.0873 89.6165L53.4344 85.0705C54.0924 84.978 54.5508 84.3697 54.4583 83.7117L54.4582 83.7107C54.3657 83.0528 53.7574 82.5944 53.0994 82.6869Z" fill="#DEDFE0"/>
<path id="Rectangle 1150" d="M121.887 46.9005L87.9799 32.5054C85.9453 31.6416 83.5957 32.5908 82.7319 34.6254L58.3429 92.0737C57.4791 94.1083 58.4283 96.4579 60.4629 97.3217L94.3704 111.717C96.405 112.581 98.7547 111.631 99.6184 109.597L124.007 52.1485C124.871 50.1138 123.922 47.7642 121.887 46.9005Z" fill="#E1E1E2"/>
<g id="Rectangle 1151">
<path id="Vector_5" d="M119.292 44.4521L83.2753 29.1617C81.2407 28.2979 78.8911 29.247 78.0273 31.2817L51.8471 92.9491C50.9833 94.9837 51.9325 97.3333 53.9671 98.1971L89.9837 113.488C92.0184 114.351 94.368 113.402 95.2317 111.367L121.412 49.7001C122.276 47.6655 121.327 45.3159 119.292 44.4521Z" fill="white"/>
<path id="Vector_6" d="M118.901 45.3736L82.8841 30.0832C81.3581 29.4353 79.5959 30.1472 78.9481 31.6732L52.7679 93.3406C52.1201 94.8665 52.8319 96.6287 54.3579 97.2766L90.3745 112.567C91.9005 113.215 93.6627 112.503 94.3105 110.977L120.491 49.3096C121.139 47.7836 120.427 46.0214 118.901 45.3736Z" stroke="#A3A3A3" stroke-width="2.00112"/>
</g>
<path id="Path 745" d="M73.2583 72.8809L65.5581 90.9749L83.0161 98.7879" stroke="#021155" stroke-width="4" stroke-linecap="round" stroke-linejoin="round"/>
<path id="Path 746" d="M68.3242 89.7855L80.2563 83.8145L82.3193 90.4445L88.3623 87.3285" stroke="#021155" stroke-width="4" stroke-linecap="round" stroke-linejoin="round"/>
<path id="Path 750" d="M72.0771 59.873L78.0713 62.9951" stroke="#DEDFE0" stroke-width="4" stroke-linecap="round"/>
<path id="Path 752" d="M80.062 45.5684L104.953 58.3813" stroke="#DEDFE0" stroke-width="4" stroke-linecap="round"/>
<path id="Path 753" d="M76.0649 52.4883L96.0116 62.6622" stroke="#DEDFE0" stroke-width="4.00058" stroke-linecap="round"/>
</g>
</g>
<defs>
<clipPath id="clip0_268_3496">
<rect width="125.098" height="114.781" fill="white" transform="translate(0.451172 0.21875)"/>
</clipPath>
</defs>
</svg>
