<svg xmlns="http://www.w3.org/2000/svg" width="16" height="16" viewBox="0 0 16 16" fill="none">
  <path d="M7.33301 4.66668H8.66634V6.00001H7.33301V4.66668ZM7.33301 7.33334H8.66634V11.3333H7.33301V7.33334ZM7.99967 1.33334C4.31967 1.33334 1.33301 4.32001 1.33301 8.00001C1.33301 11.68 4.31967 14.6667 7.99967 14.6667C11.6797 14.6667 14.6663 11.68 14.6663 8.00001C14.6663 4.32001 11.6797 1.33334 7.99967 1.33334ZM7.99967 13.3333C5.05967 13.3333 2.66634 10.94 2.66634 8.00001C2.66634 5.06001 5.05967 2.66668 7.99967 2.66668C10.9397 2.66668 13.333 5.06001 13.333 8.00001C13.333 10.94 10.9397 13.3333 7.99967 13.3333Z" fill="#50505C"/>
</svg>