<svg xmlns="http://www.w3.org/2000/svg" width="16" height="16" viewBox="0 0 16 16">
  <g id="noun_Close_831609" transform="translate(-5 -5)">
    <g id="Group_7665" data-name="Group 7665" transform="translate(5 5)">
      <path id="Path_30709" data-name="Path 30709" d="M13,5h0a7.989,7.989,0,0,0-8,8H5a7.989,7.989,0,0,0,8,8h0a7.989,7.989,0,0,0,8-8h0A7.989,7.989,0,0,0,13,5Zm4.071,10.7a.955.955,0,0,1,0,1.351.928.928,0,0,1-.676.284.9.9,0,0,1-.676-.284l-2.667-2.667-2.684,2.667a.928.928,0,0,1-.676.284.9.9,0,0,1-.676-.284.955.955,0,0,1,0-1.351L11.7,13.018,9.018,10.351A.955.955,0,1,1,10.369,9l2.684,2.684L15.738,9a.955.955,0,0,1,1.351,1.351L14.4,13.036Z" transform="translate(-5 -5)" fill="#c62828"/>
    </g>
  </g>
</svg>
