<svg id="Group_9172" data-name="Group 9172" xmlns="http://www.w3.org/2000/svg" width="207.483" height="122" viewBox="0 0 207.483 122">
  <path id="Path_31837" data-name="Path 31837" d="M854.841,526.532c-1.987,6.893-7.789,11.719-13.841,15.818q-1.268.859-2.536,1.678l-.017.01c-.041.026-.081.052-.119.079l-.522.336.1.043s.093.05-.009.008l-.093-.037c-3.516-1.418-7.094-2.94-9.789-5.6-2.8-2.759-4.428-7.085-2.915-10.709a6.919,6.919,0,0,1,.749-1.345c.123-.176.255-.344.393-.509a7.416,7.416,0,0,1,12.737,2.254c.445-4.14-2.969-7.608-6.254-10.166s-7.021-5.342-7.656-9.459a8.024,8.024,0,0,1,1.893-6.292c.045-.054.09-.108.136-.161a10.823,10.823,0,0,1,6.956-3.732c5.039-.524,9.935,2.144,13.6,5.648C853.537,510.035,857.1,518.695,854.841,526.532Z" transform="translate(-653.969 -423.198)" fill="#f2f2f2"/>
  <path id="Path_31838" data-name="Path 31838" d="M848.5,526.435a18.4,18.4,0,0,1,2.2,4.862,15.975,15.975,0,0,1,.552,4.718,20.468,20.468,0,0,1-2.681,9.315,29.457,29.457,0,0,1-4.444,5.939q-1.268.859-2.536,1.678l-.017.01c-.041.026-.081.052-.119.079l-.522.336s.188.092.086.051l-.093-.037a16.141,16.141,0,0,0-11.954-17.651c.123-.176.255-.344.393-.509a17.025,17.025,0,0,1,2.811,1.064,16.685,16.685,0,0,1,7.544,7.274,17.059,17.059,0,0,1,1.857,9.361c.144-.131.289-.265.429-.4a29.91,29.91,0,0,0,6.651-8.65,19.041,19.041,0,0,0,1.994-9.01,17.21,17.21,0,0,0-3.45-9.3,39.863,39.863,0,0,0-7.556-7.787,45.291,45.291,0,0,0-9.4-5.8.326.326,0,0,1-.164-.418.277.277,0,0,1,.136-.161.241.241,0,0,1,.209.009c.415.191.826.384,1.234.586a45.806,45.806,0,0,1,9.464,6.243A36.881,36.881,0,0,1,848.5,526.435Z" transform="translate(-657.1 -432.117)" fill="#fff"/>
  <path id="Path_31839" data-name="Path 31839" d="M646.183,424.055a2.992,2.992,0,0,0,1.57-4.311L654.7,411.7l-5.479-.713-5.76,7.751a3.008,3.008,0,0,0,2.719,5.32Z" transform="translate(-525.852 -361.593)" fill="#ffb8b8"/>
  <path id="Path_31840" data-name="Path 31840" d="M774.94,425.369a2.992,2.992,0,0,0-.7-4.534l2.209-10.4-5.144,2.017-1.309,9.568a3.008,3.008,0,0,0,4.947,3.35Z" transform="translate(-615.432 -361.207)" fill="#ffb8b8"/>
  <path id="Path_31841" data-name="Path 31841" d="M439.68,364.581h-3.648L434.3,350.51h5.384Z" transform="translate(-305.067 -246.212)" fill="#ffb8b8"/>
  <path id="Path_31842" data-name="Path 31842" d="M679.108,643.523H667.345v-.149a4.578,4.578,0,0,1,4.578-4.578h7.184Z" transform="translate(-543.564 -521.617)" fill="#2f2e41"/>
  <path id="Path_31843" data-name="Path 31843" d="M499.68,364.581h-3.648L494.3,350.51h5.384Z" transform="translate(-347.214 -246.212)" fill="#ffb8b8"/>
  <path id="Path_31844" data-name="Path 31844" d="M739.108,643.523H727.345v-.149a4.578,4.578,0,0,1,4.578-4.578h7.185Z" transform="translate(-585.711 -521.617)" fill="#2f2e41"/>
  <path id="Path_31845" data-name="Path 31845" d="M689.8,496.24l-5.164-.207a1.343,1.343,0,0,1-1.285-1.379l1.455-47.723.1-.034c9.051-3.274,16.538-3.026,22.89.756l.071.042.872,46.48a1.339,1.339,0,0,1-1.339,1.364h-4.354a1.342,1.342,0,0,1-1.314-1.081L695.8,464.284a.446.446,0,0,0-.881.033l-3.731,30.747a1.347,1.347,0,0,1-1.33,1.177Z" transform="translate(-554.808 -385.218)" fill="#2f2e41"/>
  <circle id="Ellipse_372" data-name="Ellipse 372" cx="7.308" cy="7.308" r="7.308" transform="translate(132.709 5.246)" fill="#ffb8b8"/>
  <path id="Path_31846" data-name="Path 31846" d="M658.717,360.457a1.34,1.34,0,0,1-.622-.5l-1.412-2.113a1.344,1.344,0,0,1,.035-1.538l5.693-7.727,3.567-17.113a4.314,4.314,0,1,1,8.039,3.13l-1.686,10.891a13.8,13.8,0,0,1-4.768,8.463l-7.494,6.289a1.34,1.34,0,0,1-1.05.3A1.325,1.325,0,0,1,658.717,360.457Z" transform="translate(-535.917 -303.804)" fill="#021155"/>
  <path id="Path_31847" data-name="Path 31847" d="M753.387,361.614a1.341,1.341,0,0,1-.8.034L750.132,361a1.343,1.343,0,0,1-.99-1.178l-.832-9.562-8.63-15.2a4.314,4.314,0,0,1,8.1-2.962l5.931,9.289a13.8,13.8,0,0,1,2.013,9.5l-1.47,9.672a1.34,1.34,0,0,1-.59.919,1.324,1.324,0,0,1-.28.14Z" transform="translate(-594.191 -304.186)" fill="#021155"/>
  <path id="Path_31848" data-name="Path 31848" d="M687.228,321.225a12.445,12.445,0,0,1,9.979-4.035l.365.026h0a12.418,12.418,0,0,1,8.974,4.953,12.605,12.605,0,0,1,2.239,10.16,39.385,39.385,0,0,0,1.04,20.2l1.961,6.088a1.339,1.339,0,0,1-1.2,1.747l-10.023.539L698,356.47v4.568l-12.182.655-.072,0a1.339,1.339,0,0,1-1.334-1.447l1.377-17.075-1.727-11.6a12.524,12.524,0,0,1,3.171-10.352Z" transform="translate(-555.205 -295.692)" fill="#021155"/>
  <path id="Path_31849" data-name="Path 31849" d="M704.173,272.776c-.677.389-3.351.647-3.542-.11l0-.017a5.7,5.7,0,0,1,.016-1.7,2.134,2.134,0,0,0-.405-1.613c-.722-.78-2.008-.366-3.052-.564a2.578,2.578,0,0,1-2.006-2.753c.015-.118.038-.237.064-.355a1.986,1.986,0,0,0-2.061-2.4c-1.056.06-2.2.38-3.069-.4a3.352,3.352,0,0,1-.544-3.036c.5-1.44,3.694-2.193,5.089-2.608a12.087,12.087,0,0,1,10.245,1.681,5.425,5.425,0,0,1,2.08,2.412,2.641,2.641,0,0,1-.652,2.952,5.455,5.455,0,0,1,1.263,5.3C707.177,270.9,705.181,272.2,704.173,272.776Z" transform="translate(-559.077 -253.245)" fill="#2f2e41"/>
  <path id="Path_31850" data-name="Path 31850" d="M361.419,381.6H295.658a.3.3,0,0,1,0-.6h65.761a.3.3,0,1,1,0,.6Z" transform="translate(-282.268 -340.532)" fill="#e6e6e6"/>
  <path id="Path_31851" data-name="Path 31851" d="M380.031,381.6H342.658a.3.3,0,0,1,0-.6h37.373a.3.3,0,1,1,0,.6Z" transform="translate(-315.282 -340.532)" fill="#3f3d56"/>
  <path id="Path_31852" data-name="Path 31852" d="M406.658,337.341a.3.3,0,0,1-.3-.3V318.3a.3.3,0,1,1,.6,0v18.746a.3.3,0,0,1-.3.3Z" transform="translate(-360.238 -296.278)" fill="#3f3d56"/>
  <path id="Path_31853" data-name="Path 31853" d="M469.658,293.088a.3.3,0,0,1-.3-.3V255.3a.3.3,0,1,1,.6,0V292.79a.3.3,0,0,1-.3.3Z" transform="translate(-404.492 -252.024)" fill="#3f3d56"/>
  <circle id="Ellipse_373" data-name="Ellipse 373" cx="3.273" cy="3.273" r="3.273" fill="#e6e6e6"/>
  <circle id="Ellipse_374" data-name="Ellipse 374" cx="3.273" cy="3.273" r="3.273" transform="translate(0 18.746)" fill="#e6e6e6"/>
  <circle id="Ellipse_375" data-name="Ellipse 375" cx="3.273" cy="3.273" r="3.273" transform="translate(0 37.493)" fill="#e6e6e6"/>
  <path id="Path_31854" data-name="Path 31854" d="M361.419,255.6H295.658a.3.3,0,0,1,0-.6h65.761a.3.3,0,1,1,0,.6Z" transform="translate(-282.268 -252.024)" fill="#e6e6e6"/>
  <path id="Path_31855" data-name="Path 31855" d="M361.419,318.6H295.658a.3.3,0,0,1,0-.6h65.761a.3.3,0,1,1,0,.6Z" transform="translate(-282.268 -296.278)" fill="#e6e6e6"/>
  <circle id="Ellipse_376" data-name="Ellipse 376" cx="3.273" cy="3.273" r="3.273" transform="translate(24.251 37.493)" fill="#021155"/>
  <circle id="Ellipse_377" data-name="Ellipse 377" cx="3.273" cy="3.273" r="3.273" transform="translate(43.146 18.746)" fill="#021155"/>
  <circle id="Ellipse_378" data-name="Ellipse 378" cx="3.273" cy="3.273" r="3.273" transform="translate(43.146 37.493)" fill="#021155"/>
  <circle id="Ellipse_379" data-name="Ellipse 379" cx="3.273" cy="3.273" r="3.273" transform="translate(61.893)" fill="#021155"/>
  <circle id="Ellipse_380" data-name="Ellipse 380" cx="3.273" cy="3.273" r="3.273" transform="translate(61.893 18.746)" fill="#021155"/>
  <circle id="Ellipse_381" data-name="Ellipse 381" cx="3.273" cy="3.273" r="3.273" transform="translate(61.893 37.493)" fill="#021155"/>
  <path id="Path_31856" data-name="Path 31856" d="M638.567,653.6H507.937a.3.3,0,1,1,0-.6H638.567a.3.3,0,0,1,0,.6Z" transform="translate(-431.381 -531.595)" fill="#3f3d56"/>
  <path id="Path_31857" data-name="Path 31857" d="M548.263,566.016q-.3-.015-.6-.016a11.307,11.307,0,0,0-11.307,11.307h11.9Z" transform="translate(-451.555 -470.483)" fill="#021155"/>
  <path id="Path_31858" data-name="Path 31858" d="M556.965,600.247a11.618,11.618,0,0,1-11.6-11.6.3.3,0,0,1,.3-.3h11.6V577.35a.3.3,0,0,1,.093-.216.291.291,0,0,1,.22-.081,11.6,11.6,0,0,1-.611,23.194Zm-11.006-11.307a11.01,11.01,0,1,0,11.9-11.271v10.974a.3.3,0,0,1-.3.3Z" transform="translate(-457.877 -478.246)" fill="#3f3d56"/>
</svg>
