<svg id="Pipelines" xmlns="http://www.w3.org/2000/svg" width="24" height="24" viewBox="0 0 24 24">
  <path id="Path" d="M0,0H24V24H0Z" fill="none" fill-rule="evenodd"/>
  <path id="Shape" d="M2.9,18.367H19.061a.9.9,0,0,0,.9-.9v-1.8a.9.9,0,0,0-.9-.9H2.9a.9.9,0,0,0-.9.9v1.8A.9.9,0,0,0,2.9,18.367Zm.9-2.694h1.8v1.8H3.8ZM2,4.9v1.8a.9.9,0,0,0,.9.9H19.061a.9.9,0,0,0,.9-.9V4.9a.9.9,0,0,0-.9-.9H2.9A.9.9,0,0,0,2,4.9Zm3.592,1.8H3.8V4.9h1.8ZM2.9,12.979H19.061a.9.9,0,0,0,.9-.9v-1.8a.9.9,0,0,0-.9-.9H2.9a.9.9,0,0,0-.9.9v1.8A.9.9,0,0,0,2.9,12.979Zm.9-2.694h1.8v1.8H3.8Z" transform="translate(1.021 0.817)" fill="#fff"/>
</svg>
