<svg xmlns="http://www.w3.org/2000/svg" xmlns:xlink="http://www.w3.org/1999/xlink" width="24" height="24" viewBox="0 0 24 24">
  <defs>
    <clipPath id="clip-PPT-FileType">
      <rect width="24" height="24"/>
    </clipPath>
  </defs>
  <g id="PPT-FileType" clip-path="url(#clip-PPT-FileType)">
    <rect width="24" height="24" fill="#fff"/>
    <g id="PPT-FileType-2" data-name="PPT-FileType">
      <rect id="Rectangle" width="24" height="24" fill="none"/>
      <path id="Combined-Shape" d="M15.076,2,20,7.1V21a1,1,0,0,1-1,1H5a1,1,0,0,1-1-1V3A1,1,0,0,1,5,2Zm-.035,2H6V20H18V6.961Z" fill="#ef6c00" fill-rule="evenodd"/>
      <path id="Path-2" d="M14,2h1.078L20,7.1v.914H14Z" fill="#ef6c00" fill-rule="evenodd"/>
      <g id="Group" transform="translate(10 11)">
        <rect id="Rectangle_1262" width="1" height="5" transform="translate(0.5 1)" fill="#ef6c00"/>
        <g id="Path_710">
          <path id="Path" d="M.522,1H2.245A1.677,1.677,0,0,1,3.989,2.6,1.677,1.677,0,0,1,2.245,4.2H.522Z" fill="none" fill-rule="evenodd"/>
          <path id="Shape" d="M1.522,2V3.2h.723a.694.694,0,0,0,.745-.6A.694.694,0,0,0,2.245,2H1.522m-1-1H2.245A1.677,1.677,0,0,1,3.989,2.6,1.677,1.677,0,0,1,2.245,4.2H.522Z" fill="#ef6c00"/>
        </g>
      </g>
    </g>
  </g>
</svg>
