<svg xmlns="http://www.w3.org/2000/svg" width="16" height="16" viewBox="0 0 16 16"><defs><style>.a{fill:none;fill-rule:evenodd;}.b{fill:#75787b;}</style></defs><path class="a" d="M0,0H16V16H0Z" transform="translate(0 0)"/><path class="b" d="M0,0H.667V4H0Z" transform="translate(6.667 7.333)"/><path class="b" d="M0,0H.667V4H0Z" transform="translate(8.667 7.333)"/><path class="b" d="M5.667,13.667A1.337,1.337,0,0,0,7,15h5.333a1.337,1.337,0,0,0,1.333-1.333v-8h-8ZM7,7h5.333v6.667H7Zm5-3.333L11.333,3H8l-.667.667H5V5h9.333V3.667Z" transform="translate(-1.667 -1)"/></svg>