<svg width="136" height="124" viewBox="0 0 136 124" fill="none" xmlns="http://www.w3.org/2000/svg">
<g id="Company Reports - Empty State" clip-path="url(#clip0_1937_2991)">
<g id="Company Reports - Empty State_2">
<g id="Group 2009">
<path id="Rectangle 1117" d="M96.8823 8.79969L55.3712 2.96569C53.1836 2.65824 51.1609 4.18243 50.8535 6.37007L40.7481 78.2734C40.4407 80.4611 41.9648 82.4837 44.1525 82.7912L85.6635 88.6252C87.8512 88.9326 89.8738 87.4085 90.1813 85.2208L100.287 13.3175C100.594 11.1298 99.0699 9.10714 96.8823 8.79969Z" fill="#E1E1E2"/>
<g id="Rectangle 1118">
<path id="Vector" d="M100.576 6.9527L59.0646 1.1187C56.8769 0.811251 54.8543 2.33544 54.5468 4.52308L44.4415 76.4264C44.134 78.6141 45.6582 80.6368 47.8458 80.9442L89.3569 86.7782C91.5445 87.0857 93.5672 85.5615 93.8747 83.3738L103.98 11.4705C104.287 9.28283 102.763 7.26015 100.576 6.9527Z" fill="white"/>
<path id="Vector_2" d="M100.437 7.94298L58.9259 2.10899C57.2852 1.8784 55.7681 3.02154 55.5376 4.66227L45.4322 76.5656C45.2016 78.2064 46.3448 79.7234 47.9855 79.954L89.4965 85.788C91.1373 86.0185 92.6543 84.8754 92.8849 83.2347L102.99 11.3313C103.221 9.69058 102.078 8.17357 100.437 7.94298Z" stroke="#A3A3A3" stroke-width="2"/>
</g>
<path id="Path 740" d="M68.6876 24.222C68.2278 21.986 68.6202 19.6587 69.7877 17.697C70.4437 16.6851 71.3419 15.8527 72.4005 15.2751C73.4592 14.6976 74.6448 14.393 75.8507 14.389" stroke="#C5CAE9" stroke-width="4" stroke-linecap="round"/>
<path id="Path 741" d="M75.8452 14.374C77.4879 14.2026 79.1407 14.5808 80.5454 15.4494C81.9501 16.318 83.0272 17.6279 83.6079 19.174C84.091 20.3132 84.295 21.5513 84.2031 22.7852C84.1113 24.0192 83.726 25.2134 83.0796 26.2685C82.4331 27.3236 81.5445 28.2091 80.4868 28.8513C79.4292 29.4936 78.2333 29.874 76.999 29.961C75.1222 30.056 73.2685 29.5128 71.7397 28.4198C70.211 27.3269 69.0974 25.7486 68.5801 23.942" stroke="#021155" stroke-width="4" stroke-linecap="round"/>
<path id="Path 742" d="M63.5469 40.795L79.9746 43.0951" stroke="#C5CAE9" stroke-width="4" stroke-linecap="round"/>
<path id="Path 743" d="M63.5469 47.081L79.9746 49.381" stroke="#C5CAE9" stroke-width="4" stroke-linecap="round"/>
<path id="Path 744" d="M66.875 54.476L83.3027 56.776" stroke="#C5CAE9" stroke-width="4" stroke-linecap="round"/>
<path id="Rectangle 1119" d="M46.0522 23.5091L4.66088 31.5548C2.49233 31.9763 1.07609 34.076 1.49761 36.2445L14.7648 104.498C15.1863 106.667 17.2859 108.083 19.4545 107.661L60.8458 99.6156C63.0143 99.1941 64.4306 97.0944 64.0091 94.9259L50.7419 26.6724C50.3204 24.5038 48.2207 23.0876 46.0522 23.5091Z" fill="#E1E1E2"/>
<g id="Rectangle 1120">
<path id="Vector_3" d="M51.6262 21.8255L8.65053 27.8653C6.46289 28.1728 4.93869 30.1954 5.24615 32.3831L15.3515 104.286C15.659 106.474 17.6816 107.998 19.8693 107.691L62.8449 101.651C65.0326 101.344 66.5568 99.3209 66.2493 97.1332L56.1439 25.2299C55.8365 23.0422 53.8138 21.518 51.6262 21.8255Z" fill="white"/>
<path id="Vector_4" d="M51.7648 22.8157L8.78916 28.8556C7.14843 29.0861 6.00529 30.6031 6.23588 32.2439L16.3412 104.147C16.5718 105.788 18.0888 106.931 19.7296 106.701L62.7052 100.661C64.3459 100.43 65.4891 98.9131 65.2585 97.2724L55.1531 25.369C54.9225 23.7283 53.4055 22.5851 51.7648 22.8157Z" stroke="#A3A3A3" stroke-width="2"/>
</g>
<path id="Rectangle 1121" d="M18.1611 37.0845L18.1601 37.0846C17.5507 37.1489 17.1088 37.6951 17.1731 38.3045L18.2991 48.9749C18.3634 49.5843 18.9096 50.0262 19.519 49.9619L19.52 49.9618C20.1294 49.8975 20.5713 49.3513 20.507 48.7419L19.381 38.0715C19.3167 37.4621 18.7705 37.0202 18.1611 37.0845Z" fill="#C5CAE9" fill-opacity="0.6"/>
<path id="Rectangle 1122" d="M15.2021 37.4545L15.2011 37.4546C14.5917 37.5189 14.1498 38.0651 14.2141 38.6745L15.3401 49.3449C15.4044 49.9543 15.9506 50.3962 16.56 50.3319L16.561 50.3318C17.1704 50.2675 17.6123 49.7213 17.548 49.1119L16.422 38.4415C16.3577 37.8321 15.8115 37.3902 15.2021 37.4545Z" fill="#C5CAE9" fill-opacity="0.6"/>
<path id="Rectangle 1123" d="M21.4892 36.7145L21.4882 36.7146C20.8788 36.7789 20.4369 37.3251 20.5012 37.9345L21.6272 48.6049C21.6915 49.2143 22.2377 49.6562 22.8471 49.5919L22.8481 49.5918C23.4575 49.5275 23.8994 48.9813 23.8351 48.3719L22.7091 37.7015C22.6448 37.0921 22.0986 36.6502 21.4892 36.7145Z" fill="#C5CAE9" fill-opacity="0.6"/>
<path id="Rectangle 1124" d="M24.8173 36.3444L24.8163 36.3446C24.2069 36.4089 23.765 36.955 23.8293 37.5645L24.9554 48.2348C25.0197 48.8443 25.5658 49.2862 26.1753 49.2218L26.1763 49.2217C26.7857 49.1574 27.2276 48.6113 27.1633 48.0018L26.0372 37.3315C25.9729 36.722 25.4268 36.2801 24.8173 36.3444Z" fill="#C5CAE9" fill-opacity="0.6"/>
<path id="Rectangle 1125" d="M28.1455 35.6055L28.1445 35.6056C27.535 35.6699 27.0931 36.2161 27.1575 36.8255L28.2835 47.4959C28.3478 48.1053 28.894 48.5472 29.5034 48.4829L29.5044 48.4828C30.1138 48.4185 30.5557 47.8723 30.4914 47.2629L29.3654 36.5925C29.3011 35.9831 28.7549 35.5412 28.1455 35.6055Z" fill="#C5CAE9" fill-opacity="0.6"/>
<path id="Rectangle 1126" d="M31.8427 35.2355L31.8417 35.2356C31.2323 35.2999 30.7904 35.8461 30.8547 36.4555L31.9807 47.1259C32.0451 47.7353 32.5912 48.1772 33.2006 48.1129L33.2016 48.1128C33.8111 48.0485 34.253 47.5023 34.1887 46.8929L33.0626 36.2225C32.9983 35.6131 32.4522 35.1712 31.8427 35.2355Z" fill="#C5CAE9" fill-opacity="0.6"/>
<path id="Rectangle 1127" d="M35.54 34.8655L35.539 34.8656C34.9296 34.9299 34.4877 35.4761 34.552 36.0855L35.678 46.7559C35.7423 47.3653 36.2885 47.8072 36.8979 47.7429L36.8989 47.7428C37.5083 47.6785 37.9502 47.1323 37.8859 46.5229L36.7599 35.8525C36.6956 35.2431 36.1494 34.8012 35.54 34.8655Z" fill="#C5CAE9" fill-opacity="0.6"/>
<path id="Rectangle 1128" d="M38.8681 34.4954L38.8671 34.4956C38.2577 34.5599 37.8158 35.106 37.8801 35.7155L39.0061 46.3858C39.0704 46.9953 39.6166 47.4372 40.226 47.3728L40.227 47.3727C40.8365 47.3084 41.2784 46.7623 41.214 46.1528L40.088 35.4825C40.0237 34.873 39.4775 34.4311 38.8681 34.4954Z" fill="#C5CAE9" fill-opacity="0.6"/>
<path id="Rectangle 1129" d="M42.5654 34.1265L42.5644 34.1266C41.955 34.1909 41.5131 34.7371 41.5774 35.3465L42.7034 46.0169C42.7677 46.6263 43.3139 47.0682 43.9233 47.0039L43.9243 47.0038C44.5337 46.9395 44.9756 46.3933 44.9113 45.7839L43.7853 35.1135C43.721 34.5041 43.1748 34.0622 42.5654 34.1265Z" fill="#C5CAE9" fill-opacity="0.6"/>
<path id="Rectangle 1130" d="M45.8935 33.7565L45.8925 33.7566C45.2831 33.8209 44.8412 34.3671 44.9055 34.9765L46.0315 45.6469C46.0958 46.2563 46.642 46.6982 47.2514 46.6339L47.2524 46.6338C47.8618 46.5695 48.3037 46.0233 48.2394 45.4139L47.1134 34.7435C47.0491 34.1341 46.5029 33.6922 45.8935 33.7565Z" fill="#C5CAE9" fill-opacity="0.6"/>
<path id="Rectangle 1131" d="M49.2216 33.3865L49.2206 33.3866C48.6112 33.4509 48.1693 33.9971 48.2336 34.6065L49.3597 45.2769C49.424 45.8863 49.9701 46.3282 50.5796 46.2639L50.5805 46.2638C51.19 46.1995 51.6319 45.6533 51.5676 45.0439L50.4415 34.3735C50.3772 33.7641 49.8311 33.3222 49.2216 33.3865Z" fill="#C5CAE9" fill-opacity="0.6"/>
<path id="Rectangle 1132" d="M16.0537 45.5445L16.0527 45.5446C15.4433 45.6089 15.0014 46.155 15.0657 46.7645L15.3375 49.3405C15.4018 49.9499 15.948 50.3918 16.5574 50.3275L16.5584 50.3274C17.1678 50.2631 17.6097 49.7169 17.5454 49.1075L17.2736 46.5315C17.2093 45.922 16.6631 45.4801 16.0537 45.5445Z" fill="#021155"/>
<path id="Rectangle 1133" d="M18.8173 43.3355L18.8163 43.3356C18.2069 43.3999 17.765 43.9461 17.8293 44.5555L18.2953 48.9713C18.3596 49.5807 18.9058 50.0226 19.5152 49.9583L19.5162 49.9582C20.1256 49.8939 20.5675 49.3477 20.5032 48.7383L20.0372 44.3225C19.9729 43.7131 19.4268 43.2712 18.8173 43.3355Z" fill="#021155"/>
<path id="Rectangle 1134" d="M21.874 40.3915L21.873 40.3916C21.2636 40.4559 20.8217 41.0021 20.886 41.6115L21.6237 48.6024C21.688 49.2118 22.2342 49.6537 22.8436 49.5894L22.8446 49.5893C23.454 49.525 23.8959 48.9788 23.8316 48.3694L23.0939 41.3785C23.0296 40.7691 22.4834 40.3272 21.874 40.3915Z" fill="#021155"/>
<path id="Rectangle 1135" d="M25.706 44.8025L25.705 44.8026C25.0956 44.8669 24.6537 45.413 24.718 46.0225L24.951 48.2304C25.0153 48.8398 25.5615 49.2817 26.1709 49.2174L26.1719 49.2173C26.7813 49.153 27.2232 48.6068 27.1589 47.9974L26.9259 45.7895C26.8616 45.18 26.3154 44.7381 25.706 44.8025Z" fill="#021155"/>
<path id="Rectangle 1136" d="M28.8017 41.8565L28.8007 41.8566C28.1913 41.9209 27.7494 42.4671 27.8137 43.0765L28.2797 47.4923C28.344 48.1017 28.8902 48.5436 29.4996 48.4793L29.5006 48.4792C30.11 48.4149 30.5519 47.8687 30.4876 47.2593L30.0216 42.8435C29.9573 42.2341 29.4111 41.7922 28.8017 41.8565Z" fill="#021155"/>
<path id="Rectangle 1137" d="M31.997 36.7064L31.996 36.7066C31.3866 36.7709 30.9447 37.317 31.009 37.9265L31.9797 47.1252C32.0441 47.7346 32.5902 48.1765 33.1996 48.1122L33.2006 48.1121C33.8101 48.0478 34.252 47.5017 34.1877 46.8922L33.2169 37.6935C33.1526 37.084 32.6064 36.6421 31.997 36.7064Z" fill="#021155"/>
<path id="Rectangle 1138" d="M35.9267 38.5435L35.9257 38.5436C35.3163 38.6079 34.8744 39.1541 34.9387 39.7635L35.6764 46.7544C35.7408 47.3638 36.2869 47.8057 36.8963 47.7414L36.8973 47.7413C37.5068 47.677 37.9487 47.1308 37.8843 46.5214L37.1466 39.5305C37.0823 38.9211 36.5361 38.4792 35.9267 38.5435Z" fill="#021155"/>
<path id="Rectangle 1139" d="M39.7177 42.5865L39.7167 42.5866C39.1073 42.6509 38.6654 43.197 38.7297 43.8065L39.0016 46.3825C39.0659 46.9919 39.612 47.4338 40.2215 47.3695L40.2225 47.3694C40.8319 47.3051 41.2738 46.7589 41.2095 46.1495L40.9376 43.5735C40.8733 42.964 40.3272 42.5221 39.7177 42.5865Z" fill="#021155"/>
<path id="Rectangle 1140" d="M43.6474 44.4225L43.6464 44.4226C43.037 44.4869 42.5951 45.033 42.6594 45.6425L42.6983 46.0106C42.7626 46.62 43.3087 47.0619 43.9182 46.9976L43.9192 46.9975C44.5286 46.9332 44.9705 46.387 44.9062 45.7776L44.8673 45.4095C44.803 44.8 44.2568 44.3581 43.6474 44.4225Z" fill="#021155"/>
<path id="Rectangle 1141" d="M46.0478 35.2274L46.0468 35.2275C45.4374 35.2919 44.9955 35.838 45.0598 36.4474L46.0305 45.6462C46.0948 46.2556 46.641 46.6975 47.2504 46.6332L47.2514 46.6331C47.8608 46.5688 48.3027 46.0227 48.2384 45.4132L47.2677 36.2145C47.2034 35.605 46.6572 35.1631 46.0478 35.2274Z" fill="#021155"/>
<path id="Rectangle 1142" d="M49.5693 36.6964L49.5683 36.6965C48.9589 36.7609 48.517 37.307 48.5813 37.9164L49.3579 45.2755C49.4222 45.8849 49.9683 46.3268 50.5778 46.2625L50.5788 46.2624C51.1882 46.1981 51.6301 45.6519 51.5658 45.0425L50.7892 37.6834C50.7249 37.074 50.1787 36.6321 49.5693 36.6964Z" fill="#021155"/>
<path id="Rectangle 1143" d="M51.336 47.7998L16.1036 52.1258C15.698 52.1756 15.4095 52.5446 15.4593 52.95C15.509 53.3554 15.8782 53.6436 16.2839 53.5938L51.5163 49.2678C51.9219 49.218 52.2104 48.849 52.1606 48.4436C52.1109 48.0383 51.7417 47.75 51.336 47.7998Z" fill="#C5CAE9"/>
<path id="Rectangle 1144" d="M29.532 58.243L20.2443 59.5483C18.0566 59.8557 16.5324 61.8784 16.8399 64.0661L16.9615 64.9315C17.269 67.1192 19.2917 68.6434 21.4793 68.3359L30.767 67.0306C32.9547 66.7232 34.4789 64.7005 34.1714 62.5129L34.0498 61.6474C33.7423 59.4597 31.7196 57.9355 29.532 58.243Z" fill="#C5CAE9"/>
<path id="Rectangle 1145" d="M31.0125 70.075L21.7247 71.3803C19.5371 71.6878 18.0129 73.7104 18.3204 75.8981L18.442 76.7636C18.7495 78.9512 20.7721 80.4754 22.9598 80.168L32.2475 78.8627C34.4351 78.5552 35.9593 76.5325 35.6519 74.3449L35.5302 73.4794C35.2228 71.2918 33.2001 69.7676 31.0125 70.075Z" fill="#C5CAE9" fill-opacity="0.3"/>
<path id="Rectangle 1146" d="M49.1297 54.915L39.8419 56.2203C37.6543 56.5277 36.1301 58.5504 36.4376 60.738L36.5592 61.6035C36.8666 63.7912 38.8893 65.3154 41.077 65.0079L50.3647 63.7026C52.5523 63.3952 54.0765 61.3725 53.7691 59.1849L53.6474 58.3194C53.34 56.1317 51.3173 54.6075 49.1297 54.915Z" fill="#C5CAE9" fill-opacity="0.3"/>
<path id="Rectangle 1147" d="M50.6082 66.747L41.3204 68.0523C39.1328 68.3598 37.6086 70.3824 37.9161 72.5701L38.0377 73.4356C38.3452 75.6232 40.3678 77.1474 42.5555 76.84L51.8432 75.5347C54.0308 75.2272 55.555 73.2045 55.2476 71.0169L55.1259 70.1514C54.8185 67.9638 52.7958 66.4396 50.6082 66.747Z" fill="#C5CAE9"/>
<path id="Rectangle 1148" d="M56.2433 82.9641L21.4572 87.8529C20.7495 87.9524 20.2564 88.6067 20.3559 89.3144C20.4553 90.0221 21.1097 90.5152 21.8174 90.4157L56.6035 85.5269C57.3112 85.4274 57.8043 84.7731 57.7048 84.0654C57.6054 83.3577 56.951 82.8646 56.2433 82.9641Z" fill="#C5CAE9"/>
<path id="Rectangle 1149" d="M57.3527 89.2501L22.5666 94.1389C21.8589 94.2384 21.3658 94.8927 21.4652 95.6004C21.5647 96.3081 22.219 96.8012 22.9267 96.7018L57.7129 91.8129C58.4206 91.7134 58.9137 91.0591 58.8142 90.3514C58.7147 89.6437 58.0604 89.1506 57.3527 89.2501Z" fill="#C5CAE9"/>
<path id="Rectangle 1150" d="M131.606 50.8813L94.5863 35.165C92.5517 34.3012 90.2021 35.2504 89.3383 37.285L62.8739 99.622C62.0101 101.657 62.9593 104.006 64.9939 104.87L102.013 120.586C104.048 121.45 106.398 120.501 107.261 118.466L133.726 56.1293C134.59 54.0946 133.641 51.745 131.606 50.8813Z" fill="#E1E1E2"/>
<g id="Rectangle 1151">
<path id="Vector_5" d="M128.814 48.2473L89.5258 31.568C87.4912 30.7043 85.1416 31.6534 84.2778 33.688L55.8873 100.562C55.0235 102.596 55.9727 104.946 58.0073 105.81L97.2953 122.489C99.3299 123.353 101.68 122.404 102.543 120.369L130.934 53.4953C131.798 51.4607 130.848 49.1111 128.814 48.2473Z" fill="white"/>
<path id="Vector_6" d="M128.422 49.1683L89.1341 32.489C87.6081 31.8412 85.8459 32.5531 85.1981 34.079L56.8076 100.953C56.1598 102.479 56.8716 104.241 58.3976 104.889L97.6856 121.568C99.2116 122.216 100.974 121.504 101.622 119.978L130.012 53.1043C130.66 51.5784 129.948 49.8161 128.422 49.1683Z" stroke="#A3A3A3" stroke-width="2.00112"/>
</g>
<path id="Path 745" d="M79.0317 78.704L70.7559 98.163L89.5288 106.563" stroke="#021155" stroke-width="4" stroke-linecap="round" stroke-linejoin="round"/>
<path id="Path 746" d="M73.7246 96.882L86.5566 90.4611L88.7754 97.5911L95.2754 94.2401" stroke="#021155" stroke-width="4" stroke-linecap="round" stroke-linejoin="round"/>
<path id="Path 747" d="M83.6777 49.22L89.02 51.838" stroke="#C5CAE9" stroke-width="4" stroke-linecap="round"/>
<path id="Path 748" d="M81.8301 53.657L85.1182 55.239" stroke="#C5CAE9" stroke-width="4" stroke-linecap="round"/>
<path id="Path 749" d="M79.6113 59.204L84.4004 61.581" stroke="#C5CAE9" stroke-width="4" stroke-linecap="round"/>
<path id="Path 750" d="M77.7617 63.641L81.8521 65.594" stroke="#C5CAE9" stroke-width="4" stroke-linecap="round"/>
<path id="Path 751" d="M87.0059 68.078L92.5688 70.57" stroke="#C5CAE9" stroke-width="4" stroke-linecap="round"/>
<path id="Path 752" d="M93.6621 53.657L103.962 58.68" stroke="#C5CAE9" stroke-width="4" stroke-linecap="round"/>
<path id="Path 753" d="M91.3965 58.925L109.674 67.0898" stroke="#C5CAE9" stroke-width="4.00058" stroke-linecap="round"/>
<path id="Path 754" d="M89.5469 63.362L107.824 71.5267" stroke="#C5CAE9" stroke-width="4.00058" stroke-linecap="round"/>
<path id="Path 755" d="M108.822 60.683L119.123 65.706" stroke="#C5CAE9" stroke-width="4" stroke-linecap="round"/>
</g>
</g>
</g>
<defs>
<clipPath id="clip0_1937_2991">
<rect width="134.532" height="123.438" fill="white" transform="translate(0.734375 0.562012)"/>
</clipPath>
</defs>
</svg>
