<svg xmlns="http://www.w3.org/2000/svg" width="16" height="16" viewBox="0 0 16 16"><defs><style>.a{fill:none;fill-rule:evenodd;}.b{fill:#75787b;}</style></defs><path class="a" d="M0,0H16V16H0Z"/><path class="b" d="M12.333,11a1.786,1.786,0,0,0-1.22.492L6.677,8.841a1.816,1.816,0,0,0,0-.9l4.387-2.628a1.832,1.832,0,0,0,1.269.518A1.89,1.89,0,0,0,14.2,3.918a1.867,1.867,0,1,0-3.733,0,2.147,2.147,0,0,0,.056.448L6.136,6.993a1.832,1.832,0,0,0-1.269-.518,1.919,1.919,0,0,0,0,3.836,1.832,1.832,0,0,0,1.269-.518l4.43,2.66A1.81,1.81,0,1,0,12.333,11Z" transform="translate(-0.6 -0.4)"/></svg>