<svg width="128" height="133" viewBox="0 0 128 133" fill="none" xmlns="http://www.w3.org/2000/svg">
<g id="Group 11937">
<path id="Path 30620" opacity="0.5" d="M61.9434 61.1247C61.9434 61.1247 87.296 48.9585 91.755 48.2615C96.214 47.5645 100.097 46.0812 108.667 47.4802C117.237 48.8792 124.468 57.806 125.603 62.822C126.738 67.838 128.345 70.0764 126.354 79.4294C124.363 88.7824 120.811 93.2478 120.811 93.2478L100.888 122.931C100.888 122.931 95.6542 130.76 90.2872 132.59C84.9202 134.42 76.6947 129.625 73.0587 128.129C69.4227 126.633 53.7419 117.166 47.8389 117.541C41.9359 117.916 17.1759 116.049 17.1759 116.049C17.1759 116.049 4.69658 116.028 1.89558 110.885C-0.90542 105.742 1.37426 97.3064 7.24226 88.5974C13.1103 79.8884 24.5428 73.9825 26.4298 72.9275C28.3168 71.8725 61.9434 61.1247 61.9434 61.1247Z" fill="#E8EAF6"/>
<g id="Cloud">
<path id="Vector" d="M102.432 95.5521L102.439 96.3539L102.964 96.0906C105.839 97.2356 108.237 99.331 109.757 102.031C111.313 104.794 111.85 108.015 111.276 111.134C110.701 114.253 109.051 117.071 106.613 119.098C104.175 121.126 101.103 122.234 97.9316 122.23H97.9309H34.8607H34.8596C29.8381 122.241 25.0096 120.296 21.3976 116.808C17.7856 113.319 15.674 108.561 15.5103 103.543C15.3466 98.5238 17.1437 93.6384 20.5208 89.9221C23.8978 86.2058 28.5893 83.9506 33.6008 83.6345L33.9758 83.6108L34.0574 83.2441C35.0723 78.684 37.4797 74.5522 40.9464 71.4206C44.413 68.289 48.7674 66.3126 53.4069 65.7648C58.0463 65.2171 62.7413 66.1252 66.8419 68.3634C70.9425 70.6015 74.2459 74.0591 76.2948 78.2575L76.4991 78.6762L76.9312 78.5019C79.7355 77.3707 82.7736 76.9418 85.7814 77.2526C88.7892 77.5634 91.6755 78.6045 94.1892 80.2852C96.7029 81.9659 98.7678 84.2354 100.204 86.8961C101.641 89.5569 102.405 92.5284 102.432 95.5521ZM34.8607 122.73H97.9309L33.5694 83.1355C28.4281 83.4597 23.6152 85.7733 20.1507 89.5859C16.6863 93.3984 14.8426 98.4101 15.0105 103.559C15.1785 108.708 17.3448 113.589 21.0503 117.167C24.7558 120.746 29.7092 122.741 34.8607 122.73Z" fill="#021155" stroke="#E1E1E3"/>
<path id="Vector_2" d="M88.7454 89.1449H38.2735C37.8626 89.143 37.4692 88.9788 37.1791 88.6879C36.8889 88.3971 36.7255 88.0033 36.7246 87.5925C36.7256 87.182 36.889 86.7886 37.1793 86.4983C37.4696 86.2081 37.863 86.0446 38.2735 86.0436H88.7454C89.1559 86.0446 89.5493 86.2081 89.8396 86.4983C90.1298 86.7886 90.2933 87.182 90.2942 87.5925C90.2933 88.0033 90.1299 88.3971 89.8398 88.6879C89.5496 88.9788 89.1562 89.143 88.7454 89.1449Z" fill="#DADADA"/>
<path id="Vector_3" d="M81.133 110.106H45.8849C44.5036 110.106 43.1789 109.558 42.2022 108.581C41.2255 107.604 40.6768 106.279 40.6768 104.898C40.6768 103.517 41.2255 102.192 42.2022 101.215C43.1789 100.239 44.5036 99.69 45.8849 99.69H81.133C82.5143 99.69 83.839 100.239 84.8157 101.215C85.7924 102.192 86.3412 103.517 86.3412 104.898C86.3412 106.279 85.7924 107.604 84.8157 108.581C83.839 109.558 82.5143 110.106 81.133 110.106ZM45.8849 100.048C44.5985 100.048 43.3648 100.559 42.4551 101.468C41.5455 102.378 41.0345 103.612 41.0345 104.898C41.0345 106.185 41.5455 107.418 42.4551 108.328C43.3648 109.238 44.5985 109.749 45.8849 109.749H81.133C82.4194 109.749 83.6532 109.238 84.5628 108.328C85.4724 107.418 85.9835 106.185 85.9835 104.898C85.9835 103.612 85.4724 102.378 84.5628 101.468C83.6532 100.559 82.4194 100.048 81.133 100.048H45.8849Z" fill="white"/>
<path id="Vector_4" d="M81.1027 108.854L45.8921 108.854C44.8409 108.855 43.8322 108.439 43.0872 107.698C42.3422 106.956 41.9218 105.949 41.918 104.898C41.9208 103.849 42.3384 102.844 43.0796 102.103C43.8208 101.361 44.8255 100.942 45.8742 100.938L81.0848 100.938C82.1335 100.942 83.1382 101.361 83.8794 102.103C84.6206 102.844 85.0382 103.849 85.041 104.898C85.0373 105.943 84.6217 106.945 83.8845 107.685C83.1472 108.426 82.1477 108.846 81.1027 108.854Z" fill="white"/>
<path id="Vector_5" d="M88.1869 59.0764L81.4942 87.5925H41.5674L52.7349 40.0001L80.3818 46.4853L88.1869 59.0764Z" fill="#E1E1E3"/>
<path id="Vector_6" d="M90.1869 58.0764L83.4942 86.5925H43.5674L54.7349 39.0001L82.3818 45.4853L90.1869 58.0764Z" fill="#FAFAFA"/>
<path id="Vector_7" d="M84.9785 64.3776L54.6524 57.2593C54.5487 57.2353 54.4508 57.191 54.3643 57.1291C54.2777 57.0672 54.2043 56.9887 54.1481 56.8983C54.092 56.808 54.0542 56.7074 54.037 56.6023C54.0198 56.4973 54.0235 56.3899 54.0479 56.2863C54.0965 56.0768 54.2262 55.895 54.4086 55.781C54.591 55.667 54.8112 55.63 55.0209 55.6782L85.3505 62.7858C85.5597 62.8359 85.7406 62.9667 85.8538 63.1496C85.967 63.3325 86.0034 63.5527 85.955 63.7623C85.9064 63.973 85.7765 64.1559 85.5935 64.2711C85.4106 64.3864 85.1895 64.4247 84.9785 64.3776Z" fill="#021155"/>
<path id="Vector_8" d="M83.8194 69.3139L53.4933 62.1956C53.3895 62.1712 53.2915 62.1265 53.2049 62.0643C53.1184 62.002 53.0449 61.9232 52.9888 61.8325C52.9326 61.7419 52.8949 61.641 52.8778 61.5357C52.8606 61.4305 52.8644 61.3229 52.8888 61.219C52.939 61.0099 53.0697 60.829 53.2526 60.7157C53.4355 60.6025 53.6557 60.5661 53.8653 60.6145L84.1914 67.7328C84.4003 67.7822 84.5812 67.9122 84.6945 68.0945C84.8078 68.2769 84.8442 68.4966 84.7959 68.7058C84.7466 68.9156 84.6161 69.0974 84.4331 69.2113C84.2502 69.3253 84.0295 69.3621 83.8194 69.3139Z" fill="#021155"/>
<path id="Vector_9" d="M82.6605 74.2323L52.3344 67.1176C52.1252 67.0675 51.9443 66.9367 51.8311 66.7538C51.7179 66.5709 51.6815 66.3507 51.7299 66.1411C51.7809 65.9324 51.9118 65.7521 52.0945 65.639C52.2771 65.5259 52.4969 65.4891 52.7064 65.5366L83.0325 72.6513C83.1363 72.6757 83.2343 72.7203 83.3209 72.7826C83.4075 72.8449 83.4809 72.9236 83.5371 73.0143C83.5932 73.105 83.6309 73.2059 83.6481 73.3111C83.6652 73.4164 83.6615 73.524 83.637 73.6278C83.6126 73.7316 83.568 73.8296 83.5057 73.9162C83.4434 74.0028 83.3647 74.0762 83.274 74.1324C83.1833 74.1885 83.0824 74.2262 82.9772 74.2434C82.8719 74.2605 82.7643 74.2568 82.6605 74.2323Z" fill="#021155"/>
<path id="Vector_10" d="M81.5052 79.1829L51.1755 72.0861C50.9668 72.0351 50.7865 71.9042 50.6734 71.7215C50.5604 71.5388 50.5236 71.3191 50.571 71.1096C50.6211 70.9004 50.7519 70.7195 50.9348 70.6063C51.1177 70.493 51.3379 70.4566 51.5475 70.505L81.8736 77.6198C82.0829 77.67 82.2641 77.8006 82.3779 77.9833C82.4917 78.1661 82.529 78.3863 82.4817 78.5963C82.4285 78.8027 82.2963 78.9798 82.1136 79.0896C81.9309 79.1993 81.7124 79.2329 81.5052 79.1829Z" fill="#021155"/>
<path id="Vector_11" d="M68.2877 81.2898L50.0198 76.9974C49.8128 76.9449 49.6348 76.813 49.5243 76.6302C49.4138 76.4475 49.3798 76.2285 49.4296 76.0208C49.4536 75.9172 49.4979 75.8192 49.5598 75.7327C49.6218 75.6461 49.7002 75.5727 49.7906 75.5165C49.881 75.4604 49.9816 75.4226 50.0866 75.4054C50.1916 75.3882 50.299 75.3919 50.4026 75.4163L68.6741 79.7088C68.7779 79.7332 68.8759 79.7778 68.9625 79.8401C69.049 79.9024 69.1225 79.9811 69.1786 80.0718C69.2348 80.1625 69.2725 80.2633 69.2896 80.3686C69.3068 80.4739 69.303 80.5815 69.2786 80.6853C69.2543 80.7906 69.2092 80.8901 69.1459 80.9777C69.0827 81.0654 69.0026 81.1396 68.9103 81.1959C68.818 81.2522 68.7154 81.2895 68.6085 81.3056C68.5016 81.3218 68.3925 81.3164 68.2877 81.2898Z" fill="#021155"/>
<path id="Vector_12" d="M90.1864 59.0764L79.9883 56.6834L82.3813 46.4852L90.1864 59.0764Z" fill="#021155"/>
</g>
<g id="speech-bubble">
<path id="Vector_13" d="M119.293 6.10352e-05H93.7147C92.7295 6.10352e-05 91.7847 0.391431 91.088 1.08807C90.3914 1.78471 90 2.72957 90 3.71477V28.582C90 29.5672 90.3914 30.512 91.088 31.2087C91.7847 31.9053 92.7295 32.2967 93.7147 32.2967H101.899L96.389 39.7847L105.914 32.2967H119.285C120.27 32.2967 121.215 31.9053 121.912 31.2087C122.609 30.512 123 29.5672 123 28.582V3.71477C123 2.73083 122.61 1.78709 121.915 1.09065C121.22 0.394224 120.277 0.00200173 119.293 6.10352e-05Z" fill="#EBEBEB"/>
<path id="Vector_14" opacity="0.6" d="M119.293 6.10352e-05H93.7147C92.7295 6.10352e-05 91.7847 0.391431 91.088 1.08807C90.3914 1.78471 90 2.72957 90 3.71477V28.582C90 29.5672 90.3914 30.512 91.088 31.2087C91.7847 31.9053 92.7295 32.2967 93.7147 32.2967H101.899L96.389 39.7847L105.914 32.2967H119.285C120.27 32.2967 121.215 31.9053 121.912 31.2087C122.609 30.512 123 29.5672 123 28.582V3.71477C123 2.73083 122.61 1.78709 121.915 1.09065C121.22 0.394224 120.277 0.00200173 119.293 6.10352e-05Z" fill="#F3F4FA"/>
<path id="Vector_15" d="M106.508 27.7617C112.921 27.7617 118.121 22.5623 118.121 16.1486C118.121 9.73496 112.921 4.53564 106.508 4.53564C100.094 4.53564 94.8945 9.73496 94.8945 16.1486C94.8945 22.5623 100.094 27.7617 106.508 27.7617Z" fill="#388E3C"/>
<path id="Vector_16" opacity="0.2" d="M116.194 18.4283C117.458 13.0762 114.143 7.71337 108.791 6.45015C103.439 5.18694 98.0759 8.50166 96.8126 13.8538C95.5494 19.2059 98.8641 24.5687 104.216 25.8319C109.568 27.0952 114.931 23.7804 116.194 18.4283Z" fill="black"/>
<path id="Vector_17" d="M105.269 20.9034C105.134 20.9063 105 20.8826 104.875 20.8336C104.749 20.7845 104.634 20.7112 104.537 20.6177L100.309 16.478C100.115 16.2896 100.003 16.0316 99.9991 15.7609C99.995 15.4902 100.099 15.229 100.287 15.0347C100.476 14.8403 100.734 14.7289 101.004 14.7247C101.275 14.7206 101.536 14.8242 101.73 15.0127L105.196 18.405L111.189 11.7156C111.373 11.5304 111.621 11.4228 111.882 11.4149C112.143 11.4071 112.396 11.4997 112.591 11.6736C112.786 11.8474 112.906 12.0893 112.927 12.3494C112.949 12.6094 112.87 12.8677 112.706 13.0711L106.002 20.5518C105.91 20.6552 105.797 20.7385 105.671 20.7965C105.545 20.8545 105.408 20.8859 105.269 20.8888V20.9034Z" fill="white"/>
</g>
</g>
</svg>
