<svg xmlns="http://www.w3.org/2000/svg" width="16" height="16" viewBox="0 0 16 16">
  <g id="File_Download_White" data-name="File Download White" transform="translate(-40 -628)">
    <rect id="Rectangle_899" data-name="Rectangle 899" width="16" height="16" transform="translate(40 628)" fill="none"/>
    <g id="Group_1491" data-name="Group 1491" transform="translate(1.75 2)">
      <g id="Group_1314" data-name="Group 1314" transform="translate(40 626)">
        <g id="Path_652" data-name="Path 652" transform="translate(0)" fill="none">
          <path d="M1.562,0H8.594L12.5,4V14.4A1.582,1.582,0,0,1,10.937,16H1.562A1.582,1.582,0,0,1,0,14.4V1.6A1.582,1.582,0,0,1,1.562,0Z" stroke="none"/>
          <path d="M 1.562499046325684 1.499995231628418 C 1.540688514709473 1.499995231628418 1.499999046325684 1.534336090087891 1.499999046325684 1.599995613098145 L 1.499999046325684 14.39999580383301 C 1.499999046325684 14.46565532684326 1.540688514709473 14.49999618530273 1.562499046325684 14.49999618530273 L 10.93749809265137 14.49999618530273 C 10.95930862426758 14.49999618530273 10.99999809265137 14.46565532684326 10.99999809265137 14.39999580383301 L 10.99999809265137 4.610921859741211 L 7.961985111236572 1.499995231628418 L 1.562499046325684 1.499995231628418 M 1.562499046325684 -4.76837158203125e-06 L 8.593748092651367 -4.76837158203125e-06 L 12.49999809265137 3.999995231628418 L 12.49999809265137 14.39999580383301 C 12.49999809265137 15.28364562988281 11.80043888092041 15.99999618530273 10.93749809265137 15.99999618530273 L 1.562499046325684 15.99999618530273 C 0.6995582580566406 15.99999618530273 -9.5367431640625e-07 15.28364562988281 -9.5367431640625e-07 14.39999580383301 L -9.5367431640625e-07 1.599995613098145 C -9.5367431640625e-07 0.7163457870483398 0.6995582580566406 -4.76837158203125e-06 1.562499046325684 -4.76837158203125e-06 Z" stroke="none" fill="#50505c"/>
        </g>
        <path id="Path_653" data-name="Path 653" d="M4.165,0V4.165H0Z" transform="translate(12.165 0.5) rotate(90)" fill="#50505c"/>
        <path id="Path_663" data-name="Path 663" d="M3.179,3.673,3.671,0,0,.494Z" transform="translate(8.841 10.404) rotate(135)" fill="#50505c"/>
      </g>
      <g id="Group_1407" data-name="Group 1407" transform="translate(45.5 631.637)">
        <rect id="Rectangle_923" data-name="Rectangle 923" width="5" height="1.5" transform="translate(0 5) rotate(-90)" fill="#50505c"/>
      </g>
    </g>
  </g>
</svg>
