<svg xmlns="http://www.w3.org/2000/svg" width="40" height="32" viewBox="0 0 40 32">
  <g id="Group_9189" data-name="Group 9189" transform="translate(-35 -1069)">
    <g id="Rectangle" transform="translate(35 1069)" fill="#fff">
      <path d="M 36 31.5 L 4 31.5 C 2.070090055465698 31.5 0.5 29.92991065979004 0.5 28 L 0.5 4 C 0.5 2.070090055465698 2.070090055465698 0.5 4 0.5 L 36 0.5 C 37.92990875244141 0.5 39.5 2.070090055465698 39.5 4 L 39.5 28 C 39.5 29.92991065979004 37.92990875244141 31.5 36 31.5 Z" stroke="none"/>
      <path d="M 4 1 C 2.345790863037109 1 1 2.345790863037109 1 4 L 1 28 C 1 29.65420913696289 2.345790863037109 31 4 31 L 36 31 C 37.65420913696289 31 39 29.65420913696289 39 28 L 39 4 C 39 2.345790863037109 37.65420913696289 1 36 1 L 4 1 M 4 0 L 36 0 C 38.20914077758789 0 40 1.790859222412109 40 4 L 40 28 C 40 30.20914077758789 38.20914077758789 32 36 32 L 4 32 C 1.790859222412109 32 0 30.20914077758789 0 28 L 0 4 C 0 1.790859222412109 1.790859222412109 0 4 0 Z" stroke="none" fill="#021155"/>
    </g>
    <g id="File_Upload_Grey" data-name="File Upload Grey" transform="translate(7 449)">
      <rect id="Rectangle_899" data-name="Rectangle 899" width="24" height="24" transform="translate(36 624)" fill="none"/>
      <g id="Group_1491" data-name="Group 1491" transform="translate(1.75 2)">
        <g id="Group_1314" data-name="Group 1314" transform="translate(40 626)">
          <g id="Path_652" data-name="Path 652" transform="translate(0)" fill="none">
            <path d="M1.562,0H8.594L12.5,4V14.4A1.582,1.582,0,0,1,10.937,16H1.562A1.582,1.582,0,0,1,0,14.4V1.6A1.582,1.582,0,0,1,1.562,0Z" stroke="none"/>
            <path d="M 1.562499046325684 1.499995231628418 C 1.540688514709473 1.499995231628418 1.499999046325684 1.534336090087891 1.499999046325684 1.599995613098145 L 1.499999046325684 14.39999580383301 C 1.499999046325684 14.46565532684326 1.540688514709473 14.49999618530273 1.562499046325684 14.49999618530273 L 10.93749809265137 14.49999618530273 C 10.95930862426758 14.49999618530273 10.99999809265137 14.46565532684326 10.99999809265137 14.39999580383301 L 10.99999809265137 4.610921859741211 L 7.961985111236572 1.499995231628418 L 1.562499046325684 1.499995231628418 M 1.562499046325684 -4.76837158203125e-06 L 8.593748092651367 -4.76837158203125e-06 L 12.49999809265137 3.999995231628418 L 12.49999809265137 14.39999580383301 C 12.49999809265137 15.28364562988281 11.80043888092041 15.99999618530273 10.93749809265137 15.99999618530273 L 1.562499046325684 15.99999618530273 C 0.6995582580566406 15.99999618530273 -9.5367431640625e-07 15.28364562988281 -9.5367431640625e-07 14.39999580383301 L -9.5367431640625e-07 1.599995613098145 C -9.5367431640625e-07 0.7163457870483398 0.6995582580566406 -4.76837158203125e-06 1.562499046325684 -4.76837158203125e-06 Z" stroke="none" fill="#021155"/>
          </g>
          <path id="Path_653" data-name="Path 653" d="M4.165,0V4.165H0Z" transform="translate(12.165 0.5) rotate(90)" fill="#021155"/>
        </g>
        <g id="Group_1573" data-name="Group 1573">
          <path id="Path_663" data-name="Path 663" d="M3.673.492l.492,3.673L.494,3.671Z" transform="translate(46.245 637.527) rotate(-135)" fill="#021155"/>
          <g id="Group_1407" data-name="Group 1407" transform="translate(45.5 632)">
            <rect id="Rectangle_923" data-name="Rectangle 923" width="5" height="1.5" transform="translate(1.5 2) rotate(90)" fill="#021155"/>
          </g>
        </g>
      </g>
    </g>
  </g>
</svg>
