<svg xmlns="http://www.w3.org/2000/svg" width="16" height="16" viewBox="0 0 16 16"><defs><style>.a{fill:none;}.b{fill:#fff;fill-rule:evenodd;}</style></defs><g transform="translate(4 2)"><g transform="translate(-4 -2)"><rect class="a" width="16" height="16"/><path class="b" d="M11.374,2l3.278,3.393V6h0v8.646a.666.666,0,0,1-.666.666H4.666A.666.666,0,0,1,4,14.648V2.666A.666.666,0,0,1,4.666,2Zm-.718,1.331H5.331V13.982h7.988V6H10.657ZM9.325,7.325l2,1.972-.563.556L9.725,8.836v3.814h-.8V8.836L7.891,9.854,7.328,9.3Z" transform="translate(-1.337 -0.669)"/></g></g></svg>